<?xml version="1.0" encoding="utf-8"?>
<!-- Generator: Adobe Illustrator 24.2.3, SVG Export Plug-In . SVG Version: 6.00 Build 0)  -->
<svg version="1.1" id="Layer_1" xmlns="http://www.w3.org/2000/svg" xmlns:xlink="http://www.w3.org/1999/xlink" x="0px" y="0px"
	 viewBox="0 0 288 288" style="enable-background:new 0 0 288 288;" xml:space="preserve">
<style type="text/css">
	.st0{fill:#F0F0F0;}
</style>
<g>
	<path class="st0" d="M144,0C64.5,0,0,64.5,0,144c0,79.5,64.5,144,144,144c79.5,0,144-64.5,144-144C288,64.5,223.5,0,144,0z
		 M98.8,182.9H77.1v-6.6c-4.7,4.5-11.4,7.3-17.8,7.3c-21.8,0-39.5-17.7-39.5-39.5s17.7-39.5,39.5-39.5s39.5,17.7,39.5,39.5V182.9z
		 M143.8,183.6c-21.8,0-39.5-17.7-39.5-39.5v-59h22.1v24.8c5.1-3.5,11.4-5.4,17.4-5.4c21.8,0,39.5,17.7,39.5,39.5
		S165.6,183.6,143.8,183.6z M228.6,183.6c-21.8,0-39.5-17.7-39.5-39.5s17.7-39.5,39.5-39.5c19.8,0,36.5,14.7,39.1,34.3h-22.6
		c-2.2-7-8.8-12.1-16.6-12.1c-9.6,0-17.4,7.8-17.4,17.4c0,9.6,7.8,17.4,17.4,17.4c7.8,0,14.3-5.1,16.6-12.1h22.6
		C265,168.9,248.3,183.5,228.6,183.6z"/>
	<path class="st0" d="M59.3,126.7c-9.6,0-17.4,7.8-17.4,17.4c0,9.6,7.8,17.4,17.4,17.4c9.6,0,17.4-7.8,17.4-17.4
		C76.6,134.5,68.9,126.7,59.3,126.7z"/>
	<path class="st0" d="M143.8,126.7c-9.6,0-17.4,7.8-17.4,17.4c0,9.6,7.8,17.4,17.4,17.4c9.6,0,17.4-7.8,17.4-17.4
		C161.2,134.5,153.4,126.7,143.8,126.7z"/>
</g>
</svg>
