<svg enable-background="new 0 0 288 288" viewBox="0 0 288 288" xmlns="http://www.w3.org/2000/svg"><g fill="#f0f0f0"><path d="m144 0c-79.5 0-144 64.5-144 144s64.5 144 144 144 144-64.5 144-144-64.5-144-144-144zm-45.2 182.9h-21.7v-6.6c-4.7 4.5-11.4 7.3-17.8 7.3-21.8 0-39.5-17.7-39.5-39.5s17.7-39.5 39.5-39.5 39.5 17.7 39.5 39.5zm45 .7c-21.8 0-39.5-17.7-39.5-39.5v-59h22.1v24.8c5.1-3.5 11.4-5.4 17.4-5.4 21.8 0 39.5 17.7 39.5 39.5s-17.7 39.6-39.5 39.6zm84.8 0c-21.8 0-39.5-17.7-39.5-39.5s17.7-39.5 39.5-39.5c19.8 0 36.5 14.7 39.1 34.3h-22.6c-2.2-7-8.8-12.1-16.6-12.1-9.6 0-17.4 7.8-17.4 17.4s7.8 17.4 17.4 17.4c7.8 0 14.3-5.1 16.6-12.1h22.6c-2.7 19.4-19.4 34-39.1 34.1z"/><path d="m59.3 126.7c-9.6 0-17.4 7.8-17.4 17.4s7.8 17.4 17.4 17.4 17.4-7.8 17.4-17.4c-.1-9.6-7.8-17.4-17.4-17.4z"/><path d="m143.8 126.7c-9.6 0-17.4 7.8-17.4 17.4s7.8 17.4 17.4 17.4 17.4-7.8 17.4-17.4-7.8-17.4-17.4-17.4z"/></g></svg>