<svg height="122" width="660" xmlns="http://www.w3.org/2000/svg"><g transform="translate(98.1395 283.56298)"><g fill="#221e1f"><path d="m-40.084636-236.75949c.144128-6.31282 1.892884-9.96407 7.965488-9.96407 4.868333 0 6.866911 2.86014 6.866911 7.27047 0 5.55374-1.207474 6.61388-7.802143 8.36264-6.072604 1.62064-14.163004 2.96264-19.572618 5.94769-5.387194 2.96584-8.903924 10.09859-8.903924 18.63739 0 15.74841 7.155168 22.24059 19.42849 22.24059 7.299296 0 14.166207-3.77616 17.141655-10.25873h.291459c.08327 2.84093.374734 5.81638 1.185055 8.36264h21.0299145c-2.5398602-3.22206-2.5398602-10.26513-2.5398602-15.77724v-37.51498c0-15.36407-7.9654883-21.56159-25.9174643-21.56159-9.028835 0-15.245567 1.20427-20.344505 4.69218-5.137372 3.51352-8.0904 9.59894-8.237731 19.56301zm-.393951 28.08259c0-4.06762 1.079361-6.36727 3.369399-8.08079 2.017795-1.62385 4.99004-1.76798 11.856951-5.41923 0 2.96264-.102491 6.77083-.102491 12.82422 0 7.26086-4.205342 9.98328-8.779012 9.98328-4.058012 0-6.344847-3.50392-6.344847-9.30748"/><path d="m41.123632-186.16087h21.052335v-96.32251h-21.862656v31.30786h-.272242c-3.616018-7.84058-10.252324-9.83916-16.305711-9.83916-17.9519756 0-21.1548259 16.30891-21.1548259 38.98189 0 27.24024 7.7989409 37.76801 22.5064289 37.76801 9.691825 0 14.166207-5.79716 15.767632-10.80962h.269039zm-.39395-36.01605c0 14.1534-1.374023 21.98437-7.821361 21.98437-8.237731 0-8.52919-11.17795-8.52919-22.9196 0-13.24058.416371-22.00038 8.381859-22.00038 7.42741 0 7.968692 9.97368 7.968692 22.93561"/><path d="m129.74009-186.16087h-21.02991v-8.63168h-.27224c-3.09716 6.47937-9.442007 10.52777-17.513189 10.52777-12.439871 0-19.053756-6.20072-19.053756-20.25162v-54.615h21.859453v49.7787c0 5.25267 2.309255 8.33061 6.344842 8.33061 4.16371 0 7.82457-3.21246 7.82457-10.34841v-47.7609h21.84023z"/><path d="m139.99562-282.48338h21.86266v96.32251h-21.86266z"/><path d="m177.37609-244.02996h-9.04806v-15.10144h9.04806v-21.44629h21.86265v21.44629h10.1082v15.10144h-10.1082v36.83918c0 5.09894 1.87367 6.71958 7.00784 6.71958.93523 0 2.16512-.12491 3.10036-.24982v14.56015c-4.17972.54129-8.38186.81033-12.54557.81033-15.09823 0-19.42528-2.6904-19.42528-19.69753z"/><path d="m254.75695-209.3527c.16655 3.24448.41637 6.0726 1.49573 8.23452 1.22989 2.03061 3.22847 3.3726 6.76442 3.3726 5.11495 0 7.81816-3.27651 7.81816-7.4274 0-3.37901-1.62065-6.60428-8.36265-8.90073-17.95197-6.05659-26.58045-9.57011-26.58045-24.9534 0-14.57297 10.25232-21.98757 27.80715-21.98757 20.48863 0 26.44273 9.96407 26.44273 20.49184v2.45338h-19.44771v-1.38363c0-6.31282-2.56228-8.05197-7.15837-8.05197-5.80356 0-7.42421 2.79929-7.42421 6.70997 0 12.94913 34.9463 4.34627 34.9463 32.66908 0 14.68507-9.86157 23.86123-27.89682 23.86123-19.57582 0-27.81035-7.28008-27.81035-21.84344v-3.24448z"/><path d="m293.61393-259.1314h21.84023l7.05268 53.81429h.24982l8.21851-53.81429h23.4833l7.69645 53.81429h.24982l7.72208-53.81429h21.02671l-15.76763 72.97053h-24.69078l-7.94627-53.8335h-.26904l-8.52919 53.8335h-25.0655z"/><path d="m397.62329-283.56274h21.88187v16.73489h-21.88187zm0 24.43134h21.88187v72.97053h-21.88187z"/><path d="m429.46923-259.1314h21.02991v8.62207h.29146c3.08114-6.49218 9.44521-10.50535 17.51639-10.50535 6.34164 0 14.7267 1.20427 17.94877 11.18115 5.163-8.47794 9.98649-11.18115 18.09931-11.18115 12.39823 0 18.9929 6.19752 18.9929 20.21959v54.63422h-21.86266v-49.77869c0-5.25268-2.26761-8.35944-6.32563-8.35944-4.17971 0-7.84057 3.25409-7.84057 10.39965v47.73848h-21.84344v-49.77869c0-5.25268-2.28363-8.35944-6.34485-8.35944-4.1605 0-7.81816 3.25409-7.81816 10.39965v47.73848h-21.84343z"/><path d="m-98.1395-282.66915h34.132775v15.11105h-13.913181v90.90329h13.913181v15.09183h-34.132775z"/><path d="m528.31879-176.65481h13.89397v-90.90329h-13.89397v-15.11105h34.09434v121.10617h-34.09434z"/></g><g fill="#fff"><path d="m579.99038 216.24524v1.75837h-5.09574v13.27261h-2.06263v-13.27261h-5.09574v-1.75837z"/><path d="m581.38041 216.24524h2.9146l4.39111 12.72172 4.25979-12.72172h2.91459v15.03098h-1.93132v-8.81745c0-.36192 0-.86157.0384-1.61103v-2.26762l-4.30464 12.6961h-2.01779l-4.42954-12.6961v.4452c0 .35231.0416.94804.0801 1.6943v1.73915 8.81745h-1.91531z"/><path d="m-40.084636 156.15336c.144128-6.31602 1.892884-9.96406 7.965488-9.96406 4.868333 0 6.866911 2.86014 6.866911 7.26726 0 5.55695-1.207474 6.61709-7.802143 8.36585-6.072604 1.62384-14.163004 2.96264-19.572618 5.94769-5.387194 2.96584-8.903924 10.09859-8.903924 18.64059 0 15.74521 7.155168 22.23419 19.42849 22.23419 7.299296 0 14.166207-3.77616 17.141655-10.25553h.291459c.08327 2.84413.374734 5.81638 1.185055 8.36264h21.0299145c-2.5398602-3.22527-2.5398602-10.26513-2.5398602-15.77724v-37.51819c0-15.35766-7.9654883-21.55838-25.9174643-21.55838-9.028835 0-15.245567 1.20427-20.344505 4.69218-5.137372 3.51672-8.0904 9.59894-8.237731 19.563zm-.393951 28.0858c0-4.07082 1.079361-6.37047 3.369399-8.084 2.017795-1.62384 4.99004-1.76797 11.856951-5.41922 0 2.96264-.102491 6.77083-.102491 12.82101 0 7.26407-4.205342 9.98649-8.779012 9.98649-4.058012 0-6.344847-3.50392-6.344847-9.30428"/><path d="m41.123632 206.75199h21.052335v-96.32252h-21.862656v31.30466h-.272242c-3.616018-7.84057-10.252324-9.83595-16.305711-9.83595-17.9519756 0-21.1548259 16.30891-21.1548259 38.98509 0 27.24024 7.7989409 37.76161 22.5064289 37.76161 9.691825 0 14.166207-5.79076 15.767632-10.80642h.269039zm-.39395-36.01605c0 14.1534-1.374023 21.98437-7.821361 21.98437-8.237731 0-8.52919-11.17795-8.52919-22.9228 0-13.24059.416371-21.99718 8.381859-21.99718 7.42741 0 7.968692 9.97368 7.968692 22.93561"/><path d="m129.74009 206.75199h-21.02991v-8.62848h-.27224c-3.09716 6.47617-9.442007 10.52137-17.513189 10.52137-12.439871 0-19.053756-6.19752-19.053756-20.25162v-54.6118h21.859453v49.77549c0 5.25588 2.309255 8.33382 6.344842 8.33382 4.16371 0 7.82457-3.21246 7.82457-10.34841v-47.7609h21.84023z"/><path d="m139.99562 110.42947h21.86266v96.32252h-21.86266z"/><path d="m177.37609 148.88289h-9.04806v-15.10143h9.04806v-21.44629h21.86265v21.44629h10.1082v15.10143h-10.1082v36.83919c0 5.09894 1.87367 6.71958 7.00784 6.71958.93523 0 2.16512-.12491 3.10036-.24982v14.56015c-4.17972.53808-8.38186.81353-12.54557.81353-15.09823 0-19.42528-2.6968-19.42528-19.70074z"/><path d="m254.75695 183.55695c.16655 3.24769.41637 6.07581 1.49573 8.24093 1.22989 2.02741 3.22847 3.3694 6.76442 3.3694 5.11495 0 7.81816-3.27651 7.81816-7.42741 0-3.38221-1.62065-6.60427-8.36265-8.90392-17.95197-6.05018-26.58045-9.56691-26.58045-24.9502 0-14.56977 10.25232-21.98757 27.80715-21.98757 20.48863 0 26.44273 9.96407 26.44273 20.48863v2.45659h-19.44771v-1.38684c0-6.30961-2.56228-8.04876-7.15837-8.04876-5.80356 0-7.42421 2.79929-7.42421 6.70677 0 12.95233 34.9463 4.34947 34.9463 32.67228 0 14.68506-9.86157 23.85803-27.89682 23.85803-19.57582 0-27.81035-7.28008-27.81035-21.84024v-3.24769z"/><path d="m293.61393 133.78146h21.84023l7.05268 53.81108h.24982l8.21851-53.81108h23.4833l7.69645 53.81108h.24982l7.72208-53.81108h21.02671l-15.76763 72.97053h-24.69078l-7.94627-53.8335h-.26904l-8.52919 53.8335h-25.0655z"/><path d="m397.62329 109.35011h21.88187v16.7349h-21.88187zm0 24.43135h21.88187v72.97053h-21.88187z"/><path d="m429.46923 133.78146h21.02991v8.61887h.29146c3.08114-6.48898 9.44521-10.50215 17.51639-10.50215 6.34164 0 14.7267 1.20427 17.94877 11.18115 5.163-8.47794 9.98649-11.18115 18.09931-11.18115 12.39823 0 18.9929 6.20072 18.9929 20.21639v54.63742h-21.86266v-49.7787c0-5.24947-2.26761-8.36264-6.32563-8.36264-4.17971 0-7.84057 3.2605-7.84057 10.40286v47.73848h-21.84344v-49.7787c0-5.24947-2.28363-8.36264-6.34485-8.36264-4.1605 0-7.81816 3.2605-7.81816 10.40286v47.73848h-21.84343z"/><path d="m-98.1395 110.24691h34.132775v15.10785h-13.913181v90.90329h13.913181v15.08863h-34.132775z"/><path d="m528.31879 216.25805h13.89397v-90.90329h-13.89397v-15.10785h34.09434v121.09977h-34.09434z"/></g></g></svg>