<?xml version="1.0" encoding="UTF-8" standalone="no"?>
<!-- Created with Inkscape (http://www.inkscape.org/) -->

<svg
   xmlns:dc="http://purl.org/dc/elements/1.1/"
   xmlns:cc="http://creativecommons.org/ns#"
   xmlns:rdf="http://www.w3.org/1999/02/22-rdf-syntax-ns#"
   xmlns:svg="http://www.w3.org/2000/svg"
   xmlns="http://www.w3.org/2000/svg"
   xmlns:sodipodi="http://sodipodi.sourceforge.net/DTD/sodipodi-0.dtd"
   xmlns:inkscape="http://www.inkscape.org/namespaces/inkscape"
   width="221"
   height="125"
   id="svg2"
   sodipodi:version="0.32"
   inkscape:version="0.91 r13725"
   version="1.0"
   inkscape:output_extension="org.inkscape.output.svg.inkscape"
   sodipodi:docname="AMC_logo_2008.svg">
  <metadata
     id="metadata16">
    <rdf:RDF>
      <cc:Work
         rdf:about="">
        <dc:format>image/svg+xml</dc:format>
        <dc:type
           rdf:resource="http://purl.org/dc/dcmitype/StillImage" />
      </cc:Work>
    </rdf:RDF>
  </metadata>
  <defs
     id="defs14" />
  <sodipodi:namedview
     pagecolor="#ffffff"
     bordercolor="#666666"
     borderopacity="1"
     objecttolerance="10"
     gridtolerance="10"
     guidetolerance="10"
     inkscape:pageopacity="0"
     inkscape:pageshadow="2"
     inkscape:window-width="1366"
     inkscape:window-height="709"
     id="namedview12"
     showgrid="false"
     inkscape:zoom="1.6108597"
     inkscape:cx="99.636236"
     inkscape:cy="62.5"
     inkscape:window-x="-8"
     inkscape:window-y="-8"
     inkscape:window-maximized="1"
     inkscape:current-layer="layer1" />
  <g
     inkscape:label="Layer 1"
     inkscape:groupmode="layer"
     id="layer1"
     transform="translate(-124.24576,-766.40339)">
    <g
       id="g2411"
       transform="matrix(7.3665737,0,0,7.3665737,-791.0189,-5675.1775)"
       style="fill:#ff0000">
      <g
         id="g146919"
         transform="matrix(1.0330919,0,0,-1.0330919,140.58752,879.41646)"
         style="fill:#ff0000">
        <path
           id="path146921"
           d="M 0,0 C 0,0 -1.148,-4.311 -1.244,-4.771 L -2.496,0 L -4.865,0 L -4.865,-6.618 L -3.314,-6.618 L -3.314,-1.751 L -1.957,-6.618 L -0.527,-6.618 C -0.527,-6.618 0.795,-1.904 0.828,-1.762 L 0.828,-6.618 L 2.385,-6.618 L 2.385,0 L 0,0 z "
           style="fill:#000000;fill-rule:nonzero;stroke:none" />
      </g>
      <g
         id="g146923"
         transform="matrix(1.0330919,0,0,-1.0330919,133.08346,883.64366)"
         style="fill:#ff0000">
        <path
           id="path146925"
           d="M 0,0 C 0,-0.196 0,-0.39 -0.092,-0.585 C -0.262,-0.976 -0.824,-1.341 -1.621,-1.341 C -2.248,-1.341 -2.68,-1.081 -2.68,-0.572 C -2.68,0.116 -2.031,0.271 -1.469,0.342 C -0.762,0.429 0,0.455 0,0.455 L 0,0 z M 1.568,-1.47 L 1.568,1.979 C 1.568,2.682 1.555,3.294 0.783,3.762 C 0.209,4.101 -0.549,4.179 -1.178,4.179 C -1.596,4.179 -3.15,4.179 -3.779,3.046 C -3.982,2.677 -4.012,2.408 -4.039,2.093 L -4.039,2.091 L -2.432,2.093 C -2.43,2.238 -2.41,2.387 -2.275,2.552 C -2.117,2.76 -1.766,2.968 -1.111,2.968 C 0.178,2.968 -0.012,1.674 -0.012,1.674 C -0.012,1.674 -0.656,1.666 -2.027,1.497 C -2.66,1.419 -3.66,1.172 -4.131,0.235 C -4.264,-0.027 -4.342,-0.326 -4.342,-0.65 C -4.342,-1.77 -3.451,-2.682 -1.975,-2.682 C -1.074,-2.682 -0.379,-2.304 -0.041,-2.018 C -0.041,-2.109 -0.014,-2.37 0,-2.526 L 1.596,-2.526 C 1.568,-1.47 1.568,-1.965 1.568,-1.47"
           style="fill:#000000;fill-rule:nonzero;stroke:none" />
      </g>
      <g
         id="g146927"
         transform="matrix(1.0330919,0,0,-1.0330919,150.16574,883.59784)"
         style="fill:#ff0000">
        <path
           id="path146929"
           d="M 0,0 L -1.521,-0.002 C -1.568,-0.185 -1.885,-1.379 -3.07,-1.379 C -3.086,-1.379 -3.275,-1.379 -3.295,-1.378 C -4.166,-1.351 -4.879,-0.629 -4.879,0.795 C -4.879,1.888 -4.33,2.87 -3.281,2.895 L -3.07,2.895 C -1.986,2.895 -1.605,1.765 -1.582,1.696 L -0.064,1.691 C -0.359,3.102 -1.467,4.254 -3.145,4.254 C -5.027,4.254 -6.365,2.707 -6.365,0.748 C -6.365,-1.493 -4.943,-2.766 -3.184,-2.766 C -1.223,-2.766 -0.207,-1.273 0,0"
           style="fill:#000000;fill-rule:nonzero;stroke:none" />
      </g>
      <path
         id="path146931"
         d="M 152.75278,889.94049 L 125.76533,889.94049 L 125.76533,875.89457 L 152.75278,875.89457 L 152.75278,889.94049 z M 124.24564,891.40232 L 154.24564,891.40232 L 154.24564,874.43378 L 124.24564,874.43378 L 124.24564,891.40232 z "
         style="fill:#000000;fill-rule:nonzero;stroke:none" />
    </g>
  </g>
</svg>
