<svg height="125" width="221" xmlns="http://www.w3.org/2000/svg"><g fill="#000" transform="matrix(7.3665737 0 0 7.3665737 -915.26466 -6441.58089)"><path d="m0 0s-1.148-4.311-1.244-4.771l-1.252 4.771h-2.369v-6.618h1.551v4.867l1.357-4.867h1.43s1.322 4.714 1.355 4.856v-4.856h1.557v6.618z" transform="matrix(1.0330919 0 0 -1.0330919 140.58752 879.41646)"/><path d="m0 0c0-.196 0-.39-.092-.585-.17-.391-.732-.756-1.529-.756-.627 0-1.059.26-1.059.769 0 .688.649.843 1.211.914.707.087 1.469.113 1.469.113zm1.568-1.47v3.449c0 .703-.013 1.315-.785 1.783-.574.339-1.332.417-1.961.417-.418 0-1.972 0-2.601-1.133-.203-.369-.233-.638-.26-.953v-.002l1.607.002c.002.145.022.294.157.459.158.208.509.416 1.164.416 1.289 0 1.099-1.294 1.099-1.294s-.644-.008-2.015-.177c-.633-.078-1.633-.325-2.104-1.262-.133-.262-.211-.561-.211-.885 0-1.12.891-2.032 2.367-2.032.901 0 1.596.378 1.934.664 0-.091.027-.352.041-.508h1.596c-.028 1.056-.028.561-.028 1.056" transform="matrix(1.0330919 0 0 -1.0330919 133.08346 883.64366)"/><path d="m0 0-1.521-.002c-.047-.183-.364-1.377-1.549-1.377-.016 0-.205 0-.225.001-.871.027-1.584.749-1.584 2.173 0 1.093.549 2.075 1.598 2.1h.211c1.084 0 1.465-1.13 1.488-1.199l1.518-.005c-.295 1.411-1.403 2.563-3.081 2.563-1.882 0-3.22-1.547-3.22-3.506 0-2.241 1.422-3.514 3.181-3.514 1.961 0 2.977 1.493 3.184 2.766" transform="matrix(1.0330919 0 0 -1.0330919 150.16574 883.59784)"/><path d="m152.75278 889.94049h-26.98745v-14.04592h26.98745zm-28.50714 1.46183h30v-16.96854h-30z"/></g></svg>