<svg enable-background="new 0 0 792 612" height="612" viewBox="0 0 792 612" width="792" xmlns="http://www.w3.org/2000/svg"><path d="m301.912 477.109h84.748v-353.603h-84.748zm107.46 0h84.749v-254.611h-84.749zm-254.736-259.911c-16.898 0-33.042 3.195-47.905 8.958v-102.65h-84.745s.059 226.236.059 226.282c0 73.225 59.364 132.592 132.59 132.592 73.229 0 132.593-59.367 132.593-132.592.001-73.229-59.363-132.59-132.592-132.59zm0 179.671c-26.001 0-47.082-21.077-47.082-47.081s21.08-47.08 47.082-47.08c26.004 0 47.084 21.076 47.084 47.08s-21.08 47.081-47.084 47.081zm491.197-179.674c-73.231 0-132.592 59.365-132.592 132.591 0 .048-.059 226.282-.059 226.282h84.743v-102.651c14.862 5.769 31.008 8.963 47.907 8.963 73.228 0 132.592-59.363 132.592-132.594.001-73.225-59.363-132.591-132.591-132.591zm0 179.672c-26.006 0-47.082-21.075-47.082-47.081 0-26.002 21.076-47.08 47.082-47.08 26.003 0 47.081 21.078 47.081 47.08 0 26.006-21.078 47.081-47.081 47.081zm-55.197-299.658c0-28.387-23.011-51.4-51.398-51.4s-51.398 23.013-51.398 51.4c0 28.384 23.011 51.397 51.398 51.397s51.398-23.013 51.398-51.397z" fill="#ff1919"/></svg>