<svg clip-rule="evenodd" fill-rule="evenodd" height="416" image-rendering="optimizeQuality" shape-rendering="geometricPrecision" text-rendering="geometricPrecision" width="1292" xmlns="http://www.w3.org/2000/svg"><g fill="#fefffe"><path d="m740.5-.5h8c8.7 2.18715 14.867 7.52049 18.5 16 1.287 10.111 2.12 20.2776 2.5 30.5-.916 9.1574-1.083 18.3241-.5 27.5.465 1.4308 1.299 2.5975 2.5 3.5 40.756 11.0291 80.423 25.029 119 42 10.571 10.758 11.738 22.591 3.5 35.5-4.79 6.228-11.124 9.228-19 9-6.406-.476-12.573-1.976-18.5-4.5-28.488-10.663-57.155-20.83-86-30.5-.586.209-1.086.543-1.5 1-.067 53.131 2.6 106.131 8 159 1.46 17.303 5.46 33.97 12 50 5.924 10.591 14.758 17.424 26.5 20.5 9.306 1.553 18.64 2.886 28 4 14.049 7.119 18.549 18.286 13.5 33.5-3.898 8.219-10.398 13.052-19.5 14.5-34.755 3.754-63.588-7.412-86.5-33.5-15.298 27.399-38.465 38.899-69.5 34.5-16.244-4.913-29.077-14.413-38.5-28.5-3.252-4.834-6.252-9.834-9-15-10.209 14.543-22.709 26.71-37.5 36.5-35.125 17.227-64.959 10.727-89.5-19.5-12.122-16.012-19.789-34.012-23-54-4.807 18.225-9.473 36.558-14 55-4.213 17.574-15.046 24.407-32.5 20.5-11.729-5.729-20.896-14.229-27.5-25.5-12.757-22.694-20.09-47.027-22-73-.622-21.505-.456-43.005.5-64.5.079-6.563-.421-13.063-1.5-19.5-1.442-3.775-3.942-6.608-7.5-8.5-10.282-2.714-20.615-5.214-31-7.5-.333.833-.667 1.667-1 2.5 12.833 74.575-11.834 132.909-74 175-35.03 18.966-72.53 28.466-112.5 28.5-29.903-1.2-59.737-3.367-89.5-6.5-17.7757-.293-30.2757-8.459-37.5-24.5-19.7235-91.787-31.22348-184.453-34.5-278 0-23.6667 0-47.3333 0-71 2.56811-10.3955 9.23478-16.5622 20-18.5 53.9901-10.55735 104.657-1.8907 152 26 29.033 19.9004 39.866 47.0671 32.5 81.5-4.341 12.349-9.507 24.349-15.5 36 68.837 37.995 91.171 94.328 67 169 24.621-17.539 38.788-41.539 42.5-72 1.868-20.723-.132-41.057-6-61-2.412-4.416-5.578-8.249-9.5-11.5-24.904-10.648-37.07-29.481-36.5-56.5 4.241-17.887 15.408-28.7204 33.5-32.5 18.224-2.3051 31.724 4.5283 40.5 20.5 4.262 10.453 7.929 21.12 11 32 .937 3.156 2.437 5.989 4.5 8.5 24.74 8.148 50.073 13.481 76 16 15.84 4.173 25.007 14.339 27.5 30.5.128 21.33-.039 42.663-.5 64-.127 12.72.373 25.387 1.5 38 17.376-50.966 47.542-92.466 90.5-124.5 29.101-21.423 61.767-32.59 98-33.5 7.026.138 14.026.638 21 1.5 18.097 5.033 24.597 16.533 19.5 34.5-3.782 7.815-9.949 12.649-18.5 14.5-26.291-3.456-49.624 3.211-70 20-32.419 26.658-47.419 60.825-45 102.5 3.142 13.296 9.475 24.796 19 34.5 9.257 6.217 18.257 5.883 27-1 6.738-6.749 11.905-14.582 15.5-23.5 4.266-11.728 7.599-23.728 10-36 3.534-20.876 5.867-41.876 7-63 7.228-15.688 19.062-20.522 35.5-14.5 7.923 5.011 12.423 12.178 13.5 21.5.952 23.758 2.952 47.425 6 71 2.799 13.743 8.299 26.243 16.5 37.5 8.191 5.448 15.358 4.282 21.5-3.5 4.717-8.482 8.05-17.482 10-27 5.209-35.478 7.209-71.144 6-107-.717-30.39-2.384-60.724-5-91-.5-.5-1-1-1.5-1.5-40.11-8.233-80.444-9.566-121-4-33.574 5.957-64.574 18.29-93 37-15.244 6.824-26.744 2.991-34.5-11.5-4.414-16.67 1.086-28.837 16.5-36.5 29.39-17.4651 61.057-28.7985 95-34 46.262-8.015 92.596-8.515 139-1.5-.422-16.0489.078-32.0489 1.5-48 3.605-9.77723 10.439-15.77723 20.5-18zm-683 62c28.5208-1.6552 54.521 5.5114 78 21.5 9.366 7.2316 14.699 16.7316 16 28.5-1.647 11.294-6.48 20.961-14.5 29-5.713 5.437-11.88 10.27-18.5 14.5-12.288 12.439-13.121 25.606-2.5 39.5 2.167 1.5 4.333 3 6.5 4.5 10.983 2.332 21.983 4.665 33 7 38.918 16.652 56.085 46.152 51.5 88.5-9.011 42.674-35.344 64.674-79 66-14.597-.554-29.0973-2.054-43.5-4.5-1.5488-1.214-2.7155-2.714-3.5-4.5-4.9754-22.544-9.3088-45.21-13-68-6.4519-48.519-11.4519-97.186-15-146-.6667-24.333-.6667-48.6667 0-73 1.4087-1.2811 2.9087-2.2811 4.5-3z" opacity=".984"/><path d="m1042.5 415.5c-20.33 0-40.67 0-61 0 0-88.667 0-177.333 0-266-16 0-32 0-48 0 0-18.667 0-37.333 0-56h158v56c-16.33 0-32.67 0-49 0z" opacity=".981"/><path d="m1291.5 93.5v2c-18.77 106.53-37.44 213.197-56 320-24.67 0-49.33 0-74 0-18.1-107.254-35.76-214.588-53-322h61c9.92 77.689 20.09 155.356 30.5 233 10.8-77.252 21.13-154.586 31-232 20.09-.9932 40.26-1.3265 60.5-1z" opacity=".983"/></g></svg>