<svg height="358.15622" width="1175.9062" xmlns="http://www.w3.org/2000/svg"><g transform="matrix(.99999992711 0 0 .99999992711 89.31249495228 -287.74998306528)"><path d="m87.65625 287.75c-98.580203 0-176.96875 80.48799-176.96875 178.53125 0 99.11715 78.388547 179.625 176.96875 179.625 99.10037 0 176.4375-80.49338 176.4375-179.59375.01678-98.04326-77.33713-178.5625-176.4375-178.5625zm0 75.78125c80.49178 0 139.45728 51.11683 164.375 102.78125-24.91772 52.45306-83.88322 103.8125-164.375 103.8125-81.0119523 0-139.50531-51.37622-164.40625-103.8125 24.90094-51.64764 83.4110774-102.75 164.40625-102.75v-.0312zm0 8.125c-52.436278 0-95.1875 42.44042-95.1875 94.625 0 52.97323 42.751222 95.1875 95.1875 95.1875 52.43628 0 94.625-42.21658 94.625-95.15625 0-52.18458-42.18872-94.65625-94.625-94.65625z"/><path d="m433.28125 309c-92.55632 0-157.0625 70.2602-157.0625 155.71875v1.03125c0 86.51566 65.82038 154.96875 154.71875 154.96875 57.93999 0 92.5584-20.72373 123.5-54.03125l-42.21875-42.4375c-23.60891 21.4779-44.87089 35.40625-79.21875 35.40625-51.64764 0-87.5625-43.30664-87.5625-94.9375v-.78125c0-51.64764 36.70351-93.875 87.5625-93.875 30.15296 0 53.75331 12.85077 77.09375 34.09375l42.21875-48.78125c-28.05551-27.51856-62.1316-46.375-119.03125-46.375z"/><path d="m579.40625 314.21875v301.21875h143.40625c67.8903 0 112.71875-27.49413 112.71875-82.53125v-1.0625c0-40.37174-21.47341-60.58093-56.375-73.9375 21.51146-12.04776 39.59375-30.92061 39.59375-65v-.78125c0-20.7396-6.82523-37.51273-20.71875-51.40625-17.283-17.0313-44.29161-26.5-78.65625-26.5zm64.46875 57.9375h65.5625c28.05551 0 43.5 11.2718 43.5 30.9375v1.0625c0 22.28332-18.60443 31.71875-47.96875 31.71875l-61.09375.0312v-63.75zm0 118.8125h76.84375c33.79413 0 49 12.59538 49 32.78125v1.03125c0 22.28332-17.81041 32.5-46.90625 32.5l-78.9375.0312v-66.34375z"/><path d="m965.5 309.78125c-61.34625 0-105.375 36.16886-105.375 90.9375v.8125c0 59.80253 39.30061 76.5917 99.875 92.0625 50.3388 13.0881 60.8125 21.47039 60.8125 38.25v1.0625c0 17.55147-16.5329 28.3125-43.53125 28.3125-34.61633 0-62.92233-14.18543-89.9375-36.46875l-39.3125 46.9375c36.17684 32.25041 82.31374 48 127.9375 48v-.0312c65.02095 0 110.62505-33.57709 110.62505-93.3125v-.78125c0-52.68797-34.593-74.49456-95.68755-90.46875-51.89933-13.39018-65.03125-19.9281-65.03125-39.5938v-.78125c0-14.68216 13.37461-26.46875 38.8125-26.46875s51.6596 11.25194 78.4063 29.84375l34.3437-50.03125c-30.4214-24.38077-67.891-38.28125-111.9375-38.28125z"/></g></svg>