<svg height="400.73499" width="1000" xmlns="http://www.w3.org/2000/svg"><g fill="#2e7734"><path d="m0 0c1.205.035 2.297.551 3.114 1.366.742-.837 1.824-1.366 3.025-1.366 1.207 0 2.293.534 3.035 1.379.743-.845 1.829-1.379 3.036-1.379 2.225 0 4.044 1.818 4.044 4.044v5.8810072h-2.64v-5.8810072c0-.862-.689-1.568-1.551-1.568-.863 0-1.569.706-1.569 1.568v5.8810072h-2.64v-5.8810072c0-.862-.706-1.568-1.569-1.568-.862 0-1.551.706-1.551 1.568v5.8810072h-2.64v-4.9960072c-.019-1.234-.92-2.258-2.026-2.291l-3.861.001c-1.148 0-2.081 1.038-2.081 2.315 0 1.286.933 2.332 2.081 2.332h3.868v2.6390072l-3.868-.0000072c-2.603-.0000048-4.72-2.227-4.72-4.971 0-2.728 2.117-4.954 4.72-4.954z" transform="matrix(40.376307 0 0 -40.376307 343.7234789422 400.7351223815)"/><path d="m0 0v1.355h.482v.267h-1.297v-.267h.482v-1.355z" transform="matrix(40.376307 0 0 -40.376307 199.2489772348 233.1411472859)"/><path d="m0 0v.267h-1.05v-1.622h1.08v.267h-.746v.421h.655v.273h-.655v.394z" transform="matrix(40.376307 0 0 -40.376307 338.0546454394 178.4191384088)"/><path d="m0 0v1.622h-.332v-.661h-.69v.661h-.332v-1.621h.332v.687h.69v-.688z" transform="matrix(40.376307 0 0 -40.376307 282.9571369072 233.1411472859)"/></g></svg>