<?xml version="1.0" encoding="UTF-8" standalone="no"?>
<!-- Created with Inkscape (http://www.inkscape.org/) -->

<svg
   xmlns:dc="http://purl.org/dc/elements/1.1/"
   xmlns:cc="http://creativecommons.org/ns#"
   xmlns:rdf="http://www.w3.org/1999/02/22-rdf-syntax-ns#"
   xmlns:svg="http://www.w3.org/2000/svg"
   xmlns="http://www.w3.org/2000/svg"
   xmlns:sodipodi="http://sodipodi.sourceforge.net/DTD/sodipodi-0.dtd"
   xmlns:inkscape="http://www.inkscape.org/namespaces/inkscape"
   width="1000"
   height="400.73499"
   id="svg2"
   sodipodi:version="0.32"
   inkscape:version="0.48.5 r10040"
   version="1.0"
   inkscape:output_extension="org.inkscape.output.svg.inkscape"
   sodipodi:docname="The_CW.svg">
  <metadata
     id="metadata12434">
    <rdf:RDF>
      <cc:Work
         rdf:about="">
        <dc:format>image/svg+xml</dc:format>
        <dc:type
           rdf:resource="http://purl.org/dc/dcmitype/StillImage" />
        <dc:title />
      </cc:Work>
    </rdf:RDF>
  </metadata>
  <defs
     id="defs12432" />
  <sodipodi:namedview
     pagecolor="#ffffff"
     bordercolor="#666666"
     borderopacity="1"
     objecttolerance="10"
     gridtolerance="10"
     guidetolerance="10"
     inkscape:pageopacity="0"
     inkscape:pageshadow="2"
     inkscape:window-width="1920"
     inkscape:window-height="1028"
     id="namedview12430"
     showgrid="false"
     inkscape:zoom="1.3281994"
     inkscape:cx="623.34195"
     inkscape:cy="275.08308"
     inkscape:window-x="-8"
     inkscape:window-y="-8"
     inkscape:window-maximized="1"
     inkscape:current-layer="g5974" />
  <g
     inkscape:label="Layer 1"
     inkscape:groupmode="layer"
     id="layer1"
     transform="translate(-247.34642,-182.58469)">
    <g
       id="g5972"
       clip-path="url(#id9)"
       transform="matrix(40.376307,0,0,-40.376307,-8816.3916,7972.0023)">
      <g
         id="g5974"
         transform="translate(232.9946,182.9955)">
        <path
           id="path5976"
           d="M 0,0 C 1.205,0.035 2.297,0.551 3.114,1.366 3.856,0.529 4.938,0 6.139,0 7.346,0 8.432,0.534 9.174,1.379 9.917,0.534 11.003,0 12.21,0 c 2.225,0 4.044,1.818 4.044,4.044 l 0,5.8810072 -2.64,0 0,-5.8810072 c 0,-0.862 -0.689,-1.568 -1.551,-1.568 -0.863,0 -1.569,0.706 -1.569,1.568 l 0,5.8810072 -2.64,0 0,-5.8810072 c 0,-0.862 -0.706,-1.568 -1.569,-1.568 -0.862,0 -1.551,0.706 -1.551,1.568 l 0,5.8810072 -2.64,0 0,-4.9960072 C 2.075,3.695 1.174,2.671 0.068,2.638 l -3.861,10e-4 c -1.148,0 -2.081,1.038 -2.081,2.315 0,1.286 0.933,2.332 2.081,2.332 l 3.868,0 0,2.6390072 L -3.793,9.925 C -6.396,9.9249952 -8.513,7.698 -8.513,4.954 -8.513,2.226 -6.396,0 -3.793,0 z"
           style="fill:#2e7734;fill-rule:nonzero;stroke:none"
           inkscape:connector-curvature="0"
           sodipodi:nodetypes="ccscssccsssccssscccccssccsssc" />
      </g>
      <g
         id="g5978"
         transform="translate(229.4164,187.1463)">
        <path
           id="path5980"
           d="m 0,0 0,1.355 0.482,0 0,0.267 -1.297,0 0,-0.267 0.482,0 L -0.333,0 0,0 Z"
           style="fill:#2e7734;fill-rule:nonzero;stroke:none"
           inkscape:connector-curvature="0" />
      </g>
      <g
         id="g5982"
         transform="translate(232.8542,188.5016)">
        <path
           id="path5984"
           d="m 0,0 0,0.267 -1.05,0 0,-1.622 1.08,0 0,0.267 -0.746,0 0,0.421 0.655,0 0,0.273 -0.655,0 0,0.394 L 0,0 Z"
           style="fill:#2e7734;fill-rule:nonzero;stroke:none"
           inkscape:connector-curvature="0" />
      </g>
      <g
         id="g5986"
         transform="translate(231.4896,187.1463)">
        <path
           id="path5988"
           d="m 0,0 0,1.622 -0.332,0 0,-0.661 -0.69,0 0,0.661 -0.332,0 0,-1.621 0.332,0 0,0.687 0.69,0 L -0.332,0 0,0 Z"
           style="fill:#2e7734;fill-rule:nonzero;stroke:none"
           inkscape:connector-curvature="0" />
      </g>
    </g>
    <g
       id="g11042"
       clip-path="url(#id82)"
       transform="matrix(3.7452579,0,0,-3.7452579,-62.970573,1349.9091)" />
  </g>
</svg>
