<svg height="432.77332" viewBox="0 0 1135.2933 432.77332" width="1135.2933" xmlns="http://www.w3.org/2000/svg"><g transform="matrix(.13333333 0 0 -.13333333 0 432.77333)"><path d="m731.762 816.559s21.773-134.957 200.289-134.957c178.519 0 161.149 136.597 161.149 149.398 0 13.059-.05 804.13-.05 804.13l690.13 198.13s0-1122.561 0-1227.85c0-105.289-97.98-605.210781-690.13-603.05062-437.584-2.160161-674.88 241.66062-674.88 241.66062z" fill="#ed1c24"/><path d="m1830.89 1393.48h657.75s0-617.351 0-712.07c0-112.211 226.41-143.66 226.41 25.82v686.25h656.86s0-788.601 0-816.921c0-28.321-43.68-573.59025-763.52-574.19962-719.84-.6211-777.5 518.67962-777.5 565.47262z" fill="#ed1c24"/><path d="m4077.88 1393.48h-661.82v-1368.1714h661.82v621.1524c-17.57 162.488 226.4 211.781 226.4-10.481 0-222.269 0-610.6714 0-610.6714h659.65v928.6524s-35.31 464.219-428.38 473.479c-296.82 6.99-421.08-167.71-421.08-167.71z" fill="#ed1c24"/><path d="m5669.28 25.3086h-661.81v1368.1714h661.81z" fill="#ed1c24"/><path d="m6529.09 516.91c-102.27 0-184.03 71.801-185.2 195.059-1.17 123.261 82.93 195.082 185.2 195.082 102.28 0 186.36-70.86 185.19-195.082-1.17-124.219-82.91-195.059-185.19-195.059zm-1.74 907.04c-457.38 0-833.42-262.07-828.17-711.981 5.24-449.918 370.79-711.969 828.17-711.969s822.93 258.59 828.16 711.969c5.24 453.381-370.78 711.981-828.16 711.981" fill="#ed1c24"/><path d="m7387 1393.48v-1368.1714h666.17v573.9724c0 82.008 130.53 335.469 461.52 190.449v634.22c-289.08 1.75-350.84-52.41-478.94-206.16v175.69z" fill="#ed1c24"/><path d="m5669.28 1037.77h-661.81v355.71h661.81z" fill="#231f20"/><path d="m5562.88 868.422c0-39.141-31.74-70.863-70.88-70.863s-70.86 31.722-70.86 70.863c0 39.137 31.72 70.879 70.86 70.879s70.88-31.742 70.88-70.879" fill="#fff200"/><path d="m5270.42 868.422c0-39.141-31.72-70.863-70.86-70.863s-70.88 31.722-70.88 70.863c0 39.137 31.74 70.879 70.88 70.879s70.86-31.742 70.86-70.879" fill="#fff200"/><g fill="#231f20"><path d="m102.699 2827.72c-57.9334-1.72-101.64431 23.57-102.69509375 58.96-.77343725 25.86 55.83199375 106.61 90.36329375 119.67 23.5978 8.92 138.5278 52.57 330.1168 58.26 70.996 2.11 191.571-6.6 293.368-21.68 592.618-87.84 1214.728-539.73 1226.628-940.51 8.11-272.69-227.47-528.49-687.35-542.17-121.12-3.59-233.85 11.33-336.384 38.25-2.215-66.94 2.774-102.39-92.172-105.22-58.054-1.72-80.683 92.35-89.222 168.86-277.633 123.2-444.907 323.29-447.254 402.26-3.493 117.61 210.347 215.7 460.449 254.52 3.527 97.37 20 345.28 71.394 346.8 20.661.62 63.442-47.3 79.602-120.6 14.672-66.59 16.203-188.03 16.363-209.66l18.883.69c350.921 10.42 561.251-99.31 565.101-229.26 2.99-100.73-86.19-152.32-132.98-153.7-46.78-1.39-101.6 25.22-102.03 39.7-.84 27.72 99.84 34.24 98.5 79.05-2 67.62-281.01 97.27-452.911 98.33-.25-58.26-1.004-128.6.398-175.87 1.352-45.41 4.176-162.73 5.563-260.63 77.984-16.51 158.34-25.42 237.1-23.07 185.32 5.5 608.67 73.07 599.21 391.11-13.19 444.29-891.689 852.45-1362.236 838.48-185.34-5.51-296.5587-25.38-296.0157-43.58.3555-12.12 90.2457-16.79 90.9647-40.78.707-23.97-51.058-27.26-82.754-28.21zm643.973-664.2c-175.93-13.1-400.918-45.76-399.094-107.38 1.91-64.46 167.742-188.28 385.481-268.95 10.125 131.91 12.64 271.72 13.613 376.33"/><path d="m2074.7 2342.16c30.27.9 73.68-71.75 75.03-117.15 1.34-45.42 12.21-282.76 15.39-351.14 3.17-68.39.92-133.88-3.52-164.19-4.46-30.3-15.47-45.26-67.48-46.8-52.03-1.55-76.25 29.43-80.67 75.25-4.41 45.82-8.27 175.79-6.01 240.92 2.27 65.1 5.33 189.71 13.82 267.72 8.5 78.02 29.39 94.68 53.44 95.39" fill-rule="evenodd"/><path d="m1985.94 2928.32c-3.21 5.33-6.24 13.79-6.63 26.98-.87 29.08 49.34 140.52 175.67 149.68-32.18-22.07-64.73-50.35-96.94-86.55-30.3-34.04-54.39-63.98-72.1-90.11zm110.18-60.06c26.07 36.8 161.23 217.8 300.55 221.92 40.88 1.23 51.66-24.06 52.5-52.02 1.29-43.52-77.56-170.73-255.1-176-38.92-1.15-71.72 1.77-97.95 6.1zm319.63 315.37c-8.64 21.56-37.61 65.12-140.97 62.06-225.2-6.69-398.46-173.51-394.55-304.96 1.26-42.71 21.87-80.12 52.16-110.79-7.89-21.48-8.69-35.83-8.44-44.04.67-22.84 35.04-83.11 61.42-82.33 22.32.67 37.55 21.57 59.05 55.41 36.72-14.17 73.31-21.39 102.34-20.53 211.75 6.29 403.87 204.73 400.11 331.68-1.75 58.44-39.62 114.94-131.12 113.5" fill-rule="evenodd"/><path d="m2624.02 2354.35c123.98 3.68 279.3-12.38 280.47-52.02.69-23.2-11.45-71.62-77.61-78.32-78.02-7.91-471.59-24.63-470.15-73.2.76-25.71 119.03-31.39 227.51-37.97 111.43-6.75 290.43-10.93 295.78-191.3 4.23-142.39-49.65-172.49-73.91-183.84-30.78-14.39-134.23-53.72-213.53-56.07-239.03-7.11-337.58 130.24-339.65 200.05-1.84 61.98 61.93 116.98 169.16 120.16 107.22 3.18 273.26-35.49 274.57-79.59 1.06-35.75-72.17-54.12-104.56-55.09-146.32-4.35-139.14 55.11-223.47 52.61-48.03-1.43-115.43-103.48 125.27-96.33 214.45 6.37 279.43 77.04 278.3 115.02-1.5 50.26-155.38 74.75-244.38 79.37-89.02 4.62-222.6 4.01-268.17 32.84-45.57 28.82-39.18 94.03-23.4 147.98 32.99 112.75 263.78 152.02 387.77 155.7" fill-rule="evenodd"/><path d="m3047.42 2307.69c83.77 2.48 259.4-377.38 288.99-376.5 29.6.88 7.59 88.74-11.11 185.78-42.29 219.51-108.25 332.68-46.27 334.52 45.8 1.37 196.01-143.95 204.36-425.39 3.89-130.67-14.51-301.68-132.9-305.2-112.26-3.33-240.17 351.12-269.21 350.26-15.64-.47-16.96-219.59-21.14-285.68-4.19-66.06-27.17-101.39-64.03-102.5-55.85-1.65-80.36 51.84-83.49 157.38-3.14 105.53 31.49 464.25 134.8 467.33" fill-rule="evenodd"/><path d="m3899.24 2102.16c39.66 1.18 74.67 7.81 71.17-43.72-3.5-51.52-5.68-72.26-47-73.48l-212-6.3c-7.01-23.59-25.14-84.34-33.29-109.98-10.22-32.16 21.98-25.06 63.55-13.21 41.57 11.86 154.4 33.1 200.75 34.48 46.36 1.37 80.99-72.49 54.35-97.87-26.63-25.39-170.05-146.46-319.71-150.9-64.23-1.91-151.42 54.19-154.4 154.69-1.59 53.22 19.79 124.62 40.25 180.07-4.99 3.15-8.79 10.47-11.73 26.46-6.67 36.13-22.94 75.88 37.22 82.7 4.83.55 10.89 1.12 17.95 1.71l49.69 102.34c-20.16 2.95-37.59 7.41-51.01 13.81-36.54 17.46-65.02 62.35-65.62 82.45-1.3 44.12 322.11 70.49 396.94 72.71 80.42 2.39 103.25-13.14 128.93-49.82 25.68-36.69 35.39-62.67 35.7-72.72.29-10.05-9.02-34.92-106.19-37.8-49.72-1.49-130.08-9.86-207.21-12.7l-33.58-89.5c75.02 3.71 145.24 6.58 145.24 6.58"/><path d="m4353.33 1849.68c106.02 207.32 215.36 325.49 253.78 326.63 66.68 1.99 10.26-299.52-253.78-326.63zm-234.95-53.29c-86.84-171.32-145.29-352.84-141.22-489.48 4.57-153.94 99.12-211.38 127.84-210.52 28.74.86 30.17 46.4 35.33 80.35 29.24 192.26 79.65 362.64 137.11 505.8 22.79-5.74 45.34-8.38 66.2-7.76 176.07 5.23 380.15 215.62 373.49 439.6-3.49 118.28-48.72 202.16-124.53 199.9-110.84-3.28-270.24-170.88-398.25-381.25-11.43 85.36 55.87 216.8 113.28 308.69 40.3 64.53 33.25 141.26 16.51 140.76-23.47-.68-250.63-192.98-242.8-456.76 1.54-51.23 14.88-94.25 37.04-129.33" fill-rule="evenodd"/><path d="m5709.56 2266.29c-104.44 0-189.11-84.67-189.11-189.11 0-19.09 2.89-37.49 8.15-54.85-49.4 37.31-110.86 59.46-177.52 59.46-31.21 0-61.27-4.88-89.51-13.87 20.9 30.42 33.18 67.22 33.18 106.92 0 104.44-84.67 189.11-189.12 189.11-104.43 0-189.1-84.67-189.1-189.11 0-104.45 84.67-189.12 189.1-189.12 10.33 0 20.37 1.05 30.25 2.64-49.31-52.69-79.57-123.45-79.57-201.31 0-162.8 131.98-294.76 294.77-294.76 162.77 0 294.76 131.96 294.76 294.76 0 44.53-9.94 86.71-27.61 124.56 27.09-14.97 58.2-23.55 91.33-23.55 104.45 0 189.12 84.67 189.12 189.12 0 104.44-84.67 189.11-189.12 189.11"/></g></g></svg>