<svg height="75" viewBox="0 0 100 75" width="100" xmlns="http://www.w3.org/2000/svg" xmlns:xlink="http://www.w3.org/1999/xlink"><linearGradient id="a" gradientUnits="userSpaceOnUse" x1="-865.50775" x2="-1561.045" y1="164.22171" y2="-502.24161"><stop offset="0" stop-color="#2bcbff"/><stop offset="1" stop-color="#a4ecff"/></linearGradient><path d="m-1381.2676-547.56641c-12.591-.0592-25.4047.75908-38.3652 2.50977-138.174 18.675-240.7377 136.36477-229.0117 262.88476 7.672 82.58601 62.1747 148.45336 137.5957 179.06836-25.406 31.053004-45.0221 67.316145-56.7481 107.994145-15.8958 55.329606-15.4925 112.185695-1.5117 166.041015h53.8731c-10.4813-43.69096-10.7889-90.404775 1.0566-136.945312 4.342-17.301 10.2786-33.80249988 17.5176-49.4375 8.034-16.574 16.1407-27.793234 22.2207-34.740234l7.0918-7.3125 2.3886-2.535156 18.2403-18.673829c3.185-3.256 2.7503-8.104671-1.0137-10.638671 0 0-3.7641-2.605157-38.2891-25.910158-26.636-18.023-43.7169-29.89444-61.3769-58.77344-23.307-38.508-32.1375-88.15929-19.9785-138.02929 25.55-104.373 130.4296-176.752 234.2226-161.625 103.792 15.057 167.2695 112.04597 141.6465 216.41797-5.718 23.524-15.562 45.38135-28.373 65.06836-.145 2.17.9406 4.2724 5.1386 5.0664 1.883.072 3.7645.21606 5.6465.28906l.8692.0742c18.385 1.015 36.9141 3.61874 55.3711 8.17774 41.98 10.205 79.546 28.73643 111.539 53.27343 4.342 2.101 8.8292 2.46025 9.1172-4.34375-10.133-29.023-13.1731-60.43753-7.1641-91.26953 17.298-88.667 102.85303-138.68186 191.08403-111.75586 88.159 26.998 145.62713 120.80107 128.32813 209.53907-17.298 88.738996-102.77899 138.755074-191.08399 111.830074-12.158-3.764-23.73823-8.832156-34.74023-14.910156-8.613-2.461-9.77252 2.312375-8.97852 7.234375 27.42353 57.395275 36.09855 123.738537 20.35938 189.929687h75.98047c5.0814-48.66332-1.53822-97.37522-18.09375-143.167968 91.343 12.158 172.48078-37.493297 192.67578-125.654297 24.102-104.224995-46.03433-222.784625-156.48633-264.765625-110.453-41.98-219.45757 8.39531-243.56057 112.69531-4.415 19.325-5.5724 39.08497-3.9804 58.91797-12.376-5.285-25.1884-10.13472-38.3614-14.26172-17.227-5.428-34.3799-9.48122-51.4629-12.44922 22.872-39.809 34.1653-85.33575 29.8223-132.09375-10.6276-114.5935-111.4918-197.14624-233.2051-197.71875z" fill="url(#a)" transform="matrix(.10140438 0 0 .10140438 168.111351 56.585173)"/><path d="m-185.622-321.742c.145.219 14.186 17.732 14.403 18.021 2.823 3.547 4.922 4.129 8.613 4.129 3.402 0 7.383-1.305 7.383-5.066v-25.48c0-3.33-2.171-4.994-6.369-4.994-1.593 0-3.764.291-5.14 1.664-.869.797-1.23 1.955-1.23 3.33v13.463l.145 1.811.506 1.52c.145.291 0 .58-.29.652-.216.143-.434.072-.651-.072l-14.476-18.313c-2.895-3.547-4.995-4.127-8.614-4.127-3.402 0-7.383 1.303-7.383 5.066v25.48c0 3.328 2.099 5.066 6.297 5.066 2.968 0 6.442-.871 6.442-5.066v-13.104l-.217-2.172c-.217-.795-.362-1.084-.362-1.301v.072c-.072-.289 0-.652.29-.725.291-.144.58-.071.653.146" transform="matrix(.10140438 0 0 .10140438 65.537719 89.804558)"/><path d="m-138.821-321.742c.145.219 14.187 17.732 14.404 18.021 2.822 3.547 4.921 4.129 8.54 4.129 3.475 0 7.456-1.305 7.456-5.066v-25.48c0-3.33-2.172-4.994-6.369-4.994-2.896 0-6.371.869-6.371 4.994v13.463l.146 1.811.507 1.52c.072.291-.072.58-.361.652-.218.143-.363.072-.58-.072l-14.476-18.313c-2.896-3.547-4.995-4.127-8.614-4.127-3.329 0-7.383 1.303-7.383 5.066v25.48c0 3.328 2.1 5.066 6.298 5.066 2.968 0 6.442-.871 6.442-5.066v-13.104l-.217-2.172c-.219-.795-.363-1.084-.363-1.301v.072c-.071-.289 0-.652.29-.725.29-.144.579-.071.651.146" transform="matrix(.10140438 0 0 .10140438 65.604208 89.804558)"/><path d="m-248.66-330.118c0-3.258-2.46-5.211-6.731-5.211-2.316 0-4.271.652-5.428 1.809-.869.869-1.23 2.027-1.23 3.33l-.072 8.18c0 .361-.29.725-.724.725h-14.187c-.434 0-.724-.436-.724-.797v-8.107c0-1.375-.507-2.533-1.375-3.475-1.158-1.084-3.041-1.664-5.356-1.664-4.198 0-6.731 1.953-6.731 5.139v24.826c0 1.447.507 2.607 1.375 3.547 1.158 1.084 3.04 1.666 5.356 1.666 4.198 0 6.659-1.883 6.731-5.213l-.072-7.166c0-.578.506-1.084 1.014-1.084l13.969-.072c.434 0 .724.434.724.797v7.525c0 3.33 2.533 5.213 6.731 5.213 2.388 0 4.271-.582 5.356-1.666.941-.869 1.375-2.1 1.375-3.475v-24.827" transform="matrix(.10140438 0 0 .10140438 65.448168 89.816137)"/><path d="m-96.968-299.609h26.201c1.811 0 4.126-.58 4.126-3.402 0-2.824-2.315-3.402-4.126-3.402l-19.18.074c-.652 0-1.159-.578-1.231-1.23v-5.285c.072-.652.579-1.16 1.231-1.16h16.72c1.593 0 2.822-.578 3.474-1.373.434-.58.579-1.158.579-1.955 0-.723-.146-1.303-.579-1.809-.578-.869-1.881-1.375-3.474-1.375h-16.647c-.652 0-1.231-.506-1.231-1.158v-4.559c0-.652.507-1.232 1.231-1.232h19.18c1.882 0 4.126-.578 4.126-3.402 0-2.75-2.244-3.328-4.126-3.4h-26.273c-5.719 0-8.18 1.809-8.18 5.934v22.801c0 4.197 2.461 5.933 8.179 5.933" transform="matrix(.10140438 0 0 .10140438 65.663662 89.773973)"/><path d="m-30.658-305.803c-.797-1.012-2.17-1.52-3.836-1.52h-15.271c-.652 0-1.304-.506-1.304-1.158v-21.133c0-3.332-2.605-5.285-6.948-5.285-4.415 0-7.021 1.953-7.021 5.211v24.176c0 1.881.507 3.258 1.448 4.125 1.23 1.23 3.474 1.811 6.659 1.811h22.437c1.666 0 3.039-.508 3.836-1.521.508-.578.798-1.375.798-2.316-.001-.94-.291-1.737-.798-2.39" transform="matrix(.10140438 0 0 .10140438 65.757867 89.782532)"/><path d="m-207.18-299.589c2.678 0 4.415-.578 5.501-1.734.579-.652.869-1.596.869-2.607v-.725c-.073-1.086-1.375-3.836-3.402-7.742l-9.481-18.604c-2.099-3.764-7.094-4.199-9.121-4.199h-1.881c-4.271 0-7.672 1.594-9.121 4.199l-9.554 18.82c-1.085 2.098-3.112 6.006-3.185 7.309-.072 1.377.362 2.533 1.23 3.475 1.086 1.156 2.896 1.809 4.995 1.809 2.316 0 5.211-.725 5.862-2.314l1.593-3.33.218-.219.289-.217.362-.072h16.72l.361.072.218.217.217.219.361.725c1.159 2.242 1.159 2.242 1.159 2.17.579 1.518 3.33 2.748 5.79 2.748m-10.205-11.941-.145.215h-12.449-.145l-.218-.143.073-.217v-.291c4.922-11.072 5.574-12.594 5.718-12.811l.073-.074-.073.074c.217-.289.434-.434.724-.434.289 0 .579.145.868.504l5.646 13.031z" transform="matrix(.10140438 0 0 .10140438 65.507095 89.773943)"/><path d="m-299.083-312.668c-2.388 0-3.691.363-4.705 1.449-1.665 1.592-3.547 2.605-5.862 2.969-.941.215-1.81.359-2.75.359-1.448 0-2.896-.359-4.199-.795-1.592-.578-2.967-1.447-4.053-2.533-1.665-1.811-2.606-3.98-2.606-6.225s.941-4.416 2.533-6.152c1.158-1.23 2.606-2.1 4.271-2.678 1.303-.508 2.678-.727 4.053-.727.94 0 1.809.146 2.75.363 2.315.289 4.197 1.305 5.935 2.969.94 1.014 2.244 1.375 4.632 1.375 3.402 0 5.79-1.811 5.79-4.127 0-1.375-.579-2.678-1.809-3.98-3.764-3.691-11.87-4.922-17.733-4.922-6.876 0-23.162 1.666-23.523 17.879.361 16.213 16.647 17.877 23.523 17.877 5.863 0 13.97-1.301 17.733-4.994 1.23-1.158 1.809-2.459 1.809-3.836.001-2.388-2.387-4.271-5.789-4.271" transform="matrix(.10140438 0 0 .10140438 65.376536 89.792013)"/><path d="m-394.966-501.783c-19.47.579-35.177 3.04-38.579 6.73-3.185 3.329-7.094 6.151-7.165 10.64-.145 4.416 5.066 4.851 8.178 4.778 3.113 0 6.008-.29 5.936-2.1 0-2.533-4.125-2.028-4.125-4.634 0-3.038 16.068-3.688 24.102-3.688 68.978-.218 148.307 47.552 148.379 88.013.145 31.414-40.823 38.506-63.405 38.579-8.034 0-15.852-.797-23.234-2.244-.29-10.06-.869-31.051-1.158-44.37 2.605 0 4.994-.072 7.093-.072 16.721-.072 38.724 5.863 38.724 9.844 0 3.329-5.863 5.574-5.863 8.758.073 2.39 5.429 2.027 10.133 2.316.796.073 10.278-5.211 10.278-13.534-.073-11.002-13.825-24.104-58.701-23.959-.651 0-1.375.072-2.026.072-.362-12.448-2.171-31.919-9.265-31.919-5.862 0-7.528 21.497-8.034 33.441-25.116 3.761-47.554 14.04-47.554 24.102 0 8.179 18.022 28.951 47.191 41.618.435 9.338 2.244 15.781 10.568 15.781 6.008 0 8.034-4.418 8.686-9.049 9.409 2.314 19.615 3.764 30.472 3.691 42.271-.145 76.216-22.655 76.072-53.633-.145-41.546-83.817-101.188-156.703-99.161m-11.364 103.286c0-7.238 21.931-9.917 42.342-11.002-.217 11.292-.361 27.65-.289 38.507-24.971-8.831-42.053-22.874-42.053-27.505" transform="matrix(.10140438 0 0 .10140438 65.24032 90.053364)"/><path d="m-225.495-424.584c-7.094.072-7.311 28.807-7.6 39.303-.434 24.03 3.113 26.852 9.481 26.78 5.719 0 7.673-.65 7.167-20.774-.869-37.999-3.475-45.309-9.048-45.309" transform="matrix(.10140438 0 0 .10140438 65.481073 89.946675)"/><path d="m-221.839-435.682c15.779-.072 41.039-17.95 40.967-32.934 0-6.658-3.474-10.132-12.16-11.364-3.62-3.474-8.976-7.382-16.938-7.31-24.608.073-40.605 19.688-40.533 30.328 0 3.981 1.23 8.83 4.777 12.883.073 8.469 2.171 10.713 4.922 10.713 3.184 0 4.994-1.809 6.152-3.981 3.548 1.084 7.817 1.737 12.813 1.665m1.665-12.015c-3.692 0-6.732-.435-9.338-1.23 7.021-7.889 23.886-22.802 32.21-22.873 5.428 0 6.369 4.272 6.369 5.936-.001 9.988-20.484 18.095-29.241 18.167m1.157-26.492c-7.6 4.416-15.273 10.64-20.556 16.793-.217-.725-.361-1.593-.361-2.315 0-4.779 7.02-12.233 20.917-14.478" transform="matrix(.10140438 0 0 .10140438 65.486266 89.962017)"/><path d="m-141.061-419.336c0-6.659-17.081-6.587-26.708-6.515-7.237 0-43.935.868-43.79 21.279 0 13.753 20.484 10.424 34.091 11.797 11.074 1.16 24.609 4.706 24.609 8.397 0 8.106-29.387 11.364-35.394 11.364-12.45.072-12.74-3.62-12.74-5.428 0-1.737 2.027-4.921 6.66-4.994 4.704 0 14.33 6.007 20.917 5.935 6.659 0 12.16-2.896 12.16-5.935 0-5.429-22.004-8.034-28.735-8.034-7.166.073-17.372 2.967-17.372 13.681 0 5.571 9.12 18.673 34.598 18.601 25.188-.072 31.485-14.333 31.485-21.713-.072-17.951-16.937-19.979-31.775-21.207-11.073-.87-23.017-1.449-22.944-3.983.074-8.179 54.938-2.098 54.938-13.245" transform="matrix(.10140438 0 0 .10140438 65.601026 89.939424)"/><path d="m-99.805-434.716c-2.099 0-2.46 2.242-2.46 4.559.072 7.022 9.698 31.342 9.698 40.678 0 1.954-.145 5.355-1.592 5.863-2.389.652-22.583-36.263-31.051-36.912-8.613-.581-13.174 36.261-13.174 45.308 0 9.122 1.593 15.2 8.324 15.2 9.988 0 4.85-36.842 8.83-36.842 2.967 0 19.325 33.586 28.373 33.514 9.916 0 15.635-14.405 15.635-23.669-.072-21.499-14.259-47.699-22.583-47.699" transform="matrix(.10140438 0 0 .10140438 65.659635 89.960679)"/><path d="m-32.862-376.935c-3.545 0-23.089 4.343-24.392 3.185-1.303-1.16 1.157-12.45 3.618-13.245 2.46-.798 17.733-.58 20.269-.726 7.092-.362 5.716-9.986 1.373-10.35-2.243-.218-16.068-.218-16.863-1.521-.796-1.229.216-7.672 1.737-8.322 3.184-1.304 24.247-1.883 25.838-2.245 2.605-.651 4.488-2.026 5.139-4.341.652-2.172-7.309-11.365-17.079-10.278-16.865 1.809-38.869 1.736-38.869 7.237.073 5.211 10.351 7.237 10.64 8.687.217 1.445-1.375 6.802-1.954 8.396-.579 1.809-7.962 2.389-8.397 7.455-.144 1.085 1.738 2.968 1.449 4.342-1.158 4.272-4.633 13.028-4.633 16.72 0 5.573 4.197 18.022 15.633 17.663 18.097-.58 34.309-13.176 34.526-15.421.363-3.328-4.561-7.236-8.035-7.236" transform="matrix(.10140438 0 0 .10140438 65.754733 89.880833)"/><path d="m36.339-420.428c-9.845.579-28.808 21.568-39.882 35.685-.651-1.448-1.156-2.823-1.156-4.128 0-6.007 11.218-23.885 13.317-28.372 2.243-4.705-.218-10.856-2.968-8.613-5.284 4.343-22.148 23.957-22.148 42.343 0 4.198 1.084 9.337 3.547 13.968-3.91 12.308-13.102 39.593-12.739 56.167.071 8.541 8.757 17.01 13.968 15.854 2.027-.436 2.461-11.582 4.995-19.254 3.691-10.93 9.555-30.98 11.58-39.521.942.072 1.883.145 2.896.145 20.629-.072 43.501-22.001 43.429-40.965-.073-18.965-11.22-23.526-14.839-23.309m-23.814 46.832c8.324-14.333 20.414-33.441 24.827-33.296 3.186 0 4.343 3.113 4.416 7.816 0 14.042-17.009 25.767-29.243 25.48" transform="matrix(.10140438 0 0 .10140438 65.853045 89.940935)"/></svg>