<?xml version="1.0" encoding="UTF-8" standalone="no"?>
<!-- Created with Inkscape (http://www.inkscape.org/) -->

<svg
   xmlns:dc="http://purl.org/dc/elements/1.1/"
   xmlns:cc="http://creativecommons.org/ns#"
   xmlns:rdf="http://www.w3.org/1999/02/22-rdf-syntax-ns#"
   xmlns:svg="http://www.w3.org/2000/svg"
   xmlns="http://www.w3.org/2000/svg"
   xmlns:sodipodi="http://sodipodi.sourceforge.net/DTD/sodipodi-0.dtd"
   xmlns:inkscape="http://www.inkscape.org/namespaces/inkscape"
   width="583.74298"
   height="344.78992"
   viewBox="0 0 154.44865 91.225669"
   version="1.1"
   id="svg914"
   inkscape:version="0.92.0 r15299"
   sodipodi:docname="diy network.svg">
  <defs
     id="defs908">
    <inkscape:perspective
       id="perspective2841"
       inkscape:persp3d-origin="0.49999997 : 0.33333334 : 1"
       inkscape:vp_z="0.99999994 : 0.50000001 : 1"
       inkscape:vp_y="0 : 1000 : 0"
       inkscape:vp_x="0 : 0.50000001 : 1"
       sodipodi:type="inkscape:persp3d" />
    <inkscape:perspective
       sodipodi:type="inkscape:persp3d"
       inkscape:vp_x="0 : 40.794999 : 1"
       inkscape:vp_y="0 : 1000 : 0"
       inkscape:vp_z="142.63099 : 40.794999 : 1"
       inkscape:persp3d-origin="71.315492 : 27.196665 : 1"
       id="perspective282" />
  </defs>
  <sodipodi:namedview
     id="base"
     pagecolor="#ffffff"
     bordercolor="#666666"
     borderopacity="1.0"
     inkscape:pageopacity="0.0"
     inkscape:pageshadow="2"
     inkscape:zoom="1.3786157"
     inkscape:cx="288.6954"
     inkscape:cy="80.724295"
     inkscape:document-units="mm"
     inkscape:current-layer="layer1"
     showgrid="false"
     inkscape:window-width="1280"
     inkscape:window-height="744"
     inkscape:window-x="-4"
     inkscape:window-y="-4"
     inkscape:window-maximized="1"
     fit-margin-top="0"
     fit-margin-left="0"
     fit-margin-right="0"
     fit-margin-bottom="0"
     units="px" />
  <metadata
     id="metadata911">
    <rdf:RDF>
      <cc:Work
         rdf:about="">
        <dc:format>image/svg+xml</dc:format>
        <dc:type
           rdf:resource="http://purl.org/dc/dcmitype/StillImage" />
        <dc:title></dc:title>
      </cc:Work>
    </rdf:RDF>
  </metadata>
  <g
     inkscape:label="Layer 1"
     inkscape:groupmode="layer"
     id="layer1"
     transform="translate(10.49369,-245.27546)">
    <g
       id="g1032"
       transform="translate(0.84034136,-24.254561)">
      <path
         d="m 78.255325,353.23116 c -1.825268,0.0445 -2.378852,1.34616 -2.378852,2.36551 0,1.8564 1.435093,2.40998 2.642305,2.40998 0.830374,0 2.491124,-0.40907 2.491124,-2.40998 0.0011,-1.50401 -1.037135,-2.4222 -2.754577,-2.36551 z"
         id="path238"
         inkscape:connector-curvature="0"
         style="fill:none;stroke-width:1.11161304" />
      <path
         d="m 41.048527,353.66469 c -0.553584,-0.45243 -1.248342,-0.52246 -1.682983,-0.52246 -1.724111,0 -2.15764,1.06937 -2.331052,1.49067 h 4.669886 c -0.140063,-0.35127 -0.225657,-0.61027 -0.655851,-0.96821 z"
         id="path240"
         inkscape:connector-curvature="0"
         style="fill:none;stroke-width:1.11161304" />
      <polygon
         transform="matrix(1.111613,0,0,1.111613,-11.069449,269.7946)"
         points="67.802,13.712 67.015,14.623 71.721,15.999 71.528,17.453 74.833,15.886 75.942,18.936 76.582,18.704 77.244,18.466 76.135,15.41 79.678,14.481 78.568,13.503 81.318,9.417 80.107,9.235 80.107,6.276 78.291,7.498 77.153,6.734 75.479,10.26 75.07,4.793 73.758,6.327 71.302,4.188 70.792,7.402 68.828,7.063 71.998,11.527 68.48,9.887 68.104,11.211 65.897,11.454 "
         id="polygon242"
         style="fill:none" />
      <path
         d="m 34.530028,322.56287 c 0,-4.83218 -3.509362,-9.42981 -11.568557,-9.42981 -7.110988,0 -11.754195,3.48601 -11.754195,9.42981 0,6.7386 5.687012,9.83333 11.568556,9.83333 7.1121,-0.001 11.754196,-4.28527 11.754196,-9.83333 z"
         id="path244"
         inkscape:connector-curvature="0"
         style="fill:none;stroke-width:1.11161304" />
      <path
         sodipodi:nodetypes="ccccc"
         d="m 84.182446,288.73649 -6.895336,-18.94189 -18.939662,6.89422 6.892001,18.94189 z"
         id="path250"
         style="fill:#000000;stroke:none;stroke-width:1.11161304"
         inkscape:connector-curvature="0" />
      <path
         d="m 34.530028,339.6806 v 4.11964 H 56.81231 V 287.76716 H 34.530028 v 18.23156 c -3.509362,-2.29659 -8.533853,-5.54917 -18.680657,-5.54917 -17.5323598,0 -26.91882,10.77598 -26.91882,22.50905 0,12.84025 10.8082132,21.79762 26.64314,21.79762 4.069616,0 7.963596,-0.6414 11.561887,-1.74856 3.792824,-1.10717 5.501373,-2.13875 7.39445,-3.32706 z M 11.207276,322.56287 c 0,-5.94491 4.643207,-9.42981 11.754195,-9.42981 8.059195,0 11.568557,4.59874 11.568557,9.42981 0,5.54806 -4.643208,9.83333 -11.754196,9.83333 -5.881544,-0.001 -11.568556,-3.09584 -11.568556,-9.83333 z"
         id="path252"
         style="fill:#000000;stroke:none;stroke-width:1.11161304"
         inkscape:connector-curvature="0" />
      <rect
         x="60.119358"
         y="302.06696"
         width="18.48279"
         height="41.689938"
         id="rect256"
         style="fill:#000000;stroke:none;stroke-width:1.11161304" />
      <path
         d="m 30.287001,351.5315 c -0.76479,-0.44575 -1.59183,-0.63473 -2.821274,-0.63473 -1.886407,0 -2.975788,0.59805 -3.978463,1.32727 v -1.15719 H 19.36985 v 9.17192 h 4.117414 v -4.08296 c 0,-0.81147 0.0189,-1.61072 0.75812,-2.221 0.387953,-0.30792 0.871505,-0.42797 1.368396,-0.42797 0.76479,0 1.679647,0.30792 1.974225,1.36617 0.0667,0.24567 0.104491,0.57248 0.104491,1.17609 v 4.19078 h 4.098517 v -4.83218 c 0,-1.81193 -0.08559,-3.03915 -1.504012,-3.8762 z"
         id="path258"
         style="fill:#000000;stroke:none;stroke-width:1.11161304"
         inkscape:connector-curvature="0" />
      <path
         d="m 44.630144,352.51973 c -1.423977,-1.45288 -3.509363,-1.71077 -5.365756,-1.71077 -1.366173,0 -4.117415,0.0567 -5.677008,2.04425 -0.481328,0.60472 -0.914857,1.55404 -0.914857,2.76125 0,2.14652 1.265015,3.56716 3.029145,4.27193 1.122729,0.45354 2.331052,0.60471 3.550492,0.60471 0.793692,0 2.97023,-0.10115 4.56206,-0.96265 1.26835,-0.6981 1.710772,-1.55293 1.937541,-1.97534 l -4.253031,-0.2012 c -0.245667,0.24567 -0.417967,0.40907 -0.849273,0.58471 -0.295689,0.11894 -0.729218,0.24566 -1.211658,0.24566 -0.77924,0 -2.210998,-0.34682 -2.544482,-1.95643 h 9.097441 c -0.03224,-1.01935 -0.08559,-2.40331 -1.360614,-3.70612 z m -7.595652,2.11317 c 0.1723,-0.4213 0.606941,-1.49067 2.331052,-1.49067 0.434641,0 1.129399,0.07 1.682983,0.52246 0.431305,0.35794 0.515788,0.61694 0.656963,0.96821 z"
         id="path260"
         style="fill:#000000;stroke:none;stroke-width:1.11161304"
         inkscape:connector-curvature="0" />
      <path
         d="m 51.393197,356.82945 v -3.01358 h 1.468441 v -2.36551 H 51.3743 v -3.1014 h -3.945115 l -0.03112,3.1014 h -1.320596 v 2.36551 h 1.282801 l -0.05336,3.71834 -0.0189,0.62918 c 0.0189,0.46465 0,0.93042 0.399069,1.43398 0.533575,0.51579 1.248342,0.6036 2.575608,0.6414 h 2.616737 v -2.59895 c -1.054921,0 -1.45399,0 -1.486227,-0.81037 z"
         id="path262"
         style="fill:#000000;stroke:none;stroke-width:1.11161304"
         inkscape:connector-curvature="0" />
      <path
         d="m 67.964012,351.06685 -0.761455,3.944 c -0.1723,0.83038 -0.210095,1.03825 -0.346823,1.88752 -0.122278,-1.05714 -0.194532,-1.31504 -0.533574,-2.32216 l -1.283913,-3.50936 h -4.116303 l -1.469553,3.49713 c -0.417966,1.04937 -0.481328,1.31504 -0.653628,2.28326 -0.09115,-0.77924 -0.122278,-0.98823 -0.257894,-1.83639 l -0.625838,-3.944 h -4.464238 l 3.056935,9.16525 h 4.105187 l 1.676313,-4.06406 c 0.307917,-0.79258 0.377948,-0.98711 0.603606,-1.81749 0.188974,0.76146 0.257894,0.99379 0.553583,1.80526 l 1.468441,4.07629 h 4.032932 l 3.305937,-9.16525 z"
         id="path264"
         style="fill:#000000;stroke:none;stroke-width:1.11161304"
         inkscape:connector-curvature="0" />
      <path
         d="m 78.143052,350.82674 c -3.252579,0.0511 -6.486262,1.3973 -6.486262,4.83885 0,3.60385 3.560497,4.81218 6.775282,4.81218 3.793935,0 6.781951,-1.60962 6.781951,-4.8433 -0.0011,-2.31549 -1.692987,-4.87554 -7.070971,-4.80773 z m 0.376837,7.1788 c -1.207212,0 -2.642304,-0.55359 -2.642304,-2.40998 0,-1.01935 0.553583,-2.32105 2.378852,-2.36551 1.717442,-0.0567 2.755688,0.8615 2.755688,2.36551 -0.0011,2.0009 -1.661861,2.40998 -2.492236,2.40998 z"
         id="path266"
         style="fill:#000000;stroke:none;stroke-width:1.11161304"
         inkscape:connector-curvature="0" />
      <path
         d="m 90.13958,352.51973 v -1.45288 h -4.082955 v 9.17192 h 4.064057 v -4.10185 c 0.0189,-0.41464 0.03668,-0.84928 0.440199,-1.20722 0.252336,-0.24566 0.685865,-0.49022 1.774134,-0.49022 0.352382,0 0.66141,0.0378 0.975997,0.0745 v -3.61719 c -0.522458,0.0133 -1.138292,0.05 -1.906417,0.46577 -0.515788,0.27679 -0.944871,0.67252 -1.265015,1.15719 z"
         id="path268"
         style="fill:#000000;stroke:none;stroke-width:1.11161304"
         inkscape:connector-curvature="0" />
      <polygon
         transform="matrix(1.111613,0,0,1.111613,-11.069449,269.7946)"
         points="94.505,70.373 94.533,81.363 98.144,81.363 98.144,79.58 99.62,78.308 101.646,81.363 105.704,81.363 102.094,76.146 105.585,73.129 100.956,73.129 98.127,75.761 98.127,70.373 "
         id="polygon270"
         style="fill:#000000;stroke:none" />
      <path
         inkscape:connector-curvature="0"
         style="fill:#000000;fill-rule:evenodd;stroke:none;stroke-width:1.11161304"
         id="path2459"
         d="m 74.896032,292.17194 20.977224,35.45412 c 2.12783,3.07358 2.430535,5.34148 -2.148273,5.45447 H 81.972685 v 10.90897 h 17.059791 c 9.427154,0.55057 17.320294,-4.76776 23.378234,-17.10724 l 20.43934,-34.72868 h -23.97767 l -10.10951,24.56351 -9.604026,-24.54515 z" />
    </g>
  </g>
</svg>
