<svg height="137" width="554" xmlns="http://www.w3.org/2000/svg"><path d="m181.064.348c-20.608-.027-34.256 10.836-36.176 27.079a1600.065 1600.065 0 0 1 -1.384 11.257h268.136s.504-3.957.896-7.133c2.016-16.363-4.936-31.201-30.224-31.201v.002s-190.384.008-201.248-.004zm-163.64.005-4.706 38.331h121.6l4.688-38.33h-121.584.002zm408.184 0-4.696 38.331h131.824s.16-1.386.744-5.898c3.208-25.16-13.024-32.433-28.696-32.433zm-6.512 52.926-10.272 83.656 45.48-.016 10.28-83.624-45.488-.018zm86.4 0-10.288 83.656 45.48-.016 10.28-83.624-45.472-.018zm-494.552.012-10.29 83.648h121.592l4.48-36.288-76.138-.008 1.926-15.648h76.108l3.896-31.702h-121.568l-.006-.002zm130.776 0c-3.336 21.832 7.592 31.701 23.08 31.701 8.424 0 61.52-.024 61.52-.024l-1.92 15.672-88.488.008-4.456 36.288s96.336.032 100.24 0c3.224-.232 25.76-.848 33.432-19.28 2.488-5.984 4.688-27.44 5.304-31.944 3.544-26.16-14.568-32.397-28.832-32.397-7.864 0-84.352-.024-99.88-.024zm141.552 0-10.272 83.648h45.456l6.4-51.944h57.096c16.192 0 24.896-8.706 26.512-20.397a430.97 430.97 0 0 0 1.4-11.305h-126.592z" fill="#e52534"/></svg>