<svg enable-background="new 0 0 179 36" viewBox="0 0 179 36" xmlns="http://www.w3.org/2000/svg"><path d="m99.4 0c6.6 0 8.4 3.9 7.9 8.2-.1.8-.2 1.9-.2 1.9h-69.9s.2-1.4.4-3c.5-4.2 4-7.1 9.4-7.1zm7.2 14s-.2 1.4-.4 3c-.4 3.1-2.7 5.4-6.9 5.4h-14.9l-1.6 13.6h-11.8l2.7-22c-.1 0 32.9 0 32.9 0zm-102.2-14h31.7l-1.2 10.1h-31.7zm-1.7 13.9h31.7l-1 8.4h-19.9l-.5 4.1h19.8l-1.1 9.6h-31.7zm108-13.9h25.8c4.1 0 8.3 1.9 7.5 8.5-.1 1.2-.2 1.6-.2 1.6h-34.3zm-4.4 36 2.7-22h11.8l-2.7 22zm22.5 0 2.7-22h11.9l-2.7 22zm-66-22c3.7 0 8.4 1.6 7.5 8.5-.2 1.2-.7 6.8-1.4 8.4-2 4.9-7.9 5-8.7 5.1-1 0-26.1 0-26.1 0l1.2-9.6h23l.5-4.1s-13.8 0-16 0c-4 0-6.9-2.6-6-8.4 4 0 23.9.1 26 .1z"/><path clip-rule="evenodd" d="m169.8 14.3 1.1-9.1h-9.2l-1.1 9.1h-8.6l-1 9h8.6l-1.1 9.3h9.2l1.1-9.3h8.6l1-9z" fill="#f9b300" fill-rule="evenodd"/></svg>