<?xml version="1.0" encoding="utf-8"?>
<!-- Generator: Adobe Illustrator 24.2.3, SVG Export Plug-In . SVG Version: 6.00 Build 0)  -->
<svg version="1.1"
	 id="Layer_1" inkscape:version="0.48.2 r9819" sodipodi:docname="AJAX1.svg" xmlns:cc="http://creativecommons.org/ns#" xmlns:dc="http://purl.org/dc/elements/1.1/" xmlns:inkscape="http://www.inkscape.org/namespaces/inkscape" xmlns:rdf="http://www.w3.org/1999/02/22-rdf-syntax-ns#" xmlns:sodipodi="http://sodipodi.sourceforge.net/DTD/sodipodi-0.dtd" xmlns:svg="http://www.w3.org/2000/svg"
	 xmlns="http://www.w3.org/2000/svg" xmlns:xlink="http://www.w3.org/1999/xlink" x="0px" y="0px" viewBox="0 0 194.5 194.5"
	 style="enable-background:new 0 0 194.5 194.5;" xml:space="preserve">
<style type="text/css">
	.st0{fill:#FFFFFF;}
</style>
<sodipodi:namedview  bordercolor="#666666" borderopacity="1" fit-margin-bottom="0" fit-margin-left="0" fit-margin-right="0" fit-margin-top="0" gridtolerance="10" guidetolerance="10" id="namedview33" inkscape:current-layer="g3" inkscape:cx="53.386965" inkscape:cy="78.739958" inkscape:pageopacity="0" inkscape:pageshadow="2" inkscape:window-height="1004" inkscape:window-maximized="1" inkscape:window-width="1280" inkscape:window-x="-8" inkscape:window-y="-8" inkscape:zoom="2.36" objecttolerance="10" pagecolor="#ffffff" showgrid="false">
	</sodipodi:namedview>
<g>
	<path class="st0" d="M79.7,131c-1.3,0-2.2,0.9-2.3,2.6h4.5C81.9,131.9,81,131,79.7,131z"/>
	<path class="st0" d="M75.6,92.5c0-3.9-0.3-13.3-6.1-13.3c-8.5,0-9.7,16.4-9.7,22.4c0,3.8,0.3,13.2,6.1,13.2
		C74.4,114.8,75.6,98.4,75.6,92.5z"/>
	<path class="st0" d="M121.7,131.2c-1.6,0-2.3,1.2-2.3,3.8c0,2.6,0.7,3.9,2.3,3.9c1.6,0,2.3-1.2,2.3-3.9
		C124,132.4,123.3,131.2,121.7,131.2z"/>
	<path class="st0" d="M115.4,79.2c-8.5,0-9.7,16.4-9.7,22.4c0,3.8,0.3,13.2,6.1,13.2c8.5,0,9.7-16.4,9.7-22.3
		C121.5,88.5,121.2,79.2,115.4,79.2z"/>
	<path class="st0" d="M151.5,102.7c0,2,0.5,6.9,3.4,6.9c4,0,7.6-6.9,8.8-10v0c2.2-5.7,2.9-10.9,4.1-19.5c-0.5-0.2-1-0.3-1.5-0.3
		C156.3,79.8,151.5,94.5,151.5,102.7z"/>
	<path class="st0" d="M97.2,0C43.5,0,0,43.5,0,97.3c0,17.3,4.5,33.5,12.4,47.6c4.7-2.6,5.4-4.8,7.5-14.2c0.9-4.3,4.3-35.6,6.1-51
		l-6,0l0.5-3.4l5.9,0l0.9-5.1C31,51.4,45.7,49.4,50.8,49.5c2.8,0,8.2,1.5,8.1,5c0,2.5-2.1,3.5-4.4,3.5c-3.5-0.1-5.1-2.3-6.8-5.2
		c-6.2,2.6-7.4,16.8-8.1,23.4l7.7,0l-0.5,3.3l-7.6,0c-2.2,21.3-4,39-5.6,47v0c-2.4,11.5-11.4,18.8-19.5,21.3c-0.5-0.8-1-1.7-1.5-2.5
		c16.7,29.4,48.3,49.2,84.6,49.2c53.7,0,97.2-43.5,97.2-97.2C194.5,43.5,150.9,0,97.2,0z M46.5,103.9c0-15.2,9.9-28.3,26.3-28.3
		c10.1,0,16.1,4.5,16.1,14.3c0,15.2-9.9,28.3-26.3,28.3C52.4,118.3,46.5,113.8,46.5,103.9z M69.9,140.9h-2.8v-7.6
		c0-1.6-0.5-2.1-1.4-2.1c-1.2,0-2.1,0.7-2.6,1.2v8.5h-2.8v-11.8h2.6v1.3c1-0.7,2.2-1.5,3.6-1.5c2.3,0,3.5,1.5,3.5,3.9V140.9z
		 M79.6,141.1c-3.1,0-5-2.4-5-6.1c0-3.7,1.9-6.1,5.1-6.1c3.1,0,4.8,2.6,4.8,5.4v1.2h-7.1c0.1,2.4,1.1,3.4,2.5,3.4
		c1.3,0,1.9-0.6,2.6-1.4l2,1.3C83.4,140.4,81.8,141.1,79.6,141.1z M95.1,131.4h-2.3v6.7c0,0.6,0.3,0.8,1,0.8c0.4,0,0.9-0.1,1.3-0.2
		v2.3c-0.8,0.1-1.5,0.2-2.2,0.2c-2.1,0-2.9-1-2.9-2.7v-7h-1.6v-2.3H90v-3.9h2.8v3.9h2.3V131.4z M110.1,140.9h-2.5l-1.7-7.3h-0.1
		l-1.7,7.3h-2.5l-3-11.8h2.7l1.6,7.3h0l1.7-7.3h2.6l1.6,7.3h0l1.7-7.3h2.7L110.1,140.9z M121.7,141.1c-3.2,0-5.1-2.4-5.1-6.1
		c0-3.7,1.9-6.1,5.1-6.1c3.2,0,5.1,2.4,5.1,6.1C126.9,138.7,124.9,141.1,121.7,141.1z M108.5,118.3c-10.1,0-16.1-4.5-16.1-14.3
		c0-15.2,9.9-28.3,26.3-28.3c10.1,0,16.1,4.5,16.1,14.3C134.8,105.1,124.9,118.3,108.5,118.3z M137.3,131.9c-0.1,0-0.3,0-0.5,0
		c-1.4,0-2.6,1.6-2.6,1.9v7.1h-2.8v-11.8h2.6v2h0c0.7-1.4,1.6-2.2,3.3-2.2V131.9z M148.6,140.9l-2.6-5.3l-1.4,1.6v3.6h-2.8v-16.3
		h2.8v9.1h0.1l3.5-4.5h3.2l-3.5,4.4l3.7,7.4H148.6z M164.6,112.7c0-1.9,0.2-4.6,0.6-9.7l-0.2-0.2c-3.3,6.6-9.7,15.5-18,15.5
		c-6.6,0-9.4-6.9-9.4-12.6c0-14.4,11.4-29.4,27.3-29.4h3.3c1.3-10,1.4-14.2,1.4-17.2c0-1,0-1.9-1.1-1.9c-0.8,0-2.1,0.3-5.3,1.3
		l-0.8-2.7c6.5-2.3,13.6-3.8,19.9-3.9c0.8,0,1.1,0,1.1,1.4c0,8.4-6.3,52-6.3,56.5c0,1.2,0,2.8,1.2,2.8c0.6,0,2.8-0.7,5.6-1.7
		l0.8,2.6c-5.8,2.8-12.8,5.1-17.7,5.1C164.5,118.3,164.6,114.3,164.6,112.7z"/>
	<path class="st0" d="M12.4,144.8c0.1,0.2,0.2,0.3,0.3,0.5C12.6,145.1,12.5,145,12.4,144.8C12.4,144.8,12.4,144.8,12.4,144.8z"/>
</g>
</svg>
