<?xml version="1.0" encoding="utf-8"?>
<!-- Generator: Adobe Illustrator 24.2.3, SVG Export Plug-In . SVG Version: 6.00 Build 0)  -->
<svg version="1.1"
	 id="svg2" inkscape:version="0.91 r13725" sodipodi:docname="Freeform 2018.svg" xmlns:cc="http://creativecommons.org/ns#" xmlns:dc="http://purl.org/dc/elements/1.1/" xmlns:inkscape="http://www.inkscape.org/namespaces/inkscape" xmlns:rdf="http://www.w3.org/1999/02/22-rdf-syntax-ns#" xmlns:sodipodi="http://sodipodi.sourceforge.net/DTD/sodipodi-0.dtd" xmlns:svg="http://www.w3.org/2000/svg"
	 xmlns="http://www.w3.org/2000/svg" xmlns:xlink="http://www.w3.org/1999/xlink" x="0px" y="0px" viewBox="0 0 214.1 219.6"
	 style="enable-background:new 0 0 214.1 219.6;" xml:space="preserve">
<sodipodi:namedview  bordercolor="#666666" borderopacity="1.0" fit-margin-bottom="0" fit-margin-left="0" fit-margin-right="0" fit-margin-top="0" id="base" inkscape:current-layer="layer1" inkscape:cx="947.2675" inkscape:cy="371.12611" inkscape:document-units="px" inkscape:pageopacity="0.0" inkscape:pageshadow="2" inkscape:window-height="837" inkscape:window-maximized="1" inkscape:window-width="1600" inkscape:window-x="-8" inkscape:window-y="-8" inkscape:zoom="0.35" pagecolor="#ffffff" showgrid="false">
	</sodipodi:namedview>
<path d="M107.1,0C47.9,0,0,49.2,0,109.8c0,60.6,47.9,109.8,107.1,109.8c59.1,0,107.1-49.2,107.1-109.8C214.1,49.2,166.2,0,107.1,0z
	 M157.5,83.2c-1.6-1-3.2-1.4-4.8-1.4c-1.8,0-3.2,0.5-4.2,1.4c-1,0.9-1.7,2.2-2.1,3.9c-0.3,1.1-0.4,3.2-0.5,6.5h11.6v26.8H146v44.5
	h-34.5v-44.5h-4.7V93.4h-4.7v26.8h-6.7v44.5H60.9v-44.5h-9.4V93.4h9.4c0-10.5,0.8-18.1,2.4-22.6c1.6-4.6,4.8-8.5,9.5-11.6
	c4.8-3.2,10.9-4.8,18.4-4.8c4.7,0,9.9,0.6,15.6,1.9v26.9c-1.6-1-3.2-1.4-4.8-1.4c-1.8,0-3.2,0.5-4.2,1.4c-1,0.9-1.7,2.2-2.1,3.9
	c-0.3,1.1-0.4,3.2-0.5,6.5h11.6v0h4.7c0-10.5,0.8-18.1,2.4-22.6c1.6-4.6,4.8-8.5,9.5-11.6c4.8-3.2,10.9-4.8,18.4-4.8
	c4.7,0,9.9,0.6,15.6,1.9V83.2z"/>
</svg>
