<svg enable-background="new 0 0 214.1 219.6" viewBox="0 0 214.1 219.6" xmlns="http://www.w3.org/2000/svg"><path d="m107.1 0c-59.2 0-107.1 49.2-107.1 109.8s47.9 109.8 107.1 109.8c59.1 0 107.1-49.2 107.1-109.8-.1-60.6-48-109.8-107.1-109.8zm50.4 83.2c-1.6-1-3.2-1.4-4.8-1.4-1.8 0-3.2.5-4.2 1.4s-1.7 2.2-2.1 3.9c-.3 1.1-.4 3.2-.5 6.5h11.6v26.8h-11.5v44.5h-34.5v-44.5h-4.7v-27h-4.7v26.8h-6.7v44.5h-34.5v-44.5h-9.4v-26.8h9.4c0-10.5.8-18.1 2.4-22.6 1.6-4.6 4.8-8.5 9.5-11.6 4.8-3.2 10.9-4.8 18.4-4.8 4.7 0 9.9.6 15.6 1.9v26.9c-1.6-1-3.2-1.4-4.8-1.4-1.8 0-3.2.5-4.2 1.4s-1.7 2.2-2.1 3.9c-.3 1.1-.4 3.2-.5 6.5h11.6 4.7c0-10.5.8-18.1 2.4-22.6 1.6-4.6 4.8-8.5 9.5-11.6 4.8-3.2 10.9-4.8 18.4-4.8 4.7 0 9.9.6 15.6 1.9v26.7z"/></svg>