<svg clip-rule="evenodd" fill-rule="evenodd" height="61" image-rendering="optimizeQuality" shape-rendering="geometricPrecision" text-rendering="geometricPrecision" width="123" xmlns="http://www.w3.org/2000/svg"><path d="m12.5 3.5h7v10c-3.645-.8203-5.9783.513-7 4 5.2921.9948 10.6254 1.3282 16 1-.1664 7.6739.0003 15.3406.5 23 2.5307 4.2901 6.0307 5.1235 10.5 2.5.6258-.7504 1.1258-1.5838 1.5-2.5.4997-7.6594.6664-15.3261.5-23h10c-.1641 2.6873.0026 5.354.5 8 2.549-7.1563 7.7157-10.1563 15.5-9 8.6281-.8523 14.1281 2.8143 16.5 11 6.4115-11.2124 15.5782-14.0457 27.5-8.5 6.064 5.0696 8.73 11.5696 8 19.5-9.025-.3315-18.025.0018-27 1 4.4755 6.6216 9.809 7.4549 16 2.5 3.317-.4983 6.65-.665 10-.5-1.934 7.0945-6.6 11.2611-14 12.5-8.2634 1.0292-14.7634-1.8041-19.5-8.5-3.9279 6.1323-9.5946 9.1323-17 9-6.9804.3557-12.3137-2.311-16-8-.4966 2.3098-.6633 4.6432-.5 7-3.8506.5291-7.3506-.1375-10.5-2-9.615 5.1293-16.9484 2.796-22-7-.4995-5.9908-.6662-11.9908-.5-18-2 0-4 0-6 0v27c-3.33333 0-6.66667 0-10 0-.16657-13.6707.0001-27.3374.5-41 1.3499-5.18072 4.51656-8.51406 9.5-10zm52 22c3.6638-.5001 6.6638.6666 9 3.5 3.3333.3333 6.6667.6667 10 1-.7638 2.0693-1.2638 4.236-1.5 6.5-1.7998-1.817-3.9664-2.9837-6.5-3.5-4.3342-.9003-8.6676-1.7336-13-2.5-.1347-2.0542.532-3.7209 2-5zm34 0c4.857-.6624 8.523 1.1709 11 5.5-5.667.6667-11.3333.6667-17 0 1.5711-2.409 3.5711-4.2423 6-5.5zm-47 7c1.4774 2.307 3.4774 4.1403 6 5.5 5.9067 1.2747 11.5733 3.1081 17 5.5-1.2294 2.4184-3.2294 3.4184-6 3-2.9725.344-5.3058-.656-7-3-3.2683-.987-6.6016-1.3204-10-1 0-3.3333 0-6.6667 0-10z" fill="#fafafb" opacity=".992"/></svg>