<svg clip-rule="evenodd" fill-rule="evenodd" height="100" image-rendering="optimizeQuality" shape-rendering="geometricPrecision" text-rendering="geometricPrecision" width="478" xmlns="http://www.w3.org/2000/svg"><path d="m20.5 5.5c15.5594-3.21259 27.5594 1.78741 36 15-2.6667 1.3333-5.3333 1.3333-8 0-12.8154-12.20271-25.3154-11.86938-37.5 1-6.88579 11.9687-5.05246 22.4687 5.5 31.5 14.601 7.5999 26.2676 4.4333 35-9.5-9.9778-.9985-19.9778-1.3319-30-1 0-2.3333 0-4.6667 0-7 13.0171-.3325 26.0171.0009 39 1-3.9132 19.7395-15.9132 28.5729-36 26.5-22.63235-7.4361-29.46568-22.2694-20.5-44.5 4.57105-5.6795 10.071-10.01285 16.5-13z" fill="#fefefe" opacity=".771"/><path d="m338.5 5.5h7v51c7.696-.3308 15.362.0025 23 1-1.45 1.3498-2.117 3.0165-2 5-9.333 0-18.667 0-28 0 0-19 0-38 0-57z" fill="#fefefe" opacity=".79"/><path d="m420.5 5.5h6v57c-2 0-4 0-6 0 0-19 0-38 0-57z" fill="#fefefe" opacity=".854"/><path d="m243.5 5.5c-.304.64987-.637 1.31654-1 2 1.778 1.76396 3.111 3.764 4 6-5.289-1.2296-10.622-1.2296-16 0-1.731-1.73-3.731-3.0633-6-4 5.754-3.57524 12.088-4.90858 19-4z" fill="#82be36" opacity=".966"/><path d="m243.5 5.5c2.721.46283 5.388 1.1295 8 2-.776 2.6915-.109 5.1915 2 7.5-.556.3826-.889.8826-1 1.5-1.716-1.5248-3.716-2.5248-6-3-.889-2.236-2.222-4.23604-4-6 .363-.68346.696-1.35013 1-2z" fill="#68b254"/><path d="m294.5 5.5c1.809.98124 3.143 2.48124 4 4.5 1.333.3333 2.667.6667 4 1-1.237.2321-2.237.7321-3 1.5-3.07-.1323-6.07.201-9 1-1.429-.7342-2.429-1.9009-3-3.5 1.044-1.1739 2.044-2.34056 3-3.5 1.208-.73411 2.541-1.06745 4-1z" fill="#517fc0"/><path d="m294.5 5.5c16.795-.69911 27.628 6.9676 32.5 23 .667 4 .667 8 0 12-.232 1.2375-.732 2.2375-1.5 3-.958.4528-1.792 1.1195-2.5 2-.333-1-.667-2-1-3-.951-.3836-1.784-.7169-2.5-1 3.452-16.7874-3.215-26.4541-20-29 .763-.7679 1.763-1.2679 3-1.5-1.333-.3333-2.667-.6667-4-1-.857-2.01876-2.191-3.51876-4-4.5z" fill="#6d62a9" opacity=".99"/><path d="m224.5 9.5c2.269.9367 4.269 2.27 6 4-2.36 2.3532-5.027 4.3532-8 6-.992-1.9561-1.992-3.9561-3-6 1.642-1.303 3.309-2.6363 5-4z" fill="#b9cb47"/><path d="m251.5 7.5c13.382 7.4352 18.716 18.7686 16 34-1.432-4.2317-2.932-8.565-4.5-13-.383.556-.883.8893-1.5 1-1.768-5.2083-4.768-9.5416-9-13 .111-.6174.444-1.1174 1-1.5-2.109-2.3085-2.776-4.8085-2-7.5z" fill="#5ead6b"/><path d="m290.5 6.5c-.956 1.15944-1.956 2.3261-3 3.5.571 1.5991 1.571 2.7658 3 3.5-3 2-6 4-9 6-2.227-.9006-3.227-2.5672-3-5 2.958-4.1515 6.958-6.81815 12-8z" fill="#4695cc"/><g fill="#fefefe"><path d="m83.5 18.5c6.6327-.2652 12.1327 2.0681 16.5 7 .495-1.9727.662-3.9727.5-6 2.292-.2564 4.459.0769 6.5 1 .5 13.996.667 27.996.5 42-2.333 0-4.667 0-7 0 .16-1.6992-.006-3.3659-.5-5-9.967 7.8259-20.1337 7.9926-30.5.5-10.7344-14.4722-8.7344-26.8055 6-37 2.8102-.7823 5.4768-1.6156 8-2.5zm-2 7c16.5335 1.0691 22.033 9.4024 16.5 25-5.788 7.3786-12.9546 8.8786-21.5 4.5-7.0028-5.7424-8.8362-12.9091-5.5-21.5 2.8552-3.7107 6.3552-6.3774 10.5-8z" opacity=".762"/><path d="m129.5 18.5c6.629-.2673 12.129 2.066 16.5 7-.313-5.3854 2.187-7.3854 7.5-6 .167 14.6705 0 29.3371-.5 44-4.304 11.9091-12.804 16.7425-25.5 14.5-8.97-2.1344-14.303-7.6344-16-16.5 2.027-.1621 4.027.0045 6 .5 1.757 2.8456 3.757 5.5122 6 8 6.106 2.8676 12.106 2.8676 18 0 4.332-3.0995 5.832-6.9328 4.5-11.5-10.227 6.8274-20.227 6.494-30-1-9.559-12.5783-8.392-24.0783 3.5-34.5 3.203-2.0029 6.536-3.5029 10-4.5zm-1 7c14.791.5944 20.624 7.9277 17.5 22-5.073 9.691-12.573 12.191-22.5 7.5-7.615-6.8557-8.781-14.6891-3.5-23.5 2.322-2.8953 5.155-4.8953 8.5-6z" opacity=".765"/><path d="m177.5 18.5c6.814.1577 12.314 2.8244 16.5 8 .497-2.3098.663-4.6432.5-7h6v43c-2 0-4 0-6 0 .16-1.6992-.006-3.3659-.5-5-9.435 7.4165-19.268 7.9165-29.5 1.5-8.735-9.0786-10.235-19.2452-4.5-30.5 4.669-5.5787 10.502-8.9121 17.5-10zm-3 7c13.814-.3541 20.314 6.3126 19.5 20-4.92 11.4191-13.086 14.5858-24.5 9.5-10.364-11.9837-8.697-21.817 5-29.5z" opacity=".8"/><path d="m389.5 18.5c6.629-.2673 12.129 2.066 16.5 7 .495-1.9727.662-3.9727.5-6h7v43c-2.333 0-4.667 0-7 0 .16-1.6992-.006-3.3659-.5-5-9.928 7.8342-20.095 8.0008-30.5.5-10.464-14.4562-8.464-26.7896 6-37 2.81-.7823 5.477-1.6156 8-2.5zm-2 7c11.22-.387 17.886 4.9463 20 16-3.116 14.2977-11.449 18.7977-25 13.5-7.297-6.3381-8.797-13.8381-4.5-22.5 2.529-3.3849 5.696-5.7182 9.5-7z" opacity=".768"/><path d="m453.5 18.5c6.629-.2673 12.129 2.066 16.5 7 .495-1.9727.662-3.9727.5-6h6v43c-2 0-4 0-6 0 .16-1.6992-.006-3.3659-.5-5-10.303 7.9318-20.637 7.9318-31 0-9.817-13.3194-8.317-25.1528 4.5-35.5 3.35-1.4863 6.684-2.653 10-3.5zm-3 7c17.022.5198 22.855 8.8532 17.5 25-9.272 9.4711-18.272 9.1378-27-1-4.272-11.1038-1.105-19.1038 9.5-24z" opacity=".793"/></g><path d="m278.5 14.5c-.227 2.4328.773 4.0994 3 5-2.123 3.3674-3.456 7.034-4 11-2.461-2.5912-4.128-5.5912-5-9 1.281-2.9474 3.281-5.2807 6-7z" fill="#4d9fa9" opacity=".967"/><path d="m272.5 21.5c.872 3.4088 2.539 6.4088 5 9-1.214 2.6293-1.214 5.296 0 8-.996.0858-1.829-.2476-2.5-1-1.559-1.7166-2.392-3.7166-2.5-6-1 0-2 0-3 0 .693-3.4415 1.693-6.7748 3-10z" fill="#54a68c"/><path d="m219.5 13.5c1.008 2.0439 2.008 4.0439 3 6-4.82 7.0377-6.154 14.7044-4 23-1.538-3.3995-3.371-6.7328-5.5-10-.377 1.4423-1.21 2.4423-2.5 3-.099-8.7258 2.901-16.0592 9-22z" fill="#eed54f"/><path d="m267.5 41.5c-.778 3.0395-2.112 5.7062-4 8-1.258-3.1939-1.924-6.5272-2-10 0-3.3333 0-6.6667 0-10 .617-.1107 1.117-.444 1.5-1 1.568 4.435 3.068 8.7683 4.5 13z" fill="#69b448" opacity=".965"/><path d="m319.5 41.5c.716.2831 1.549.6164 2.5 1 .333 1 .667 2 1 3 .708-.8805 1.542-1.5472 2.5-2-1.77 5.2133-4.77 9.5466-9 13-1.634-.7066-2.968-1.8732-4-3.5 1.323-.8159 1.989-1.9826 2-3.5 2.194-2.3997 3.861-5.0664 5-8z" fill="#5779bb" opacity=".95"/><path d="m269.5 31.5h3c.108 2.2834.941 4.2834 2.5 6 .671.7524 1.504 1.0858 2.5 1 .757 3.6114 2.09 6.9447 4 10 1.081 3.8152 2.414 7.4819 4 11-10.979-5.9416-16.312-15.275-16-28z" fill="#5cab71"/><path d="m218.5 42.5c2.08 3.1421 4.414 6.1421 7 9-.801 1.5418-1.134 3.2085-1 5 2.642-.0123 3.975 1.321 4 4-11.127-4.5684-17.127-12.9018-18-25 1.29-.5577 2.123-1.5577 2.5-3 2.129 3.2672 3.962 6.6005 5.5 10z" fill="#fbc653" opacity=".996"/><path d="m261.5 39.5c.076 3.4728.742 6.8061 2 10-1.257 2.9274-3.257 5.2607-6 7-.891-.7613-1.558-1.7613-2-3-.825-.8857-1.825-1.219-3-1 3.764-3.8821 6.764-8.2155 9-13z" fill="#84be36"/><path d="m281.5 48.5c3.404 3.3681 7.404 5.7014 12 7 2.076 1.8075 3.409 4.1408 4 7-4.332.2205-8.332-.7795-12-3-1.586-3.5181-2.919-7.1848-4-11z" fill="#53a588"/><path d="m314.5 49.5c-.011 1.5174-.677 2.6841-2 3.5 1.032 1.6268 2.366 2.7934 4 3.5-2.981 2.9876-6.648 4.6543-11 5 .304-.6499.637-1.3165 1-2-1.13-1.1223-1.797-2.4557-2-4 3.964-.9807 7.297-2.9807 10-6z" fill="#4591c9"/><path d="m252.5 52.5c1.175-.219 2.175.1143 3 1 .442 1.2387 1.109 2.2387 2 3-2.981 2.9876-6.648 4.6543-11 5-2.912-.8452-3.912-2.5118-3-5 2.957-1.3234 5.957-2.6568 9-4z" fill="#b4c842" opacity=".979"/><path d="m293.5 55.5c3.634 1.258 7.3 1.258 11 0 .203 1.5443.87 2.8777 2 4-.363.6835-.696 1.3501-1 2-2.448.9731-5.115 1.3064-8 1-.591-2.8592-1.924-5.1925-4-7z" fill="#419ab9" opacity=".971"/><path d="m225.5 51.5c5.387 3.682 11.387 5.3487 18 5-.912 2.4882.088 4.1548 3 5-6.001 1.4777-12.001 1.1444-18-1-.025-2.679-1.358-4.0123-4-4-.134-1.7915.199-3.4582 1-5z" fill="#e2d44b" opacity=".991"/><path d="m234.5 66.5c.976 1.3149 1.976 2.6482 3 4-.743.6818-1.409 1.3485-2 2-1.935.6495-3.935.9828-6 1-.17-2.704-1.503-4.3707-4-5 2.719-1.413 5.719-2.0797 9-2z" fill="#face4f"/><path d="m296.5 66.5h9c1.574 2.143 2.908 4.4763 4 7-3.333-.3333-6.667-.6667-10-1-3.176-1.0169-4.176-3.0169-3-6z" fill="#479fa7" opacity=".97"/><path d="m316.5 76.5c2.087-1.0846 3.42-2.7512 4-5 6.583-5.2966 13.25-5.2966 20 0 7.617 9.5543 6.283 17.7209-4 24.5-10.265 2.9521-17.098-.5479-20.5-10.5-.495-3.0314-.329-6.0314.5-9z" fill="#fcfdfb" opacity=".89"/><path d="m234.5 66.5c4.863-.3195 9.53.0139 14 1 1.678 2.6947 3.344 5.3614 5 8-5.797-2.025-11.797-3.025-18-3 .591-.6515 1.257-1.3182 2-2-1.024-1.3518-2.024-2.6851-3-4z" fill="#e0d34a" opacity=".986"/><path d="m296.5 66.5c-1.176 2.9831-.176 4.9831 3 6-3.791.1587-7.458.8254-11 2-.569-2.8345-2.236-4.5012-5-5 3.905-2.3764 8.239-3.3764 13-3z" fill="#5cac70"/><path d="m225.5 68.5c2.497.6293 3.83 2.296 4 5-3.118 1.0587-6.118 2.3921-9 4 .221-1.2348.888-2.2348 2-3-.577-2.0499-1.91-3.0499-4-3 1.926-1.7927 4.259-2.7927 7-3z" fill="#f49146" opacity=".829"/><path d="m283.5 69.5c2.764.4988 4.431 2.1655 5 5-3.978 1.5037-7.978 2.6704-12 3.5-1.829-1.1133-2.663-2.6133-2.5-4.5 2.865-2.015 6.032-3.3484 9.5-4z" fill="#6fb742" opacity=".924"/><path d="m305.5 66.5c5.351.6726 10.351 2.3393 15 5-.58 2.2488-1.913 3.9154-4 5-2.518-.7638-4.851-1.7638-7-3-1.092-2.5237-2.426-4.857-4-7z" fill="#4296c9"/><path d="m218.5 71.5c2.09-.0499 3.423.9501 4 3-1.112.7652-1.779 1.7652-2 3-.891.6098-1.891.9431-3 1-.763-1.8684-1.763-3.5351-3-5 .787-1.6042 2.12-2.2709 4-2z" fill="#f06e43"/><path d="m248.5 67.5c10.43 1.2729 18.764 6.1062 25 14.5-.786 1.9876-2.286 3.1543-4.5 3.5-4.771-3.9353-9.937-7.2687-15.5-10-1.656-2.6386-3.322-5.3053-5-8z" fill="#adc743"/><path d="m326.5 75.5c4.429 1.0877 8.095 3.4211 11 7-2.905 3.5789-6.571 5.9123-11 7 0-4.6667 0-9.3333 0-14z" fill="#75bc35"/><path d="m214.5 73.5c1.237 1.4649 2.237 3.1316 3 5-3.438 2.9347-6.771 6.1014-10 9.5-4.95.7286-6.45-1.1047-4.5-5.5 3.155-4.0025 6.988-7.0025 11.5-9z" fill="#e83939"/></svg>