<svg height="196.38339" width="194.46436" xmlns="http://www.w3.org/2000/svg"><g transform="translate(-279.1088 -358.6745)"><rect fill="#f89520" height="61.40979" ry="12.793706" width="60.130417" x="279.12112" y="358.6745"/><rect fill="#ec5925" height="61.40979" ry="12.793706" width="60.130417" x="345.63608" y="358.6745"/><g fill="#e21e28"><rect height="61.40979" ry="12.793706" width="60.130417" x="413.44272" y="358.6745"/><rect height="61.40979" ry="12.793706" width="60.130417" x="413.44272" y="425.84143"/><rect height="61.40979" ry="12.793706" width="60.130417" x="346.27576" y="425.84143"/><rect height="61.40979" ry="12.793706" width="60.130417" x="279.1088" y="425.84143"/></g><rect fill="#f89520" height="61.40979" ry="12.793706" transform="scale(-1 1)" width="60.130417" x="-473.57315" y="493.6481"/><rect fill="#ec5925" height="61.40979" ry="12.793706" transform="scale(-1 1)" width="60.130417" x="-407.0582" y="493.6481"/><rect fill="#e21e28" height="61.40979" ry="12.793706" transform="scale(-1 1)" width="60.130417" x="-339.25156" y="493.6481"/><path d="m310.29112 479.62945c-3.37497 0-6.49273-.54544-9.35331-1.63629-2.86061-1.09086-5.3403-2.62414-7.43912-4.59988-2.09882-1.97572-3.74516-4.33202-4.939-7.06891-1.19386-2.73686-1.79079-5.75132-1.79079-9.04337v-.12436c0-3.12748.58657-6.05965 1.7597-8.79657 1.17312-2.73685 2.78869-5.12391 4.84669-7.16123 2.05799-2.03722 4.51728-3.63206 7.37789-4.78451 2.86058-1.15235 5.95761-1.72856 9.29113-1.7286 3.82707.00004 7.12979.55552 9.90816 1.66644 2.77828 1.11099 5.31984 2.65433 7.62469 4.63002l-7.03876 8.45744c-1.56379-1.31629-3.15863-2.32425-4.78451-3.02388-1.62596-.69958-3.50905-1.04938-5.64929-1.04941-1.56378.00003-3.01448.3087-4.35213.92601-1.33769.61737-2.50014 1.46078-3.48736 2.53026-.98724 1.06953-1.76912 2.32461-2.34561 3.76525-.57654 1.44068-.8648 2.98434-.86479 4.63096v.12434c-.00001 1.72831.28825 3.3332.86479 4.81466.57649 1.48151 1.38945 2.74695 2.43888 3.79634 1.04939 1.04941 2.28407 1.87243 3.70402 2.46903 1.41991.59662 2.99402.89492 4.72234.89491 2.79839.00001 5.1032-.59659 6.91441-1.78983v-5.24704h-8.51961v-8.76643h19.87847v19.44704c-2.30484 1.89283-5.02099 3.4773-8.14846 4.75342-3.12753 1.27613-6.66701 1.91419-10.61843 1.91419z" fill="#fff"/><path d="m377.08004 479.50511c-3.68185 0-7.17779-.59661-10.48783-1.78984-3.31006-1.19321-6.23819-2.98368-8.78439-5.37139l6.34578-7.96383c4.11216 3.45785 8.55783 5.18677 13.33705 5.18676 1.5277.00001 2.69321-.25748 3.49654-.77246.80329-.51495 1.20495-1.24533 1.20496-2.19113v-.12435c-.00001-.45216-.098-.85313-.29406-1.20295-.19607-.34979-.55858-.68955-1.08751-1.01926-.52899-.32971-1.23398-.64873-2.11496-.95709-.88103-.30835-2.02683-.62707-3.43737-.95616-2.19357-.53505-4.23052-1.12162-6.11088-1.75969-1.88037-.63805-3.51568-1.46137-4.90591-2.46997-1.39025-1.00857-2.48703-2.26396-3.29033-3.76619-.80331-1.50219-1.20496-3.36424-1.20496-5.58618v-.12434c0-2.01588.3625-3.86758 1.08751-5.55508.72501-1.68743 1.78263-3.14851 3.17288-4.38322 1.39024-1.23463 3.06469-2.19172 5.02336-2.87127 1.95865-.67947 4.17163-1.01923 6.63894-1.01927 3.5264.00004 6.6703.48362 9.4317 1.45071 2.76134.96718 5.25852 2.3978 7.49156 4.29184l-5.70026 8.45745c-1.88039-1.39918-3.80946-2.45896-5.78721-3.17932-1.97782-.7203-3.88716-1.08045-5.72805-1.0805-1.37115.00005-2.39948.26758-3.08503.80261-.68558.53509-1.02836 1.19326-1.02834 1.97446v.12436c-.00002.49365.10757.92571.32276 1.29621.21516.37056.58722.70999 1.1162 1.01833.52895.30837 1.25366.61704 2.17413.926.92043.30901 2.08594.62803 3.49653.95708 2.35013.53511 4.47495 1.16279 6.37446 1.88311 1.89946.72035 3.51535 1.59485 4.84765 2.62352 1.33223 1.02871 2.35071 2.27374 3.05543 3.7351.70466 1.46141 1.05699 3.20068 1.05704 5.21784v.12246c-.00005 2.22318-.4014 4.19891-1.20408 5.92719-.80274 1.72829-1.9288 3.19941-3.37818 4.41335-1.44945 1.21396-3.19264 2.13995-5.22958 2.77802-2.03697.63806-4.30883.95709-6.81555.95709z" fill="#fff"/><path d="m423.81997 435.54863h10.63485l16.92147 22.84395v-22.84395h11.28038v43.21605h-9.98756l-17.56877-23.70684v23.70684h-11.28037z" fill="#fff"/></g></svg>