<svg height="512" viewBox="0 0 1000 512.00001" width="1000" xmlns="http://www.w3.org/2000/svg"><clipPath><path d="m0 0h1023.8711v624.92187h-1023.8711zm0 0"/></clipPath><g fill="#00aad4" transform="matrix(.77997416 0 0 .77975545 382.11422230238 -462.18258239693)"><path d="m-489.90625 903.84375v338.25005h113.0625v-121.2813h103.40625v121.2813h113.03125v-338.25005h-113.03125v119.34375h-103.40625v-119.34375z"/><path d="m39.9375 896.625c-26.73814.00034-51.448782 4.42463-74.15625 13.28125-22.707715 8.85727-42.43703 21.18678-59.1875 36.96875-16.75059 15.78256-29.81274 34.44944-39.15625 56.0312-9.34356 21.5824-14.00002 44.9369-14 70.0626v.9687c-.00002 26.0893 4.89351 49.918 14.71875 71.5 9.82518 21.5821 23.36147 40.0997 40.59375 55.5625 17.232144 15.4628 37.374138 27.406 60.40625 35.7812 23.0318581 8.3753 47.7425 12.5626 74.15625 12.5626 30.925375 0 58.96766-4.6878 84.09375-14.0313 25.12552-9.3435 46.85573-21.5803 65.21875-36.7187v-156.5313h-163.8125v72.4687h58v33.8126c-4.502443 2.5756-9.669206 4.4935-15.46875 5.7812-5.800004 1.2878-13.524692 1.9376-23.1875 1.9375-11.914319.0001-22.768713-1.9179-32.59375-5.7813-9.8253849-3.863-18.2876275-9.3498-25.375-16.4374-7.087669-7.0874-12.662195-15.6063-16.6875-25.5938-4.025568-9.9873-6.031376-20.9607-6.03125-32.875v-.9375c-.000126-11.5994 1.861326-22.2431 5.5625-31.9063 3.700911-9.6628 8.919311-18.0372 15.6875-25.125 6.7678949-7.0872 14.8174588-12.6305 24.15625-16.6562 9.338448-4.02515 19.486538-6.06225 30.4375-6.0625 14.17484.00025 27.386252 2.59922 39.625 7.75 12.238265 5.1512 24.00582 12.4018 35.28125 21.75l63.28125-76.375c-18.36302-16.10145-39.21132-28.63678-62.5625-37.65625-23.351744-9.01881-49.686762-13.53091-79-13.53125z"/><path d="m193.4375 903.84375v95.6875h93.1536v242.56255h105.8178v-242.56255h93.1536v-95.6875z"/><path d="m409.5 903.84375 137.21875 340.65625h108.25l137.21875-340.65625h-124.65625l-65.71875 189.90625-65.71875-189.90625z"/><path d="m-42.677353 592.72768-440.880687 288.6906 875 1.51922z"/></g></svg>