<svg height="329.81302" viewBox="0 0 999.99997 329.81303" width="1000" xmlns="http://www.w3.org/2000/svg"><path d="m-241.01194 192.76828c16.556 13.46 24.846 34.472 24.846 63.043v143.478h-78.882v-132.919c0-5.794-2.174-10.869-6.521-15.217-4.349-4.349-9.425-6.521-15.218-6.521h-45.963c-5.803 0-10.772 2.173-14.906 6.521-4.144 4.348-6.212 9.423-6.212 15.217v132.919h-79.504v-329.813004h79.503v107.453004c1.243-.408 4.134-1.242 8.697-2.485 4.551-1.241 10.557-1.862 18.012-1.862h50.931c26.912-.001 48.652 6.734 65.217 20.186zm250.3109986-20.187h79.5030004v139.13c0 26.087-7.144 47.205-21.428 63.354-14.286 16.149-33.648 24.224-58.0750004 24.224h-78.2609996c-27.329 0-49.174999-7.55-65.526999-22.67-16.364-15.111-24.536-36.743-24.536-64.907v-139.13h79.502999v132.919c0 5.804 2.069 10.772 6.212 14.907 4.134 4.144 9.104 6.211 14.907 6.211h45.964c5.7929996 0 10.8679996-2.067 15.2169996-6.211 4.349-4.135 6.521-9.104 6.521-14.907zm139.7510014-103.105004h79.503v329.813004h-79.503zm387.57798 103.105004v139.13c0 26.087-7.144 47.205-21.429 63.354s-33.646 24.224-58.074 24.224h-77.64c-27.746 0-49.797-7.55-66.149-22.67-16.363-15.111-24.534-36.743-24.534-64.907v-139.13h79.503v132.919c0 5.804 2.066 10.772 6.211 14.907 4.135 4.144 9.104 6.211 14.906 6.211h46.584c5.795 0 10.764-2.067 14.907-6.211 4.134-4.135 6.212-9.104 6.212-14.907v-132.92z" fill="#3dbb3d" transform="translate(463.37194 -69.476276)"/></svg>