<svg height="579.40198" width="1000" xmlns="http://www.w3.org/2000/svg"><g transform="matrix(17.544211 0 0 17.544211 -8246.48094 -1099.14482)"><path d="m525.826 67.534c-.641-.86-3.175-2.788-5.936-4.884.067.055.134.109.199.165.007.007.016.014.022.021.062.054.124.109.186.165.01.008.018.017.027.026.062.055.121.111.18.169.007.007.014.014.021.021.122.119.239.241.352.367.01.008.017.018.025.026.053.06.106.12.158.181.009.011.018.022.027.033.052.061.103.123.151.185.008.01.016.02.021.028.053.066.104.133.153.2.251.336.222.525.03.688-.193.161-5.962 4.952-6.196 5.138-.237.186-.435.06-.517-.016-.796-.735-1.656-1-2.923-.749-2.044.401-3.806 2.646-3.743 4.855l.002.044c.064 2.275 1.924 3.368 3.969 2.964.046-.009.092-.019.136-.029.036-.462.088-.685.088-.685.341-2.034 1.948-3.663 3.678-4.002 1.041-.206 1.806-.059 2.487.406.009.007.432.34.434.342.084.076.279.203.517.016l6.401-5.072c.096-.076.158-.192.158-.322.003-.111-.039-.208-.107-.281"/><path d="m526.957 80.517-4.613-3.657-.002.001c.01.008.02.019.028.029 0 .001.001.001.001.003.008.01.016.021.021.032 0 .001.001.002.002.003.005.012.01.024.013.036v.002c.025.092.001.208-.039.32-.001.001-.001.003-.002.006-.005.014-.011.027-.016.041-.001.003-.002.007-.004.011-.006.012-.01.025-.017.037-.001.004-.003.009-.005.014-.006.011-.011.022-.015.033-.003.005-.005.01-.009.016-.004.009-.008.02-.013.029-.004.007-.006.014-.009.02-.005.007-.025.049-.032.061-1.85 3.679-5.513 7.109-10.33 8.068-.964.192-1.839.281-2.628.272-5.464.016-9.393-3.649-9.538-10.171l-.001-.068c-.067-3.33.743-6.219 2.216-8.555.01-.017.021-.035.032-.053-.488-.387-3.847-3.034-3.953-3.116.072.064.119.157.119.262v.246 6.862.002c0 .177-.13.323-.301.349l-7.21 1.18s0 0-.001 0l.001.003c-.099 0-.18.08-.18.181l-.001-.001v3.009h.001c0 .1.081.18.18.18v.002s6.081-.998 6.109-.998c.195 0 .353.158.353.353v.004 6.991.002c0 .176-.128.321-.296.348l-6.165 1.007s0 0-.001 0l.001.002c-.089 0-.163.066-.177.151v4.39.002c0 .184-.139.335-.319.352 0 0-7.103 1.165-7.883 1.287-.01.002-.02.003-.029.004-.025.004-.039.006-.041.006-.195 0-.353-.157-.353-.353v-.002-20.087l-3.267-2.573s.002.001.005.004c.081.064.132.164.132.275v.251 22.754.002c0 .173-.124.316-.287.347l-8.129 1.329c-.024.006-.049.009-.075.009-.07 0-.135-.021-.19-.057l4.482 3.555c.093.072.161.123.259.113.007 0 9.808-1.604 9.808-1.604.166-.029.292-.173.292-.347v-1.402l1.662 1.321c.119.093.247.071.247.071l8.018-1.311c.167-.027.296-.172.296-.348v-4.487c.005-.078.058-.142.13-.163l.046-.008h.003l7.189-1.177c.167-.028.294-.173.294-.349v-1.789c2.764 2.677 6.771 4.524 6.774 4.525 1.96.937 4.36 1.182 7.003.656 4.817-.959 8.47-4.369 10.319-8.047.1-.195.284-.545.095-.698"/></g></svg>