<svg height="71.966667mm" viewBox="0 0 237.36391 71.966667" width="237.36391mm" xmlns="http://www.w3.org/2000/svg"><g fill="#f51a50" stroke-width=".264583" transform="matrix(.86536457 0 0 .85696282 124.56952 -166.060956)"><path d="m-124.37117 256.61702h2.14312c9.78958 0 15.98083-5.23875 24.817918-18.04458h.15875l-6.429378 20.10833h-40.26958v-.15875c3.86292-2.2225 4.81542-4.28625 6.19125-9.94833l9.94833-39.87271c.60854-2.48709.9525-4.28625.9525-5.66209 0-1.87854-.50271-3.09562-2.14312-4.28625v-.15875h22.75416v.15875c-3.86291 2.2225-4.81541 4.28625-6.19125 9.9748z"/><path d="m-82.355341 250.87556c-.105833.52917-.15875 1.08479-.15875 1.64042 0 1.45521.687917 2.40771 2.06375 2.40771.79375-.0265 1.561042-.26459 2.2225-.68792v.15875c-2.672291 3.70417-6.006041 5.15937-9.710208 5.15937-5.582708 0-7.990417-3.3602-7.990417-7.91104-.02646-1.24354.132292-2.48708.423334-3.70416l5.503333-22.41021c.687917-2.75167 1.11125-4.39209 1.11125-5.58271 0-1.53458-.502708-2.56646-1.799167-3.59833v-.18521h17.012708zm4.709583-55.29792c4.392084 0 7.46125 3.175 7.46125 7.3025.02646 4.52438-3.624791 8.22855-8.149166 8.255-.02646 0-.05292 0-.07937 0-4.392083 0-7.46125-3.175-7.46125-7.3025-.07938-4.49791 3.518958-8.20208 8.016875-8.255.05292-.0265.132291-.0265.211666 0z"/><path d="m-52.483883 216.16223h6.455833l-1.031875 2.14312h-5.847291l-9.630833 38.99959c-3.518959 14.34041-9.710209 20.26708-22.410208 20.45229v-.15875c4.550833-3.09563 6.535208-10.55688 10.477499-27.75479l7.3025-31.51188h-3.942291l.264583-.9525 4.365625-1.87854.767292-2.40771c3.095625-12.27667 12.356041-19.31458 22.172083-19.31458 5.423958 0 9.789583 2.67229 9.789583 7.11729 0 5.08-3.704167 7.91104-7.990417 7.91104-2.831041 0-4.815416-1.53458-5.23875-3.36021 2.566459-.42333 5.423959-2.67229 5.423959-7.56708 0-1.64042-.846667-2.75167-2.407709-2.75167-3.095625 0-5.662083 4.28625-7.3025 14.34042z"/><path d="m-52.298674 243.81119c0-13.6525 11.244791-28.60146 25.929166-28.60146 7.037916 0 10.556875 3.59833 10.556875 8.67833 0 9.63083-10.398125 13.73188-22.410208 14.26104-.264584 1.61396-.396875 3.25438-.423334 4.89479 0 6.87917 3.254375 10.21292 7.805209 10.21292 3.862916 0 6.535208-1.87854 9.789583-6.19125h.529166c-3.598333 8.33438-9.789583 12.46188-17.250833 12.46188-8.519583 0-14.525624-5.3975-14.525624-15.71625zm14.340416-6.93209c7.223125-2.2225 12.620625-10.55687 12.620625-17.35666 0-1.7198-.608542-2.75167-1.719792-2.75167-3.862916 0-9.101666 10.55687-10.900833 20.10833z"/><path d="m-2.6628418 248.36202c-.1852083.58208-.2645833 1.19062-.2645833 1.79917 0 2.48708 1.6404166 3.94229 3.70416661 3.94229 1.37583329 0 3.17499999-.76729 4.81541659-2.32834l.079375.15875c-3.1749999 5.05355-7.3818749 7.56709-12.8058332 7.56709-6.1912499 0-9.4456249-3.59834-9.4456249-9.18104.05292-1.42875.238125-2.83105.608542-4.20688l6.9585413-27.83417h-3.0956253l.264584-1.11125c8.9164579-2.30187 14.6843745-7.3025 20.1877077-15.98083h.7672917l-3.7041666 14.94896h8.0697912l-.9525 2.14312h-7.7258329z"/><path d="m22.763616 250.87556c-.105833.52917-.15875 1.08479-.185208 1.64042 0 1.45521.687917 2.40771 2.06375 2.40771.79375-.0265 1.561042-.26459 2.2225-.68792v.15875c-2.672292 3.70417-6.006042 5.15937-9.710208 5.15937-5.582709 0-7.9904169-3.3602-7.9904169-7.91104-.026458-1.24354.1322916-2.48708.4233333-3.70416l5.5033336-22.41021c.687916-2.75167 1.11125-4.39209 1.11125-5.58271 0-1.53458-.529167-2.56646-1.799167-3.59833v-.18521h17.012708zm4.709584-55.29792c4.392083 0 7.461249 3.175 7.461249 7.3025 0 4.52438-3.65125 8.20209-8.175624 8.22855-.02646 0-.05292 0-.05292 0-4.365625 0-7.46125-3.175-7.46125-7.3025-.07938-4.49792 3.518958-8.20209 8.016875-8.255.07937 0 .132292 0 .211667.0265z"/><path d="m86.66049 250.87556c-.15875.52917-.264583 1.08479-.264583 1.64042 0 1.45521.687917 2.40771 2.143125 2.40771.767292-.0265 1.508125-.26459 2.143125-.68792v.15875c-2.566458 3.70417-5.926667 5.15937-9.604375 5.15937-5.662083 0-8.149166-3.3602-8.149166-7.91104 0-1.21708.264583-2.40771.529166-3.70416l4.894792-19.65855c.3175-1.03187.502708-2.0902.529167-3.175 0-1.37583-.529167-2.2225-1.878542-2.2225-2.672292 0-5.423958 3.51896-7.3025 10.74209l-6.19125 25.0825h-13.837708l7.567083-30.40063c.3175-.97896.502708-1.98437.529167-3.01625 0-1.45521-.608542-2.40771-2.06375-2.40771-2.672292 0-5.318125 3.51896-7.223125 10.98021l-6.164792 24.81792h-13.917083l8.255-33.15229c.608542-2.75167 1.031875-4.39209 1.031875-5.58271 0-1.53458-.529167-2.56646-1.719792-3.59833v-.18521h16.933334l-2.487084 9.86896c3.175-6.77334 7.117292-10.74209 13.043958-10.74209 5.662084 0 8.149167 3.86292 8.149167 8.83709-.02646.60854-.07937 1.21708-.185208 1.79916 3.254375-6.77333 7.381875-10.63625 13.229166-10.63625 5.767917 0 8.149167 3.70417 8.149167 8.59896-.02646 1.61396-.238125 3.22792-.608542 4.81542z"/><path d="m93.857157 243.81119c0-13.6525 11.244793-28.60146 25.929163-28.60146 7.03792 0 10.55688 3.59833 10.55688 8.67833 0 9.63083-10.39813 13.73188-22.41021 14.26104-.26458 1.61396-.39687 3.25438-.42333 4.89479 0 6.87917 3.25437 10.21292 7.80521 10.21292 3.86291 0 6.5352-1.87854 9.78958-6.19125h.50271c-3.59834 8.33438-9.78959 12.46188-17.25084 12.46188-8.466663 0-14.499163-5.3975-14.499163-15.71625zm14.340413-6.93209c7.22313-2.2225 12.62063-10.55687 12.62063-17.35666 0-1.7198-.60854-2.75167-1.71979-2.75167-3.83646 0-9.07521 10.55687-10.90084 20.10833z"/></g></svg>