<svg enable-background="new 0 0 512 512" viewBox="0 0 512 512" xmlns="http://www.w3.org/2000/svg"><g clip-rule="evenodd" fill="#f58220" fill-rule="evenodd"><path d="m98.008 103.883c0-9.87 7.531-17.878 16.824-17.878 9.287 0 16.818 8.008 16.818 17.878v157.671c0 9.878-7.533 17.875-16.819 17.875-9.292 0-16.825-7.997-16.825-17.875z"/><path d="m145.84 144.886c0-9.875 7.522-17.867 16.803-17.867 9.281 0 16.803 7.992 16.803 17.867l.001 116.655c0 9.859-7.523 17.856-16.805 17.856-9.281 0-16.804-7.997-16.804-17.856z"/><path d="m145.036 103.636c0-9.72 7.881-17.606 17.607-17.606 9.723 0 17.608 7.886 17.608 17.606 0 9.734-7.885 17.609-17.608 17.609-9.726 0-17.608-7.875-17.607-17.609z"/><path d="m36.416 102.52c0-39.498 32.018-71.52 71.519-71.52h296.134c39.496 0 71.515 32.023 71.515 71.52l.001 128.868c0 13.292-6.629 30.006-21.196 39.946-8.571 5.852-16.253 8.413-25.228 8.413h-67.804c-37.851 0-45.203-35.217-45.203-42.051 0-6.836-.525-20.494-.525-60.965 0-40.477 25.227-49.937 56.762-49.937 31.546 0 53.09 15.239 53.09 46.253.001 31.012-3.683 43.63-16.821 48.882-15.839 6.334-28.383 4.205-36.269 4.205-7.879 0-18.392-7.354-18.392-19.449.001-12.085 12.612-16.293 19.973-16.293 7.351 0 17.338-.519 17.338-.519l.001-18.405c0-8.41-5.78-11.562-9.988-11.562h-18.921c-7.878 0-13.142 4.728-13.142 14.193v55.186c0 9.472 4.738 16.301 11.572 16.301h59.913c8.945 0 18.92-6.31 18.92-14.197 0-.427.062-.929.166-1.495l.001-127.373c0-19.751-16.015-35.762-35.763-35.762h-296.134c-19.752 0-35.759 16.011-35.759 35.762v166.041c0 19.745 16.006 35.752 35.759 35.752l46.946.068v71.606l51.725-71.553c61.628.073 139.968.142 197.719.142 13.668 0 32.458-2.231 32.458 16.955 0 20.243-22.178 18.542-32.458 18.542h-180.308l-98.679 140.926-.928-140.927h-16.475c-39.5 0-71.519-32.021-71.519-71.511z"/><path d="m253.137 130.729h-12.922c-26.332 0-47.679 21.349-47.679 47.678v88.057l.539.916s2.101 12.089 16.818 12.089c14.719 0 18.395-13.141 18.395-13.141l.007-92.124c0-6.586 5.337-11.92 11.918-11.92h12.923c6.582 0 11.921 5.335 11.921 11.92 0 0 .011 50.844.011 88.146v.112 1.406c0 8.163 5.387 15.766 17.888 15.766 12.355 0 16.551-9.071 17.856-13.45l.001-3.723v-.112-83.943c.001-26.328-21.353-47.677-47.676-47.677z"/></g></svg>