<svg enable-background="new 0 0 1142.5 220.4" viewBox="0 0 1142.5 220.4" xmlns="http://www.w3.org/2000/svg"><path d="m635.6 1.4-5.5 36h23.6l-27 181.4h45.3l27-181.4h23.5l5.5-36z"/><path d="m733.7 1.4-32.4 217.4h45.2l12.9-86.2h3.2c6.7 0 9.7 1.6 9.7 6.7 0 1.6 0 3.2-.3 4.8l-11.3 74.7h45.3l10.5-70.6c.8-4.8 1.1-9.4 1.1-13.2 0-12.1-4.6-18.4-16.5-22.3 21.5-7.2 24.2-20 27.5-43.9l3.2-22.4c1.3-8.6 2.2-15.3 2.2-20.7 0-21.5-14.9-24.3-47.9-24.3zm40.3 35.2h3.8c6.7 0 9.4.8 9.4 6.2 0 .3-.3 3.2-1.1 8.3l-4 27c-1.6 10.7-2.1 14.5-11.8 14.5-1.3 0-2.7-.3-4.6-.3z"/><path d="m847.3 1.4-32.4 217.4h72.5l5.1-35.3h-27.1l9.9-66.5h27l5.4-35.3h-27.3l6.7-45.3h27.3l5.4-35.1h-72.5z"/><path d="m927.6 1.4-32.4 217.4h39.1l15.8-106.5h1.9l5.9 106.5h41.9l32.5-217.4h-38.8l-16.9 111.4h-1.9l-4.8-111.4z"/><path d="m1042.2 1.4-32.4 217.4h52.5c23.2 0 37.7-.5 46.9-9.7 8.1-7.8 9.7-19.1 12.1-35.3l19.1-127.7c1.6-9.9 2.2-16.9 2.2-20.8 0-21.9-15.7-23.9-47.9-23.9zm40 34.9c1.6 0 3-.3 4.3-.3 6.4 0 8.9 1.6 8.9 6.7 0 .5-.3 3-1.1 7.5l-18 120.5c-1.3 9.9-1.9 13.4-11.4 13.4-1.3 0-2.7-.3-4.6-.3z"/><g fill="#ff0303"><path d="m32.4 1.4-32.4 217.4h41l18.8-125.3h1.6l-2.4 125.3h25.4l34.9-125.3h1.9l-18.8 125.3h40.7l32.5-217.4h-55.4l-31.8 110.1h-1.9l1.3-110.1z"/><path d="m285.3 45c1.3-9.1 2.1-16.1 2.1-21.5 0-22.2-15.6-23.5-47.7-23.5-23.5 0-38.5.3-47.7 9.9-7.5 7.8-9.1 19.2-11.4 35.1l-19.1 129.9c-1.6 10.2-2.1 18.1-2.1 23.9 0 19.2 16.5 21.6 47.7 21.6 23.5 0 38-.8 46.9-9.7 8.3-8.3 9.7-19.9 12.1-35.9zm-45.5 1.4-19.1 127.2c-1.1 7.2-2.4 11-8.6 11-4.3 0-5.9-1.9-5.9-6.4 0-1.3 0-2.7.3-4.6l19.1-127.2c1.1-6.7 2.2-10.7 8.1-10.7 4.8 0 6.7 1.9 6.7 6.4-.1.4-.1 1.6-.6 4.3"/><path d="m295.8 1.4-5.4 36h23.5l-27 181.4h45.1l27.1-181.4h23.5l5.4-36z"/><path d="m491.6 45c1.3-9.1 2.1-16.1 2.1-21.5-.1-22.2-15.6-23.5-47.8-23.5-23.5 0-38.5.3-47.7 9.9-7.5 7.8-9.1 19.2-11.4 35.1l-19.2 129.9c-1.6 10.2-2.2 18.1-2.2 23.9 0 19.2 16.5 21.6 47.7 21.6 23.5 0 38-.8 46.9-9.7 8.3-8.3 9.7-19.9 12.1-35.9zm-45.5 1.4-19.1 127.3c-1.1 7.2-2.4 11-8.6 11-4.3 0-5.9-1.9-5.9-6.4 0-1.3 0-2.7.3-4.6l19.1-127.2c1.1-6.7 2.2-10.7 8.1-10.7 4.8 0 6.7 1.9 6.7 6.4-.1.3-.1 1.5-.6 4.2"/><path d="m509.6 1.4-32.4 217.4h45.3l12.9-86.2h3.2c6.7 0 9.7 1.6 9.7 6.7 0 1.6 0 3.2-.3 4.8l-11.3 74.7h45.3l10.5-70.6c.8-4.8 1.1-9.4 1.1-13 0-12.1-4.6-18.4-16.5-22.3 21.5-7.2 24.2-20 27.5-43.9l3.2-22.4c1.3-8.6 2.1-15.3 2.1-20.7 0-21.5-14.9-24.3-47.9-24.3zm40.2 35.2h3.8c6.7 0 9.4.8 9.4 6.2 0 .3-.3 3.2-1.1 8.3l-4 27c-1.6 10.7-2.1 14.5-11.8 14.5-1.3 0-2.7-.3-4.6-.3z"/></g></svg>