<svg enable-background="new 0 0 1000 147" viewBox="0 0 1000 147" xmlns="http://www.w3.org/2000/svg"><g transform="matrix(.73518433 0 0 .73518433 -23.195999 -43.562178)"><path d="m76.2 118.6c-13.5 12.3-18.5 40.1 5.9 56.3l97.4 66.8-47.2-108.2c-9.9-25.6-36.9-31.1-56.1-14.9" fill="#f37021"/><path d="m160.1 65.9c-15.8.3-39.6 19.2-29 48l48.9 115.2 17.2-121.2c3.8-30.1-18.9-44-37.1-42" fill="#cc004c"/><path d="m204.7 103.3h9.2s4.9 0 5.6 2.3c-3.6 3-13.5 3.3-12.2 19.2l15.5 104.3 48.5-115.5c9.9-25.8-10.9-47.3-29.4-48-.9-.1-1.7-.1-2.6-.1-16.5 0-35.5 12-34.6 37.8" fill="#6460aa"/><path d="m269.4 134.5-45.9 106.9 97.4-67.2c22.5-15.9 18.8-41.4 6.3-54-5.3-5.9-14.9-10.5-25.2-10.5-12.1 0-25.1 6.4-32.6 24.8" fill="#0089d0"/><path d="m310 189.4-91.5 63.9h112.6c23.1 0 38-23.8 31.4-45.7-4.4-13.7-17.5-24.5-32.7-24.5-6.3 0-13.1 1.9-19.8 6.3" fill="#0db14b"/><path d="m73.6 253.3h111l-91.5-63.9c-21.1-13.6-44.9-5.6-53.5 16.9-7.3 25.8 10.9 47 34 47" fill="#fcb711"/><path d="m1300.3 258.2c22.6 0 41.7-5.5 57.3-16.4 15.6-11.1 27-27.1 34.1-48.1l-45.5-9.5c-4.4 10.3-10.5 18.2-18.3 23.8-7.7 5.5-16.7 8.2-27 8.2-9.6 0-17.9-2.2-25.1-6.7-7.2-4.6-12.7-11.1-16.6-19.4-3.9-8.4-5.9-18.2-5.9-29.3s1.9-20.8 5.7-29.1c3.9-8.4 9.5-14.9 16.6-19.4 7.3-4.6 15.7-7 25.3-7 10.1 0 19.1 2.8 27 8.4 8 5.6 14.1 13.5 18.3 23.6l45.5-9.3c-7.2-20.7-18.8-36.5-34.8-47.6-16-11.2-35.3-16.9-57.7-16.9-18.7 0-35.4 4.1-50.2 12.4-14.5 8.1-25.8 19.5-33.9 34.1-8.3 14.9-12.4 31.8-12.4 50.8 0 18.8 4.1 35.7 12.4 50.6 8.3 14.5 19.7 25.8 34.4 33.9 14.9 8.7 31.8 12.9 50.8 12.9z"/><path d="m1031.4 67.7v186.5h95.1c20.9 0 37.1-4.1 48.5-12.4 12.1-8.9 18.1-22.2 18.1-40 0-12.1-3.4-21.9-10.1-29.5-6-6.7-14-11-24-12.9v-1.1c9.3-2.8 16.5-7.7 21.7-14.5 5.3-7 8-15.1 8-24.2 0-17.6-6.1-30.8-18.3-39.6-11.2-8.1-27.3-12.2-48.3-12.2h-90.7zm48.4 38.8h32.2c9.1 0 15.8 1.4 20 4.2s6.3 7.2 6.3 13.1-2.1 10.2-6.3 12.9c-4.1 2.7-10.7 4-20 4h-32.2zm0 70h33.3c10.5 0 18.1 1.5 22.8 4.6 4.8 3 7.2 7.9 7.2 14.8 0 6.7-2.4 11.7-7.2 14.8s-12.4 4.6-22.8 4.6h-33.3z"/><path d="m953.6 254.2h56.7v-186.5h-48.1v111.3h-1.1l-65.3-111.3h-56.7v186.5h47.9v-111.5h1.1z"/><path d="m776.6 200.1c0 4.1-1.3 7.7-3.8 11-2.5 3.2-6.2 5.8-11 7.6s-10.3 2.7-16.6 2.7c-11 0-20.2-2.8-27.8-8.4-7.6-5.8-13-13.8-16.2-24l-44.3 7.2c4.9 20.1 15.2 35.5 30.8 46.2 15.7 10.7 36.1 16 61.1 16 14.8 0 28-2.6 39.6-7.8 11.8-5.3 20.9-12.7 27.4-22.1 6.6-9.6 9.9-20.4 9.9-32.5 0-11.2-2.2-20.7-6.5-28.2-3.8-6.7-9.3-12.2-16.4-16.2-5.9-3.4-13.3-6.1-22.3-8.2-5.3-1.1-13.3-2.4-23.8-3.8-9.1-1.1-15.7-2.1-19.6-3-6.3-1.4-11-3.3-13.9-5.7-3.7-2.8-5.5-6.6-5.5-11.4 0-5.9 2.5-10.5 7.4-13.9s11.5-5.1 19.8-5.1c8.6 0 15.7 2 21.5 5.9s9.8 9.4 12.2 16.4l43-9.5c-2.7-10.3-7.6-19.1-14.8-26.6-7.2-7.4-16.2-13.1-27-17.1-10.8-3.9-22.8-5.9-36-5.9-15 0-28.3 2.5-39.8 7.6-11.2 5.1-20 12.2-26.1 21.3-6 9-9.1 19.3-9.1 31 0 11.2 2.1 20.7 6.3 28.2 3.8 6.7 9.3 12.2 16.4 16.2 6 3.4 13.5 6.1 22.3 8.2 5.3 1.1 13.3 2.4 24 3.8 9.1 1.1 15.6 2.1 19.4 3 6.3 1.4 11 3.3 14.1 5.7 3.5 2.8 5.3 6.6 5.3 11.4z"/><path d="m596.6 254.2h48.4v-186.5h-75.9l-32.2 98.2h-1.1l-31.4-98.2h-77.8v186.5h47.4v-131.9h1.1l44.3 131.9h31.8l44.3-131.9h1.1z"/></g></svg>