<?xml version="1.0" encoding="utf-8"?>
<!-- Generator: Adobe Illustrator 24.2.3, SVG Export Plug-In . SVG Version: 6.00 Build 0)  -->
<svg version="1.1"
	 id="svg3100" inkscape:version="1.0.2 (e86c870879, 2021-01-15)" sodipodi:docname="MSNBC_2021.svg" xmlns:cc="http://creativecommons.org/ns#" xmlns:dc="http://purl.org/dc/elements/1.1/" xmlns:inkscape="http://www.inkscape.org/namespaces/inkscape" xmlns:rdf="http://www.w3.org/1999/02/22-rdf-syntax-ns#" xmlns:sodipodi="http://sodipodi.sourceforge.net/DTD/sodipodi-0.dtd" xmlns:svg="http://www.w3.org/2000/svg"
	 xmlns="http://www.w3.org/2000/svg" xmlns:xlink="http://www.w3.org/1999/xlink" x="0px" y="0px" viewBox="0 0 1000 147"
	 style="enable-background:new 0 0 1000 147;" xml:space="preserve">
<style type="text/css">
	.st0{display:none;fill:#FFFFFF;}
	.st1{fill:#F37021;}
	.st2{fill:#CC004C;}
	.st3{fill:#6460AA;}
	.st4{fill:#0089D0;}
	.st5{fill:#0DB14B;}
	.st6{fill:#FCB711;}
</style>
<sodipodi:namedview  bordercolor="#666666" borderopacity="1" gridtolerance="10" guidetolerance="10" id="namedview3102" inkscape:current-layer="svg3100" inkscape:cx="765.33957" inkscape:cy="206.29921" inkscape:document-rotation="0" inkscape:pageopacity="0" inkscape:pageshadow="2" inkscape:window-height="715" inkscape:window-maximized="1" inkscape:window-width="1366" inkscape:window-x="-8" inkscape:window-y="-8" inkscape:zoom="0.40649487" objecttolerance="10" pagecolor="#ffffff" showgrid="false">
	</sodipodi:namedview>
<g id="g869" transform="matrix(0.73518433,0,0,0.73518433,-23.195999,-43.562178)">
	<g id="g854">
		<path id="path3113" inkscape:connector-curvature="0" class="st0" d="M201.1,85.1c-5.3-13.2-18.2-27.5-42.3-25.5
			c-30.7,3.3-40.3,32.8-35.7,50.3c-12.2-8.3-33-11.9-51.2,3.6c-23.4,23.5-10.9,55.3,2,62.9c-14.2-1.3-36.7,8.3-41.6,33.4
			c-5.3,31.2,18.5,49.3,41.6,49.3h256.6c26.8,0,41.6-23.2,39.9-45c-2.6-28.5-28.7-39.4-42.9-37.1c11.9-6.6,27.8-37.8,3.6-62.3
			c-19.2-18.2-43.6-11.6-52.2-3.6c4.6-15.2-3-46.7-34-51.7c-2.1-0.2-4.2-0.4-6.2-0.4C215.1,59.3,204.4,76.6,201.1,85.1"/>
		<path id="path3115" inkscape:connector-curvature="0" class="st1" d="M76.2,118.6c-13.5,12.3-18.5,40.1,5.9,56.3l97.4,66.8
			l-47.2-108.2C122.4,107.9,95.4,102.4,76.2,118.6"/>
		<path id="path3117" inkscape:connector-curvature="0" class="st2" d="M160.1,65.9c-15.8,0.3-39.6,19.2-29,48l48.9,115.2
			l17.2-121.2C201,77.8,178.3,63.9,160.1,65.9"/>
		<path id="path3119" inkscape:connector-curvature="0" class="st3" d="M204.7,103.3h9.2c0,0,4.9,0,5.6,2.3
			c-3.6,3-13.5,3.3-12.2,19.2l15.5,104.3l48.5-115.5c9.9-25.8-10.9-47.3-29.4-48c-0.9-0.1-1.7-0.1-2.6-0.1
			C222.8,65.5,203.8,77.5,204.7,103.3"/>
		<path id="path3121" inkscape:connector-curvature="0" class="st4" d="M269.4,134.5l-45.9,106.9l97.4-67.2
			c22.5-15.9,18.8-41.4,6.3-54c-5.3-5.9-14.9-10.5-25.2-10.5C289.9,109.7,276.9,116.1,269.4,134.5"/>
		<path id="path3123" inkscape:connector-curvature="0" class="st5" d="M310,189.4l-91.5,63.9h112.6c23.1,0,38-23.8,31.4-45.7
			c-4.4-13.7-17.5-24.5-32.7-24.5C323.5,183.1,316.7,185,310,189.4"/>
		<path id="path3125" inkscape:connector-curvature="0" class="st6" d="M73.6,253.3h111l-91.5-63.9c-21.1-13.6-44.9-5.6-53.5,16.9
			C32.3,232.1,50.5,253.3,73.6,253.3"/>
	</g>
	<path id="path852" d="M1300.3,258.2c22.6,0,41.7-5.5,57.3-16.4c15.6-11.1,27-27.1,34.1-48.1l-45.5-9.5
		c-4.4,10.3-10.5,18.2-18.3,23.8c-7.7,5.5-16.7,8.2-27,8.2c-9.6,0-17.9-2.2-25.1-6.7c-7.2-4.6-12.7-11.1-16.6-19.4
		c-3.9-8.4-5.9-18.2-5.9-29.3c0-11.1,1.9-20.8,5.7-29.1c3.9-8.4,9.5-14.9,16.6-19.4c7.3-4.6,15.7-7,25.3-7c10.1,0,19.1,2.8,27,8.4
		c8,5.6,14.1,13.5,18.3,23.6l45.5-9.3c-7.2-20.7-18.8-36.5-34.8-47.6c-16-11.2-35.3-16.9-57.7-16.9c-18.7,0-35.4,4.1-50.2,12.4
		c-14.5,8.1-25.8,19.5-33.9,34.1c-8.3,14.9-12.4,31.8-12.4,50.8c0,18.8,4.1,35.7,12.4,50.6c8.3,14.5,19.7,25.8,34.4,33.9
		C1264.4,254,1281.3,258.2,1300.3,258.2L1300.3,258.2z"/>
	<path id="path850" d="M1031.4,67.7v186.5h95.1c20.9,0,37.1-4.1,48.5-12.4c12.1-8.9,18.1-22.2,18.1-40c0-12.1-3.4-21.9-10.1-29.5
		c-6-6.7-14-11-24-12.9v-1.1c9.3-2.8,16.5-7.7,21.7-14.5c5.3-7,8-15.1,8-24.2c0-17.6-6.1-30.8-18.3-39.6
		c-11.2-8.1-27.3-12.2-48.3-12.2H1031.4z M1079.8,106.5h32.2c9.1,0,15.8,1.4,20,4.2c4.2,2.8,6.3,7.2,6.3,13.1
		c0,5.9-2.1,10.2-6.3,12.9c-4.1,2.7-10.7,4-20,4h-32.2V106.5z M1079.8,176.5h33.3c10.5,0,18.1,1.5,22.8,4.6c4.8,3,7.2,7.9,7.2,14.8
		c0,6.7-2.4,11.7-7.2,14.8c-4.8,3.1-12.4,4.6-22.8,4.6h-33.3V176.5z"/>
	<path id="path844" d="M953.6,254.2h56.7V67.7h-48.1V179h-1.1L895.8,67.7h-56.7v186.5H887V142.7h1.1L953.6,254.2z"/>
	<path id="path842" d="M776.6,200.1c0,4.1-1.3,7.7-3.8,11c-2.5,3.2-6.2,5.8-11,7.6c-4.8,1.8-10.3,2.7-16.6,2.7
		c-11,0-20.2-2.8-27.8-8.4c-7.6-5.8-13-13.8-16.2-24l-44.3,7.2c4.9,20.1,15.2,35.5,30.8,46.2c15.7,10.7,36.1,16,61.1,16
		c14.8,0,28-2.6,39.6-7.8c11.8-5.3,20.9-12.7,27.4-22.1c6.6-9.6,9.9-20.4,9.9-32.5c0-11.2-2.2-20.7-6.5-28.2
		c-3.8-6.7-9.3-12.2-16.4-16.2c-5.9-3.4-13.3-6.1-22.3-8.2c-5.3-1.1-13.3-2.4-23.8-3.8c-9.1-1.1-15.7-2.1-19.6-3
		c-6.3-1.4-11-3.3-13.9-5.7c-3.7-2.8-5.5-6.6-5.5-11.4c0-5.9,2.5-10.5,7.4-13.9c4.9-3.4,11.5-5.1,19.8-5.1c8.6,0,15.7,2,21.5,5.9
		c5.8,3.9,9.8,9.4,12.2,16.4l43-9.5c-2.7-10.3-7.6-19.1-14.8-26.6c-7.2-7.4-16.2-13.1-27-17.1c-10.8-3.9-22.8-5.9-36-5.9
		c-15,0-28.3,2.5-39.8,7.6c-11.2,5.1-20,12.2-26.1,21.3c-6,9-9.1,19.3-9.1,31c0,11.2,2.1,20.7,6.3,28.2c3.8,6.7,9.3,12.2,16.4,16.2
		c6,3.4,13.5,6.1,22.3,8.2c5.3,1.1,13.3,2.4,24,3.8c9.1,1.1,15.6,2.1,19.4,3c6.3,1.4,11,3.3,14.1,5.7
		C774.8,191.5,776.6,195.3,776.6,200.1L776.6,200.1z"/>
	<path id="path837" d="M596.6,254.2H645V67.7h-75.9l-32.2,98.2h-1.1l-31.4-98.2h-77.8v186.5h47.4V122.3h1.1l44.3,131.9h31.8
		l44.3-131.9h1.1L596.6,254.2z"/>
</g>
</svg>
