<?xml version="1.0" encoding="UTF-8" standalone="no"?>
<!-- Created with Inkscape (http://www.inkscape.org/) -->
<svg
   xmlns:dc="http://purl.org/dc/elements/1.1/"
   xmlns:cc="http://web.resource.org/cc/"
   xmlns:rdf="http://www.w3.org/1999/02/22-rdf-syntax-ns#"
   xmlns:svg="http://www.w3.org/2000/svg"
   xmlns="http://www.w3.org/2000/svg"
   xmlns:xlink="http://www.w3.org/1999/xlink"
   xmlns:sodipodi="http://sodipodi.sourceforge.net/DTD/sodipodi-0.dtd"
   xmlns:inkscape="http://www.inkscape.org/namespaces/inkscape"
   width="426"
   height="327"
   id="svg2"
   sodipodi:version="0.32"
   inkscape:version="0.45.1"
   version="1.0"
   inkscape:output_extension="org.inkscape.output.svg.inkscape">
  <g
     inkscape:label="Layer 1"
     inkscape:groupmode="layer"
     id="layer1"
     transform="translate(-12.59423,-46.636963)"><g
   id="g19319"
   transform="matrix(13.05826,0,0,-13.05826,148.81408,220.3562)"
   clip-path="none">
        <path
   id="path19321"
   d="M 0,0 L 0,-8.693 L 1.466,-7.588 L 1.466,-1.481 L 0,0 z "
   style="fill:#000000;fill-rule:nonzero;stroke:none" />

      </g>
<g
   id="g19323"
   transform="matrix(13.05826,0,0,-13.05826,189.94237,246.86316)"
   clip-path="none">
        <path
   id="path19325"
   d="M 0,0 L 1.909,0.436 L 2.68,1.068 L 2.68,2.214 L 0,0 z "
   style="fill:#000000;fill-rule:nonzero;stroke:none" />

      </g>
<g
   id="g19327"
   transform="matrix(13.05826,0,0,-13.05826,186.81231,66.34055)"
   clip-path="none">
        <path
   id="path19329"
   d="M 0,0 L -2.697,1.243 L -0.259,-1.489 L 0.664,-0.578 L 0,0 z "
   style="fill:#000000;fill-rule:nonzero;stroke:none" />

      </g>
<g
   id="g19331"
   transform="matrix(13.05826,0,0,-13.05826,12.59423,342.22763)"
   clip-path="none">
        <path
   id="path19333"
   d="M 0,0 L 0.847,0 L 1.123,-1.382 L 1.128,-1.382 L 1.404,0 L 2.251,0 L 2.251,-2.35 L 1.688,-2.35 L 1.688,-0.842 L 1.682,-0.842 L 1.347,-2.35 L 0.904,-2.35 L 0.568,-0.842 L 0.563,-0.842 L 0.563,-2.35 L 0,-2.35 L 0,0 z "
   style="fill:#000000;fill-rule:nonzero;stroke:none" />

      </g>
<g
   transform="matrix(13.05826,0,0,-13.05826,67.71837,361.04197)"
   id="g19337">
          <path
   style="fill:#000000;fill-rule:nonzero;stroke:none"
   d="M 0,0 C 0,-0.652 -0.29,-0.964 -0.879,-0.964 C -1.468,-0.964 -1.761,-0.652 -1.761,0 L -1.761,1.441 L -1.166,1.441 L -1.166,0.16 C -1.166,-0.08 -1.166,-0.379 -0.877,-0.379 C -0.594,-0.379 -0.594,-0.08 -0.594,0.16 L -0.594,1.441 L 0,1.441 L 0,0 z "
   id="path19339" />

        </g>
<g
   transform="matrix(13.05826,0,0,-13.05826,77.74058,362.58938)"
   id="g19341">
          <path
   style="fill:#000000;fill-rule:nonzero;stroke:none"
   d="M 0,0 C 0,-0.059 0.008,-0.112 0.022,-0.155 C 0.065,-0.296 0.195,-0.326 0.306,-0.326 C 0.403,-0.326 0.552,-0.287 0.552,-0.112 C 0.552,0.009 0.469,0.042 0.135,0.157 C -0.17,0.263 -0.52,0.365 -0.52,0.839 C -0.52,1.381 -0.137,1.615 0.26,1.615 C 0.679,1.615 1.05,1.421 1.066,0.848 L 0.504,0.848 C 0.514,0.937 0.482,0.996 0.433,1.037 C 0.384,1.078 0.316,1.095 0.257,1.095 C 0.176,1.095 0.043,1.069 0.043,0.937 C 0.054,0.77 0.33,0.734 0.603,0.641 C 0.877,0.549 1.147,0.394 1.147,-0.036 C 1.147,-0.649 0.685,-0.846 0.255,-0.846 C 0.035,-0.846 -0.59,-0.75 -0.595,0 L 0,0 z "
   id="path19343" />

        </g>
<path
   style="fill:#000000;fill-rule:nonzero;stroke:none"
   d="M 95.21515,342.23286 L 102.98481,342.23286 L 102.98481,372.91977 L 95.21515,372.91977 L 95.21515,342.23286 z "
   id="path19345" />
<g
   transform="matrix(13.05826,0,0,-13.05826,122.62313,353.65753)"
   id="g19347">
          <path
   style="fill:#000000;fill-rule:nonzero;stroke:none"
   d="M 0,0 C -0.011,0.086 -0.065,0.346 -0.312,0.346 C -0.59,0.346 -0.679,0.016 -0.679,-0.3 C -0.679,-0.615 -0.59,-0.945 -0.312,-0.945 C -0.111,-0.945 -0.032,-0.773 0.003,-0.553 L 0.587,-0.553 C 0.587,-1.027 0.271,-1.53 -0.295,-1.53 C -0.92,-1.53 -1.275,-0.994 -1.275,-0.3 C -1.275,0.44 -0.89,0.931 -0.295,0.931 C 0.236,0.928 0.527,0.589 0.579,0 L 0,0 z "
   id="path19349" />

        </g>
<g
   transform="matrix(13.05826,0,0,-13.05826,150.43983,350.0874)"
   id="g19351">
          <path
   style="fill:#000000;fill-rule:nonzero;stroke:none"
   d="M 0,0 L -0.541,0 L -0.541,0.602 L 1.136,0.602 L 1.136,0 L 0.595,0 L 0.595,-1.748 L 0,-1.748 L 0,0 z "
   id="path19353" />

        </g>
<g
   transform="matrix(13.05826,0,0,-13.05826,167.53179,342.22763)"
   id="g19355">
          <path
   style="fill:#000000;fill-rule:nonzero;stroke:none"
   d="M 0,0 L 1.598,0 L 1.598,-0.602 L 0.595,-0.602 L 0.595,-0.896 L 1.506,-0.896 L 1.506,-1.454 L 0.595,-1.454 L 0.595,-1.748 L 1.629,-1.748 L 1.629,-2.35 L 0,-2.35 L 0,0 z "
   id="path19357" />

        </g>
<g
   transform="matrix(13.05826,0,0,-13.05826,191.1816,342.22763)"
   id="g19359">
          <path
   style="fill:#000000;fill-rule:nonzero;stroke:none"
   d="M 0,0 L 0.594,0 L 0.594,-1.748 L 1.45,-1.748 L 1.45,-2.35 L 0,-2.35 L 0,0 z "
   id="path19361" />

        </g>
<g
   transform="matrix(13.05826,0,0,-13.05826,212.04348,342.22763)"
   id="g19363">
          <path
   style="fill:#000000;fill-rule:nonzero;stroke:none"
   d="M 0,0 L 1.598,0 L 1.598,-0.602 L 0.595,-0.602 L 0.595,-0.896 L 1.507,-0.896 L 1.507,-1.454 L 0.595,-1.454 L 0.595,-1.748 L 1.628,-1.748 L 1.628,-2.35 L 0,-2.35 L 0,0 z "
   id="path19365" />

        </g>
<g
   transform="matrix(13.05826,0,0,-13.05826,251.58128,372.91063)"
   id="g19367">
          <path
   style="fill:#000000;fill-rule:nonzero;stroke:none"
   d="M 0,0 L -0.665,0 L -1.242,2.35 L -0.641,2.35 L -0.324,0.925 L -0.32,0.925 L -0.007,2.35 L 0.603,2.35 L 0,0 z "
   id="path19369" />

        </g>
<path
   style="fill:#000000;fill-rule:nonzero;stroke:none"
   d="M 262.37393,342.23286 L 270.15663,342.23286 L 270.15663,372.91977 L 262.37393,372.91977 L 262.37393,342.23286 z "
   id="path19371" />
<g
   transform="matrix(13.05826,0,0,-13.05826,280.95453,362.58938)"
   id="g19373">
          <path
   style="fill:#000000;fill-rule:nonzero;stroke:none"
   d="M 0,0 C 0,-0.059 0.008,-0.112 0.022,-0.155 C 0.065,-0.296 0.195,-0.326 0.306,-0.326 C 0.403,-0.326 0.552,-0.287 0.552,-0.112 C 0.552,0.009 0.467,0.042 0.135,0.157 C -0.17,0.263 -0.52,0.365 -0.52,0.839 C -0.52,1.381 -0.138,1.615 0.26,1.615 C 0.679,1.615 1.049,1.421 1.065,0.848 L 0.503,0.848 C 0.514,0.937 0.481,0.996 0.432,1.037 C 0.384,1.078 0.316,1.095 0.257,1.095 C 0.176,1.095 0.043,1.069 0.043,0.937 C 0.054,0.77 0.33,0.734 0.603,0.641 C 0.877,0.549 1.147,0.394 1.147,-0.036 C 1.147,-0.649 0.684,-0.846 0.255,-0.846 C 0.035,-0.846 -0.59,-0.75 -0.595,0 L 0,0 z "
   id="path19375" />

        </g>
<path
   style="fill:#000000;fill-rule:nonzero;stroke:none"
   d="M 298.42783,342.23286 L 306.19743,342.23286 L 306.19743,372.91977 L 298.42783,372.91977 L 298.42783,342.23286 z "
   id="path19377" />
<g
   transform="matrix(13.05826,0,0,-13.05826,321.62583,341.49898)"
   id="g19379">
          <path
   style="fill:#000000;fill-rule:nonzero;stroke:none"
   d="M 0,0 C 0.588,0 0.98,-0.514 0.98,-1.231 C 0.98,-1.948 0.588,-2.461 0,-2.461 C -0.586,-2.461 -0.979,-1.948 -0.979,-1.231 C -0.979,-0.514 -0.586,0 0,0 M 0,-1.876 C 0.152,-1.876 0.385,-1.754 0.385,-1.231 C 0.385,-0.708 0.152,-0.585 0,-0.585 C -0.151,-0.585 -0.384,-0.708 -0.384,-1.231 C -0.384,-1.754 -0.151,-1.876 0,-1.876"
   id="path19381" />

        </g>
<g
   transform="matrix(13.05826,0,0,-13.05826,337.31003,342.22763)"
   id="g19383">
          <path
   style="fill:#000000;fill-rule:nonzero;stroke:none"
   d="M 0,0 L 0.609,0 L 1.171,-1.257 L 1.177,-1.257 L 1.177,0 L 1.739,0 L 1.739,-2.35 L 1.161,-2.35 L 0.568,-1.067 L 0.563,-1.067 L 0.563,-2.35 L 0,-2.35 L 0,0 z "
   id="path19385" />

        </g>
<g
   transform="matrix(13.05826,0,0,-13.05826,371.56323,352.91843)"
   id="g19387">
          <path
   style="fill:#000000;fill-rule:evenodd;stroke:none"
   d="M 0,0 L -0.128,0 L -0.128,0.598 L 0.096,0.598 C 0.249,0.598 0.341,0.555 0.341,0.417 C 0.341,0.307 0.276,0.268 0.197,0.262 L 0.349,0 L 0.198,0 L 0.06,0.252 L 0,0.252 L 0,0 M 0.113,0.353 C 0.17,0.353 0.205,0.365 0.205,0.431 C 0.205,0.492 0.138,0.497 0.089,0.497 L 0,0.497 L 0,0.353 L 0.113,0.353 M 0.092,-0.257 C -0.203,-0.257 -0.466,-0.053 -0.466,0.298 C -0.466,0.649 -0.203,0.854 0.092,0.854 C 0.386,0.854 0.649,0.649 0.649,0.298 C 0.649,-0.053 0.386,-0.257 0.092,-0.257 M 0.092,0.724 C -0.128,0.724 -0.306,0.555 -0.306,0.298 C -0.306,0.042 -0.128,-0.129 0.092,-0.128 L 0.092,-0.129 C 0.307,-0.129 0.489,0.042 0.489,0.298 C 0.489,0.555 0.307,0.724 0.092,0.724"
   id="path19389" />

        </g>
<g
   transform="matrix(13.05826,0,0,-13.05826,430.22093,84.6626)"
   id="g19391">
          <path
   style="fill:#000000;fill-rule:nonzero;stroke:none"
   d="M 0,0 C -0.246,0.168 -0.687,0.252 -1.123,0.214 C -1.538,0.179 -1.814,-0.024 -2.041,-0.212 C -2.038,-0.21 -2.632,-0.798 -2.632,-0.798 L -2.791,-1.052 C -2.793,-1.055 -3.321,-1.715 -3.321,-1.715 C -3.321,-1.715 -3.326,-1.721 -3.327,-1.722 L -3.327,1.938 L -4.947,2.912 L -4.946,-3.736 L -4.967,-3.768 L -5.355,-4.224 L -5.355,2.912 L -15.369,2.912 L -18.931,-0.632 L -22.095,2.912 L -31.972,2.912 L -31.972,-19.06 L -21.927,-19.06 L -21.927,-9.381 L -18.97,-12.431 L -15.339,-9.336 L -15.339,-19.06 L -5.353,-19.06 L -5.354,-9.788 C -5.276,-9.655 -5.212,-9.549 -5.212,-9.549 C -5.211,-9.546 -5.127,-9.425 -5.127,-9.425 C -5.122,-9.419 -5.037,-9.283 -4.944,-9.135 L -4.943,-19.06 L -3.327,-17.944 L -3.327,-6.237 C -3.256,-6.131 -3.15,-5.973 -3.15,-5.973 C -3.135,-5.948 -2.901,-5.598 -2.901,-5.598 C -2.901,-5.597 -2.529,-5.051 -2.529,-5.051 C -2.525,-5.042 -2.387,-4.867 -2.387,-4.867 L -2.043,-4.38 C -1.975,-4.223 -1.781,-4.119 -1.707,-4.08 L -1.672,-4.061 L -1.625,-4.027 L -1.446,-3.846 C -1.443,-3.842 -1.135,-3.582 -1.135,-3.582 L -0.609,-3.337 L -0.118,-3.067 C -0.116,-3.066 0.332,-2.514 0.332,-2.514 L 0.571,-1.772 C 0.572,-1.771 0.641,-1.053 0.641,-1.053 C 0.626,-0.688 0.35,-0.236 0,0 M -12.033,-5.976 C -12.022,-6.046 -11.984,-6.696 -11.986,-6.803 C -11.988,-7.125 -11.966,-7.48 -11.976,-7.623 C -11.984,-7.732 -11.969,-8.108 -11.969,-8.108 C -11.942,-8.405 -11.878,-8.73 -11.872,-8.788 C -11.859,-8.94 -11.916,-9.517 -11.899,-9.648 C -11.897,-9.675 -11.85,-9.916 -11.86,-9.973 C -11.886,-10.123 -11.842,-10.304 -11.847,-10.372 C -11.855,-10.491 -11.86,-10.627 -11.864,-10.772 C -11.872,-10.987 -11.879,-11.209 -11.899,-11.403 C -11.905,-11.452 -11.898,-11.791 -11.898,-11.791 C -11.937,-12.132 -11.979,-12.484 -11.921,-12.837 C -11.91,-12.908 -11.924,-13.141 -11.918,-13.182 C -11.909,-13.235 -11.834,-13.509 -11.823,-13.569 C -11.807,-13.659 -11.773,-14.076 -11.728,-14.172 C -11.684,-14.269 -11.505,-14.694 -11.489,-14.745 C -11.436,-14.906 -11.355,-15.294 -11.428,-15.492 C -11.497,-15.679 -11.601,-16.124 -11.674,-16.235 C -11.737,-16.332 -11.832,-16.389 -11.877,-16.459 C -11.92,-16.524 -12.005,-16.584 -12.076,-16.612 C -12.296,-16.698 -12.686,-16.758 -13.024,-16.655 C -13.161,-16.614 -13.368,-16.627 -13.601,-16.486 C -13.791,-16.371 -13.856,-16.056 -13.883,-15.887 C -13.896,-15.808 -13.873,-15.597 -13.878,-15.564 C -13.884,-15.516 -13.956,-15.204 -13.956,-15.104 C -13.957,-15.054 -13.939,-14.843 -13.962,-14.704 C -13.991,-14.525 -14.078,-14.234 -14.078,-14.234 C -14.102,-14.115 -14.166,-13.857 -14.169,-13.849 C -14.238,-13.656 -14.272,-13.468 -14.292,-13.308 C -14.329,-13.014 -14.256,-12.769 -14.191,-12.552 C -14.154,-12.427 -14.119,-12.31 -14.104,-12.192 C -14.094,-12.107 -14.16,-11.704 -14.147,-11.569 C -14.143,-11.514 -14.098,-11.339 -14.096,-11.316 C -14.079,-11.202 -14.075,-10.898 -14.074,-10.851 C -14.073,-10.79 -14.032,-10.534 -14.037,-10.269 C -14.039,-10.165 -14.05,-10.057 -14.037,-9.948 C -14.024,-9.832 -14.014,-9.536 -14.036,-9.399 C -14.071,-9.19 -14.057,-9.003 -14.058,-8.994 C -14.073,-8.775 -14.086,-8.545 -14.073,-8.349 C -14.071,-8.318 -14.109,-7.986 -14.11,-7.883 C -14.112,-7.818 -14.116,-7.411 -14.12,-7.363 C -14.207,-6.35 -14.344,-6.156 -14.399,-6.119 C -14.454,-6.083 -14.603,-6.085 -14.688,-6.125 C -14.753,-6.155 -14.922,-6.302 -15.065,-6.379 C -15.205,-6.453 -15.466,-6.577 -15.555,-6.643 C -15.658,-6.721 -15.827,-6.852 -16.156,-7.032 C -16.239,-7.077 -16.302,-7.154 -16.377,-7.222 C -16.486,-7.318 -16.69,-7.524 -17.02,-7.691 C -17.182,-7.772 -17.326,-7.867 -17.442,-7.98 C -17.49,-8.028 -17.667,-8.324 -17.781,-8.435 C -17.892,-8.541 -17.962,-8.69 -17.982,-8.736 C -18.04,-8.86 -18.103,-8.999 -18.225,-9.09 C -18.414,-9.231 -18.826,-9.257 -19.075,-9.153 C -19.234,-9.087 -19.551,-8.874 -19.689,-8.505 C -19.828,-8.137 -19.712,-7.665 -19.437,-7.359 C -19.256,-7.158 -18.974,-7.077 -18.7,-7 C -18.531,-6.952 -18.37,-6.906 -18.246,-6.837 C -18.185,-6.803 -17.99,-6.657 -17.949,-6.63 C -17.887,-6.589 -17.666,-6.482 -17.623,-6.454 C -17.583,-6.427 -17.35,-6.224 -17.194,-6.136 C -16.936,-5.992 -16.731,-5.876 -16.61,-5.8 C -16.61,-5.8 -16.255,-5.6 -16.025,-5.382 C -15.973,-5.332 -15.752,-5.25 -15.51,-5.113 C -15.449,-5.078 -15.196,-4.993 -15.132,-4.965 C -15.088,-4.944 -14.912,-4.815 -14.86,-4.788 C -14.633,-4.67 -14.519,-4.529 -14.583,-4.178 C -14.606,-4.056 -14.643,-3.932 -14.63,-3.785 C -14.626,-3.749 -14.574,-3.528 -14.49,-3.376 C -14.448,-3.298 -14.382,-3.3 -14.345,-3.228 C -14.308,-3.154 -14.178,-3.092 -14.092,-3.07 C -14.032,-3.012 -13.908,-2.95 -13.763,-2.925 C -13.445,-2.872 -13.036,-3.105 -12.977,-3.117 C -12.865,-3.142 -12.675,-3.125 -12.575,-3.096 C -12.555,-3.092 -12.425,-3.007 -12.377,-2.989 C -12.313,-2.965 -12.108,-2.909 -12.066,-2.894 C -12.003,-2.872 -11.711,-2.719 -11.637,-2.691 C -11.561,-2.662 -11.385,-2.63 -11.298,-2.61 C -11.159,-2.511 -10.898,-2.426 -10.798,-2.34 C -10.685,-2.241 -10.532,-2.004 -10.5,-1.962 C -10.441,-1.884 -10.153,-1.69 -10.112,-1.659 C -10.018,-1.585 -9.803,-1.434 -9.657,-1.392 C -9.587,-1.372 -9.382,-1.414 -9.257,-1.413 C -9.117,-1.413 -8.921,-1.421 -8.773,-1.645 C -8.699,-1.758 -8.575,-1.873 -8.543,-2.029 C -8.447,-2.516 -8.811,-2.999 -9.087,-3.171 C -9.115,-3.188 -9.249,-3.227 -9.331,-3.254 C -9.446,-3.292 -9.563,-3.376 -9.641,-3.397 C -9.796,-3.438 -9.872,-3.546 -9.936,-3.58 C -9.999,-3.613 -10.213,-3.745 -10.282,-3.783 C -10.335,-3.811 -10.422,-3.935 -10.579,-3.981 C -10.685,-4.013 -10.906,-4.076 -11.082,-4.231 C -11.155,-4.295 -11.452,-4.356 -11.537,-4.375 C -11.569,-4.383 -11.948,-4.543 -11.986,-4.765 C -12.026,-4.998 -11.993,-5.06 -12.037,-5.394 C -12.064,-5.602 -12.05,-5.847 -12.033,-5.976 M 0.314,-1.718 C 0.285,-1.854 0.209,-2.19 0.101,-2.387 C 0.054,-2.474 -0.133,-2.75 -0.275,-2.856 C -0.413,-2.958 -0.613,-3.059 -0.697,-3.089 C -0.775,-3.117 -1.157,-3.295 -1.26,-3.35 C -1.445,-3.45 -1.544,-3.562 -1.641,-3.669 C -1.691,-3.725 -1.74,-3.777 -1.799,-3.829 C -1.822,-3.849 -2.161,-3.988 -2.284,-4.275 C -2.359,-4.449 -2.697,-4.81 -2.754,-4.914 C -2.838,-5.064 -2.962,-5.29 -3.086,-5.411 C -3.123,-5.447 -3.163,-5.502 -3.205,-5.566 C -3.244,-5.624 -3.284,-5.689 -3.327,-5.76 C -3.339,-5.779 -3.349,-5.795 -3.361,-5.814 C -3.441,-5.946 -3.531,-6.096 -3.583,-6.151 C -3.712,-6.29 -3.787,-6.47 -3.848,-6.617 C -3.872,-6.674 -4.084,-6.977 -4.164,-7.188 C -4.199,-7.283 -4.383,-7.591 -4.403,-7.638 C -4.442,-7.737 -4.679,-7.967 -4.702,-8.012 C -4.736,-8.081 -4.767,-8.175 -4.799,-8.273 C -4.827,-8.362 -4.9,-8.537 -4.925,-8.605 C -4.956,-8.656 -4.996,-8.721 -5.038,-8.79 C -5.04,-8.793 -5.041,-8.795 -5.043,-8.797 C -5.074,-8.848 -5.105,-8.899 -5.138,-8.952 C -5.212,-9.072 -5.287,-9.19 -5.336,-9.266 C -5.369,-9.308 -5.402,-9.357 -5.431,-9.401 C -5.478,-9.47 -5.822,-10.057 -5.901,-10.197 C -5.936,-10.261 -5.979,-10.325 -6.023,-10.392 C -6.128,-10.549 -6.236,-10.71 -6.288,-10.909 C -6.321,-11.033 -6.416,-11.238 -6.423,-11.256 C -6.558,-11.588 -6.61,-11.945 -6.624,-12.046 C -6.645,-12.211 -6.64,-12.378 -6.633,-12.538 C -6.626,-12.711 -6.62,-12.875 -6.648,-13.02 C -6.7,-13.289 -6.805,-13.554 -6.944,-13.766 C -6.981,-13.824 -7.112,-14.003 -7.267,-14.147 C -7.38,-14.252 -7.565,-14.295 -7.904,-14.298 C -8.363,-14.3 -8.56,-14.13 -8.804,-13.771 C -8.844,-13.713 -8.922,-13.562 -9.017,-13.359 C -9.139,-13.1 -9.239,-12.863 -9.326,-12.551 C -9.353,-12.457 -9.391,-12.353 -9.426,-12.252 C -9.466,-12.142 -9.552,-11.832 -9.559,-11.781 C -9.567,-11.73 -9.675,-11.369 -9.682,-11.334 C -9.724,-11.113 -9.782,-10.908 -9.839,-10.71 C -9.897,-10.506 -9.952,-10.313 -9.986,-10.114 C -10.019,-9.923 -10.121,-9.614 -10.196,-9.39 C -10.196,-9.39 -10.34,-8.933 -10.386,-8.77 C -10.449,-8.549 -10.655,-7.939 -10.655,-7.939 C -10.732,-7.731 -10.914,-7.243 -10.927,-7.165 C -11.035,-6.531 -11.034,-6.02 -10.92,-5.797 C -10.869,-5.695 -10.694,-5.598 -10.553,-5.52 C -10.506,-5.493 -10.274,-5.343 -10.224,-5.33 C -10.08,-5.291 -9.839,-5.279 -9.636,-5.3 C -9.609,-5.303 -9.36,-5.305 -9.27,-5.369 C -8.935,-5.602 -8.911,-5.903 -8.867,-6.45 C -8.867,-6.45 -8.809,-7.038 -8.781,-7.259 C -8.761,-7.422 -8.739,-7.591 -8.722,-7.758 C -8.711,-7.873 -8.705,-7.999 -8.7,-8.12 C -8.691,-8.339 -8.616,-8.757 -8.616,-8.757 C -8.541,-9.008 -8.469,-9.247 -8.175,-9.371 C -8.095,-9.404 -8.004,-9.398 -7.918,-9.35 C -7.717,-9.243 -7.534,-8.917 -7.464,-8.541 C -7.46,-8.52 -7.43,-8.477 -7.401,-8.435 C -7.331,-8.338 -7.236,-8.204 -7.187,-7.984 C -7.172,-7.929 -7.037,-7.743 -6.957,-7.632 C -6.875,-7.519 -6.799,-7.413 -6.754,-7.333 C -6.739,-7.306 -6.405,-6.785 -6.405,-6.785 C -6.405,-6.785 -6.276,-6.498 -6.221,-6.391 C -6.166,-6.282 -6.118,-6.152 -6.113,-6.13 C -6.086,-6.018 -6.031,-5.783 -5.921,-5.653 C -5.771,-5.476 -5.608,-5.078 -5.6,-5.061 C -5.564,-4.993 -5.466,-4.824 -5.375,-4.675 C -5.37,-4.669 -5.361,-4.656 -5.355,-4.648 L -5.355,-4.647 C -5.353,-4.645 -5.35,-4.641 -5.348,-4.639 C -5.308,-4.586 -5.256,-4.516 -5.216,-4.468 L -4.928,-4.127 C -4.869,-4.063 -4.81,-3.997 -4.757,-3.925 C -4.701,-3.851 -4.582,-3.676 -4.477,-3.521 C -4.413,-3.424 -4.228,-3.183 -4.171,-3.123 C -4.115,-3.065 -3.695,-2.5 -3.63,-2.414 C -3.603,-2.379 -3.431,-2.204 -3.327,-2.099 C -3.327,-2.098 -3.326,-2.098 -3.326,-2.097 C -3.182,-1.952 -3.129,-1.899 -3.11,-1.874 C -3.026,-1.761 -2.935,-1.651 -2.847,-1.544 C -2.759,-1.437 -2.669,-1.328 -2.583,-1.213 C -2.545,-1.165 -2.448,-0.991 -2.422,-0.957 C -2.331,-0.837 -1.886,-0.426 -1.873,-0.415 C -1.666,-0.244 -1.437,-0.077 -1.101,-0.048 C -0.733,-0.016 -0.341,-0.086 -0.147,-0.218 C 0.131,-0.405 0.366,-0.785 0.378,-1.064 C 0.39,-1.332 0.37,-1.441 0.314,-1.718"
   id="path19393" />

        </g>
<g
   transform="matrix(13.05826,0,0,-13.05826,171.79792,779.86607)"
   id="g19395">
          <path
   style="fill:#000000;fill-rule:nonzero;stroke:none"
   d="M 0,0 L 0,-4.447 L 0.75,-3.881 L 0.75,-0.758 L 0,0 z "
   id="path19397" />

        </g>
<g
   transform="matrix(13.05826,0,0,-13.05826,192.83609,793.42446)"
   id="g19399">
          <path
   style="fill:#000000;fill-rule:nonzero;stroke:none"
   d="M 0,0 L 0.977,0.223 L 1.371,0.547 L 1.371,1.133 L 0,0 z "
   id="path19401" />

        </g>
<g
   transform="matrix(13.05826,0,0,-13.05826,191.23384,701.08429)"
   id="g19403">
          <path
   style="fill:#000000;fill-rule:nonzero;stroke:none"
   d="M 0,0 L -1.38,0.636 L -0.132,-0.762 L 0.34,-0.296 L 0,0 z "
   id="path19405" />

        </g>
<g
   transform="matrix(13.05826,0,0,-13.05826,102.11905,842.20621)"
   id="g19407">
          <path
   style="fill:#000000;fill-rule:nonzero;stroke:none"
   d="M 0,0 L 0.433,0 L 0.574,-0.707 L 0.577,-0.707 L 0.718,0 L 1.151,0 L 1.151,-1.202 L 0.863,-1.202 L 0.863,-0.431 L 0.86,-0.431 L 0.689,-1.202 L 0.462,-1.202 L 0.291,-0.431 L 0.288,-0.431 L 0.288,-1.202 L 0,-1.202 L 0,0 z "
   id="path19409" />

        </g>
<g
   transform="matrix(13.05826,0,0,-13.05826,130.31575,851.82884)"
   id="g19411">
          <path
   style="fill:#000000;fill-rule:nonzero;stroke:none"
   d="M 0,0 C 0,-0.333 -0.148,-0.493 -0.45,-0.493 C -0.751,-0.493 -0.901,-0.333 -0.901,0 L -0.901,0.737 L -0.596,0.737 L -0.596,0.082 C -0.596,-0.041 -0.596,-0.194 -0.448,-0.194 C -0.304,-0.194 -0.304,-0.041 -0.304,0.082 L -0.304,0.737 L 0,0.737 L 0,0 z "
   id="path19413" />

        </g>
<g
   transform="matrix(13.05826,0,0,-13.05826,135.44242,852.62147)"
   id="g19415">
          <path
   style="fill:#000000;fill-rule:nonzero;stroke:none"
   d="M 0,0 C 0,-0.03 0.004,-0.057 0.011,-0.079 C 0.033,-0.152 0.1,-0.167 0.156,-0.167 C 0.206,-0.167 0.282,-0.147 0.282,-0.057 C 0.282,0.005 0.24,0.022 0.069,0.081 C -0.087,0.134 -0.266,0.187 -0.266,0.429 C -0.266,0.707 -0.07,0.826 0.133,0.826 C 0.347,0.826 0.537,0.727 0.546,0.434 L 0.258,0.434 C 0.263,0.479 0.247,0.51 0.221,0.53 C 0.196,0.552 0.162,0.56 0.132,0.56 C 0.09,0.56 0.022,0.547 0.022,0.479 C 0.028,0.394 0.169,0.375 0.309,0.328 C 0.448,0.281 0.587,0.202 0.587,-0.019 C 0.587,-0.332 0.35,-0.433 0.13,-0.433 C 0.018,-0.433 -0.302,-0.384 -0.304,0 L 0,0 z "
   id="path19417" />

        </g>
<path
   style="fill:#000000;fill-rule:nonzero;stroke:none"
   d="M 144.37949,842.20751 L 148.34921,842.20751 L 148.34921,857.90354 L 144.37949,857.90354 L 144.37949,842.20751 z "
   id="path19419" />
<g
   transform="matrix(13.05826,0,0,-13.05826,158.40145,848.05108)"
   id="g19421">
          <path
   style="fill:#000000;fill-rule:nonzero;stroke:none"
   d="M 0,0 C -0.005,0.044 -0.033,0.177 -0.159,0.177 C -0.302,0.177 -0.348,0.008 -0.348,-0.153 C -0.348,-0.315 -0.302,-0.483 -0.159,-0.483 C -0.057,-0.483 -0.016,-0.395 0.001,-0.283 L 0.3,-0.283 C 0.3,-0.525 0.138,-0.783 -0.151,-0.783 C -0.471,-0.783 -0.652,-0.508 -0.652,-0.153 C -0.652,0.225 -0.455,0.476 -0.151,0.476 C 0.121,0.475 0.27,0.301 0.296,0 L 0,0 z "
   id="path19423" />

        </g>
<g
   transform="matrix(13.05826,0,0,-13.05826,172.62973,846.22554)"
   id="g19425">
          <path
   style="fill:#000000;fill-rule:nonzero;stroke:none"
   d="M 0,0 L -0.277,0 L -0.277,0.308 L 0.581,0.308 L 0.581,0 L 0.304,0 L 0.304,-0.894 L 0,-0.894 L 0,0 z "
   id="path19427" />

        </g>
<g
   transform="matrix(13.05826,0,0,-13.05826,181.37224,842.20621)"
   id="g19429">
          <path
   style="fill:#000000;fill-rule:nonzero;stroke:none"
   d="M 0,0 L 0.818,0 L 0.818,-0.308 L 0.304,-0.308 L 0.304,-0.458 L 0.77,-0.458 L 0.77,-0.744 L 0.304,-0.744 L 0.304,-0.894 L 0.833,-0.894 L 0.833,-1.202 L 0,-1.202 L 0,0 z "
   id="path19431" />

        </g>
<g
   transform="matrix(13.05826,0,0,-13.05826,193.47072,842.20621)"
   id="g19433">
          <path
   style="fill:#000000;fill-rule:nonzero;stroke:none"
   d="M 0,0 L 0.304,0 L 0.304,-0.894 L 0.741,-0.894 L 0.741,-1.202 L 0,-1.202 L 0,0 z "
   id="path19435" />

        </g>
<g
   transform="matrix(13.05826,0,0,-13.05826,204.14193,842.20621)"
   id="g19437">
          <path
   style="fill:#000000;fill-rule:nonzero;stroke:none"
   d="M 0,0 L 0.818,0 L 0.818,-0.308 L 0.304,-0.308 L 0.304,-0.458 L 0.771,-0.458 L 0.771,-0.744 L 0.304,-0.744 L 0.304,-0.894 L 0.833,-0.894 L 0.833,-1.202 L 0,-1.202 L 0,0 z "
   id="path19439" />

        </g>
<g
   transform="matrix(13.05826,0,0,-13.05826,224.36525,857.90093)"
   id="g19441">
          <path
   style="fill:#000000;fill-rule:nonzero;stroke:none"
   d="M 0,0 L -0.34,0 L -0.635,1.202 L -0.328,1.202 L -0.166,0.473 L -0.164,0.473 L -0.004,1.202 L 0.309,1.202 L 0,0 z "
   id="path19443" />

        </g>
<path
   style="fill:#000000;fill-rule:nonzero;stroke:none"
   d="M 229.88498,842.20751 L 233.86775,842.20751 L 233.86775,857.90354 L 229.88498,857.90354 L 229.88498,842.20751 z "
   id="path19445" />
<g
   transform="matrix(13.05826,0,0,-13.05826,239.39009,852.62147)"
   id="g19447">
          <path
   style="fill:#000000;fill-rule:nonzero;stroke:none"
   d="M 0,0 C 0,-0.03 0.004,-0.057 0.011,-0.079 C 0.033,-0.152 0.1,-0.167 0.156,-0.167 C 0.206,-0.167 0.282,-0.147 0.282,-0.057 C 0.282,0.005 0.239,0.022 0.069,0.081 C -0.087,0.134 -0.266,0.187 -0.266,0.429 C -0.266,0.707 -0.071,0.826 0.133,0.826 C 0.347,0.826 0.537,0.727 0.545,0.434 L 0.257,0.434 C 0.263,0.479 0.246,0.51 0.221,0.53 C 0.196,0.552 0.162,0.56 0.132,0.56 C 0.09,0.56 0.022,0.547 0.022,0.479 C 0.028,0.394 0.169,0.375 0.309,0.328 C 0.448,0.281 0.587,0.202 0.587,-0.019 C 0.587,-0.332 0.35,-0.433 0.13,-0.433 C 0.018,-0.433 -0.302,-0.384 -0.304,0 L 0,0 z "
   id="path19449" />

        </g>
<path
   style="fill:#000000;fill-rule:nonzero;stroke:none"
   d="M 248.3363,842.20751 L 252.30603,842.20751 L 252.30603,857.90354 L 248.3363,857.90354 L 248.3363,842.20751 z "
   id="path19451" />
<g
   transform="matrix(13.05826,0,0,-13.05826,260.19453,841.83274)"
   id="g19453">
          <path
   style="fill:#000000;fill-rule:nonzero;stroke:none"
   d="M 0,0 C 0.301,0 0.501,-0.263 0.501,-0.63 C 0.501,-0.996 0.301,-1.259 0,-1.259 C -0.3,-1.259 -0.501,-0.996 -0.501,-0.63 C -0.501,-0.263 -0.3,0 0,0 M 0,-0.96 C 0.078,-0.96 0.197,-0.897 0.197,-0.63 C 0.197,-0.362 0.078,-0.299 0,-0.299 C -0.077,-0.299 -0.196,-0.362 -0.196,-0.63 C -0.196,-0.897 -0.077,-0.96 0,-0.96"
   id="path19455" />

        </g>
<g
   transform="matrix(13.05826,0,0,-13.05826,268.21753,842.20621)"
   id="g19457">
          <path
   style="fill:#000000;fill-rule:nonzero;stroke:none"
   d="M 0,0 L 0.311,0 L 0.599,-0.643 L 0.602,-0.643 L 0.602,0 L 0.89,0 L 0.89,-1.202 L 0.594,-1.202 L 0.291,-0.546 L 0.288,-0.546 L 0.288,-1.202 L 0,-1.202 L 0,0 z "
   id="path19459" />

        </g>
<g
   transform="matrix(13.05826,0,0,-13.05826,285.73773,847.6737)"
   id="g19461">
          <path
   style="fill:#000000;fill-rule:evenodd;stroke:none"
   d="M 0,0 L -0.065,0 L -0.065,0.306 L 0.049,0.306 C 0.127,0.306 0.174,0.284 0.174,0.214 C 0.174,0.157 0.141,0.137 0.101,0.134 L 0.179,0 L 0.101,0 L 0.031,0.129 L 0,0.129 L 0,0 M 0.058,0.18 C 0.087,0.18 0.105,0.187 0.105,0.22 C 0.105,0.252 0.071,0.254 0.045,0.254 L 0,0.254 L 0,0.18 L 0.058,0.18 M 0.047,-0.132 C -0.104,-0.132 -0.238,-0.027 -0.238,0.153 C -0.238,0.332 -0.104,0.437 0.047,0.437 C 0.198,0.437 0.332,0.332 0.332,0.153 C 0.332,-0.027 0.198,-0.132 0.047,-0.132 M 0.047,0.371 C -0.065,0.371 -0.156,0.284 -0.156,0.153 C -0.156,0.022 -0.065,-0.066 0.047,-0.065 L 0.047,-0.066 C 0.157,-0.066 0.25,0.022 0.25,0.153 C 0.25,0.284 0.157,0.371 0.047,0.371"
   id="path19463" />

        </g>
<g
   transform="matrix(13.05826,0,0,-13.05826,315.74303,710.4575)"
   id="g19465">
          <path
   style="fill:#000000;fill-rule:nonzero;stroke:none"
   d="M 0,0 C -0.126,0.086 -0.351,0.129 -0.574,0.11 C -0.787,0.092 -0.928,-0.012 -1.044,-0.108 C -1.042,-0.107 -1.347,-0.408 -1.347,-0.408 L -1.428,-0.538 C -1.428,-0.54 -1.699,-0.877 -1.699,-0.877 C -1.699,-0.877 -1.701,-0.88 -1.702,-0.881 L -1.702,0.992 L -2.531,1.49 L -2.53,-1.911 L -2.541,-1.927 L -2.739,-2.16 L -2.739,1.49 L -7.861,1.49 L -9.684,-0.323 L -11.302,1.49 L -16.354,1.49 L -16.354,-9.75 L -11.216,-9.75 L -11.216,-4.799 L -9.704,-6.359 L -7.846,-4.776 L -7.846,-9.75 L -2.738,-9.75 L -2.739,-5.007 C -2.699,-4.939 -2.666,-4.884 -2.666,-4.884 C -2.666,-4.883 -2.622,-4.821 -2.622,-4.821 C -2.62,-4.818 -2.577,-4.748 -2.529,-4.672 L -2.528,-9.75 L -1.702,-9.179 L -1.702,-3.19 C -1.665,-3.136 -1.611,-3.055 -1.611,-3.055 C -1.603,-3.043 -1.484,-2.863 -1.484,-2.863 C -1.484,-2.863 -1.294,-2.584 -1.294,-2.584 C -1.291,-2.579 -1.221,-2.489 -1.221,-2.489 L -1.045,-2.24 C -1.01,-2.16 -0.911,-2.107 -0.873,-2.087 L -0.855,-2.077 L -0.831,-2.06 L -0.74,-1.967 C -0.738,-1.965 -0.581,-1.832 -0.581,-1.832 L -0.311,-1.707 L -0.06,-1.569 C -0.06,-1.569 0.17,-1.286 0.17,-1.286 L 0.292,-0.906 C 0.292,-0.906 0.328,-0.538 0.328,-0.538 C 0.32,-0.352 0.179,-0.121 0,0 M -6.155,-3.057 C -6.149,-3.093 -6.13,-3.425 -6.131,-3.48 C -6.132,-3.644 -6.121,-3.826 -6.126,-3.899 C -6.13,-3.955 -6.123,-4.147 -6.123,-4.147 C -6.109,-4.299 -6.076,-4.465 -6.073,-4.495 C -6.066,-4.573 -6.095,-4.868 -6.087,-4.935 C -6.086,-4.949 -6.061,-5.072 -6.066,-5.101 C -6.08,-5.178 -6.057,-5.271 -6.06,-5.305 C -6.064,-5.366 -6.066,-5.436 -6.069,-5.51 C -6.073,-5.62 -6.076,-5.733 -6.087,-5.833 C -6.089,-5.858 -6.086,-6.031 -6.086,-6.031 C -6.106,-6.206 -6.127,-6.386 -6.098,-6.566 C -6.092,-6.603 -6.1,-6.722 -6.096,-6.743 C -6.092,-6.77 -6.053,-6.91 -6.048,-6.941 C -6.04,-6.987 -6.022,-7.2 -5.999,-7.249 C -5.977,-7.299 -5.885,-7.516 -5.877,-7.542 C -5.85,-7.625 -5.808,-7.823 -5.846,-7.924 C -5.881,-8.02 -5.934,-8.247 -5.972,-8.305 C -6.003,-8.354 -6.052,-8.383 -6.075,-8.419 C -6.097,-8.452 -6.141,-8.483 -6.177,-8.498 C -6.29,-8.541 -6.489,-8.572 -6.662,-8.52 C -6.732,-8.498 -6.838,-8.505 -6.957,-8.433 C -7.054,-8.374 -7.088,-8.213 -7.101,-8.126 C -7.108,-8.086 -7.096,-7.978 -7.099,-7.961 C -7.102,-7.937 -7.139,-7.777 -7.139,-7.726 C -7.139,-7.701 -7.13,-7.592 -7.142,-7.521 C -7.156,-7.43 -7.201,-7.281 -7.201,-7.281 C -7.213,-7.22 -7.246,-7.088 -7.248,-7.084 C -7.283,-6.985 -7.3,-6.889 -7.311,-6.807 C -7.329,-6.657 -7.292,-6.531 -7.259,-6.42 C -7.24,-6.357 -7.222,-6.297 -7.215,-6.236 C -7.209,-6.193 -7.243,-5.987 -7.237,-5.918 C -7.234,-5.889 -7.212,-5.8 -7.21,-5.789 C -7.202,-5.73 -7.2,-5.574 -7.199,-5.55 C -7.198,-5.519 -7.178,-5.388 -7.18,-5.253 C -7.181,-5.2 -7.187,-5.144 -7.18,-5.089 C -7.174,-5.029 -7.168,-4.878 -7.18,-4.808 C -7.198,-4.701 -7.19,-4.605 -7.191,-4.601 C -7.198,-4.488 -7.205,-4.371 -7.199,-4.271 C -7.198,-4.255 -7.217,-4.085 -7.218,-4.032 C -7.218,-3.999 -7.22,-3.791 -7.223,-3.766 C -7.267,-3.248 -7.337,-3.149 -7.365,-3.13 C -7.393,-3.112 -7.469,-3.113 -7.513,-3.133 C -7.546,-3.148 -7.633,-3.224 -7.706,-3.263 C -7.778,-3.301 -7.911,-3.364 -7.957,-3.398 C -8.009,-3.438 -8.096,-3.505 -8.264,-3.597 C -8.307,-3.62 -8.339,-3.66 -8.377,-3.694 C -8.433,-3.744 -8.537,-3.849 -8.706,-3.934 C -8.789,-3.976 -8.863,-4.024 -8.922,-4.082 C -8.947,-4.107 -9.037,-4.258 -9.095,-4.314 C -9.152,-4.369 -9.188,-4.445 -9.198,-4.469 C -9.228,-4.532 -9.26,-4.603 -9.322,-4.65 C -9.419,-4.722 -9.63,-4.735 -9.757,-4.682 C -9.839,-4.648 -10,-4.539 -10.071,-4.351 C -10.142,-4.162 -10.083,-3.921 -9.943,-3.764 C -9.85,-3.661 -9.706,-3.62 -9.565,-3.581 C -9.479,-3.556 -9.397,-3.533 -9.333,-3.497 C -9.302,-3.48 -9.202,-3.405 -9.181,-3.392 C -9.15,-3.371 -9.036,-3.316 -9.014,-3.301 C -8.994,-3.288 -8.875,-3.184 -8.795,-3.139 C -8.663,-3.065 -8.558,-3.005 -8.496,-2.967 C -8.496,-2.967 -8.315,-2.865 -8.197,-2.753 C -8.17,-2.728 -8.057,-2.686 -7.934,-2.615 C -7.902,-2.597 -7.773,-2.554 -7.741,-2.54 C -7.718,-2.529 -7.628,-2.463 -7.601,-2.449 C -7.485,-2.389 -7.427,-2.317 -7.46,-2.137 C -7.471,-2.075 -7.49,-2.011 -7.484,-1.936 C -7.482,-1.918 -7.455,-1.805 -7.412,-1.727 C -7.391,-1.687 -7.357,-1.688 -7.338,-1.651 C -7.319,-1.613 -7.253,-1.581 -7.208,-1.57 C -7.178,-1.54 -7.114,-1.509 -7.04,-1.496 C -6.877,-1.469 -6.668,-1.588 -6.638,-1.595 C -6.581,-1.607 -6.484,-1.599 -6.432,-1.584 C -6.422,-1.581 -6.355,-1.538 -6.331,-1.529 C -6.298,-1.517 -6.194,-1.488 -6.172,-1.48 C -6.14,-1.469 -5.99,-1.391 -5.953,-1.376 C -5.914,-1.362 -5.824,-1.345 -5.779,-1.335 C -5.708,-1.284 -5.574,-1.241 -5.523,-1.197 C -5.465,-1.146 -5.387,-1.025 -5.371,-1.004 C -5.341,-0.964 -5.193,-0.864 -5.173,-0.849 C -5.124,-0.811 -5.014,-0.734 -4.94,-0.712 C -4.904,-0.702 -4.799,-0.723 -4.735,-0.723 C -4.664,-0.722 -4.563,-0.727 -4.487,-0.842 C -4.449,-0.899 -4.386,-0.958 -4.37,-1.038 C -4.321,-1.287 -4.507,-1.534 -4.648,-1.622 C -4.662,-1.631 -4.731,-1.651 -4.773,-1.664 C -4.832,-1.684 -4.892,-1.727 -4.932,-1.737 C -5.011,-1.758 -5.049,-1.814 -5.083,-1.831 C -5.115,-1.848 -5.224,-1.915 -5.26,-1.935 C -5.286,-1.95 -5.331,-2.013 -5.411,-2.036 C -5.465,-2.053 -5.578,-2.085 -5.669,-2.164 C -5.706,-2.197 -5.858,-2.228 -5.901,-2.238 C -5.918,-2.242 -6.112,-2.324 -6.131,-2.438 C -6.152,-2.557 -6.135,-2.588 -6.157,-2.759 C -6.171,-2.866 -6.164,-2.991 -6.155,-3.057 M 0.161,-0.879 C 0.146,-0.948 0.107,-1.12 0.052,-1.221 C 0.028,-1.265 -0.068,-1.406 -0.14,-1.461 C -0.211,-1.513 -0.313,-1.565 -0.357,-1.58 C -0.396,-1.594 -0.592,-1.685 -0.644,-1.714 C -0.739,-1.765 -0.79,-1.822 -0.84,-1.877 C -0.865,-1.905 -0.89,-1.932 -0.92,-1.958 C -0.932,-1.969 -1.105,-2.04 -1.168,-2.187 C -1.207,-2.276 -1.38,-2.46 -1.409,-2.513 C -1.452,-2.59 -1.515,-2.706 -1.579,-2.768 C -1.597,-2.786 -1.618,-2.814 -1.64,-2.847 C -1.659,-2.877 -1.68,-2.91 -1.702,-2.946 C -1.708,-2.956 -1.713,-2.964 -1.719,-2.974 C -1.76,-3.042 -1.806,-3.118 -1.833,-3.146 C -1.899,-3.217 -1.937,-3.31 -1.968,-3.385 C -1.981,-3.414 -2.089,-3.569 -2.13,-3.677 C -2.148,-3.726 -2.242,-3.883 -2.252,-3.907 C -2.272,-3.958 -2.393,-4.075 -2.405,-4.098 C -2.423,-4.134 -2.438,-4.182 -2.455,-4.232 C -2.469,-4.277 -2.507,-4.367 -2.519,-4.402 C -2.535,-4.427 -2.555,-4.461 -2.577,-4.496 C -2.578,-4.498 -2.579,-4.499 -2.579,-4.5 C -2.595,-4.526 -2.611,-4.552 -2.628,-4.579 C -2.666,-4.64 -2.704,-4.701 -2.73,-4.739 C -2.746,-4.761 -2.763,-4.786 -2.778,-4.809 C -2.802,-4.844 -2.978,-5.144 -3.018,-5.216 C -3.036,-5.249 -3.058,-5.281 -3.081,-5.316 C -3.135,-5.396 -3.19,-5.479 -3.217,-5.58 C -3.233,-5.644 -3.282,-5.749 -3.285,-5.758 C -3.354,-5.928 -3.381,-6.11 -3.388,-6.162 C -3.399,-6.246 -3.396,-6.331 -3.393,-6.413 C -3.39,-6.502 -3.386,-6.586 -3.401,-6.66 C -3.427,-6.798 -3.481,-6.933 -3.552,-7.041 C -3.571,-7.071 -3.638,-7.163 -3.717,-7.237 C -3.775,-7.29 -3.87,-7.312 -4.043,-7.313 C -4.278,-7.315 -4.379,-7.228 -4.504,-7.044 C -4.524,-7.014 -4.564,-6.937 -4.612,-6.833 C -4.675,-6.701 -4.726,-6.58 -4.771,-6.42 C -4.784,-6.372 -4.804,-6.319 -4.822,-6.267 C -4.842,-6.211 -4.886,-6.052 -4.89,-6.026 C -4.894,-6 -4.949,-5.815 -4.952,-5.797 C -4.974,-5.685 -5.004,-5.58 -5.033,-5.479 C -5.063,-5.374 -5.09,-5.275 -5.108,-5.173 C -5.125,-5.076 -5.177,-4.918 -5.215,-4.803 C -5.215,-4.803 -5.289,-4.569 -5.313,-4.486 C -5.345,-4.373 -5.45,-4.061 -5.45,-4.061 C -5.49,-3.954 -5.583,-3.705 -5.589,-3.665 C -5.645,-3.341 -5.644,-3.079 -5.586,-2.965 C -5.56,-2.913 -5.47,-2.863 -5.398,-2.823 C -5.374,-2.81 -5.255,-2.733 -5.23,-2.727 C -5.156,-2.707 -5.033,-2.7 -4.929,-2.711 C -4.915,-2.712 -4.788,-2.714 -4.742,-2.746 C -4.57,-2.866 -4.558,-3.02 -4.536,-3.299 C -4.536,-3.299 -4.506,-3.6 -4.492,-3.713 C -4.481,-3.797 -4.47,-3.883 -4.462,-3.968 C -4.456,-4.027 -4.453,-4.091 -4.45,-4.153 C -4.445,-4.266 -4.407,-4.479 -4.407,-4.479 C -4.369,-4.608 -4.332,-4.73 -4.182,-4.793 C -4.141,-4.81 -4.094,-4.807 -4.05,-4.783 C -3.947,-4.728 -3.854,-4.561 -3.818,-4.369 C -3.816,-4.358 -3.8,-4.336 -3.786,-4.314 C -3.75,-4.265 -3.702,-4.196 -3.676,-4.084 C -3.668,-4.056 -3.6,-3.961 -3.559,-3.904 C -3.517,-3.846 -3.478,-3.792 -3.455,-3.751 C -3.447,-3.737 -3.277,-3.47 -3.277,-3.47 C -3.277,-3.47 -3.21,-3.324 -3.182,-3.269 C -3.154,-3.213 -3.129,-3.147 -3.127,-3.136 C -3.113,-3.078 -3.085,-2.958 -3.029,-2.891 C -2.952,-2.801 -2.869,-2.597 -2.864,-2.589 C -2.846,-2.554 -2.796,-2.468 -2.75,-2.391 C -2.747,-2.388 -2.742,-2.382 -2.739,-2.377 L -2.739,-2.377 C -2.738,-2.376 -2.737,-2.374 -2.736,-2.373 C -2.715,-2.346 -2.688,-2.31 -2.668,-2.285 L -2.521,-2.111 C -2.491,-2.078 -2.46,-2.044 -2.433,-2.008 C -2.405,-1.97 -2.344,-1.88 -2.29,-1.801 C -2.257,-1.752 -2.163,-1.628 -2.133,-1.598 C -2.105,-1.568 -1.89,-1.279 -1.857,-1.235 C -1.843,-1.217 -1.755,-1.128 -1.702,-1.073 C -1.702,-1.073 -1.701,-1.073 -1.701,-1.073 C -1.628,-0.998 -1.601,-0.971 -1.591,-0.958 C -1.548,-0.901 -1.501,-0.844 -1.456,-0.79 C -1.411,-0.735 -1.365,-0.679 -1.321,-0.621 C -1.302,-0.596 -1.252,-0.507 -1.239,-0.49 C -1.192,-0.428 -0.965,-0.218 -0.958,-0.212 C -0.852,-0.125 -0.735,-0.039 -0.563,-0.024 C -0.375,-0.008 -0.174,-0.044 -0.075,-0.112 C 0.067,-0.207 0.187,-0.402 0.194,-0.544 C 0.199,-0.681 0.189,-0.737 0.161,-0.879"
   id="path19467" />

        </g>

      
    </g>
</svg>
