<svg height="327" width="426" xmlns="http://www.w3.org/2000/svg"><g transform="translate(-12.59423 -46.636963)"><path d="m0 0v-8.693l1.466 1.105v6.107z" transform="matrix(13.05826 0 0 -13.05826 148.81408 220.3562)"/><path d="m0 0 1.909.436.771.632v1.146z" transform="matrix(13.05826 0 0 -13.05826 189.94237 246.86316)"/><path d="m0 0-2.697 1.243 2.438-2.732.923.911z" transform="matrix(13.05826 0 0 -13.05826 186.81231 66.34055)"/><path d="m0 0h.847l.276-1.382h.005l.276 1.382h.847v-2.35h-.563v1.508h-.006l-.335-1.508h-.443l-.336 1.508h-.005v-1.508h-.563z" transform="matrix(13.05826 0 0 -13.05826 12.59423 342.22763)"/><path d="m0 0c0-.652-.29-.964-.879-.964s-.882.312-.882.964v1.441h.595v-1.281c0-.24 0-.539.289-.539.283 0 .283.299.283.539v1.281h.594z" transform="matrix(13.05826 0 0 -13.05826 67.71837 361.04197)"/><path d="m0 0c0-.059.008-.112.022-.155.043-.141.173-.171.284-.171.097 0 .246.039.246.214 0 .121-.083.154-.417.269-.305.106-.655.208-.655.682 0 .542.383.776.78.776.419 0 .79-.194.806-.767h-.562c.01.089-.022.148-.071.189s-.117.058-.176.058c-.081 0-.214-.026-.214-.158.011-.167.287-.203.56-.296.274-.092.544-.247.544-.677 0-.613-.462-.81-.892-.81-.22 0-.845.096-.85.846z" transform="matrix(13.05826 0 0 -13.05826 77.74058 362.58938)"/><path d="m95.21515 342.23286h7.76966v30.68691h-7.76966z"/><path d="m0 0c-.011.086-.065.346-.312.346-.278 0-.367-.33-.367-.646 0-.315.089-.645.367-.645.201 0 .28.172.315.392h.584c0-.474-.316-.977-.882-.977-.625 0-.98.536-.98 1.23 0 .74.385 1.231.98 1.231.531-.003.822-.342.874-.931z" transform="matrix(13.05826 0 0 -13.05826 122.62313 353.65753)"/><path d="m0 0h-.541v.602h1.677v-.602h-.541v-1.748h-.595z" transform="matrix(13.05826 0 0 -13.05826 150.43983 350.0874)"/><path d="m0 0h1.598v-.602h-1.003v-.294h.911v-.558h-.911v-.294h1.034v-.602h-1.629z" transform="matrix(13.05826 0 0 -13.05826 167.53179 342.22763)"/><path d="m0 0h.594v-1.748h.856v-.602h-1.45z" transform="matrix(13.05826 0 0 -13.05826 191.1816 342.22763)"/><path d="m0 0h1.598v-.602h-1.003v-.294h.912v-.558h-.912v-.294h1.033v-.602h-1.628z" transform="matrix(13.05826 0 0 -13.05826 212.04348 342.22763)"/><path d="m0 0h-.665l-.577 2.35h.601l.317-1.425h.004l.313 1.425h.61z" transform="matrix(13.05826 0 0 -13.05826 251.58128 372.91063)"/><path d="m262.37393 342.23286h7.7827v30.68691h-7.7827z"/><path d="m0 0c0-.059.008-.112.022-.155.043-.141.173-.171.284-.171.097 0 .246.039.246.214 0 .121-.085.154-.417.269-.305.106-.655.208-.655.682 0 .542.382.776.78.776.419 0 .789-.194.805-.767h-.562c.011.089-.022.148-.071.189-.048.041-.116.058-.175.058-.081 0-.214-.026-.214-.158.011-.167.287-.203.56-.296.274-.092.544-.247.544-.677 0-.613-.463-.81-.892-.81-.22 0-.845.096-.85.846z" transform="matrix(13.05826 0 0 -13.05826 280.95453 362.58938)"/><path d="m298.42783 342.23286h7.7696v30.68691h-7.7696z"/><path d="m0 0c.588 0 .98-.514.98-1.231s-.392-1.23-.98-1.23c-.586 0-.979.513-.979 1.23s.393 1.231.979 1.231m0-1.876c.152 0 .385.122.385.645s-.233.646-.385.646c-.151 0-.384-.123-.384-.646s.233-.645.384-.645" transform="matrix(13.05826 0 0 -13.05826 321.62583 341.49898)"/><path d="m0 0h.609l.562-1.257h.006v1.257h.562v-2.35h-.578l-.593 1.283h-.005v-1.283h-.563z" transform="matrix(13.05826 0 0 -13.05826 337.31003 342.22763)"/><path d="m0 0h-.128v.598h.224c.153 0 .245-.043.245-.181 0-.11-.065-.149-.144-.155l.152-.262h-.151l-.138.252h-.06zm.113.353c.057 0 .092.012.092.078 0 .061-.067.066-.116.066h-.089v-.144zm-.021-.61c-.295 0-.558.204-.558.555s.263.556.558.556c.294 0 .557-.205.557-.556 0-.351-.263-.555-.557-.555m0 .981c-.22 0-.398-.169-.398-.426 0-.256.178-.427.398-.426v-.001c.215 0 .397.171.397.427 0 .257-.182.426-.397.426" fill-rule="evenodd" transform="matrix(13.05826 0 0 -13.05826 371.56323 352.91843)"/><path d="m0 0c-.246.168-.687.252-1.123.214-.415-.035-.691-.238-.918-.426.003.002-.591-.586-.591-.586l-.159-.254c-.002-.003-.53-.663-.53-.663s-.005-.006-.006-.007v3.66l-1.62.974.001-6.648-.021-.032-.388-.456v7.136h-10.014l-3.562-3.544-3.164 3.544h-9.877v-21.972h10.045v9.679l2.957-3.05 3.631 3.095v-9.724h9.986l-.001 9.272c.078.133.142.239.142.239.001.003.085.124.085.124.005.006.09.142.183.29l.001-9.925 1.616 1.116v11.707c.071.106.177.264.177.264.015.025.249.375.249.375 0 .001.372.547.372.547.004.009.142.184.142.184l.344.487c.068.157.262.261.336.3l.035.019.047.034.179.181c.003.004.311.264.311.264l.526.245.491.27c.002.001.45.553.45.553l.239.742c.001.001.07.719.07.719-.015.365-.291.817-.641 1.053m-12.033-5.976c.011-.07.049-.72.047-.827-.002-.322.02-.677.01-.82-.008-.109.007-.485.007-.485.027-.297.091-.622.097-.68.013-.152-.044-.729-.027-.86.002-.027.049-.268.039-.325-.026-.15.018-.331.013-.399-.008-.119-.013-.255-.017-.4-.008-.215-.015-.437-.035-.631-.006-.049.001-.388.001-.388-.039-.341-.081-.693-.023-1.046.011-.071-.003-.304.003-.345.009-.053.084-.327.095-.387.016-.09.05-.507.095-.603.044-.097.223-.522.239-.573.053-.161.134-.549.061-.747-.069-.187-.173-.632-.246-.743-.063-.097-.158-.154-.203-.224-.043-.065-.128-.125-.199-.153-.22-.086-.61-.146-.948-.043-.137.041-.344.028-.577.169-.19.115-.255.43-.282.599-.013.079.01.29.005.323-.006.048-.078.36-.078.46-.001.05.017.261-.006.4-.029.179-.116.47-.116.47-.024.119-.088.377-.091.385-.069.193-.103.381-.123.541-.037.294.036.539.101.756.037.125.072.242.087.36.01.085-.056.488-.043.623.004.055.049.23.051.253.017.114.021.418.022.465.001.061.042.317.037.582-.002.104-.013.212 0 .321.013.116.023.412.001.549-.035.209-.021.396-.022.405-.015.219-.028.449-.015.645.002.031-.036.363-.037.466-.002.065-.006.472-.01.52-.087 1.013-.224 1.207-.279 1.244-.055.036-.204.034-.289-.006-.065-.03-.234-.177-.377-.254-.14-.074-.401-.198-.49-.264-.103-.078-.272-.209-.601-.389-.083-.045-.146-.122-.221-.19-.109-.096-.313-.302-.643-.469-.162-.081-.306-.176-.422-.289-.048-.048-.225-.344-.339-.455-.111-.106-.181-.255-.201-.301-.058-.124-.121-.263-.243-.354-.189-.141-.601-.167-.85-.063-.159.066-.476.279-.614.648-.139.368-.023.84.252 1.146.181.201.463.282.737.359.169.048.33.094.454.163.061.034.256.18.297.207.062.041.283.148.326.176.04.027.273.23.429.318.258.144.463.26.584.336 0 0 .355.2.585.418.052.05.273.132.515.269.061.035.314.12.378.148.044.021.22.15.272.177.227.118.341.259.277.61-.023.122-.06.246-.047.393.004.036.056.257.14.409.042.078.108.076.145.148.037.074.167.136.253.158.06.058.184.12.329.145.318.053.727-.18.786-.192.112-.025.302-.008.402.021.02.004.15.089.198.107.064.024.269.08.311.095.063.022.355.175.429.203.076.029.252.061.339.081.139.099.4.184.5.27.113.099.266.336.298.378.059.078.347.272.388.303.094.074.309.225.455.267.07.02.275-.022.4-.021.14 0 .336-.008.484-.232.074-.113.198-.228.23-.384.096-.487-.268-.97-.544-1.142-.028-.017-.162-.056-.244-.083-.115-.038-.232-.122-.31-.143-.155-.041-.231-.149-.295-.183-.063-.033-.277-.165-.346-.203-.053-.028-.14-.152-.297-.198-.106-.032-.327-.095-.503-.25-.073-.064-.37-.125-.455-.144-.032-.008-.411-.168-.449-.39-.04-.233-.007-.295-.051-.629-.027-.208-.013-.453.004-.582m12.347 4.258c-.029-.136-.105-.472-.213-.669-.047-.087-.234-.363-.376-.469-.138-.102-.338-.203-.422-.233-.078-.028-.46-.206-.563-.261-.185-.1-.284-.212-.381-.319-.05-.056-.099-.108-.158-.16-.023-.02-.362-.159-.485-.446-.075-.174-.413-.535-.47-.639-.084-.15-.208-.376-.332-.497-.037-.036-.077-.091-.119-.155-.039-.058-.079-.123-.122-.194-.012-.019-.022-.035-.034-.054-.08-.132-.17-.282-.222-.337-.129-.139-.204-.319-.265-.466-.024-.057-.236-.36-.316-.571-.035-.095-.219-.403-.239-.45-.039-.099-.276-.329-.299-.374-.034-.069-.065-.163-.097-.261-.028-.089-.101-.264-.126-.332-.031-.051-.071-.116-.113-.185-.002-.003-.003-.005-.005-.007-.031-.051-.062-.102-.095-.155-.074-.12-.149-.238-.198-.314-.033-.042-.066-.091-.095-.135-.047-.069-.391-.656-.47-.796-.035-.064-.078-.128-.122-.195-.105-.157-.213-.318-.265-.517-.033-.124-.128-.329-.135-.347-.135-.332-.187-.689-.201-.79-.021-.165-.016-.332-.009-.492.007-.173.013-.337-.015-.482-.052-.269-.157-.534-.296-.746-.037-.058-.168-.237-.323-.381-.113-.105-.298-.148-.637-.151-.459-.002-.656.168-.9.527-.04.058-.118.209-.213.412-.122.259-.222.496-.309.808-.027.094-.065.198-.1.299-.04.11-.126.42-.133.471-.008.051-.116.412-.123.447-.042.221-.1.426-.157.624-.058.204-.113.397-.147.596-.033.191-.135.5-.21.724 0 0-.144.457-.19.62-.063.221-.269.831-.269.831-.077.208-.259.696-.272.774-.108.634-.107 1.145.007 1.368.051.102.226.199.367.277.047.027.279.177.329.19.144.039.385.051.588.03.027-.003.276-.005.366-.069.335-.233.359-.534.403-1.081 0 0 .058-.588.086-.809.02-.163.042-.332.059-.499.011-.115.017-.241.022-.362.009-.219.084-.637.084-.637.075-.251.147-.49.441-.614.08-.033.171-.027.257.021.201.107.384.433.454.809.004.021.034.064.063.106.07.097.165.231.214.451.015.055.15.241.23.352.082.113.158.219.203.299.015.027.349.548.349.548s.129.287.184.394c.055.109.103.239.108.261.027.112.082.347.192.477.15.177.313.575.321.592.036.068.134.237.225.386.005.006.014.019.02.027v.001c.002.002.005.006.007.008.04.053.092.123.132.171l.288.341c.059.064.118.13.171.202.056.074.175.249.28.404.064.097.249.338.306.398.056.058.476.623.541.709.027.035.199.21.303.315 0 .001.001.001.001.002.144.145.197.198.216.223.084.113.175.223.263.33s.178.216.264.331c.038.048.135.222.161.256.091.12.536.531.549.542.207.171.436.338.772.367.368.032.76-.038.954-.17.278-.187.513-.567.525-.846.012-.268-.008-.377-.064-.654" transform="matrix(13.05826 0 0 -13.05826 430.22093 84.6626)"/><path d="m0 0v-4.447l.75.566v3.123z" transform="matrix(13.05826 0 0 -13.05826 171.79792 779.86607)"/><path d="m0 0 .977.223.394.324v.586z" transform="matrix(13.05826 0 0 -13.05826 192.83609 793.42446)"/><path d="m0 0-1.38.636 1.248-1.398.472.466z" transform="matrix(13.05826 0 0 -13.05826 191.23384 701.08429)"/><path d="m0 0h.433l.141-.707h.003l.141.707h.433v-1.202h-.288v.771h-.003l-.171-.771h-.227l-.171.771h-.003v-.771h-.288z" transform="matrix(13.05826 0 0 -13.05826 102.11905 842.20621)"/><path d="m0 0c0-.333-.148-.493-.45-.493-.301 0-.451.16-.451.493v.737h.305v-.655c0-.123 0-.276.148-.276.144 0 .144.153.144.276v.655h.304z" transform="matrix(13.05826 0 0 -13.05826 130.31575 851.82884)"/><path d="m0 0c0-.03.004-.057.011-.079.022-.073.089-.088.145-.088.05 0 .126.02.126.11 0 .062-.042.079-.213.138-.156.053-.335.106-.335.348 0 .278.196.397.399.397.214 0 .404-.099.413-.392h-.288c.005.045-.011.076-.037.096-.025.022-.059.03-.089.03-.042 0-.11-.013-.11-.081.006-.085.147-.104.287-.151.139-.047.278-.126.278-.347 0-.313-.237-.414-.457-.414-.112 0-.432.049-.434.433z" transform="matrix(13.05826 0 0 -13.05826 135.44242 852.62147)"/><path d="m144.37949 842.20751h3.96972v15.69603h-3.96972z"/><path d="m0 0c-.005.044-.033.177-.159.177-.143 0-.189-.169-.189-.33 0-.162.046-.33.189-.33.102 0 .143.088.16.2h.299c0-.242-.162-.5-.451-.5-.32 0-.501.275-.501.63 0 .378.197.629.501.629.272-.001.421-.175.447-.476z" transform="matrix(13.05826 0 0 -13.05826 158.40145 848.05108)"/><path d="m0 0h-.277v.308h.858v-.308h-.277v-.894h-.304z" transform="matrix(13.05826 0 0 -13.05826 172.62973 846.22554)"/><path d="m0 0h.818v-.308h-.514v-.15h.466v-.286h-.466v-.15h.529v-.308h-.833z" transform="matrix(13.05826 0 0 -13.05826 181.37224 842.20621)"/><path d="m0 0h.304v-.894h.437v-.308h-.741z" transform="matrix(13.05826 0 0 -13.05826 193.47072 842.20621)"/><path d="m0 0h.818v-.308h-.514v-.15h.467v-.286h-.467v-.15h.529v-.308h-.833z" transform="matrix(13.05826 0 0 -13.05826 204.14193 842.20621)"/><path d="m0 0h-.34l-.295 1.202h.307l.162-.729h.002l.16.729h.313z" transform="matrix(13.05826 0 0 -13.05826 224.36525 857.90093)"/><path d="m229.88498 842.20751h3.98277v15.69603h-3.98277z"/><path d="m0 0c0-.03.004-.057.011-.079.022-.073.089-.088.145-.088.05 0 .126.02.126.11 0 .062-.043.079-.213.138-.156.053-.335.106-.335.348 0 .278.195.397.399.397.214 0 .404-.099.412-.392h-.288c.006.045-.011.076-.036.096-.025.022-.059.03-.089.03-.042 0-.11-.013-.11-.081.006-.085.147-.104.287-.151.139-.047.278-.126.278-.347 0-.313-.237-.414-.457-.414-.112 0-.432.049-.434.433z" transform="matrix(13.05826 0 0 -13.05826 239.39009 852.62147)"/><path d="m248.3363 842.20751h3.96973v15.69603h-3.96973z"/><path d="m0 0c.301 0 .501-.263.501-.63 0-.366-.2-.629-.501-.629-.3 0-.501.263-.501.629 0 .367.201.63.501.63m0-.96c.078 0 .197.063.197.33 0 .268-.119.331-.197.331-.077 0-.196-.063-.196-.331 0-.267.119-.33.196-.33" transform="matrix(13.05826 0 0 -13.05826 260.19453 841.83274)"/><path d="m0 0h.311l.288-.643h.003v.643h.288v-1.202h-.296l-.303.656h-.003v-.656h-.288z" transform="matrix(13.05826 0 0 -13.05826 268.21753 842.20621)"/><path d="m0 0h-.065v.306h.114c.078 0 .125-.022.125-.092 0-.057-.033-.077-.073-.08l.078-.134h-.078l-.07.129h-.031zm.058.18c.029 0 .047.007.047.04 0 .032-.034.034-.06.034h-.045v-.074zm-.011-.312c-.151 0-.285.105-.285.285 0 .179.134.284.285.284s.285-.105.285-.284c0-.18-.134-.285-.285-.285m0 .503c-.112 0-.203-.087-.203-.218 0-.131.091-.219.203-.218v-.001c.11 0 .203.088.203.219s-.093.218-.203.218" fill-rule="evenodd" transform="matrix(13.05826 0 0 -13.05826 285.73773 847.6737)"/><path d="m0 0c-.126.086-.351.129-.574.11-.213-.018-.354-.122-.47-.218.002.001-.303-.3-.303-.3l-.081-.13c0-.002-.271-.339-.271-.339s-.002-.003-.003-.004v1.873l-.829.498.001-3.401-.011-.016-.198-.233v3.65h-5.122l-1.823-1.813-1.618 1.813h-5.052v-11.24h5.138v4.951l1.512-1.56 1.858 1.583v-4.974h5.108l-.001 4.743c.04.068.073.123.073.123 0 .001.044.063.044.063.002.003.045.073.093.149l.001-5.078.826.571v5.989c.037.054.091.135.091.135.008.012.127.192.127.192s.19.279.19.279c.003.005.073.095.073.095l.176.249c.035.08.134.133.172.153l.018.01.024.017.091.093c.002.002.159.135.159.135l.27.125.251.138s.23.283.23.283l.122.38s.036.368.036.368c-.008.186-.149.417-.328.538m-6.155-3.057c.006-.036.025-.368.024-.423-.001-.164.01-.346.005-.419-.004-.056.003-.248.003-.248.014-.152.047-.318.05-.348.007-.078-.022-.373-.014-.44.001-.014.026-.137.021-.166-.014-.077.009-.17.006-.204-.004-.061-.006-.131-.009-.205-.004-.11-.007-.223-.018-.323-.002-.025.001-.198.001-.198-.02-.175-.041-.355-.012-.535.006-.037-.002-.156.002-.177.004-.027.043-.167.048-.198.008-.046.026-.259.049-.308.022-.05.114-.267.122-.293.027-.083.069-.281.031-.382-.035-.096-.088-.323-.126-.381-.031-.049-.08-.078-.103-.114-.022-.033-.066-.064-.102-.079-.113-.043-.312-.074-.485-.022-.07.022-.176.015-.295.087-.097.059-.131.22-.144.307-.007.04.005.148.002.165-.003.024-.04.184-.04.235 0 .025.009.134-.003.205-.014.091-.059.24-.059.24-.012.061-.045.193-.047.197-.035.099-.052.195-.063.277-.018.15.019.276.052.387.019.063.037.123.044.184.006.043-.028.249-.022.318.003.029.025.118.027.129.008.059.01.215.011.239.001.031.021.162.019.297-.001.053-.007.109 0 .164.006.06.012.211 0 .281-.018.107-.01.203-.011.207-.007.113-.014.23-.008.33.001.016-.018.186-.019.239 0 .033-.002.241-.005.266-.044.518-.114.617-.142.636-.028.018-.104.017-.148-.003-.033-.015-.12-.091-.193-.13-.072-.038-.205-.101-.251-.135-.052-.04-.139-.107-.307-.199-.043-.023-.075-.063-.113-.097-.056-.05-.16-.155-.329-.24-.083-.042-.157-.09-.216-.148-.025-.025-.115-.176-.173-.232-.057-.055-.093-.131-.103-.155-.03-.063-.062-.134-.124-.181-.097-.072-.308-.085-.435-.032-.082.034-.243.143-.314.331-.071.189-.012.43.128.587.093.103.237.144.378.183.086.025.168.048.232.084.031.017.131.092.152.105.031.021.145.076.167.091.02.013.139.117.219.162.132.074.237.134.299.172 0 0 .181.102.299.214.027.025.14.067.263.138.032.018.161.061.193.075.023.011.113.077.14.091.116.06.174.132.141.312-.011.062-.03.126-.024.201.002.018.029.131.072.209.021.04.055.039.074.076.019.038.085.07.13.081.03.03.094.061.168.074.163.027.372-.092.402-.099.057-.012.154-.004.206.011.01.003.077.046.101.055.033.012.137.041.159.049.032.011.182.089.219.104.039.014.129.031.174.041.071.051.205.094.256.138.058.051.136.172.152.193.03.04.178.14.198.155.049.038.159.115.233.137.036.01.141-.011.205-.011.071.001.172-.004.248-.119.038-.057.101-.116.117-.196.049-.249-.137-.496-.278-.584-.014-.009-.083-.029-.125-.042-.059-.02-.119-.063-.159-.073-.079-.021-.117-.077-.151-.094-.032-.017-.141-.084-.177-.104-.026-.015-.071-.078-.151-.101-.054-.017-.167-.049-.258-.128-.037-.033-.189-.064-.232-.074-.017-.004-.211-.086-.23-.2-.021-.119-.004-.15-.026-.321-.014-.107-.007-.232.002-.298m6.316 2.178c-.015-.069-.054-.241-.109-.342-.024-.044-.12-.185-.192-.24-.071-.052-.173-.104-.217-.119-.039-.014-.235-.105-.287-.134-.095-.051-.146-.108-.196-.163-.025-.028-.05-.055-.08-.081-.012-.011-.185-.082-.248-.229-.039-.089-.212-.273-.241-.326-.043-.077-.106-.193-.17-.255-.018-.018-.039-.046-.061-.079-.019-.03-.04-.063-.062-.099-.006-.01-.011-.018-.017-.028-.041-.068-.087-.144-.114-.172-.066-.071-.104-.164-.135-.239-.013-.029-.121-.184-.162-.292-.018-.049-.112-.206-.122-.23-.02-.051-.141-.168-.153-.191-.018-.036-.033-.084-.05-.134-.014-.045-.052-.135-.064-.17-.016-.025-.036-.059-.058-.094-.001-.002-.002-.003-.002-.004-.016-.026-.032-.052-.049-.079-.038-.061-.076-.122-.102-.16-.016-.022-.033-.047-.048-.07-.024-.035-.2-.335-.24-.407-.018-.033-.04-.065-.063-.1-.054-.08-.109-.163-.136-.264-.016-.064-.065-.169-.068-.178-.069-.17-.096-.352-.103-.404-.011-.084-.008-.169-.005-.251.003-.089.007-.173-.008-.247-.026-.138-.08-.273-.151-.381-.019-.03-.086-.122-.165-.196-.058-.053-.153-.075-.326-.076-.235-.002-.336.085-.461.269-.02.03-.06.107-.108.211-.063.132-.114.253-.159.413-.013.048-.033.101-.051.153-.02.056-.064.215-.068.241s-.059.211-.062.229c-.022.112-.052.217-.081.318-.03.105-.057.204-.075.306-.017.097-.069.255-.107.37 0 0-.074.234-.098.317-.032.113-.137.425-.137.425-.04.107-.133.356-.139.396-.056.324-.055.586.003.7.026.052.116.102.188.142.024.013.143.09.168.096.074.02.197.027.301.016.014-.001.141-.003.187-.035.172-.12.184-.274.206-.553 0 0 .03-.301.044-.414.011-.084.022-.17.03-.255.006-.059.009-.123.012-.185.005-.113.043-.326.043-.326.038-.129.075-.251.225-.314.041-.017.088-.014.132.01.103.055.196.222.232.414.002.011.018.033.032.055.036.049.084.118.11.23.008.028.076.123.117.18.042.058.081.112.104.153.008.014.178.281.178.281s.067.146.095.201c.028.056.053.122.055.133.014.058.042.178.098.245.077.09.16.294.165.302.018.035.068.121.114.198.003.003.008.009.011.014.001.001.002.003.003.004.021.027.048.063.068.088l.147.174c.03.033.061.067.088.103.028.038.089.128.143.207.033.049.127.173.157.203.028.03.243.319.276.363.014.018.102.107.155.162h.001c.073.075.1.102.11.115.043.057.09.114.135.168.045.055.091.111.135.169.019.025.069.114.082.131.047.062.274.272.281.278.106.087.223.173.395.188.188.016.389-.02.488-.088.142-.095.262-.29.269-.432.005-.137-.005-.193-.033-.335" transform="matrix(13.05826 0 0 -13.05826 315.74303 710.4575)"/></g></svg>