<svg height="56" viewBox="0 0 100 56.000004" width="100" xmlns="http://www.w3.org/2000/svg"><path d="m.66300265 21.6768v-20.56772h14.35221435v20.56772zm12.27537235-2.0719v-16.42404h-10.2086954v16.42404z" fill="#fcd800" stroke-width=".098215"/><path d="m41.661593 3.25167c-1.745685 0-3.035085 1.59513-3.035085 3.60173 0 2.1671 1.164038 3.8377 3.035085 3.8377v-.035c1.871118 0 3.034893-1.6655 3.034893-3.8026 0-2.0066-1.289207-3.60173-3.034893-3.60173zm-21.134526.15537v7.15856h1.003254v-5.1317c1.153735 1.851 2.312544 3.4863 3.476288 5.1317h.877991v-7.15856h-1.003255v5.10186c-1.143725-1.8411-2.302427-3.4665-3.466311-5.10186zm8.196954 0-.03012.005-2.478211 7.15336h1.063489l.622094-1.9514h2.157093l.561669 1.9514h1.369644l-2.262598-7.15854zm7.941057 0v7.15856h1.21906v-7.15856zm8.763995 0v7.15856h1.003255v-5.1317c1.153734 1.851 2.312542 3.4863 3.476286 5.1317h.877992v-7.15856h-1.003447v5.10186c-1.143655-1.8411-2.302497-3.4665-3.466312-5.10186zm11.838787 0v7.15856h3.642026v-.9631h-2.422966v-6.19546zm-25.99561.005v.95816h1.881245v6.1952h1.214073v-6.1952h1.881246v-.95816zm22.338623 0-2.473224 7.15836h1.06368l.621903-1.9514h2.157093l.56186 1.9514h1.369453l-2.282548-7.15836h-1.003255zm-11.94928.88276c1.229119 0 1.725675 1.2593 1.725675 2.5785 0 1.3195-.446438 2.7792-1.725675 2.7792-1.279166 0-1.730854-1.4096-1.730854-2.7792 0-1.3695.501804-2.5785 1.730854-2.5785zm-12.611466.5268c.285932 1.1036.541748 1.9765.807591 2.9146h-1.635324c.285931-.9381.5719-1.8111.827733-2.9146zm24.916968 0c.285931 1.1036.541539 1.9765.807591 2.9146h-1.635324c.286002-.9381.57197-1.8111.827733-2.9146zm-20.658028 7.7055c-1.745616 0-3.034893 1.5951-3.034893 3.6017 0 2.157 1.163776 3.8225 3.034893 3.8225v-.02c1.871118 0 3.034893-1.6656 3.034893-3.8026 0-2.0066-1.289137-3.6017-3.034893-3.6017zm-10.16855.02c-2.147045 0-3.476478 1.7104-3.476478 3.662 0 2.1068 1.329384 3.7421 3.436385 3.7421.700445-.019 1.391129-.1688 2.036627-.4414v-2.9547h-1.229035v2.1972c-.267103.128-.561648.1885-.857658.1757-1.07366 0-2.076912-1.0735-2.076912-2.6988s.887975-2.6587 2.197379-2.6587c.46162.01.912834.1392 1.309219.3762l.396313-.8479c-.509216-.3559-1.114633-.5483-1.73584-.5517zm17.101365 0c-2.147109 0-3.476479 1.7104-3.476479 3.662 0 2.1068 1.329455 3.7421 3.436388 3.7421.700443-.019 1.391127-.1688 2.036625-.4414v-2.9547h-1.229035v2.1972c-.267242.128-.561839.1885-.857849.1757-1.07352 0-2.07691-1.0735-2.07691-2.6988s.888112-2.6587 2.197377-2.6587c.46169.01.912956.1392 1.30941.3762l.396122-.8479c-.509216-.3559-1.114509-.5483-1.735649-.5517zm30.114134.01c-2.13703 0-3.456144 1.7106-3.456144 3.662 0 2.107 1.329194 3.7423 3.436194 3.7423.574383-.015 1.133315-.1889 1.615374-.5016l-.336273-.888c-.368176.2317-.794083.3551-1.229034.3562-1.183903 0-2.18721-1.0737-2.18721-2.699s.907885-2.6585 2.157093-2.6585c.446921.02.880966.1569 1.259151.3961l.38634-.8576c-.482479-.3416-1.054799-.5336-1.645491-.5519zm-44.105027.1053v7.1686h3.641834v-.9632h-2.41299v-2.3127h2.0067v-.9631h-2.0067v-1.9617h2.046792-.0048v-.9632zm23.943639 0-2.473032 7.1584h1.068475l.622095-1.9515h2.156902l.56186 1.9515h1.369644l-2.282548-7.1584h-1.003255zm3.707246 0v7.1584h1.229035v-2.6938h.551886c1.290995.01 2.344722-1.0308 2.353332-2.3219.000295-.024-.000016-.047-.000589-.071-.02009-1.3896-.867903-2.0717-2.222314-2.0717zm4.805839 0v7.1636h1.218868v-3.4464h2.54842v3.4464h1.229034v-.01-7.1385h-1.229034v2.729h-2.54842v-2.7489zm6.170303 0v7.1584h1.21906v-7.1584zm-21.485761 0v7.1586h1.229035v-2.699h.551885l1.153648 2.699h1.374631l-1.419711-2.9649c.77163-.4284 1.247181-1.2444 1.239202-2.127 0-1.3896-.847867-2.0667-2.217327-2.0667zm-10.083188.9029c1.22408 0 1.730855 1.2591 1.730854 2.5785-.000068 1.3193-.451617 2.7792-1.730854 2.7792-1.279166 0-1.725674-1.4098-1.725674-2.7792 0-1.3695.501664-2.5785 1.725674-2.5785zm22.484795.051c.526281.01.972748.4106 1.02052.9461.0063.071.0052.1414-.0029.2116.09239.6921-.393817 1.328-1.085932 1.4203-.03416 0-.0685.01-.103011.01l.01496-.01-.501628.03v-2.6034h.551886.10608zm-10.554698 0c.526286 0 .976513.4009 1.029535.9361.0073.074.0067.149-.0019.2229.09029.6896-.39564 1.3216-1.085165 1.4118-.02611 0-.05245.01-.07884.01l-.501628.03v-2.6037h.531744.106272zm5.311686.4565c.285932 1.1037.541749 1.9716.807592 2.9148h-1.635325c.285931-.9381.57183-1.8111.827733-2.9148zm-30.111833 13.1657-6.55396 15.1599-5.8764215-14.4191h-6.1486254l11.3548059 26.7706 7.073048-15.997 7.11447 15.997 11.294575-26.7706h-5.777058l-5.91153 14.4191zm22.90087.7408v25.6824h5.604414v-25.6824zm12.823434 0v25.6824h14.636774l1.832139-4.625h-10.864499v-21.0574zm21.111699.0006v25.6825h8.379574c7.596171 0 13.223776-5.6642 13.223776-12.8395 0-7.6698-6.31019-12.843-12.897288-12.843zm5.582354 4.6489h2.198719c4.895349 0 8.180457 3.522 8.180457 8.1924 0 5.3683-4.14436 8.194-7.87948 8.194h-2.499696z" stroke-width=".069995"/></svg>