<svg enable-background="new 0 0 560 560" viewBox="0 0 560 560" xmlns="http://www.w3.org/2000/svg"><path d="m73.4 100.7c-22.7 20.5-30.9 67 9.9 94.2l163 111.8-79-181.1c-16.5-42.7-61.8-52-93.9-24.9" fill="#f37021"/><path d="m213.8 12.7c-26.5.5-66.3 32.1-48.6 80.3l81.7 192.8 28.7-202.8c6.7-50.4-31.4-73.7-61.8-70.3" fill="#cc004c"/><path d="m288.4 75.2h15.5s8.3 0 9.4 3.9c-6.1 5-22.6 5.6-20.4 32.1l26 174.4 81.1-193.2c16.6-43.2-18.2-79.2-49.2-80.3-1.4-.1-2.9-.2-4.4-.2-27.8 0-59.6 20.2-58 63.3" fill="#6460aa"/><path d="m396.7 127.3-76.8 178.9 162.9-112.4c37.6-26.6 31.5-69.2 10.5-90.3-8.8-9.9-25-17.6-42.1-17.6-20.3 0-41.9 10.7-54.5 41.4" fill="#0089d0"/><path d="m464.6 219.2-153 106.9h188.4c38.7 0 63.5-39.9 52.5-76.4-7.4-23-29.3-41-54.7-41.1-10.7 0-22.1 3.2-33.2 10.6" fill="#0db14b"/><path d="m69.1 326.1h185.6l-153.1-106.9c-35.4-22.7-75.1-9.4-89.5 28.3-12.1 43.1 18.3 78.6 57 78.6" fill="#fcb711"/><path d="m274.6 472.3h34.4c7.9.5 21.9 7.4 21.9 23.8 0 17.1-14.6 24-22.5 24.8h-33.9v-48.6m-.4-76.2h28.3c9.7.5 21.1 7.7 21.1 21 0 13-8.7 21.7-19.9 23.3h-29.6zm-38.7-31.7v188.2h91.3c21.7 0 47.4-21.7 47.4-50.1 0-29.7-19.4-44.2-31.6-50.1 0 0 22.4-13 21.5-41.2-1-37.9-36-46.8-48-46.8z"/><path d="m95.3 552.6v-108.4l118.4 115.6v-195.4h-39.8v105.6l-118.4-113.3v195.9z"/><path d="m380.5 456.5c1 59.5 43.8 104 98.7 104 13 0 26.8-2.5 40.8-7.9v-38.3c-11.1 6.8-23.5 10.1-35.6 10.1-33.3 0-64.7-24.6-63.4-69.4 2.2-36.3 32-61.4 64-61.4 11.7 0 23.8 3.4 35 10.8v-37.4c-13-5.3-25.9-7.6-38.4-7.6-54.8-.1-100 46.2-101.1 97.1"/></svg>