<?xml version="1.0" encoding="utf-8"?>
<!-- Generator: Adobe Illustrator 24.2.3, SVG Export Plug-In . SVG Version: 6.00 Build 0)  -->
<svg version="1.1" id="Layer_1" xmlns="http://www.w3.org/2000/svg" xmlns:xlink="http://www.w3.org/1999/xlink" x="0px" y="0px"
	 viewBox="0 0 560 560" style="enable-background:new 0 0 560 560;" xml:space="preserve">
<style type="text/css">
	.st0{display:none;fill:#FFFFFF;}
	.st1{fill:#F37021;}
	.st2{fill:#CC004C;}
	.st3{fill:#6460AA;}
	.st4{fill:#0089D0;}
	.st5{fill:#0DB14B;}
	.st6{fill:#FCB711;}
</style>
<g id="g4">
	<path id="path3113" class="st0" d="M282.3,44.7c-8.8-22.1-30.4-45.9-70.7-42.6c-51.4,5.6-67.4,54.8-59.6,84.2
		c-20.5-13.9-55.3-20-85.7,6.1c-39.2,39.3-18.2,92.5,3.3,105.2C45.9,195.4,8.3,211.5,0,253.5C-8.9,305.6,30.9,336,69.6,336h429.3
		c44.8,0,69.6-38.7,66.8-75.2c-4.4-47.7-48-66-71.8-62c19.9-11.1,46.4-63.2,6.1-104.1c-32-30.5-72.9-19.4-87.3-6.1
		c7.7-25.5-5-78.1-56.9-86.4c-3.6-0.4-7-0.6-10.3-0.6C305.8,1.5,287.9,30.5,282.3,44.7"/>
	<path id="path3115" class="st1" d="M73.4,100.7c-22.7,20.5-30.9,67,9.9,94.2l163,111.8l-79-181.1C150.8,82.9,105.5,73.6,73.4,100.7
		"/>
	<path id="path3117" class="st2" d="M213.8,12.7c-26.5,0.5-66.3,32.1-48.6,80.3l81.7,192.8l28.7-202.8
		C282.3,32.6,244.2,9.3,213.8,12.7"/>
	<path id="path3119" class="st3" d="M288.4,75.2h15.5c0,0,8.3,0,9.4,3.9c-6.1,5-22.6,5.6-20.4,32.1l26,174.4L400,92.4
		c16.6-43.2-18.2-79.2-49.2-80.3c-1.4-0.1-2.9-0.2-4.4-0.2C318.6,11.9,286.8,32.1,288.4,75.2"/>
	<path id="path3121" class="st4" d="M396.7,127.3l-76.8,178.9l162.9-112.4c37.6-26.6,31.5-69.2,10.5-90.3
		c-8.8-9.9-25-17.6-42.1-17.6C430.9,85.9,409.3,96.6,396.7,127.3"/>
	<path id="path3123" class="st5" d="M464.6,219.2l-153,106.9H500c38.7,0,63.5-39.9,52.5-76.4c-7.4-23-29.3-41-54.7-41.1
		C487.1,208.6,475.7,211.8,464.6,219.2"/>
	<path id="path3125" class="st6" d="M69.1,326.1h185.6L101.6,219.2c-35.4-22.7-75.1-9.4-89.5,28.3C0,290.6,30.4,326.1,69.1,326.1"/>
	<path id="path3127" d="M274.6,472.3h34.4c7.9,0.5,21.9,7.4,21.9,23.8c0,17.1-14.6,24-22.5,24.8h-33.9V472.3 M274.1,396.1h28.3
		c9.7,0.5,21.1,7.7,21.1,21c0,13-8.7,21.7-19.9,23.3h-29.6L274.1,396.1 M235.4,364.4v188.2h91.3c21.7,0,47.4-21.7,47.4-50.1
		c0-29.7-19.4-44.2-31.6-50.1c0,0,22.4-13,21.5-41.2c-1-37.9-36-46.8-48-46.8L235.4,364.4"/>
	<polygon id="polygon3129" points="95.3,552.6 95.3,444.2 213.7,559.8 213.7,364.4 173.9,364.4 173.9,470 55.5,356.7 55.5,552.6 	
		"/>
	<path id="path3131" d="M380.5,456.5c1,59.5,43.8,104,98.7,104c13,0,26.8-2.5,40.8-7.9v-38.3c-11.1,6.8-23.5,10.1-35.6,10.1
		c-33.3,0-64.7-24.6-63.4-69.4c2.2-36.3,32-61.4,64-61.4c11.7,0,23.8,3.4,35,10.8V367c-13-5.3-25.9-7.6-38.4-7.6
		C426.8,359.3,381.6,405.6,380.5,456.5"/>
</g>
</svg>
