<svg enable-background="new 0 0 380 105" viewBox="0 0 380 105" xmlns="http://www.w3.org/2000/svg"><g fill="#fff"><path d="m243.5 41.9c-1-.2-2-.2-2.9-.1 1.6.6 3.6 1.3 3.8 3.4-1 5.5-2.8 10.7-3.7 16.1 3.9-.4 6.6-4.2 8-7.6.9-3.1 1.2-6.8-1-9.4-1.1-1.3-2.6-2.1-4.2-2.4z"/><path d="m300.1 49.5c-1.2 3.7-3.5 9-.4 12.3.9.7 1.9 0 2.7-.7 4-4.8 5.8-13.2 4.2-19.5-2.4 2.3-5.5 4.5-6.5 7.9z"/><path d="m360.9 36.5c0-.5-.5-.6-.9-.7h-.8v1.3h.7c.5 0 1 0 1-.6z"/><path d="m359.9 34.3c-1.6 0-2.9 1.3-2.9 3s1.3 3.1 2.9 3.1 2.9-1.2 2.9-3c0-1.7-1.3-3.1-2.9-3.1zm1 5.2-1-1.9h-.7v1.8h-.6v-4.2h1.6c1 0 1.4.4 1.4 1.2s-.5 1.1-1.1 1.2l1.1 1.9z"/><path d="m190 0c-104.9 0-190 23.8-190 53.1s85.1 53.1 190 53.1 190-23.8 190-53.1-85.1-53.1-190-53.1zm-127.1 70.4c-2.9 1-7 .4-9.6-1.2l-1-2c-1.4-8.2-2.9-16.6-4.3-24.9l-.6.9-6.5 26.5c-.4 1.2-1.6 1.5-2.7 1.6-2.8-.1-6.7-.2-8-2.8v-2c3.4-14.7 7.3-29.2 11.8-43.2.3-.9 1-1.9 2-2.1 3.7-.1 7.3 1.4 10.1 3.5 2 5.6 3.3 11.3 4.3 17.1l.5-.5 5.7-18.2c.4-1.1 1.3-2 2.6-2.1 2.7.3 6.9-.1 8.1 2.7-1.8 7.8-4.6 15.1-6.4 22.9l-5.5 19.7c-.3 1.6.7 3.1-.5 4.1zm17.6.4c-2.6 1.8-6.9.6-9.3-1.1-1.3-1.8.3-3.8.3-5.9 2.7-9.9 5.1-20.1 8.8-29.9 2.2-1.7 5.8-.9 8.3.2.5.4 1.4.9 1.2 1.7l-.9 4.1zm30.2-8.6c-1.7 4-4.7 8.1-9.2 9.3-2.3.7-5 .8-7.4-.2-6.7-4.8-5.2-13.6-3.7-21.3 2.4-7.7 7.1-16.7 16.2-17.5 3.5-.5 7.3 1 8.5 4.6.5 2.9.7 6.6-1.4 8.9-2.1 1.5-4.8 1.4-7.1.6-1.5-1.5 1.5-4.6-1.4-4.7-3.6 3.3-4.6 8.2-5.9 12.9 0 2.1-.9 4.5.6 6.1 3.1.2 2.3-3.7 4.5-4.8 2-1.1 4.9-1.3 6.9.2.8 1.8-.1 4.2-.6 5.9zm23.7 13.6c-3 .8-3.2-3.1-4.6-4.7l-4.7-9.6-.5.9c-.6 3.3-1.2 6.5-2.4 9.4-1.5 1.3-4 0-5.8-.3-1.2-.6-2.9-.6-3.2-2.2l8.2-31.2c.7-1.7.8-3.6 2-4.9 2.5-.6 6.2-.1 8.3 1.5.7 2.7-1.1 5-1.5 7.7-.5 1.4-1.1 2.8-1.4 4.4l.3.5c6.1-2.4 7.9-8.5 10.5-13.6 1.4-.8 3.3.1 4.8.4 1.3.4 2.5 1 3.2 2.2-2.2 8.2-6.8 15.8-14.7 19.5 2.4 5.1 5.7 10 7.6 15.2-.4 3-3.9 3.8-6.1 4.8zm36.4-32.6c-4-.3-8.1-.4-12-.3.5.9 1.9 1.1 2.4 2.2.1 1.2-1.1 2.7 0 3.5 3 .3 5.9-.3 9 .8.7 1.4-.1 3.3-.4 4.8-.5 1.5-.9 3-2.1 4.1-3.2.2-6.4-.2-9.6-.1-1.1 1-1.2 2.7-1.5 4.1.2 1.1 1.5.5 2.3.8 2.6.1 5.2-.4 7.8.4 1.2 2.5-.4 5.5-1.3 7.7l-1.2.8-13.4-.1c-2.4-.6-4-3.2-4.6-5.5.3-2.5 1-5.1 1.5-7.6-.3-1.1-2-1-1.5-2.5.3-2.6.8-5 2.1-7 .7-.8 2 0 2.6-1.3 0-1.8 1.5-3.2.8-5-1.1-.1-2.5-.3-2.3-1.7 1.1-2.9.8-7.5 4.3-8.1 5.8-.3 11.7 0 17.7.3 1.2.3 3.3 0 3.4 1.7.1 2.8-1.1 5.3-2.1 7.6zm21.7 24.4c-.5 1.5-.8 3.1-2.1 4.1l-2 .5-11.1-.4c-2.5-1.6-4.4-5-5-7.8 1.9-10.7 5.3-20.6 8.5-30.5 2.3-1 5.1.1 7.6.7.5.4 1.3.7 1.2 1.4-2 8.8-5.1 16.9-6.8 25.9l.3.5c3.3.4 6.6-.1 9.8.4 1 1.7-.1 3.4-.4 5.2zm23.2 2.9c-3.4 1.9-7.7 2.9-11.5.7-5.4-3.1-7-9.9-6.3-15.8 1.5-9.9 5.3-19.5 15.1-23 1.3-.1 2.9-.7 4.1.2.5 1.1 0 2.3.3 3.4 1.9-.8 3.5-3.7 5.5-3.6.5 0 1 .2 1.5.6 1.6 2 2 4.5 2.5 7 .6 11.3-1.8 24-11.2 30.5zm35.9-4.6c-5.1 4.2-11.2 7.7-17.6 5.6-1.7-2.1-4.5-3.8-4.8-6.8 1-7.2 3.5-13.8 5.2-20.7.1-.4-.4-1.1-.8-.6-.8.3-1.6.8-2.5.4l-.2-.7c1.5-3.3.6-8.9 5.1-9.5 3-.9 6.5-1.1 9.8-.6 5.6.8 10.8 3.8 12.5 9.8 2.8 8.1-1.3 17.4-6.7 23.1zm34.4-22.7c-4.1.1-8.4-.8-12.4-.3.6 1 2.5 1.3 2.2 2.7.2 1.1-1.2 2.2.1 3 3 .3 6.1-.3 9 .8.7 2.8-.8 6-2 8.4l-1.3.6-8.6-.3-.6.5c-.4 1.3-1.3 2.9-.7 4.4l9.4.5c.9.6.6 1.8.7 2.7-.3 2.1-1 3.9-2.1 5.5l-1.8.5-12.9-.5c-2-.7-3.5-3.4-3.9-5.3l1.5-7.6c-.9-.9-1.9-1.7-1.5-3.2 1-2.6.6-7.1 4.3-7.1 1-1.3 1-3.4 1.6-5.1-.6-1-2.5-.3-2.6-1.8 1.3-2.9.4-8.3 4.5-8.5 5.9-.3 12 0 18.1.4 1.1.1 2.8.3 2.5 1.8-.7 3-.8 6.5-3.5 7.9zm17.4 28.9c-3.2 1.3-7.5.8-10.3-1.4-6.3-5.5-5.8-14.4-3.4-22 2-6.9 6.8-13.6 14-15.8 1.2-.3 2.6-.3 3.8.2.7 1.1-.2 2.6.4 3.7 1.9-1.2 3.6-4.2 5.9-3.7.3.1.7.2 1 .5 1.7 2.1 1.9 4.7 2.6 7.1.6 12.2-2.5 26.1-14 31.4zm41.1-1.2c-2.9 1.3-6.7.3-9.3-1.3-2-5.9-2.2-12.4-3.9-18.3l-4.4 18.5c-.4 1.1-1.2 2.1-2.5 2-2.3-.3-6.2-.1-6.9-2.9 2.9-11.7 5.2-23.8 9.3-34.8.7-2.1 2.8-1 4.3-1.1 2.7.9 6 2 6.6 5.4 1.1 3.2 1.7 6.7 2.4 10l.5-.5c1.1-5 2-10.2 3.8-14.7 2.4-1.2 5.4.4 7.5 1.4l.5 1.5c-1.9 11.1-4.9 21.4-7.9 31.8 0 1 .6 2 0 3zm15.3-29.9c-2 0-3.6-1.6-3.6-3.7s1.7-3.6 3.7-3.6c1.9 0 3.6 1.6 3.6 3.7-.1 2.2-1.8 3.7-3.7 3.6z"/><path d="m216.1 41.4c-3.1 2.2-5.5 4.9-6.7 8.3-.6 1.8-1.3 10.3 0 11.5 1 .6 2-.2 2.8-.9 3.6-4.9 5.5-12.8 3.9-18.9z"/></g></svg>