<?xml version="1.0" encoding="utf-8"?>
<!-- Generator: Adobe Illustrator 24.2.3, SVG Export Plug-In . SVG Version: 6.00 Build 0)  -->
<svg version="1.1"
	 id="svg3305" xmlns:cc="http://creativecommons.org/ns#" xmlns:dc="http://purl.org/dc/elements/1.1/" xmlns:rdf="http://www.w3.org/1999/02/22-rdf-syntax-ns#" xmlns:svg="http://www.w3.org/2000/svg"
	 xmlns="http://www.w3.org/2000/svg" xmlns:xlink="http://www.w3.org/1999/xlink" x="0px" y="0px" viewBox="0 0 380 105"
	 style="enable-background:new 0 0 380 105;" xml:space="preserve">
<style type="text/css">
	.st0{fill:#FFFFFF;}
</style>
<g>
	<path class="st0" d="M243.5,41.9c-1-0.2-2-0.2-2.9-0.1c1.6,0.6,3.6,1.3,3.8,3.4c-1,5.5-2.8,10.7-3.7,16.1c3.9-0.4,6.6-4.2,8-7.6
		c0.9-3.1,1.2-6.8-1-9.4C246.6,43,245.1,42.2,243.5,41.9z"/>
	<path class="st0" d="M300.1,49.5c-1.2,3.7-3.5,9-0.4,12.3c0.9,0.7,1.9,0,2.7-0.7c4-4.8,5.8-13.2,4.2-19.5
		C304.2,43.9,301.1,46.1,300.1,49.5z"/>
	<path class="st0" d="M360.9,36.5c0-0.5-0.5-0.6-0.9-0.7l-0.8,0l0,1.3l0,0l0.7,0C360.4,37.1,360.9,37.1,360.9,36.5z"/>
	<path class="st0" d="M359.9,34.3c-1.6,0-2.9,1.3-2.9,3c0,1.7,1.3,3.1,2.9,3.1c1.6,0,2.9-1.2,2.9-3
		C362.8,35.7,361.5,34.3,359.9,34.3z M360.9,39.5l-1-1.9l-0.7,0l0,0l0,1.8l-0.6,0l0-4.2l1.6,0c1,0,1.4,0.4,1.4,1.2
		c0,0.8-0.5,1.1-1.1,1.2l1.1,1.9L360.9,39.5z"/>
	<path class="st0" d="M190,0C85.1,0,0,23.8,0,53.1c0,29.3,85.1,53.1,190,53.1s190-23.8,190-53.1C380,23.8,294.9,0,190,0z M62.9,70.4
		c-2.9,1-7,0.4-9.6-1.2l-1-2C50.9,59,49.4,50.6,48,42.3l-0.6,0.9l-6.5,26.5c-0.4,1.2-1.6,1.5-2.7,1.6c-2.8-0.1-6.7-0.2-8-2.8l0-2
		c3.4-14.7,7.3-29.2,11.8-43.2c0.3-0.9,1-1.9,2-2.1c3.7-0.1,7.3,1.4,10.1,3.5c2,5.6,3.3,11.3,4.3,17.1l0.5-0.5l5.7-18.2
		c0.4-1.1,1.3-2,2.6-2.1c2.7,0.3,6.9-0.1,8.1,2.7c-1.8,7.8-4.6,15.1-6.4,22.9l-5.5,19.7C63.1,67.9,64.1,69.4,62.9,70.4z M80.5,70.8
		c-2.6,1.8-6.9,0.6-9.3-1.1c-1.3-1.8,0.3-3.8,0.3-5.9c2.7-9.9,5.1-20.1,8.8-29.9c2.2-1.7,5.8-0.9,8.3,0.2c0.5,0.4,1.4,0.9,1.2,1.7
		l-0.9,4.1L80.5,70.8z M110.7,62.2c-1.7,4-4.7,8.1-9.2,9.3c-2.3,0.7-5,0.8-7.4-0.2c-6.7-4.8-5.2-13.6-3.7-21.3
		c2.4-7.7,7.1-16.7,16.2-17.5c3.5-0.5,7.3,1,8.5,4.6c0.5,2.9,0.7,6.6-1.4,8.9c-2.1,1.5-4.8,1.4-7.1,0.6c-1.5-1.5,1.5-4.6-1.4-4.7
		c-3.6,3.3-4.6,8.2-5.9,12.9c0,2.1-0.9,4.5,0.6,6.1c3.1,0.2,2.3-3.7,4.5-4.8c2-1.1,4.9-1.3,6.9,0.2
		C112.1,58.1,111.2,60.5,110.7,62.2z M134.4,75.8c-3,0.8-3.2-3.1-4.6-4.7l-4.7-9.6l-0.5,0.9c-0.6,3.3-1.2,6.5-2.4,9.4
		c-1.5,1.3-4,0-5.8-0.3c-1.2-0.6-2.9-0.6-3.2-2.2l8.2-31.2c0.7-1.7,0.8-3.6,2-4.9c2.5-0.6,6.2-0.1,8.3,1.5c0.7,2.7-1.1,5-1.5,7.7
		c-0.5,1.4-1.1,2.8-1.4,4.4l0.3,0.5c6.1-2.4,7.9-8.5,10.5-13.6c1.4-0.8,3.3,0.1,4.8,0.4c1.3,0.4,2.5,1,3.2,2.2
		c-2.2,8.2-6.8,15.8-14.7,19.5c2.4,5.1,5.7,10,7.6,15.2C140.1,74,136.6,74.8,134.4,75.8z M170.8,43.2c-4-0.3-8.1-0.4-12-0.3
		c0.5,0.9,1.9,1.1,2.4,2.2c0.1,1.2-1.1,2.7,0,3.5c3,0.3,5.9-0.3,9,0.8c0.7,1.4-0.1,3.3-0.4,4.8c-0.5,1.5-0.9,3-2.1,4.1
		c-3.2,0.2-6.4-0.2-9.6-0.1c-1.1,1-1.2,2.7-1.5,4.1c0.2,1.1,1.5,0.5,2.3,0.8c2.6,0.1,5.2-0.4,7.8,0.4c1.2,2.5-0.4,5.5-1.3,7.7
		l-1.2,0.8l-13.4-0.1c-2.4-0.6-4-3.2-4.6-5.5c0.3-2.5,1-5.1,1.5-7.6c-0.3-1.1-2-1-1.5-2.5c0.3-2.6,0.8-5,2.1-7c0.7-0.8,2,0,2.6-1.3
		c0-1.8,1.5-3.2,0.8-5c-1.1-0.1-2.5-0.3-2.3-1.7c1.1-2.9,0.8-7.5,4.3-8.1c5.8-0.3,11.7,0,17.7,0.3c1.2,0.3,3.3,0,3.4,1.7h0
		c0.1,2.8-1.1,5.3-2.1,7.6L170.8,43.2z M192.5,67.6c-0.5,1.5-0.8,3.1-2.1,4.1l-2,0.5l-11.1-0.4c-2.5-1.6-4.4-5-5-7.8
		c1.9-10.7,5.3-20.6,8.5-30.5c2.3-1,5.1,0.1,7.6,0.7c0.5,0.4,1.3,0.7,1.2,1.4c-2,8.8-5.1,16.9-6.8,25.9l0.3,0.5
		c3.3,0.4,6.6-0.1,9.8,0.4C193.9,64.1,192.8,65.8,192.5,67.6z M215.7,70.5c-3.4,1.9-7.7,2.9-11.5,0.7c-5.4-3.1-7-9.9-6.3-15.8
		c1.5-9.9,5.3-19.5,15.1-23c1.3-0.1,2.9-0.7,4.1,0.2c0.5,1.1,0,2.3,0.3,3.4c1.9-0.8,3.5-3.7,5.5-3.6c0.5,0,1,0.2,1.5,0.6
		c1.6,2,2,4.5,2.5,7C227.5,51.3,225.1,64,215.7,70.5z M251.6,65.9c-5.1,4.2-11.2,7.7-17.6,5.6c-1.7-2.1-4.5-3.8-4.8-6.8
		c1-7.2,3.5-13.8,5.2-20.7c0.1-0.4-0.4-1.1-0.8-0.6c-0.8,0.3-1.6,0.8-2.5,0.4l-0.2-0.7c1.5-3.3,0.6-8.9,5.1-9.5
		c3-0.9,6.5-1.1,9.8-0.6c5.6,0.8,10.8,3.8,12.5,9.8C261.1,50.9,257,60.2,251.6,65.9z M286,43.2c-4.1,0.1-8.4-0.8-12.4-0.3
		c0.6,1,2.5,1.3,2.2,2.7c0.2,1.1-1.2,2.2,0.1,3c3,0.3,6.1-0.3,9,0.8c0.7,2.8-0.8,6-2,8.4l-1.3,0.6l-8.6-0.3l-0.6,0.5
		c-0.4,1.3-1.3,2.9-0.7,4.4l9.4,0.5c0.9,0.6,0.6,1.8,0.7,2.7c-0.3,2.1-1,3.9-2.1,5.5l-1.8,0.5l-12.9-0.5c-2-0.7-3.5-3.4-3.9-5.3
		l1.5-7.6c-0.9-0.9-1.9-1.7-1.5-3.2c1-2.6,0.6-7.1,4.3-7.1c1-1.3,1-3.4,1.6-5.1c-0.6-1-2.5-0.3-2.6-1.8c1.3-2.9,0.4-8.3,4.5-8.5
		c5.9-0.3,12,0,18.1,0.4c1.1,0.1,2.8,0.3,2.5,1.8C288.8,38.3,288.7,41.8,286,43.2z M303.4,72.1c-3.2,1.3-7.5,0.8-10.3-1.4
		c-6.3-5.5-5.8-14.4-3.4-22c2-6.9,6.8-13.6,14-15.8c1.2-0.3,2.6-0.3,3.8,0.2c0.7,1.1-0.2,2.6,0.4,3.7c1.9-1.2,3.6-4.2,5.9-3.7
		c0.3,0.1,0.7,0.2,1,0.5c1.7,2.1,1.9,4.7,2.6,7.1C318,52.9,314.9,66.8,303.4,72.1z M344.5,70.9c-2.9,1.3-6.7,0.3-9.3-1.3
		c-2-5.9-2.2-12.4-3.9-18.3l-4.4,18.5c-0.4,1.1-1.2,2.1-2.5,2c-2.3-0.3-6.2-0.1-6.9-2.9c2.9-11.7,5.2-23.8,9.3-34.8
		c0.7-2.1,2.8-1,4.3-1.1c2.7,0.9,6,2,6.6,5.4c1.1,3.2,1.7,6.7,2.4,10l0.5-0.5c1.1-5,2-10.2,3.8-14.7c2.4-1.2,5.4,0.4,7.5,1.4
		l0.5,1.5h0c-1.9,11.1-4.9,21.4-7.9,31.8C344.5,68.9,345.1,69.9,344.5,70.9z M359.8,41c-2,0-3.6-1.6-3.6-3.7c0-2.1,1.7-3.6,3.7-3.6
		c1.9,0,3.6,1.6,3.6,3.7C363.4,39.6,361.7,41.1,359.8,41z"/>
	<path class="st0" d="M216.1,41.4c-3.1,2.2-5.5,4.9-6.7,8.3c-0.6,1.8-1.3,10.3,0,11.5c1,0.6,2-0.2,2.8-0.9
		C215.8,55.4,217.7,47.5,216.1,41.4L216.1,41.4z"/>
</g>
</svg>
