<?xml version="1.0" encoding="UTF-8" standalone="no"?>
<!-- Created with Inkscape (http://www.inkscape.org/) -->

<svg
   xmlns:dc="http://purl.org/dc/elements/1.1/"
   xmlns:cc="http://creativecommons.org/ns#"
   xmlns:rdf="http://www.w3.org/1999/02/22-rdf-syntax-ns#"
   xmlns:svg="http://www.w3.org/2000/svg"
   xmlns="http://www.w3.org/2000/svg"
   xmlns:sodipodi="http://sodipodi.sourceforge.net/DTD/sodipodi-0.dtd"
   xmlns:inkscape="http://www.inkscape.org/namespaces/inkscape"
   width="329.56998"
   height="141.06363"
   id="svg161110"
   version="1.1"
   inkscape:version="0.91 r13725"
   sodipodi:docname="Oprah Winfrey Network.svg">
  <defs
     id="defs161112">
    <clipPath
       clipPathUnits="userSpaceOnUse"
       id="clipPath20126">
      <path
         inkscape:connector-curvature="0"
         d="m 725.728,121.766 22.856,0 0,9.783 -22.856,0 0,-9.783 z"
         id="path20128" />
    </clipPath>
  </defs>
  <sodipodi:namedview
     id="base"
     pagecolor="#ffffff"
     bordercolor="#666666"
     borderopacity="1.0"
     inkscape:pageopacity="0.0"
     inkscape:pageshadow="2"
     inkscape:zoom="2.8284271"
     inkscape:cx="157.25684"
     inkscape:cy="53.567514"
     inkscape:document-units="px"
     inkscape:current-layer="g79062"
     showgrid="false"
     fit-margin-top="0"
     fit-margin-left="0"
     fit-margin-right="0"
     fit-margin-bottom="0"
     inkscape:window-width="1680"
     inkscape:window-height="931"
     inkscape:window-x="0"
     inkscape:window-y="1"
     inkscape:window-maximized="1" />
  <metadata
     id="metadata161115">
    <rdf:RDF>
      <cc:Work
         rdf:about="">
        <dc:format>image/svg+xml</dc:format>
        <dc:type
           rdf:resource="http://purl.org/dc/dcmitype/StillImage" />
        <dc:title />
      </cc:Work>
    </rdf:RDF>
  </metadata>
  <g
     inkscape:label="Layer 1"
     inkscape:groupmode="layer"
     id="layer1"
     transform="translate(-226.71513,-394.24794)">
    <g
       transform="matrix(14.419408,0,0,-14.419408,-10237.853,2291.1052)"
       id="g79062">
      <g
         clip-path="url(#clipPath20126)"
         id="g79064"
         style="fill:#000000">
        <path
           d="m 742.4108,124.2849 0.304,0 0.002,7.107 -0.302,-0.001 c 0,0 -0.006,-0.577 -0.006,-0.787 l 0.002,-6.319 z"
           style="fill:#000000;fill-opacity:1;fill-rule:nonzero;stroke:none"
           id="path79066"
           inkscape:connector-curvature="0" />
        <path
           d="m 743.069,131.3912 -0.005,-7.106 -0.349,0 0.002,7.106 0.352,0 z"
           style="fill:#000000;fill-opacity:1;fill-rule:nonzero;stroke:none"
           id="path79068"
           inkscape:connector-curvature="0" />
        <path
           d="m 747.8782,131.3914 c 0,0 0,-5.298 0.002,-5.534 l -0.339,0.459 -3.955,5.075 -0.517,0 -0.006,-7.106 0.435,-10e-4 c 0,0 0.297,0.05 0.297,0.571 l 0,4.444 3.747,-5.016 1.042,0.001 -10e-4,7.107 -0.705,0 z"
           style="fill:#000000;fill-opacity:1;fill-rule:nonzero;stroke:none"
           id="path79070"
           inkscape:connector-curvature="0" />
        <path
           d="m 747.8807,125.85 -4.299,5.542 c 0,0 0.467,-0.03 0.693,-0.332 0.757,-1.013 3.16,-4.108 3.265,-4.252 l 0,4.583 0.339,0 0.002,-5.541 z"
           style="fill:#000000;fill-opacity:1;fill-rule:nonzero;stroke:none"
           id="path79072"
           inkscape:connector-curvature="0" />
        <path
           d="m 729.4876,124.2949 c -1.562,0 -2.863,1.427 -2.863,3.546 0,2.119 1.301,3.535 2.863,3.535 1.564,0 2.864,-1.416 2.864,-3.535 0,-2.119 -1.3,-3.546 -2.864,-3.546 m 0.9,7.155 c -0.002,10e-4 -0.004,10e-4 -0.006,10e-4 -0.037,0.009 -0.074,0.018 -0.111,0.025 -0.23,0.048 -0.466,0.073 -0.707,0.073 -0.007,0 -0.014,0 -0.022,0 -0.007,0 -0.014,0 -0.02,0 -2.095,0 -3.794,-1.674 -3.794,-3.738 0,-2.065 1.699,-3.739 3.794,-3.739 2.095,0 3.794,1.674 3.794,3.739 0,1.771 -1.251,3.253 -2.928,3.639"
           style="fill:#000000;fill-opacity:1;fill-rule:nonzero;stroke:none"
           id="path79074"
           inkscape:connector-curvature="0" />
        <path
           d="m 731.0352,126.3652 c -0.061,-0.306 -0.19,-0.56 -0.386,-0.762 -0.306,-0.312 -0.683,-0.469 -1.129,-0.469 -0.448,0 -0.824,0.157 -1.131,0.469 -0.195,0.202 -0.324,0.456 -0.385,0.762 -0.05,0.263 -0.073,0.753 -0.073,1.47 0,0.716 0.023,1.206 0.073,1.47 0.061,0.306 0.19,0.56 0.385,0.762 0.307,0.312 0.683,0.468 1.131,0.468 0.446,0 0.823,-0.156 1.129,-0.468 0.196,-0.202 0.325,-0.456 0.386,-0.762 0.049,-0.264 0.074,-0.754 0.074,-1.47 0,-0.717 -0.025,-1.207 -0.074,-1.47 m 0.699,3.086 c -0.08,0.404 -0.261,0.748 -0.542,1.03 -0.055,0.054 -0.111,0.105 -0.168,0.153 -0.421,0.351 -0.922,0.527 -1.504,0.527 -0.575,0 -1.07,-0.172 -1.487,-0.513 -0.064,-0.052 -0.125,-0.108 -0.186,-0.167 -0.281,-0.282 -0.461,-0.626 -0.541,-1.03 -0.049,-0.275 -0.074,-0.814 -0.074,-1.616 0,-0.803 0.025,-1.341 0.074,-1.616 0.08,-0.405 0.26,-0.748 0.541,-1.03 0.052,-0.051 0.105,-0.099 0.159,-0.144 0.422,-0.357 0.927,-0.536 1.514,-0.536 0.604,0 1.121,0.191 1.552,0.57 0.04,0.035 0.08,0.072 0.12,0.11 0.281,0.282 0.462,0.625 0.542,1.03 0.048,0.275 0.073,0.813 0.073,1.616 0,0.802 -0.025,1.341 -0.073,1.616"
           style="fill:#000000;fill-opacity:1;fill-rule:nonzero;stroke:none"
           id="path79076"
           inkscape:connector-curvature="0" />
        <path
           d="m 731.1918,125.1893 c -0.039,-0.038 -0.079,-0.075 -0.12,-0.11 -0.431,-0.379 -0.948,-0.57 -1.552,-0.57 -0.587,0 -1.091,0.179 -1.514,0.536 -0.054,0.045 -0.107,0.093 -0.158,0.144 -0.282,0.282 -0.462,0.625 -0.542,1.03 -0.049,0.275 -0.073,0.813 -0.073,1.616 0,0.802 0.024,1.341 0.073,1.616 0.08,0.404 0.26,0.748 0.542,1.03 0.06,0.059 0.122,0.115 0.186,0.167 0.416,0.341 0.912,0.513 1.486,0.513 0.582,0 1.083,-0.177 1.504,-0.527 0.057,-0.048 0.113,-0.099 0.168,-0.153 0.282,-0.282 0.462,-0.626 0.542,-1.03 0.049,-0.275 0.073,-0.814 0.073,-1.616 0,-0.803 -0.024,-1.341 -0.073,-1.616 -0.08,-0.405 -0.26,-0.748 -0.542,-1.03 m -1.704,6.186 c -1.563,0 -2.863,-1.416 -2.863,-3.535 0,-2.119 1.3,-3.545 2.863,-3.545 1.564,0 2.864,1.426 2.864,3.545 0,2.119 -1.3,3.535 -2.864,3.535"
           style="fill:#000000;fill-opacity:1;fill-rule:nonzero;stroke:none"
           id="path79078"
           inkscape:connector-curvature="0" />
        <path
           d="m 735.6022,126.9068 -1.105,3.952 c -0.113,0.474 -0.477,0.532 -0.477,0.532 l 1.385,-5.188 0.197,0.704 z"
           style="fill:#000000;fill-opacity:1;fill-rule:nonzero;stroke:none"
           id="path79080"
           inkscape:connector-curvature="0" />
        <path
           d="m 739.0283,124.2849 -1.621,5.462 -1.551,-5.462 0.31,0 1.244,4.395 1.303,-4.395 0.315,0 z"
           style="fill:#000000;fill-opacity:1;fill-rule:nonzero;stroke:none"
           id="path79082"
           inkscape:connector-curvature="0" />
        <path
           d="m 740.8162,131.3907 -1.398,-5.202 -0.189,0.601 1.105,3.954 c 0.145,0.522 0.482,0.647 0.482,0.647"
           style="fill:#000000;fill-opacity:1;fill-rule:nonzero;stroke:none"
           id="path79084"
           inkscape:connector-curvature="0" />
        <path
           d="m 741.9631,131.3912 0,0 -0.362,0 -1.9,-7.107 0.362,-0.001 1.9,7.108 z"
           style="fill:#000000;fill-opacity:1;fill-rule:nonzero;stroke:none"
           id="path79086"
           inkscape:connector-curvature="0" />
        <path
           d="m 732.8585,131.3907 c 0,0 0.113,-0.456 0.205,-0.767 0.019,-0.064 0.037,-0.13 0.052,-0.196 l 1.492,-5.575 0.153,-0.568 0.397,0 -1.91,7.106 -0.389,0 z"
           style="fill:#000000;fill-opacity:1;fill-rule:nonzero;stroke:none"
           id="path79088"
           inkscape:connector-curvature="0" />
        <path
           d="m 735.5249,124.2849 0.331,0 1.551,5.462 1.621,-5.462 0.136,-10e-4 0.212,0 -1.97,6.498 -1.881,-6.497 z"
           style="fill:#000000;fill-opacity:1;fill-rule:nonzero;stroke:none"
           id="path79090"
           inkscape:connector-curvature="0" />
        <path
           d="m 740.8162,131.3907 -1.397,-5.196 -0.201,0.711 -10e-4,-0.003 -1.035,3.717 c -0.006,0.02 -0.011,0.039 -0.015,0.059 l -0.198,0.712 -0.33,0 -0.226,0 -0.006,0 -0.233,0 -0.319,0 -0.685,-2.453 -0.568,-2.035 0,0.004 -0.207,-0.66 -1.375,5.144 -0.349,0 -0.424,0 1.91,-7.106 0.368,0 1.881,6.497 1.97,-6.498 0.325,0 1.899,7.107 -0.784,0 z"
           style="fill:#000000;fill-opacity:1;fill-rule:nonzero;stroke:none"
           id="path79092"
           inkscape:connector-curvature="0" />
        <path
           d="m 743.795,129.2998 -10e-4,-0.518 c 0,0 3.028,-4.025 3.208,-4.258 0.182,-0.232 0.54,-0.24 0.54,-0.24 l -3.747,5.016"
           style="fill:#000000;fill-opacity:1;fill-rule:nonzero;stroke:none"
           id="path79094"
           inkscape:connector-curvature="0" />
        <path
           d="m 747.5392,131.3912 c 0,0 -0.329,-0.178 -0.329,-0.505 0,-0.328 -0.003,-3.655 -0.003,-3.655 l 0.332,-0.423 0,4.583 z"
           style="fill:#000000;fill-opacity:1;fill-rule:nonzero;stroke:none"
           id="path79096"
           inkscape:connector-curvature="0" />
        <path
           d="m 728.5765,122.319 c 0,-0.222 -0.007,-0.302 -0.076,-0.373 -0.051,-0.05 -0.115,-0.075 -0.188,-0.075 -0.073,0 -0.138,0.025 -0.188,0.075 -0.069,0.071 -0.076,0.151 -0.076,0.373 0,0.223 0.007,0.302 0.076,0.373 0.05,0.05 0.115,0.076 0.188,0.076 0.073,0 0.137,-0.026 0.188,-0.076 0.069,-0.071 0.076,-0.15 0.076,-0.373 m 0.116,0 c 0,0.249 -0.007,0.344 -0.11,0.446 -0.067,0.067 -0.157,0.107 -0.27,0.107 -0.113,0 -0.204,-0.04 -0.272,-0.107 -0.102,-0.102 -0.108,-0.197 -0.108,-0.446 0,-0.249 0.006,-0.344 0.108,-0.445 0.068,-0.068 0.159,-0.108 0.272,-0.108 0.113,0 0.203,0.04 0.27,0.108 0.103,0.101 0.11,0.196 0.11,0.445"
           style="fill:#000000;fill-opacity:1;fill-rule:nonzero;stroke:none"
           id="path79098"
           inkscape:connector-curvature="0" />
        <path
           d="m 729.5294,122.5435 c 0,-0.143 -0.093,-0.216 -0.229,-0.216 l -0.279,0 0,0.431 0.279,0 c 0.136,0 0.229,-0.071 0.229,-0.215 m 0.116,0 c 0,0.193 -0.139,0.319 -0.336,0.319 l -0.404,0 0,-1.087 0.116,0 0,0.447 0.288,0 c 0.197,0 0.336,0.127 0.336,0.321"
           style="fill:#000000;fill-opacity:1;fill-rule:nonzero;stroke:none"
           id="path79100"
           inkscape:connector-curvature="0" />
        <path
           d="m 730.4588,122.5591 c 0,-0.133 -0.089,-0.199 -0.216,-0.199 l -0.29,0 0,0.399 0.29,0 c 0.127,0 0.216,-0.067 0.216,-0.2 m 0.138,-0.784 -0.258,0.494 c 0.14,0.029 0.236,0.132 0.236,0.291 0,0.188 -0.133,0.302 -0.322,0.302 l -0.416,0 0,-1.087 0.116,0 0,0.483 0.26,0 0.248,-0.483 0.136,0 z"
           style="fill:#000000;fill-opacity:1;fill-rule:nonzero;stroke:none"
           id="path79102"
           inkscape:connector-curvature="0" />
        <path
           d="m 731.3813,122.1224 -0.406,0 0.204,0.574 0.202,-0.574 z m 0.244,-0.347 -0.398,1.087 -0.098,0 -0.4,-1.087 0.123,0 0.088,0.246 0.474,0 0.088,-0.246 0.123,0 z"
           style="fill:#000000;fill-opacity:1;fill-rule:nonzero;stroke:none"
           id="path79104"
           inkscape:connector-curvature="0" />
        <path
           d="m 732.5796,121.7755 0,1.087 -0.116,0 0,-0.486 -0.516,0 0,0.486 -0.116,0 0,-1.087 0.116,0 0,0.496 0.516,0 0,-0.496 0.116,0 z"
           style="fill:#000000;fill-opacity:1;fill-rule:nonzero;stroke:none"
           id="path79106"
           inkscape:connector-curvature="0" />
        <path
           d="m 734.7018,122.8624 -0.123,0 -0.213,-0.877 -0.239,0.877 -0.104,0 -0.24,-0.877 -0.212,0.877 -0.124,0 0.278,-1.087 0.108,0 0.241,0.87 0.241,-0.87 0.109,0 0.278,1.087 z"
           style="fill:#000000;fill-opacity:1;fill-rule:nonzero;stroke:none"
           id="path79108"
           inkscape:connector-curvature="0" />
        <path
           d="m 734.884,121.775 0.116,0 0,1.087 -0.116,0 0,-1.087 z"
           style="fill:#000000;fill-opacity:1;fill-rule:nonzero;stroke:none"
           id="path79110"
           inkscape:connector-curvature="0" />
        <path
           d="m 736.0556,121.7755 0,1.087 -0.115,0 0,-0.868 -0.578,0.868 -0.11,0 0,-1.087 0.116,0 0,0.872 0.577,-0.872 0.11,0 z"
           style="fill:#000000;fill-opacity:1;fill-rule:nonzero;stroke:none"
           id="path79112"
           inkscape:connector-curvature="0" />
        <path
           d="m 736.9839,122.7588 0,0.104 -0.675,0 0,-1.087 0.116,0 0,0.479 0.477,0 0,0.104 -0.477,0 0,0.4 0.559,0 z"
           style="fill:#000000;fill-opacity:1;fill-rule:nonzero;stroke:none"
           id="path79114"
           inkscape:connector-curvature="0" />
        <path
           d="m 737.818,122.5591 c 0,-0.133 -0.09,-0.199 -0.217,-0.199 l -0.29,0 0,0.399 0.29,0 c 0.127,0 0.217,-0.067 0.217,-0.2 m 0.136,-0.784 -0.257,0.494 c 0.141,0.029 0.236,0.132 0.236,0.291 0,0.188 -0.132,0.302 -0.321,0.302 l -0.418,0 0,-1.087 0.117,0 0,0.483 0.261,0 0.247,-0.483 0.135,0 z"
           style="fill:#000000;fill-opacity:1;fill-rule:nonzero;stroke:none"
           id="path79116"
           inkscape:connector-curvature="0" />
        <path
           d="m 738.84,121.7755 0,0.104 -0.558,0 0,0.392 0.476,0 0,0.105 -0.476,0 0,0.382 0.558,0 0,0.104 -0.675,0 0,-1.087 0.675,0 z"
           style="fill:#000000;fill-opacity:1;fill-rule:nonzero;stroke:none"
           id="path79118"
           inkscape:connector-curvature="0" />
        <path
           d="m 739.7281,122.8624 -0.126,0 -0.254,-0.52 -0.256,0.52 -0.126,0 0.325,-0.638 0,-0.449 0.116,0 0,0.449 0.321,0.638 z"
           style="fill:#000000;fill-opacity:1;fill-rule:nonzero;stroke:none"
           id="path79120"
           inkscape:connector-curvature="0" />
        <path
           d="m 741.233,121.7755 0,1.087 -0.117,0 0,-0.868 -0.576,0.868 -0.11,0 0,-1.087 0.116,0 0,0.872 0.577,-0.872 0.11,0 z"
           style="fill:#000000;fill-opacity:1;fill-rule:nonzero;stroke:none"
           id="path79122"
           inkscape:connector-curvature="0" />
        <path
           d="m 742.1304,121.7755 0,0.104 -0.559,0 0,0.392 0.476,0 0,0.105 -0.476,0 0,0.382 0.559,0 0,0.104 -0.675,0 0,-1.087 0.675,0 z"
           style="fill:#000000;fill-opacity:1;fill-rule:nonzero;stroke:none"
           id="path79124"
           inkscape:connector-curvature="0" />
        <path
           d="m 743.0053,122.7588 0,0.104 -0.745,0 0,-0.104 0.314,0 0,-0.983 0.116,0 0,0.983 0.315,0 z"
           style="fill:#000000;fill-opacity:1;fill-rule:nonzero;stroke:none"
           id="path79126"
           inkscape:connector-curvature="0" />
        <path
           d="m 744.3602,122.8624 -0.123,0 -0.212,-0.877 -0.239,0.877 -0.105,0 -0.24,-0.877 -0.212,0.877 -0.124,0 0.279,-1.087 0.108,0 0.241,0.87 0.242,-0.87 0.108,0 0.277,1.087 z"
           style="fill:#000000;fill-opacity:1;fill-rule:nonzero;stroke:none"
           id="path79128"
           inkscape:connector-curvature="0" />
        <path
           d="m 745.1301,122.319 c 0,-0.222 -0.008,-0.302 -0.077,-0.373 -0.049,-0.05 -0.114,-0.075 -0.187,-0.075 -0.073,0 -0.137,0.025 -0.188,0.075 -0.068,0.071 -0.076,0.151 -0.076,0.373 0,0.223 0.008,0.302 0.076,0.373 0.051,0.05 0.115,0.076 0.188,0.076 0.073,0 0.138,-0.026 0.187,-0.076 0.069,-0.071 0.077,-0.15 0.077,-0.373 m 0.116,0 c 0,0.249 -0.007,0.344 -0.11,0.446 -0.067,0.067 -0.157,0.107 -0.27,0.107 -0.113,0 -0.205,-0.04 -0.273,-0.107 -0.101,-0.102 -0.107,-0.197 -0.107,-0.446 0,-0.249 0.006,-0.344 0.107,-0.445 0.068,-0.068 0.16,-0.108 0.273,-0.108 0.113,0 0.203,0.04 0.27,0.108 0.103,0.101 0.11,0.196 0.11,0.445"
           style="fill:#000000;fill-opacity:1;fill-rule:nonzero;stroke:none"
           id="path79130"
           inkscape:connector-curvature="0" />
        <path
           d="m 746.0809,122.5591 c 0,-0.133 -0.09,-0.199 -0.216,-0.199 l -0.291,0 0,0.399 0.291,0 c 0.126,0 0.216,-0.067 0.216,-0.2 m 0.138,-0.784 -0.259,0.494 c 0.141,0.029 0.237,0.132 0.237,0.291 0,0.188 -0.133,0.302 -0.322,0.302 l -0.416,0 0,-1.087 0.115,0 0,0.483 0.262,0 0.248,-0.483 0.135,0 z"
           style="fill:#000000;fill-opacity:1;fill-rule:nonzero;stroke:none"
           id="path79132"
           inkscape:connector-curvature="0" />
        <path
           d="m 747.2125,121.7755 -0.391,0.667 0.342,0.42 -0.143,0 -0.505,-0.624 0,0.624 -0.117,0 0,-1.087 0.117,0 0,0.304 0.228,0.275 0.332,-0.579 0.137,0 z"
           style="fill:#000000;fill-opacity:1;fill-rule:nonzero;stroke:none"
           id="path79134"
           inkscape:connector-curvature="0" />
      </g>
      <g
         id="g161201"
         clip-path="url(#clipPath20126)"
         style="fill:#000000">
        <path
           inkscape:connector-curvature="0"
           id="path161203"
           style="fill:#000000;fill-opacity:1;fill-rule:nonzero;stroke:none"
           d="m 742.4108,124.2849 0.304,0 0.002,7.107 -0.302,-0.001 c 0,0 -0.006,-0.577 -0.006,-0.787 l 0.002,-6.319 z" />
        <path
           inkscape:connector-curvature="0"
           id="path161205"
           style="fill:#000000;fill-opacity:1;fill-rule:nonzero;stroke:none"
           d="m 743.069,131.3912 -0.005,-7.106 -0.349,0 0.002,7.106 0.352,0 z" />
        <path
           inkscape:connector-curvature="0"
           id="path161207"
           style="fill:#000000;fill-opacity:1;fill-rule:nonzero;stroke:none"
           d="m 747.8782,131.3914 c 0,0 0,-5.298 0.002,-5.534 l -0.339,0.459 -3.955,5.075 -0.517,0 -0.006,-7.106 0.435,-10e-4 c 0,0 0.297,0.05 0.297,0.571 l 0,4.444 3.747,-5.016 1.042,0.001 -10e-4,7.107 -0.705,0 z" />
        <path
           inkscape:connector-curvature="0"
           id="path161209"
           style="fill:#000000;fill-opacity:1;fill-rule:nonzero;stroke:none"
           d="m 747.8807,125.85 -4.299,5.542 c 0,0 0.467,-0.03 0.693,-0.332 0.757,-1.013 3.16,-4.108 3.265,-4.252 l 0,4.583 0.339,0 0.002,-5.541 z" />
        <path
           inkscape:connector-curvature="0"
           id="path161211"
           style="fill:#000000;fill-opacity:1;fill-rule:nonzero;stroke:none"
           d="m 729.4876,124.2949 c -1.562,0 -2.863,1.427 -2.863,3.546 0,2.119 1.301,3.535 2.863,3.535 1.564,0 2.864,-1.416 2.864,-3.535 0,-2.119 -1.3,-3.546 -2.864,-3.546 m 0.9,7.155 c -0.002,10e-4 -0.004,10e-4 -0.006,10e-4 -0.037,0.009 -0.074,0.018 -0.111,0.025 -0.23,0.048 -0.466,0.073 -0.707,0.073 -0.007,0 -0.014,0 -0.022,0 -0.007,0 -0.014,0 -0.02,0 -2.095,0 -3.794,-1.674 -3.794,-3.738 0,-2.065 1.699,-3.739 3.794,-3.739 2.095,0 3.794,1.674 3.794,3.739 0,1.771 -1.251,3.253 -2.928,3.639" />
        <path
           inkscape:connector-curvature="0"
           id="path161213"
           style="fill:#000000;fill-opacity:1;fill-rule:nonzero;stroke:none"
           d="m 731.0352,126.3652 c -0.061,-0.306 -0.19,-0.56 -0.386,-0.762 -0.306,-0.312 -0.683,-0.469 -1.129,-0.469 -0.448,0 -0.824,0.157 -1.131,0.469 -0.195,0.202 -0.324,0.456 -0.385,0.762 -0.05,0.263 -0.073,0.753 -0.073,1.47 0,0.716 0.023,1.206 0.073,1.47 0.061,0.306 0.19,0.56 0.385,0.762 0.307,0.312 0.683,0.468 1.131,0.468 0.446,0 0.823,-0.156 1.129,-0.468 0.196,-0.202 0.325,-0.456 0.386,-0.762 0.049,-0.264 0.074,-0.754 0.074,-1.47 0,-0.717 -0.025,-1.207 -0.074,-1.47 m 0.699,3.086 c -0.08,0.404 -0.261,0.748 -0.542,1.03 -0.055,0.054 -0.111,0.105 -0.168,0.153 -0.421,0.351 -0.922,0.527 -1.504,0.527 -0.575,0 -1.07,-0.172 -1.487,-0.513 -0.064,-0.052 -0.125,-0.108 -0.186,-0.167 -0.281,-0.282 -0.461,-0.626 -0.541,-1.03 -0.049,-0.275 -0.074,-0.814 -0.074,-1.616 0,-0.803 0.025,-1.341 0.074,-1.616 0.08,-0.405 0.26,-0.748 0.541,-1.03 0.052,-0.051 0.105,-0.099 0.159,-0.144 0.422,-0.357 0.927,-0.536 1.514,-0.536 0.604,0 1.121,0.191 1.552,0.57 0.04,0.035 0.08,0.072 0.12,0.11 0.281,0.282 0.462,0.625 0.542,1.03 0.048,0.275 0.073,0.813 0.073,1.616 0,0.802 -0.025,1.341 -0.073,1.616" />
        <path
           inkscape:connector-curvature="0"
           id="path161215"
           style="fill:#000000;fill-opacity:1;fill-rule:nonzero;stroke:none"
           d="m 731.1918,125.1893 c -0.039,-0.038 -0.079,-0.075 -0.12,-0.11 -0.431,-0.379 -0.948,-0.57 -1.552,-0.57 -0.587,0 -1.091,0.179 -1.514,0.536 -0.054,0.045 -0.107,0.093 -0.158,0.144 -0.282,0.282 -0.462,0.625 -0.542,1.03 -0.049,0.275 -0.073,0.813 -0.073,1.616 0,0.802 0.024,1.341 0.073,1.616 0.08,0.404 0.26,0.748 0.542,1.03 0.06,0.059 0.122,0.115 0.186,0.167 0.416,0.341 0.912,0.513 1.486,0.513 0.582,0 1.083,-0.177 1.504,-0.527 0.057,-0.048 0.113,-0.099 0.168,-0.153 0.282,-0.282 0.462,-0.626 0.542,-1.03 0.049,-0.275 0.073,-0.814 0.073,-1.616 0,-0.803 -0.024,-1.341 -0.073,-1.616 -0.08,-0.405 -0.26,-0.748 -0.542,-1.03 m -1.704,6.186 c -1.563,0 -2.863,-1.416 -2.863,-3.535 0,-2.119 1.3,-3.545 2.863,-3.545 1.564,0 2.864,1.426 2.864,3.545 0,2.119 -1.3,3.535 -2.864,3.535" />
        <path
           inkscape:connector-curvature="0"
           id="path161217"
           style="fill:#000000;fill-opacity:1;fill-rule:nonzero;stroke:none"
           d="m 735.6022,126.9068 -1.105,3.952 c -0.113,0.474 -0.477,0.532 -0.477,0.532 l 1.385,-5.188 0.197,0.704 z" />
        <path
           inkscape:connector-curvature="0"
           id="path161219"
           style="fill:#000000;fill-opacity:1;fill-rule:nonzero;stroke:none"
           d="m 739.0283,124.2849 -1.621,5.462 -1.551,-5.462 0.31,0 1.244,4.395 1.303,-4.395 0.315,0 z" />
        <path
           inkscape:connector-curvature="0"
           id="path161221"
           style="fill:#000000;fill-opacity:1;fill-rule:nonzero;stroke:none"
           d="m 740.8162,131.3907 -1.398,-5.202 -0.189,0.601 1.105,3.954 c 0.145,0.522 0.482,0.647 0.482,0.647" />
        <path
           inkscape:connector-curvature="0"
           id="path161223"
           style="fill:#000000;fill-opacity:1;fill-rule:nonzero;stroke:none"
           d="m 741.9631,131.3912 0,0 -0.362,0 -1.9,-7.107 0.362,-0.001 1.9,7.108 z" />
        <path
           inkscape:connector-curvature="0"
           id="path161225"
           style="fill:#000000;fill-opacity:1;fill-rule:nonzero;stroke:none"
           d="m 732.8585,131.3907 c 0,0 0.113,-0.456 0.205,-0.767 0.019,-0.064 0.037,-0.13 0.052,-0.196 l 1.492,-5.575 0.153,-0.568 0.397,0 -1.91,7.106 -0.389,0 z" />
        <path
           inkscape:connector-curvature="0"
           id="path161227"
           style="fill:#000000;fill-opacity:1;fill-rule:nonzero;stroke:none"
           d="m 735.5249,124.2849 0.331,0 1.551,5.462 1.621,-5.462 0.136,-10e-4 0.212,0 -1.97,6.498 -1.881,-6.497 z" />
        <path
           inkscape:connector-curvature="0"
           id="path161229"
           style="fill:#000000;fill-opacity:1;fill-rule:nonzero;stroke:none"
           d="m 740.8162,131.3907 -1.397,-5.196 -0.201,0.711 -10e-4,-0.003 -1.035,3.717 c -0.006,0.02 -0.011,0.039 -0.015,0.059 l -0.198,0.712 -0.33,0 -0.226,0 -0.006,0 -0.233,0 -0.319,0 -0.685,-2.453 -0.568,-2.035 0,0.004 -0.207,-0.66 -1.375,5.144 -0.349,0 -0.424,0 1.91,-7.106 0.368,0 1.881,6.497 1.97,-6.498 0.325,0 1.899,7.107 -0.784,0 z" />
        <path
           inkscape:connector-curvature="0"
           id="path161231"
           style="fill:#000000;fill-opacity:1;fill-rule:nonzero;stroke:none"
           d="m 743.795,129.2998 -10e-4,-0.518 c 0,0 3.028,-4.025 3.208,-4.258 0.182,-0.232 0.54,-0.24 0.54,-0.24 l -3.747,5.016" />
        <path
           inkscape:connector-curvature="0"
           id="path161233"
           style="fill:#000000;fill-opacity:1;fill-rule:nonzero;stroke:none"
           d="m 747.5392,131.3912 c 0,0 -0.329,-0.178 -0.329,-0.505 0,-0.328 -0.003,-3.655 -0.003,-3.655 l 0.332,-0.423 0,4.583 z" />
      </g>
    </g>
  </g>
</svg>
