<svg height="141.06363" width="329.56998" xmlns="http://www.w3.org/2000/svg" xmlns:xlink="http://www.w3.org/1999/xlink"><clipPath id="a"><path d="m725.728 121.766h22.856v9.783h-22.856z"/></clipPath><g transform="matrix(14.419408 0 0 -14.419408 -10464.56813 1896.85726)"><g clip-path="url(#a)"><path d="m742.4108 124.2849h.304l.002 7.107-.302-.001s-.006-.577-.006-.787z"/><path d="m743.069 131.3912-.005-7.106h-.349l.002 7.106z"/><path d="m747.8782 131.3914s0-5.298.002-5.534l-.339.459-3.955 5.075h-.517l-.006-7.106.435-.001s.297.05.297.571v4.444l3.747-5.016 1.042.001-.001 7.107z"/><path d="m747.8807 125.85-4.299 5.542s.467-.03.693-.332c.757-1.013 3.16-4.108 3.265-4.252v4.583h.339z"/><path d="m729.4876 124.2949c-1.562 0-2.863 1.427-2.863 3.546s1.301 3.535 2.863 3.535c1.564 0 2.864-1.416 2.864-3.535s-1.3-3.546-2.864-3.546m.9 7.155c-.002.001-.004.001-.006.001-.037.009-.074.018-.111.025-.23.048-.466.073-.707.073-.007 0-.014 0-.022 0-.007 0-.014 0-.02 0-2.095 0-3.794-1.674-3.794-3.738 0-2.065 1.699-3.739 3.794-3.739s3.794 1.674 3.794 3.739c0 1.771-1.251 3.253-2.928 3.639"/><path d="m731.0352 126.3652c-.061-.306-.19-.56-.386-.762-.306-.312-.683-.469-1.129-.469-.448 0-.824.157-1.131.469-.195.202-.324.456-.385.762-.05.263-.073.753-.073 1.47 0 .716.023 1.206.073 1.47.061.306.19.56.385.762.307.312.683.468 1.131.468.446 0 .823-.156 1.129-.468.196-.202.325-.456.386-.762.049-.264.074-.754.074-1.47 0-.717-.025-1.207-.074-1.47m.699 3.086c-.08.404-.261.748-.542 1.03-.055.054-.111.105-.168.153-.421.351-.922.527-1.504.527-.575 0-1.07-.172-1.487-.513-.064-.052-.125-.108-.186-.167-.281-.282-.461-.626-.541-1.03-.049-.275-.074-.814-.074-1.616 0-.803.025-1.341.074-1.616.08-.405.26-.748.541-1.03.052-.051.105-.099.159-.144.422-.357.927-.536 1.514-.536.604 0 1.121.191 1.552.57.04.035.08.072.12.11.281.282.462.625.542 1.03.048.275.073.813.073 1.616 0 .802-.025 1.341-.073 1.616"/><path d="m731.1918 125.1893c-.039-.038-.079-.075-.12-.11-.431-.379-.948-.57-1.552-.57-.587 0-1.091.179-1.514.536-.054.045-.107.093-.158.144-.282.282-.462.625-.542 1.03-.049.275-.073.813-.073 1.616 0 .802.024 1.341.073 1.616.08.404.26.748.542 1.03.06.059.122.115.186.167.416.341.912.513 1.486.513.582 0 1.083-.177 1.504-.527.057-.048.113-.099.168-.153.282-.282.462-.626.542-1.03.049-.275.073-.814.073-1.616 0-.803-.024-1.341-.073-1.616-.08-.405-.26-.748-.542-1.03m-1.704 6.186c-1.563 0-2.863-1.416-2.863-3.535s1.3-3.545 2.863-3.545c1.564 0 2.864 1.426 2.864 3.545s-1.3 3.535-2.864 3.535"/><path d="m735.6022 126.9068-1.105 3.952c-.113.474-.477.532-.477.532l1.385-5.188z"/><path d="m739.0283 124.2849-1.621 5.462-1.551-5.462h.31l1.244 4.395 1.303-4.395z"/><path d="m740.8162 131.3907-1.398-5.202-.189.601 1.105 3.954c.145.522.482.647.482.647"/><path d="m741.9631 131.3912h-.362l-1.9-7.107.362-.001z"/><path d="m732.8585 131.3907s.113-.456.205-.767c.019-.064.037-.13.052-.196l1.492-5.575.153-.568h.397l-1.91 7.106z"/><path d="m735.5249 124.2849h.331l1.551 5.462 1.621-5.462.136-.001h.212l-1.97 6.498z"/><path d="m740.8162 131.3907-1.397-5.196-.201.711-.001-.003-1.035 3.717c-.006.02-.011.039-.015.059l-.198.712h-.33-.226-.006-.233-.319l-.685-2.453-.568-2.035v.004l-.207-.66-1.375 5.144h-.349-.424l1.91-7.106h.368l1.881 6.497 1.97-6.498h.325l1.899 7.107z"/><path d="m743.795 129.2998-.001-.518s3.028-4.025 3.208-4.258c.182-.232.54-.24.54-.24z"/><path d="m747.5392 131.3912s-.329-.178-.329-.505c0-.328-.003-3.655-.003-3.655l.332-.423z"/><path d="m728.5765 122.319c0-.222-.007-.302-.076-.373-.051-.05-.115-.075-.188-.075s-.138.025-.188.075c-.069.071-.076.151-.076.373 0 .223.007.302.076.373.05.05.115.076.188.076s.137-.026.188-.076c.069-.071.076-.15.076-.373m.116 0c0 .249-.007.344-.11.446-.067.067-.157.107-.27.107s-.204-.04-.272-.107c-.102-.102-.108-.197-.108-.446s.006-.344.108-.445c.068-.068.159-.108.272-.108s.203.04.27.108c.103.101.11.196.11.445"/><path d="m729.5294 122.5435c0-.143-.093-.216-.229-.216h-.279v.431h.279c.136 0 .229-.071.229-.215m.116 0c0 .193-.139.319-.336.319h-.404v-1.087h.116v.447h.288c.197 0 .336.127.336.321"/><path d="m730.4588 122.5591c0-.133-.089-.199-.216-.199h-.29v.399h.29c.127 0 .216-.067.216-.2m.138-.784-.258.494c.14.029.236.132.236.291 0 .188-.133.302-.322.302h-.416v-1.087h.116v.483h.26l.248-.483z"/><path d="m731.3813 122.1224h-.406l.204.574zm.244-.347-.398 1.087h-.098l-.4-1.087h.123l.088.246h.474l.088-.246z"/><path d="m732.5796 121.7755v1.087h-.116v-.486h-.516v.486h-.116v-1.087h.116v.496h.516v-.496z"/><path d="m734.7018 122.8624h-.123l-.213-.877-.239.877h-.104l-.24-.877-.212.877h-.124l.278-1.087h.108l.241.87.241-.87h.109z"/><path d="m734.884 121.775h.116v1.087h-.116z"/><path d="m736.0556 121.7755v1.087h-.115v-.868l-.578.868h-.11v-1.087h.116v.872l.577-.872z"/><path d="m736.9839 122.7588v.104h-.675v-1.087h.116v.479h.477v.104h-.477v.4z"/><path d="m737.818 122.5591c0-.133-.09-.199-.217-.199h-.29v.399h.29c.127 0 .217-.067.217-.2m.136-.784-.257.494c.141.029.236.132.236.291 0 .188-.132.302-.321.302h-.418v-1.087h.117v.483h.261l.247-.483z"/><path d="m738.84 121.7755v.104h-.558v.392h.476v.105h-.476v.382h.558v.104h-.675v-1.087z"/><path d="m739.7281 122.8624h-.126l-.254-.52-.256.52h-.126l.325-.638v-.449h.116v.449z"/><path d="m741.233 121.7755v1.087h-.117v-.868l-.576.868h-.11v-1.087h.116v.872l.577-.872z"/><path d="m742.1304 121.7755v.104h-.559v.392h.476v.105h-.476v.382h.559v.104h-.675v-1.087z"/><path d="m743.0053 122.7588v.104h-.745v-.104h.314v-.983h.116v.983z"/><path d="m744.3602 122.8624h-.123l-.212-.877-.239.877h-.105l-.24-.877-.212.877h-.124l.279-1.087h.108l.241.87.242-.87h.108z"/><path d="m745.1301 122.319c0-.222-.008-.302-.077-.373-.049-.05-.114-.075-.187-.075s-.137.025-.188.075c-.068.071-.076.151-.076.373 0 .223.008.302.076.373.051.05.115.076.188.076s.138-.026.187-.076c.069-.071.077-.15.077-.373m.116 0c0 .249-.007.344-.11.446-.067.067-.157.107-.27.107s-.205-.04-.273-.107c-.101-.102-.107-.197-.107-.446s.006-.344.107-.445c.068-.068.16-.108.273-.108s.203.04.27.108c.103.101.11.196.11.445"/><path d="m746.0809 122.5591c0-.133-.09-.199-.216-.199h-.291v.399h.291c.126 0 .216-.067.216-.2m.138-.784-.259.494c.141.029.237.132.237.291 0 .188-.133.302-.322.302h-.416v-1.087h.115v.483h.262l.248-.483z"/><path d="m747.2125 121.7755-.391.667.342.42h-.143l-.505-.624v.624h-.117v-1.087h.117v.304l.228.275.332-.579z"/></g><g clip-path="url(#a)"><path d="m742.4108 124.2849h.304l.002 7.107-.302-.001s-.006-.577-.006-.787z"/><path d="m743.069 131.3912-.005-7.106h-.349l.002 7.106z"/><path d="m747.8782 131.3914s0-5.298.002-5.534l-.339.459-3.955 5.075h-.517l-.006-7.106.435-.001s.297.05.297.571v4.444l3.747-5.016 1.042.001-.001 7.107z"/><path d="m747.8807 125.85-4.299 5.542s.467-.03.693-.332c.757-1.013 3.16-4.108 3.265-4.252v4.583h.339z"/><path d="m729.4876 124.2949c-1.562 0-2.863 1.427-2.863 3.546s1.301 3.535 2.863 3.535c1.564 0 2.864-1.416 2.864-3.535s-1.3-3.546-2.864-3.546m.9 7.155c-.002.001-.004.001-.006.001-.037.009-.074.018-.111.025-.23.048-.466.073-.707.073-.007 0-.014 0-.022 0-.007 0-.014 0-.02 0-2.095 0-3.794-1.674-3.794-3.738 0-2.065 1.699-3.739 3.794-3.739s3.794 1.674 3.794 3.739c0 1.771-1.251 3.253-2.928 3.639"/><path d="m731.0352 126.3652c-.061-.306-.19-.56-.386-.762-.306-.312-.683-.469-1.129-.469-.448 0-.824.157-1.131.469-.195.202-.324.456-.385.762-.05.263-.073.753-.073 1.47 0 .716.023 1.206.073 1.47.061.306.19.56.385.762.307.312.683.468 1.131.468.446 0 .823-.156 1.129-.468.196-.202.325-.456.386-.762.049-.264.074-.754.074-1.47 0-.717-.025-1.207-.074-1.47m.699 3.086c-.08.404-.261.748-.542 1.03-.055.054-.111.105-.168.153-.421.351-.922.527-1.504.527-.575 0-1.07-.172-1.487-.513-.064-.052-.125-.108-.186-.167-.281-.282-.461-.626-.541-1.03-.049-.275-.074-.814-.074-1.616 0-.803.025-1.341.074-1.616.08-.405.26-.748.541-1.03.052-.051.105-.099.159-.144.422-.357.927-.536 1.514-.536.604 0 1.121.191 1.552.57.04.035.08.072.12.11.281.282.462.625.542 1.03.048.275.073.813.073 1.616 0 .802-.025 1.341-.073 1.616"/><path d="m731.1918 125.1893c-.039-.038-.079-.075-.12-.11-.431-.379-.948-.57-1.552-.57-.587 0-1.091.179-1.514.536-.054.045-.107.093-.158.144-.282.282-.462.625-.542 1.03-.049.275-.073.813-.073 1.616 0 .802.024 1.341.073 1.616.08.404.26.748.542 1.03.06.059.122.115.186.167.416.341.912.513 1.486.513.582 0 1.083-.177 1.504-.527.057-.048.113-.099.168-.153.282-.282.462-.626.542-1.03.049-.275.073-.814.073-1.616 0-.803-.024-1.341-.073-1.616-.08-.405-.26-.748-.542-1.03m-1.704 6.186c-1.563 0-2.863-1.416-2.863-3.535s1.3-3.545 2.863-3.545c1.564 0 2.864 1.426 2.864 3.545s-1.3 3.535-2.864 3.535"/><path d="m735.6022 126.9068-1.105 3.952c-.113.474-.477.532-.477.532l1.385-5.188z"/><path d="m739.0283 124.2849-1.621 5.462-1.551-5.462h.31l1.244 4.395 1.303-4.395z"/><path d="m740.8162 131.3907-1.398-5.202-.189.601 1.105 3.954c.145.522.482.647.482.647"/><path d="m741.9631 131.3912h-.362l-1.9-7.107.362-.001z"/><path d="m732.8585 131.3907s.113-.456.205-.767c.019-.064.037-.13.052-.196l1.492-5.575.153-.568h.397l-1.91 7.106z"/><path d="m735.5249 124.2849h.331l1.551 5.462 1.621-5.462.136-.001h.212l-1.97 6.498z"/><path d="m740.8162 131.3907-1.397-5.196-.201.711-.001-.003-1.035 3.717c-.006.02-.011.039-.015.059l-.198.712h-.33-.226-.006-.233-.319l-.685-2.453-.568-2.035v.004l-.207-.66-1.375 5.144h-.349-.424l1.91-7.106h.368l1.881 6.497 1.97-6.498h.325l1.899 7.107z"/><path d="m743.795 129.2998-.001-.518s3.028-4.025 3.208-4.258c.182-.232.54-.24.54-.24z"/><path d="m747.5392 131.3912s-.329-.178-.329-.505c0-.328-.003-3.655-.003-3.655l.332-.423z"/></g></g></svg>