<svg enable-background="new 0 0 2500 2000" viewBox="0 0 2500 2000" xmlns="http://www.w3.org/2000/svg"><g fill="#141414"><path d="m438.1 310.4c-25.3 0-40.2 10.3-49.6 25.3-19.6 31.8-23.4 99.2-23.4 220.9s3.7 189.1 23.4 220.9c9.4 15 24.3 25.3 49.6 25.3s41.2-10.3 50.5-25.3c19.6-31.8 22.4-99.2 22.4-220.9s-2.8-189.1-22.4-220.9c-9.3-15-25.2-25.3-50.5-25.3z"/><path d="m1888.9 888.9v-277.8h55.6v-611.1h-1944.5v611.1h55.6v500h500v277.8h-55.6v611.1h1944.4v-500h55.6v-611.1zm-1321.7-48.8c-27.1 32.8-67.4 57.1-129.1 57.1-61.8 0-102-24.3-129.1-57.1-44-53.4-48.7-125.4-48.7-283.6s4.7-230.2 48.7-283.6c27.1-32.8 67.4-57.1 129.1-57.1s102 24.3 129.1 57.1c44.9 52.4 48.6 125.4 48.6 283.6.1 158.2-3.7 231.2-48.6 283.6zm351.1 825.2c9.4 15 24.3 25.3 49.6 25.3 45.8 0 65.5-39.3 65.5-85.2v-103.9h-65.5v-86.1h170.3v184.4c0 121.7-70.2 185.3-170.3 185.3-61.8 0-102-24.3-129.1-57.1-44-52.4-48.7-125.4-48.7-283.6s4.7-231.2 48.7-283.6c27.1-32.8 67.4-57.1 129.1-57.1 51.5 0 90.8 16.8 118.8 44.9 32.7 33.7 49.6 82.4 51.5 139.5h-104.8c-.9-36.5-8.4-89.8-65.5-89.8-25.3 0-40.2 10.3-49.6 25.3-20.6 31.8-23.4 99.2-23.4 220.9 0 121.6 2.8 189 23.4 220.8zm127.3-775.6-76.7-239.6-76.7 239.6h-115.1l131.9-345.3-121.6-321h115.1l66.4 222.8 66.4-222.8h115.1l-124.4 321 134.7 345.4zm570.7 505.1v94.5h-150.6v193.7h174.9v94.5h-279.7v-666.4h279.7v94.5h-174.9v189.1h150.6zm-62.1-766.2v261.1h-104.8v-261.1l-129.1-405.3h116l65.5 263.9 66.4-263.9h115.1zm655 1149h-92.6l-157.2-395.9v395.9h-104.8v-666.4h93.6l156.2 395.9v-395.9h104.8z"/></g></svg>