<?xml version="1.0" encoding="utf-8"?>
<!-- Generator: Adobe Illustrator 24.2.3, SVG Export Plug-In . SVG Version: 6.00 Build 0)  -->
<svg version="1.1" id="Layer_1" xmlns="http://www.w3.org/2000/svg" xmlns:xlink="http://www.w3.org/1999/xlink" x="0px" y="0px"
	 viewBox="0 0 2500 2500" style="enable-background:new 0 0 2500 2500;" xml:space="preserve">
<g>
	<path d="M2203.1,834.7l-361.6-798h-256.3l359.7,793.8h-147.4v235.3c0,94.5-76.9,171.5-171.5,171.5h-56.7v416.1h254.9v-401.9h42.5
		c49.3,0.1,96.6-19.5,131.3-54.4c34.9-34.8,54.5-82.1,54.4-131.3V844.8h155.3h0L2203.1,834.7z"/>
	<path d="M760.8,1653.5h584.7v-401.9h42.5c49.6,0,96.3-19.3,131.3-54.4c34.9-34.8,54.5-82,54.4-131.3V844.8h155.2l-366.1-808
		l-463.5,0.4c-334.7,0-607,272.3-607,607c0,138.2,48.2,273.5,135.8,381.1c84.9,104.3,202.9,178.4,332.7,209.3V1653.5z M1256.6,441.8
		c80.2,0,145.3,65,145.3,145.3c0,80.2-65.1,145.3-145.3,145.3s-145.3-65-145.3-145.3C1111.3,506.8,1176.4,441.8,1256.6,441.8z"/>
	<path d="M846.9,2195.7c113.5,0,205.5-92,205.5-205.5c0-113.5-92-205.5-205.5-205.5l-284.4,0.1V1900h82.7v443.5h-82.7v115.3h290.7
		v-115.3h-82.7v-147.8L846.9,2195.7z M770.5,1899.8h76.4c49.9,0.6,89.9,41.5,89.3,91.4c-0.6,49.1-40.2,88.7-89.3,89.3h-76.4V1899.8z
		"/>
	<path d="M1456.3,2094.5C1456.3,2094.5,1456.3,2094.5,1456.3,2094.5L1456.3,2094.5C1456.3,2094.5,1456.3,2094.5,1456.3,2094.5
		c37.9-24.6,61.4-62.4,61.4-118.1c0-106.2-86.1-192.2-192.2-192.2h-276.9V1900h82.7v443.5h-82.7v115.3h208l88.9-0.1
		c112,0,202.9-90.8,202.9-202.9C1548.4,2184.6,1511.8,2127,1456.3,2094.5z M1256.6,1900l68.9,0.2c42.1,0,76.2,34.1,76.2,76.2
		c0,42.1-34.1,76.2-76.2,76.2h-68.9V1900z M1345.5,2343.5h-88.9v-175.4h88.9c48.4,0.6,87.2,40.3,86.6,88.8
		C1431.6,2304.4,1393.1,2342.9,1345.5,2343.5z"/>
	<path d="M1810.3,2039.5L1810.3,2039.5c-49.2-11.4-100.2-30.6-99.8-82.1c0.3-46.7,37.9-72,79.6-72c48,0,97.1,31.6,99.7,84.6h116.5
		v-188.1h-108.6v32.9c-23.3-28.8-78.4-39.8-106.4-39.3c-108.5,1.7-208.2,65.6-207.3,190.8c1,137.9,122.9,178,241.2,204.7
		c42.9,9.7,88.3,30.3,87.3,97.2c-0.6,41.5-44.2,83.4-90.9,83.4c-63.1,0-106.4-26.8-127.4-106h-105.2v213.3h109.9v-44.3
		c45.2,45.5,90.3,48.2,132.3,48.8c117.1,1.7,203.6-97.2,206.7-201.5C2042.1,2117.9,1931.5,2067.3,1810.3,2039.5z"/>
</g>
</svg>
