<svg enable-background="new 110.667 172.481 178.667 55.037" height="308.04233" viewBox="110.667 172.481 999.99996 308.04233" width="1000" xmlns="http://www.w3.org/2000/svg"><g stroke-width="5.597004"><path d="m174.92621 267.63008c-35.44583 0-64.25921 28.81338-64.25921 64.2592v148.63406h30.47009v-82.49985l11.19401 11.80968 44.77604-17.61377c25.49995-9.95147 42.08387-32.96636 42.08387-60.32452 0-35.44583-28.81338-64.2648-64.2648-64.2648zm11.40669 97.63974-45.19021 17.61937v-50.99431c0-20.52421 15.34139-35.23874 33.78912-35.23874 18.44772 0 33.78911 14.92162 33.78911 35.23874 0 12.85072-6.21827 26.94958-22.38802 33.37494zm526.32551-97.63974c-35.44583 0-64.2592 28.81338-64.2592 64.2592 0 35.44584 28.81337 64.25922 64.2592 64.25922s64.25921-28.81338 64.25921-64.25922c0-35.44582-28.81338-64.2592-64.25921-64.2592zm0 99.50355c-19.48317 0-33.78911-15.54289-33.78911-35.23875s14.72012-35.23874 33.78911-35.23874c19.48318 0 33.78912 15.54288 33.78912 35.23874s-14.30594 35.23875-33.78912 35.23875zm139.09676-70.47749c13.2593 0 24.03913 7.25372 29.64174 18.03355l23.83764-18.24064c-11.60819-17.20519-31.09136-28.60629-53.47938-28.60629-35.45143 0-64.26481 28.81338-64.26481 64.25921s28.81338 64.25921 64.26481 64.25921c22.18093 0 41.86559-11.40109 53.47938-28.60629l-23.83764-18.24624c-5.60261 10.78544-16.38244 18.03915-29.64174 18.03915-19.48877 0-33.78912-15.54288-33.78912-35.23874s14.71453-35.65292 33.78912-35.65292zm-259.95287 0c13.27049 0 24.05032 7.25372 29.64733 18.03355l23.83764-18.24064c-11.60819-17.20519-31.09696-28.60629-53.48497-28.60629-35.44583 0-64.25921 28.81338-64.25921 64.25921s28.81338 64.25921 64.25921 64.25921c22.18093 0 41.87678-11.40109 53.48497-28.60629l-23.83764-18.24624c-5.59701 10.78544-16.37684 18.03915-29.64733 18.03915-19.48318 0-33.78912-15.54288-33.78912-35.23874s14.51303-35.65292 33.78912-35.65292zm-106.55018-13.68467c-10.36565-10.77984-24.04473-15.3358-38.35067-15.3358-29.85442 0-60.11183 27.15667-60.11183 64.25921 0 37.10255 30.25741 64.25921 60.11183 64.25921 14.30594 0 27.98502-4.55596 38.35067-15.33579v11.60819h30.47569v-120.86172h-30.47569zm-33.78911 84.16216c-19.47758 0-34.2033-15.54289-34.2033-35.23875s15.1343-35.23874 34.2033-35.23874c19.48877 0 33.78911 15.54288 33.78911 35.23874s-14.30034 35.23875-33.78911 35.23875zm538.55496-39.59322h-13.67908l52.85811-56.17713h-39.17903l-42.70514 46.02417v-111.94009h-30.4701v186.98473h30.4701v-34.41039l16.79101-17.83206 35.86001 52.24245h36.90105zm-676.61627-59.91033c-35.44583 0-64.25921 28.81338-64.25921 64.2592 0 35.44584 28.81338 64.25922 64.25921 64.25922 21.14548 0 41.04283-10.15297 52.44953-25.90854l-24.46451-16.9981c-2.90485 4.76865-12.22946 13.88057-27.98502 13.88057-14.50744 0-26.32831-8.70334-31.29845-21.34698h92.664c1.04105-4.55596 1.45522-9.11752 1.45522-13.88617.1959-35.44023-27.36935-64.2592-62.82077-64.2592zm-31.09136 50.37304c4.97573-12.64923 16.79101-21.34698 31.09136-21.34698 14.51303 0 25.49995 8.70334 30.06151 21.34698z"/><path d="m1092.2193 374.18585c-10.1586 0-18.4534 8.28917-18.4534 18.45333 0 10.15296 8.2892 18.44213 18.4534 18.44213 10.1529 0 18.4477-8.28357 18.4477-18.44213 0-10.16416-8.2892-18.45333-18.4477-18.45333z" fill="#069de0"/><path d="m1092.2193 323.81281c-10.1586 0-18.4534 8.28916-18.4534 18.45332 0 10.15297 8.2892 18.44214 18.4534 18.44214 10.1529 0 18.4477-8.28358 18.4477-18.44214-.2071-10.37125-8.2892-18.45332-18.4477-18.45332z" fill="#6e55dc"/><path d="m1092.2193 424.55889c-10.1586 0-18.4534 8.28917-18.4534 18.45333 0 10.15296 8.2892 18.44213 18.4534 18.44213 10.1529 0 18.4477-8.28357 18.4477-18.44213 0-10.16416-8.2892-18.45333-18.4477-18.45333z" fill="#05ac3f"/><path d="m1092.2193 273.22708c-10.1586 0-18.4534 8.28916-18.4534 18.45332 0 10.15297 8.2892 18.44773 18.4534 18.44773 10.1529 0 18.4477-8.28916 18.4477-18.44773-.2071-10.15856-8.2892-18.45332-18.4477-18.45332z" fill="#ef1541"/><path d="m1092.2193 222.85404c-10.1586 0-18.4534 8.28916-18.4534 18.45332 0 10.15297 8.2892 18.44773 18.4534 18.44773 10.1529 0 18.4477-8.28916 18.4477-18.44773-.2071-10.15856-8.2892-18.45332-18.4477-18.45332z" fill="#ff7112"/><path d="m1092.2193 172.481c-10.1586 0-18.4534 8.28916-18.4534 18.45332 0 10.15297 8.2892 18.44773 18.4534 18.44773 10.1529 0 18.4477-8.28916 18.4477-18.44773-.2071-10.15856-8.2892-18.45332-18.4477-18.45332z" fill="#fccc12"/></g></svg>