<?xml version="1.0" encoding="utf-8"?>
<!-- Generator: Adobe Illustrator 24.2.3, SVG Export Plug-In . SVG Version: 6.00 Build 0)  -->
<svg version="1.1" id="Layer_1" xmlns="http://www.w3.org/2000/svg" xmlns:xlink="http://www.w3.org/1999/xlink" x="0px" y="0px"
	 viewBox="0 0 1869 2463.2" style="enable-background:new 0 0 1869 2463.2;" xml:space="preserve">
<g>
	<polygon points="1276,1644.6 977.5,1741.4 979.5,1794.8 1278,1699.9 	"/>
	<polygon points="926.1,1903.5 918.2,1660.4 781.9,1729.5 637.6,1652.4 657.3,1850.1 777.9,1790.8 	"/>
	<path d="M973.6,857.8c-411.1,11.9-501.9,300-492.2,417.1c9.9,118.6,189.8,221.4,296.5,239.1c-17.8,27.7-21.7,140.3,4,177.9
		l191.7-94.9l4,92.9l0,0c106.8-33.6,272.8-108.7,312.3-152.2c83-332.1,47.4-494.2-79.1-620.7C1408.4,727.4,1447.9,478.4,1432.1,0
		c-268.8,241.2-363.7,438.8-336,865.8c-90.9-158.1-316.3-454.6-399.3-537.6c-83-83-276.7-197.7-391.4-260.9
		C400.3,596.9,756.1,774.8,973.6,857.8z M740.4,1134.5c-36.3-0.5-65.7-29.8-66.2-66.2c-0.5-37.1,29.1-67.5,66.2-68
		c0.6,0,1.2,0,1.8,0c37.1,0.5,66.7,30.9,66.2,68C807.8,1105.3,777.4,1135,740.4,1134.5z"/>
	<path d="M1696,1515.1c6.6,3.2,14.3-1,15.9-7.4c6.6-30.9-40.1-70.9-87.8-55.7c-41.7,13.2-48.2,43-47.7,75.6
		c0.9,54.8,79.5,94,120.8,75.3c32.4-14.7,26-48.2,13.4-60.5c-12.6-12.3-38.8-12-46.9-2.6h0c-11.6,10.5-29,1.8-17.7-12.5
		C1667.5,1502.5,1689.5,1512,1696,1515.1z"/>
	<path d="M385.6,1911.3c0,0-23.3-7.3-23.3,18.9c0,37.8-7.3,80,66.9,97.5c78.4,18.4,683.9,145.5,1137.9-131
		c21.4-13,17.4-49.5-17.5-37.8C1110.2,2023.3,535.5,1946.2,385.6,1911.3L385.6,1911.3z"/>
	<path d="M205.2,777.7c35,0,259-21.8,312.8-23.3c53.8-1.5,24.7-55.3,18.9-66.9c-5.8-11.6-20.4-36.4-61.1-29.1
		c-152.8,16-288.1,53.8-325.9,66.9h0C109.1,739.9,180.4,777.7,205.2,777.7z"/>
	<path d="M1503.1,687.5c16,1.5,68.4,2.9,84.4,2.9c16,0,26.2,10.2,27.7,33.5c14.5,100.4,23.3,462.7,20.4,622.8
		c-1,55.3,69.8,48,71.3,17.5c4.4-90.2,37.8-435.1,23.3-634.4c-3.5-48.1-33.5-62.6-68.4-66.9c-34.9-4.4-126.6-5.8-161.5-4.4
		C1485.6,659.9,1487.1,686.1,1503.1,687.5z"/>
	<path d="M1709.7,1792.7c22.1-27.8,8-60.4-8-67.7c-16-7.3-40-2.9-44.4,8.7l0,0c-7.3,13.8-24.7,9.4-20.4-4.4
		c11.7-30.6,41.5-29.8,48.7-29.1c7.3,0.7,13.1-5.8,12.4-12.4c-4.4-31.3-58.9-56.8-99.7-27.7c-40.6,29-38.2,81.3-18.2,115
		C1602.7,1813,1687.1,1821,1709.7,1792.7z"/>
	<polygon points="665.7,2267 689.7,2267 658.4,2312.9 627.1,2267 647.5,2267 647.5,2231.4 553.6,2231.4 553.6,2231.4 553.6,2267 
		564.6,2267 627.1,2358.7 627.1,2386.3 608.2,2386.3 608.2,2422 697.7,2422 697.7,2386.3 678.8,2386.3 678.8,2363 743.5,2267 
		753.7,2267 753.7,2231.4 665.7,2231.4 	"/>
	<polygon points="1457.2,2303.4 1500.9,2303.4 1500.9,2267 1526.4,2267 1526.4,2386.3 1507.4,2386.3 1507.4,2422 1596.9,2422 
		1596.9,2385.6 1578,2385.6 1578,2267 1603.5,2267 1603.5,2303.4 1647.1,2303.4 1647.1,2231.4 1457.2,2231.4 	"/>
	<path d="M1059.3,2226.9c-56.2,0-101.9,44.7-101.9,99.8c0,55.1,45.6,99.8,101.9,99.8c56.3,0,101.9-44.7,101.9-99.8
		C1161.1,2271.5,1115.5,2226.9,1059.3,2226.9z M1059.3,2388.6c-17.4,0-37.6-13.2-37.6-62c0-48.7,20.2-62,37.6-62s37.7,13.2,37.7,62
		C1096.9,2375.4,1076.7,2388.6,1059.3,2388.6z"/>
	<path d="M298.3,1908.4c14.5-4.4,17.4-18.9,11.6-33.5c-37.8-131-151.3-539.8-133.9-1011.3c1.5-39.3-52-23.1-55.3-2.9
		c-75.7,462.7,37.8,896.3,72.7,1015.6C213.9,1917.1,257.6,1914.2,298.3,1908.4z"/>
	<polygon points="1783.9,2231.4 1783.9,2267 1808.6,2267 1768.6,2374 1729.3,2267 1751.9,2267 1751.9,2231.4 1658.8,2231.4 
		1658.8,2267 1670.4,2267 1735.2,2422 1794.1,2422 1858.1,2267 1869,2267 1869,2231.4 	"/>
	<polygon points="1281.9,2267 1305.9,2267 1274.6,2312.9 1243.3,2267 1263.7,2267 1263.7,2231.4 1169.9,2231.4 1169.9,2231.4 
		1169.9,2267 1180.8,2267 1243.3,2358.7 1243.3,2386.3 1224.4,2386.3 1224.4,2422 1313.9,2422 1313.9,2386.3 1295,2386.3 1295,2363 
		1359.7,2267 1369.9,2267 1369.9,2231.4 1281.9,2231.4 	"/>
	<path d="M113.8,2231.3H0v35.7h18.9v119.3H0v35.7h89.5v-35.7H70.6v-34.2l43.3,0.1c33.4,0,60.5-27.1,60.5-60.5
		S147.2,2231.3,113.8,2231.3z M116.2,2292.5c-0.4,13.2-11,23.7-24.2,24.2H70.6V2267l21.5-0.2
		C105.8,2267.2,116.6,2278.8,116.2,2292.5z"/>
	<polygon points="301.9,2386.3 257.5,2386.3 257.5,2267 276.5,2267 276.5,2231.4 187,2231.4 187,2231.4 187,2267 205.9,2267 
		205.9,2386.3 187,2386.3 187,2422 344.1,2422 344.1,2352.1 301.9,2352.1 	"/>
	<polygon points="496.2,2231.4 434.3,2231.4 373.9,2386.3 360.1,2386.3 360.1,2422 436.5,2422 436.5,2386.3 418.3,2386.3 
		424.9,2371 437.2,2336.9 437.2,2336.9 459.8,2280.8 481.6,2336.9 437.2,2336.9 424.9,2371 494.7,2371 494.7,2371 501.3,2386.3 
		483.8,2386.3 483.8,2422 571.1,2422 571.1,2386.3 556.6,2386.3 	"/>
	<path d="M940,2275c0-27.6-27.6-43.6-58.2-43.6H766.1v35.6H785l0,0h0l0,0h0v119.3h51.7V2346h30.5c11.2,0,20.3,9.1,20.3,20.3
		c0,11.2-9.1,20.3-20.3,20.3l-30.5-0.3h-70.6v35.7h123c34.9,0,50.9-31.3,50.9-51.7c0-20.4-6.5-35.7-26.9-47.3
		C925.4,2317.9,940,2302.7,940,2275z M859.9,2311l-23.3-0.3v-44h23.3c12.2,0,22.1,9.9,22.1,22.1C882.1,2301,872.2,2311,859.9,2311z"
		/>
</g>
</svg>
