<svg enable-background="new 0 0 485 485" viewBox="0 0 485 485" xmlns="http://www.w3.org/2000/svg"><path d="m413.974 71.026c-45.803-45.801-106.7-71.026-171.474-71.026s-125.671 25.225-171.474 71.026c-45.801 45.803-71.026 106.7-71.026 171.474s25.225 125.671 71.026 171.474c45.803 45.801 106.7 71.026 171.474 71.026s125.671-25.225 171.474-71.026c45.801-45.803 71.026-106.7 71.026-171.474s-25.225-125.671-71.026-171.474zm-171.474 383.974c-117.173 0-212.5-95.327-212.5-212.5s95.327-212.5 212.5-212.5 212.5 95.327 212.5 212.5-95.327 212.5-212.5 212.5z"/><path d="m181.062 336.575 162.876-94.075-162.876-94.075z"/></svg>