<svg enable-background="new 0 0 1869 2463.2" viewBox="0 0 1869 2463.2" xmlns="http://www.w3.org/2000/svg"><path d="m1276 1644.6-298.5 96.8 2 53.4 298.5-94.9z"/><path d="m926.1 1903.5-7.9-243.1-136.3 69.1-144.3-77.1 19.7 197.7 120.6-59.3z"/><path d="m973.6 857.8c-411.1 11.9-501.9 300-492.2 417.1 9.9 118.6 189.8 221.4 296.5 239.1-17.8 27.7-21.7 140.3 4 177.9l191.7-94.9 4 92.9c106.8-33.6 272.8-108.7 312.3-152.2 83-332.1 47.4-494.2-79.1-620.7 197.6-189.6 237.1-438.6 221.3-917-268.8 241.2-363.7 438.8-336 865.8-90.9-158.1-316.3-454.6-399.3-537.6s-276.7-197.7-391.4-260.9c94.9 529.6 450.7 707.5 668.2 790.5zm-233.2 276.7c-36.3-.5-65.7-29.8-66.2-66.2-.5-37.1 29.1-67.5 66.2-68h1.8c37.1.5 66.7 30.9 66.2 68-.6 37-31 66.7-68 66.2z"/><path d="m1696 1515.1c6.6 3.2 14.3-1 15.9-7.4 6.6-30.9-40.1-70.9-87.8-55.7-41.7 13.2-48.2 43-47.7 75.6.9 54.8 79.5 94 120.8 75.3 32.4-14.7 26-48.2 13.4-60.5s-38.8-12-46.9-2.6c-11.6 10.5-29 1.8-17.7-12.5 21.5-24.8 43.5-15.3 50-12.2z"/><path d="m385.6 1911.3s-23.3-7.3-23.3 18.9c0 37.8-7.3 80 66.9 97.5 78.4 18.4 683.9 145.5 1137.9-131 21.4-13 17.4-49.5-17.5-37.8-439.4 164.4-1014.1 87.3-1164 52.4z"/><path d="m205.2 777.7c35 0 259-21.8 312.8-23.3s24.7-55.3 18.9-66.9-20.4-36.4-61.1-29.1c-152.8 16-288.1 53.8-325.9 66.9-40.8 14.6 30.5 52.4 55.3 52.4z"/><path d="m1503.1 687.5c16 1.5 68.4 2.9 84.4 2.9s26.2 10.2 27.7 33.5c14.5 100.4 23.3 462.7 20.4 622.8-1 55.3 69.8 48 71.3 17.5 4.4-90.2 37.8-435.1 23.3-634.4-3.5-48.1-33.5-62.6-68.4-66.9-34.9-4.4-126.6-5.8-161.5-4.4-14.7 1.4-13.2 27.6 2.8 29z"/><path d="m1709.7 1792.7c22.1-27.8 8-60.4-8-67.7s-40-2.9-44.4 8.7c-7.3 13.8-24.7 9.4-20.4-4.4 11.7-30.6 41.5-29.8 48.7-29.1 7.3.7 13.1-5.8 12.4-12.4-4.4-31.3-58.9-56.8-99.7-27.7-40.6 29-38.2 81.3-18.2 115 22.6 37.9 107 45.9 129.6 17.6z"/><path d="m665.7 2267h24l-31.3 45.9-31.3-45.9h20.4v-35.6h-93.9v35.6h11l62.5 91.7v27.6h-18.9v35.7h89.5v-35.7h-18.9v-23.3l64.7-96h10.2v-35.6h-88z"/><path d="m1457.2 2303.4h43.7v-36.4h25.5v119.3h-19v35.7h89.5v-36.4h-18.9v-118.6h25.5v36.4h43.6v-72h-189.9z"/><path d="m1059.3 2226.9c-56.2 0-101.9 44.7-101.9 99.8s45.6 99.8 101.9 99.8 101.9-44.7 101.9-99.8c-.1-55.2-45.7-99.8-101.9-99.8zm0 161.7c-17.4 0-37.6-13.2-37.6-62 0-48.7 20.2-62 37.6-62s37.7 13.2 37.7 62c-.1 48.8-20.3 62-37.7 62z"/><path d="m298.3 1908.4c14.5-4.4 17.4-18.9 11.6-33.5-37.8-131-151.3-539.8-133.9-1011.3 1.5-39.3-52-23.1-55.3-2.9-75.7 462.7 37.8 896.3 72.7 1015.6 20.5 40.8 64.2 37.9 104.9 32.1z"/><path d="m1783.9 2231.4v35.6h24.7l-40 107-39.3-107h22.6v-35.6h-93.1v35.6h11.6l64.8 155h58.9l64-155h10.9v-35.6z"/><path d="m1281.9 2267h24l-31.3 45.9-31.3-45.9h20.4v-35.6h-93.8v35.6h10.9l62.5 91.7v27.6h-18.9v35.7h89.5v-35.7h-18.9v-23.3l64.7-96h10.2v-35.6h-88z"/><path d="m113.8 2231.3h-113.8v35.7h18.9v119.3h-18.9v35.7h89.5v-35.7h-18.9v-34.2l43.3.1c33.4 0 60.5-27.1 60.5-60.5s-27.2-60.4-60.6-60.4zm2.4 61.2c-.4 13.2-11 23.7-24.2 24.2h-21.4v-49.7l21.5-.2c13.7.4 24.5 12 24.1 25.7z"/><path d="m301.9 2386.3h-44.4v-119.3h19v-35.6h-89.5v35.6h18.9v119.3h-18.9v35.7h157.1v-69.9h-42.2z"/><path d="m496.2 2231.4h-61.9l-60.4 154.9h-13.8v35.7h76.4v-35.7h-18.2l6.6-15.3 12.3-34.1 22.6-56.1 21.8 56.1h-44.4l-12.3 34.1h69.8l6.6 15.3h-17.5v35.7h87.3v-35.7h-14.5z"/><path d="m940 2275c0-27.6-27.6-43.6-58.2-43.6h-115.7v35.6h18.9v119.3h51.7v-40.3h30.5c11.2 0 20.3 9.1 20.3 20.3s-9.1 20.3-20.3 20.3l-30.5-.3h-70.6v35.7h123c34.9 0 50.9-31.3 50.9-51.7s-6.5-35.7-26.9-47.3c12.3-5.1 26.9-20.3 26.9-48zm-80.1 36-23.3-.3v-44h23.3c12.2 0 22.1 9.9 22.1 22.1.1 12.2-9.8 22.2-22.1 22.2z"/></svg>