<svg enable-background="new 0 0 2021.5 2158.6" viewBox="0 0 2021.5 2158.6" xmlns="http://www.w3.org/2000/svg"><g fill="#fff"><path d="m1181.2 1860.3h-1.9c-23.9 0-45.2 5.2-62.5 15.3-1.8 1.1-4.3 0-4.3-2.2 0-5.3-4.4-9.8-9.8-9.8h-25.4c-6.8 0-12.3 5.6-12.3 12.3v267.1c0 6.6 5.5 12.2 12.3 12.2h23.1c6.7 0 12.2-5.6 12.2-12.2v-191.3c0-31.5 33.8-45.6 67.3-45.6 33.2 0 66.7 14.2 66.7 41.1v195.8c0 6.6 5.6 12.2 12.3 12.2h23.1c6.7 0 12.2-5.6 12.2-12.2v-195.2c0-60.5-56.8-87.5-113-87.5z"/><path d="m854.8 2052c2.8 0 5.7.1 8.7.2 10 .4 20.4.7 31.4.7 25 0 57.1-1.7 83.2-15.8 34-17.7 53-52 49.2-89.2-3.8-38.6-30-69.6-68.5-81.1-13.9-3.8-28.4-5.7-43.1-5.7-14.4 0-29.1 1.9-43 5.7-45.4 12.4-71.5 41.1-71.5 78.3v123.1c0 18.8 4.5 33.9 14.2 47.8 15.4 20.5 42.8 35.2 75 40.2 8 1.2 15.7 1.9 23.7 1.9 8.8 0 18-.9 28.2-2.4 32.2-5 55.7-16.9 71.7-36 4.3-5.1 2.4-12.9-3.3-16.4l-19.1-11.9c-6-3.6-13.5-1.9-18.7 2.7-9.4 8.1-22 13.2-37.8 15.3-14.2 2.7-26.5 2.7-41 0-17.9-3-32.6-10.7-40.4-21-3.6-5.2-5-10.2-5-18v-12.6c0-3.3 2.7-6 6.1-5.8zm-5.9-106.9c0-21.3 25.2-30.6 36.1-33.7 19.2-4.9 42.7-4.9 61.7 0 19.8 5.6 33.8 22 35.5 41.9 1.5 18.8-8.1 35-25.9 43.1-22.5 10.7-54 12-78.9 12-6.3.1-12.1 0-17.3 0-1.8 0-3.4 0-5.1-.1-3.4 0-6.1-2.8-6.1-6.2z"/><path d="m516.4 1912c10.7-2.9 20.9-4.3 31.2-4.3 10.1 0 20.9 1.5 30.5 4.3 8.9 2.3 26.9 8.7 33.9 22.2 3.2 6.2 8.3 11.8 15.1 11.8h22.6c6.7 0 12.3-5.5 11.2-12-4.9-31.6-29.8-55.7-70-66.7-15.6-4-30.1-6-43.3-6-13.7.1-28.3 2.1-43.4 6.1-44.5 12.2-71 41.6-71 78.8v127c0 38.2 26.6 68.1 71.2 80.1 13.7 3.5 28.3 5.2 43.1 5.2 14.7 0 29.4-1.7 43.8-5.5l4-1.5.6-.3c36.3-11.1 59.9-34.8 64.9-64.8 1.1-6.7-4.5-12.3-11.2-12.3h-22.6c-6.7 0-11.9 5.6-14.9 11.9-6.7 13.4-24.1 19.7-32.1 22l-1.8.4c-18.4 4.9-43.5 4.9-61.7 0-13.4-3.9-36.2-13.6-36.2-35.4v-126.4c0-22.6 25.3-31.8 36.1-34.6z"/><path d="m294.7 1986.8c-47.6-6-70.1-11.8-69.6-38.9 0-22.4 23.1-32.3 36.8-36.5 11.1-3.2 23.2-4.7 35-4.7 14.3 0 38.3 2.6 54.1 17.7 4.9 5 12.4 7.3 18.4 3.8l18.1-10.6c6.1-3.6 8.4-11.4 4.5-17.3-24.4-36-74.3-40.1-96-40.1-16.2 0-32.4 2.1-46.7 6.1-44.7 13.1-70.7 42.8-71.3 81.5-.6 71.6 57.7 79.1 109.1 85.7l1.2.1c47.6 6.1 70 11.9 69.6 39 0 22.4-25.8 31.7-36.8 34.8-10.6 2.9-23.1 4.6-35.1 4.6-17.9 0-48.1-3.9-64.7-26.6-3.9-5.3-10.9-8.3-16.9-5.1l-20.2 10.7c-6.2 3.3-9.2 10.7-5.8 16.9 20.1 37.2 68.1 50.7 108.8 50.7 16.3 0 32.3-2.1 46.3-6 44.9-12.5 70.9-41.6 71.5-79.8.6-71.5-60.9-79.6-110.3-86z"/><path d="m742.4 1863.6h-23.1c-6.8 0-12.3 5.6-12.3 12.3v267c0 6.7 5.5 12.2 12.3 12.2h23.1c6.8 0 12.3-5.5 12.3-12.2v-267c0-6.7-5.5-12.3-12.3-12.3z"/><path d="m1417.8 1912c10.7-2.9 20.9-4.3 31.1-4.3s21 1.5 30.6 4.3c8.9 2.3 27 8.7 33.9 22.2 3.2 6.2 8.3 11.8 15.1 11.8h22.6c6.7 0 12.3-5.5 11.2-12-4.9-31.6-29.8-55.7-70-66.7-15.7-4-30.3-6-43.4-6-13.9.1-28.4 2.1-43.6 6.1-44.4 12.2-70.7 41.6-70.7 78.8v127c0 38.2 26.4 68.1 71 80.1 13.9 3.5 28.4 5.2 43.2 5.2 14.9 0 29.4-1.7 43.9-5.5l3.9-1.5.6-.3c36.6-11.1 60-34.8 65-64.8 1.1-6.7-4.5-12.3-11.2-12.3h-22.6c-6.8 0-11.9 5.6-14.9 11.8-6.7 13.5-24.1 19.8-32.1 22.1l-1.9.4c-18.3 5-43.4 4.9-61.5 0-13.6-3.9-36.3-13.6-36.3-35.4v-126.4c0-22.6 25.3-31.8 36.1-34.6z"/><path d="m1852.4 1868.5h9.1v30.5h5.3v-30.5h9.2v-4.9h-23.6z"/><path d="m1896.5 1887.6-9.5-24.1h-6.8v35.4h5.2l-.2-26.6 8.9 21.8h5l8.7-21.8-.1 26.6h5.2v-35.4h-6.8z"/><path d="m1654.6 2052c2.8 0 5.7.1 8.7.2 10 .4 20.4.7 31.4.7 25 0 57.2-1.7 83.2-15.8 34-17.7 53-52 49.2-89.2-3.8-38.6-30-69.6-68.4-81.1-14-3.8-28.6-5.7-43.3-5.7-14.5 0-29 1.9-42.9 5.7-45.5 12.4-71.6 41.1-71.6 78.3v123.1c0 18.8 4.6 33.9 14.2 47.8 15.6 20.5 42.9 35.2 75 40.2 8 1.2 15.7 1.9 23.7 1.9 8.8 0 17.9-.9 28.2-2.4 32.2-5 55.8-16.9 71.7-36 4.3-5.1 2.4-12.9-3.3-16.4l-19.1-11.9c-6-3.6-13.5-1.9-18.7 2.7-9.4 8.1-22 13.2-37.8 15.3-14.3 2.7-26.5 2.7-41 0-18-3-32.6-10.7-40.3-21-3.6-5.2-5.1-10.2-5.1-18v-12.6c0-3.3 2.9-6 6.2-5.8zm-6.2-106.9c0-21.3 25.4-30.6 36.2-33.7 19.2-4.9 42.7-4.9 61.7 0 19.9 5.6 33.8 22 35.5 41.9 1.6 18.8-8.1 35-25.9 43.1-22.4 10.7-54 12-79 12-6 .1-11.9 0-17.3 0-1.7 0-3.4 0-5-.1-3.4 0-6.2-2.8-6.2-6.2z"/><path d="m1972.9 604.9c-5.2-9.8-10.9-19.6-17-29.4-40-64.6-95.6-127.4-161.3-186.4-59.8-53.6-124.8-101.7-192.6-145.2-149.2-95.9-290.6-176.2-440-220.3-57.7-17-136.1-23.4-205-23.6h-5.1c-13.7 0-26.9.3-39.6.8-96.1 3.7-195.8 25.7-295.1 65.2-37.8 14.9-75.6 32.6-113.1 52.7-44.5 23.9-87.3 50.7-128.1 79.8-61.6 44.2-118.2 93.7-168.2 147.3-48.1 51.2-92.1 107.7-128.2 168-14.4 24.1-27.5 48.9-39.2 74.3-25.6 55-38.4 114.5-40.4 176.6v35.8c1 30.7 4.5 61.9 10.2 93.3 12.2 67 34.9 135.3 65.8 202.4 35.7 77.7 82.7 153.9 137.6 225.2 115.8 150 267.3 277.8 425.3 349.9 24.1 11 49.9 19 77.3 24.2 28.2 5.3 56.8 7.7 85.4 7.7 41.8 0 83.4-5 124.1-12.6 81-15.6 167.3-44.6 254.5-83.5 13.2-5.8 26.3-12 39.6-18.3 65.4-31.4 131.1-68 195-108.4 127.5-80.5 247.2-173.7 354.1-278.7 58.5-57.5 109.9-115.9 151.3-172.9 29.7-40.7 54.3-80.7 72.8-119.1 10.6-22.2 18-44.7 22.7-67.6 16.2-80.2-2.9-163.1-42.8-237.2zm-978.5 583.2c-54.4 0-141.7-12.3-156.5-65.9-1.7-5.8-2.4-11.1-2.4-16.2 0-28.2 25.2-42.6 45.5-42.6 3.5 0 6.7.4 9.7 1.1 25.7 6.6 49.4 30.5 101.4 30.5 51.9 0 67.5-20.6 67.5-38.7 0-25.5-26.3-39.5-70-48.6-77.4-15.6-159-38.6-159-138.3 0-83.3 63.3-128.5 137.6-128.5v-.2h1.1c2.3.1 4.6.1 6.7.4 12.7 1.1 38.2 4.4 58.5 14.7 15.9 8.1 24.4 24.3 24.4 41 0 5.8-1.1 11.4-3 16.9-6.5 18.1-21.5 29.1-38.9 29.1-4.4 0-9-.7-13.6-2.2-8.5-2.7-17.8-5.9-30.1-5.9-4.9 0-10.1.6-15.9 1.8-16.1 3.9-29.7 12.3-29.7 29.5 0 23.9 9 30.5 71.6 44.6 98.9 22.2 159 56 159 142.4 0 81.5-64.2 135.1-163.9 135.1zm476.5-348.6c-4.8.8-9.7 1.2-14.9 1.2-6.6 0-13.5-.5-20.6-1.1-7.2-.4-14.5-1-22.1-1-7.4 0-15.1.4-22.9 2-63.6 13-100.1 63.1-100 119.3 0 8.7.8 17.6 2.7 26.6 13.1 64.6 66.3 99.2 131.8 102.7 29.6 1.5 46.5 18.3 48.8 46.4.1.8.1 1.8.1 2.6.1 22.9-18 41.3-38.4 44.6-10.6 1.8-21.1 2.6-31.5 2.6-102.3 0-188.9-82.4-208.5-179.1-3.3-16.2-4.9-32.3-4.9-47.9 0-105.5 72.7-192.8 181.1-214.8 13-2.5 30.4-4.5 48.5-4.5 37.7 0 77.9 9.4 85.1 45.4.8 4.1 1.2 8 1.2 11.7-.1 21.6-12.9 38.7-35.5 43.3zm202.4 295.7c0 27.6-22.4 50-49.9 50-27.6 0-49.9-22.3-49.9-49.9v-340.6c0-27.6 22.3-49.9 49.9-49.9s49.9 22.3 49.9 49.9z"/></g></svg>