<svg enable-background="new 0 0 500.201 179.174" height="179.174" viewBox="0 0 500.201 179.174" width="500.201" xmlns="http://www.w3.org/2000/svg"><g fill="#ff0101" transform="translate(260.80705 139.2842)"><path d="m-133.974-48.45c0-35.896 13.283-58.527 29.142-60.921-15.858-19.489-42.345-29.913-66.396-29.913-26.486 0-50.274 11.499-66.661 29.751 15.636 3.103 20.949 16.226 20.949 36.524h-19.124c0-11.986-2.494-18.191-9.592-18.191-3.186 0-5.659 1.623-7.119 4.381-.203.446-.427.913-.628 1.379-.549 1.543-.853 3.326-.853 5.293 0 24.823 40.763 23.586 40.763 61.752 0 14.887-11.417 28.777-24.274 28.777 16.893 18.455 39.972 29.508 66.539 29.508 25.836 0 49.098-10.932 65.442-28.433-15.067-3.793-28.188-25.474-28.188-59.907m-8.519 59.137h-20.503v-50.983h-22.146v50.983h-20.543v-117.664h20.503v47.394h22.186v-47.394h20.503z"/><path d="m-243.099-8.041c5.719 0 9.774-5.029 9.774-12.351 0-15.189-13.264-18.109-27.479-30.946-.203 25.98 7.848 43.297 17.705 43.297"/><path d="m-113.599-50.349c0-19.813 5.76-39.627 16.285-39.627 12.513 0 15.677 30.623 15.677 40.295 0 21.233-6.692 40.377-15.677 40.377-10.79.002-16.285-20.175-16.285-41.045"/><path d="m91.16-105.345h-16.021-55.466-2.576-12.37l-8.193 67.209h-.324l-9.167-67.209h-18.801l-9.958 67.209h-.323l-7.402-67.209h-18.962l15.271 114.461h18.313l10.302-72.5h.305l9.979 72.5h18.961l12.654-96.776h17.725v96.776h20.909v-96.776h19.124v96.776h20.909v-114.461z"/><path d="m106.306-105.345h27.823l9.309 58.67h.324l9.815-58.67h27.154v114.461h-18.638v-83.918h-.324l-14.154 83.918h-11.56l-13.993-83.918h-.305v83.918h-15.452z"/><path d="m191.006-105.345h47.272v17.685h-26.364v29.244h19.429v18.658h-19.429v31.188h27.479v17.686h-48.388v-114.461z"/></g></svg>