<svg enable-background="new -326.5 140.209 1000 245.582" height="245.582" viewBox="-326.5 140.209 1000 245.582" width="1000" xmlns="http://www.w3.org/2000/svg" xmlns:xlink="http://www.w3.org/1999/xlink"><mask id="a" height="245.58" maskUnits="userSpaceOnUse" width="242.146" x="-80.986" y="140.209"><path d="m-80.986 140.21h242.146v245.579h-242.146z" fill="#fff"/></mask><mask id="b" height="245.579" maskUnits="userSpaceOnUse" width="242.147" x="431.353" y="140.212"><path d="m673.5 140.212v245.579h-242.147v-245.579z" fill="#fff"/></mask><mask id="c" height="122.221" maskUnits="userSpaceOnUse" width="220.834" x="-326.5" y="140.209"><path d="m-326.5 140.21h220.834v122.221h-220.834z" fill="#fff"/></mask><path d="m155.556 140.209h-98.087c-2.189 2.19-3.416 3.418-5.604 5.605v116.616h-24.678v-116.615l-5.604-5.605h-96.964c-2.189 2.19-3.415 3.418-5.604 5.605v117.738l66.425 67.021v49.611c2.189 2.188 3.415 3.412 5.604 5.604h96.966c2.189-2.191 3.415-3.416 5.604-5.604v-50.188l67.546-67.567v-116.615c-2.188-2.188-3.415-3.415-5.604-5.606" mask="url(#a)"/><path d="m667.896 140.212h-98.088c-2.189 2.189-3.415 3.419-5.604 5.607v116.616h-24.678v-116.616c-2.189-2.188-3.414-3.417-5.604-5.607h-96.964c-2.189 2.189-3.416 3.419-5.605 5.607v117.734l66.426 67.021v49.611c2.189 2.189 3.414 3.416 5.604 5.605h96.967c2.189-2.189 3.416-3.416 5.604-5.605v-50.184l67.547-67.567v-116.615c-2.19-2.188-3.417-3.418-5.605-5.607" mask="url(#b)"/><path d="m-111.27 140.209h-166.187l-49.044 49.058v67.573c2.19 2.19 3.417 3.416 5.604 5.59h104.813v-24.106h104.813c2.19-2.19 3.415-3.418 5.604-5.609v-86.9c-2.187-2.188-3.412-3.415-5.603-5.606" mask="url(#c)"/><path d="m-320.895 286.539c-2.189 2.189-3.417 3.418-5.604 5.607v88.037c2.188 2.188 3.415 3.416 5.604 5.605h166.187l49.042-49.057v-68.693c-2.188-2.191-3.415-3.42-5.604-5.607h-104.813v24.107h-104.812z"/><path d="m401.07 140.212h-166.187l-49.043 49.059v190.915c2.189 2.189 3.417 3.416 5.604 5.605h96.967c2.188-2.189 3.415-3.416 5.604-5.605v-30.553h107.055c2.189-2.193 3.414-3.42 5.604-5.609v-75.982c-2.189-2.191-3.414-3.416-5.604-5.606h-107.054v-24.109h107.054c2.189-2.189 3.414-3.417 5.604-5.606v-86.9c-2.19-2.19-3.414-3.42-5.604-5.609"/></svg>