<svg enable-background="new 0 0 1000.486 538.73" height="538.73" viewBox="0 0 1000.486 538.73" width="1000.486" xmlns="http://www.w3.org/2000/svg"><g><path d="m942.465 77.745-29.806-29.77-47.975-47.975h-864.684v390.453l54.461 54.425 54.371 54.382 39.456 39.471h852.199v-402.925zm-173.353 272.041c-66.169-13.476-124.3-32.446-124.3-94.852v-.815c0-56.049 43.818-99.487 125.136-99.487h55.959l77.328 77.985h-124.553c-14.774 0-21.503 5.065-21.503 12.235v.858c0 7.981 8.003 13.046 39.195 18.925 75.429 13.904 126 35.838 126 95.234v.861c0 61.93-50.989 99.867-130.229 99.867h-73.434l-77.865-77.983h143.855c17.69 0 25.28-4.585 25.28-12.612v-.814c.001-8.458-9.259-13.094-40.869-19.402m-288.908-190.664c85.894 0 155.527 69.674 155.527 155.542 0 85.919-69.636 155.542-155.527 155.542-34.035 0-65.479-10.944-91.092-29.483v19.877h-89.62v-383.378h101.713v103.455c23.16-13.669 50.149-21.555 78.999-21.555m-390.26-81.9h105.712v96.764h77.483v105.749h-77.483v180.864l-105.712-105.7z"/><path d="m480.193 368.71c29.815 0 54.018-24.229 54.018-54.047s-24.2-53.996-54.018-53.996c-29.832 0-54.021 24.179-54.021 53.996s24.189 54.047 54.021 54.047"/></g></svg>