<svg enable-background="new 0 0 184.5 88.5" viewBox="0 0 184.5 88.5" xmlns="http://www.w3.org/2000/svg"><g fill="#fff"><path d="m6.1 0h-6.1v88.5h6.1 45.6 6.1v-88.5h-6.1zm39.6 31.8c0 .4-.3.7-.7.7h-9.6c-1.7 0-3 1.4-3 3v30.1c0 .4-.3.7-.7.7h-6.7c-.4 0-.7-.3-.7-.7v-30.1c0-1.7-1.4-3-3-3h-10c-.4 0-.7-.3-.7-.7v-6.7c0-.4.3-.7.7-.7h33.7c.4 0 .7.3.7.7z"/><path d="m69.5 0h-6.1v88.5h6.1 45.6 6.1v-88.5h-6.1zm35.7 65.6c0 .4-.3.7-.7.7h-15.2c-6.4 0-9.1-4.1-9.1-9.4v-31.8c0-.4.3-.7.7-.7h6.7c.4 0 .7.3.7.7v29.3c0 2.1 1.7 3.9 3.9 3.9h12.3c.4 0 .7.3.7.7z"/><path d="m178.4 0h-45.6-6.1v6.1 76.2 6.1h6.1 45.6 6.1v-88.4zm-12.5 35.6c-2.3-2.1-5.4-3.3-8.7-3.3-7.2 0-13.1 5.8-13.1 13s5.8 13 13.1 13c3.3 0 6.4-1.3 8.7-3.3.3-.3.8-.3 1 0l4.7 4.7c.2.3.3.7 0 .9-3.8 3.6-8.9 5.7-14.5 5.7-11.7 0-21.1-9.5-21.1-21.1 0-11.7 9.5-21.1 21.1-21.1 5.6 0 10.7 2.2 14.5 5.8.2.3.2.7 0 .9l-4.7 4.7c-.2.4-.7.4-1 .1z"/></g></svg>