<?xml version="1.0" encoding="utf-8"?>
<!-- Generator: Adobe Illustrator 24.2.3, SVG Export Plug-In . SVG Version: 6.00 Build 0)  -->
<svg version="1.1"
	 id="Layer_1" inkscape:version="0.48.1 " sodipodi:docname="AJAX.svg" xmlns:cc="http://creativecommons.org/ns#" xmlns:dc="http://purl.org/dc/elements/1.1/" xmlns:inkscape="http://www.inkscape.org/namespaces/inkscape" xmlns:rdf="http://www.w3.org/1999/02/22-rdf-syntax-ns#" xmlns:sodipodi="http://sodipodi.sourceforge.net/DTD/sodipodi-0.dtd" xmlns:svg="http://www.w3.org/2000/svg"
	 xmlns="http://www.w3.org/2000/svg" xmlns:xlink="http://www.w3.org/1999/xlink" x="0px" y="0px" viewBox="0 0 184.5 88.5"
	 style="enable-background:new 0 0 184.5 88.5;" xml:space="preserve">
<style type="text/css">
	.st0{fill:#FFFFFF;}
</style>
<sodipodi:namedview  bordercolor="#666666" borderopacity="1" fit-margin-bottom="0" fit-margin-left="0" fit-margin-right="0" fit-margin-top="0" gridtolerance="10" guidetolerance="10" id="namedview62" inkscape:current-layer="Layer_1" inkscape:cx="150.91731" inkscape:cy="10.34051" inkscape:pageopacity="0" inkscape:pageshadow="2" inkscape:window-height="1004" inkscape:window-maximized="1" inkscape:window-width="1280" inkscape:window-x="-8" inkscape:window-y="-8" inkscape:zoom="2.5827641" objecttolerance="10" pagecolor="#ffffff" showgrid="false">
	</sodipodi:namedview>
<g>
	<path class="st0" d="M6.1,0H0v88.5h6.1h45.6h6.1V0h-6.1H6.1z M45.7,31.8c0,0.4-0.3,0.7-0.7,0.7h-9.6c-1.7,0-3,1.4-3,3v30.1
		c0,0.4-0.3,0.7-0.7,0.7H25c-0.4,0-0.7-0.3-0.7-0.7V35.5c0-1.7-1.4-3-3-3h-10c-0.4,0-0.7-0.3-0.7-0.7v-6.7c0-0.4,0.3-0.7,0.7-0.7H45
		c0.4,0,0.7,0.3,0.7,0.7V31.8z"/>
	<path class="st0" d="M69.5,0h-6.1v88.5h6.1h45.6h6.1V0h-6.1H69.5z M105.2,65.6c0,0.4-0.3,0.7-0.7,0.7H89.3c-6.4,0-9.1-4.1-9.1-9.4
		V25.1c0-0.4,0.3-0.7,0.7-0.7h6.7c0.4,0,0.7,0.3,0.7,0.7v29.3c0,2.1,1.7,3.9,3.9,3.9h12.3c0.4,0,0.7,0.3,0.7,0.7V65.6z"/>
	<path class="st0" d="M178.4,0h-45.6h-6.1v6.1v76.2v6.1h6.1h45.6h6.1V0H178.4z M165.9,35.6c-2.3-2.1-5.4-3.3-8.7-3.3
		c-7.2,0-13.1,5.8-13.1,13c0,7.2,5.8,13,13.1,13c3.3,0,6.4-1.3,8.7-3.3l0,0c0.3-0.3,0.8-0.3,1,0l4.7,4.7c0.2,0.3,0.3,0.7,0,0.9
		c-3.8,3.6-8.9,5.7-14.5,5.7c-11.7,0-21.1-9.5-21.1-21.1c0-11.7,9.5-21.1,21.1-21.1c5.6,0,10.7,2.2,14.5,5.8c0.2,0.3,0.2,0.7,0,0.9
		l-4.7,4.7C166.7,35.9,166.2,35.9,165.9,35.6L165.9,35.6z"/>
</g>
</svg>
