<svg enable-background="new 0 0 484.1 186.6" viewBox="0 0 484.1 186.6" xmlns="http://www.w3.org/2000/svg"><path d="m418.2.1c-36.4 0-66 29.5-66 65.9s29.5 65.9 66 65.9c36.4 0 65.9-29.5 65.9-65.9s-29.5-65.9-65.9-65.9zm-2.5 53.9h-13.4l-6.6 38h-13l6.6-38h-14.1l2-11.2h40.4zm24.4 38h-14.5l-5-49.2h12.6l2.6 33.3 17.2-33.2h13.7z"/><path d="m73.9 3.4h-48.7v39.5h-25.2v37.1h25.2v104.5h48.7v-104.5h25.2v-37.1h-25.2z"/><path d="m297 116.8c0 11.6-5.6 24.4-21.3 24.4-16.2 0-21.3-13.2-21.3-24.2l.1-74.2h-48.2v91.5c0 33 21.9 52.3 52.5 52.3 11.7 0 32-2.5 41.7-23v21.1h45v-141.9h-48.5z"/><path d="m151.1 66.7v-23.8h-45v141.8h48.7l.1-64.1c0-19.9 10.6-28.5 36.6-28.5h7.7v-49.2h-5.5c-18.4 0-32.2 5.6-42.6 23.8z"/></svg>