<?xml version="1.0" encoding="UTF-8" standalone="no"?>
<svg
   xmlns:dc="http://purl.org/dc/elements/1.1/"
   xmlns:cc="http://creativecommons.org/ns#"
   xmlns:rdf="http://www.w3.org/1999/02/22-rdf-syntax-ns#"
   xmlns:svg="http://www.w3.org/2000/svg"
   xmlns="http://www.w3.org/2000/svg"
   viewBox="0 0 1684 739.01331"
   height="739.01331"
   width="1684"
   xml:space="preserve"
   id="svg2"
   version="1.1"><metadata
     id="metadata8"><rdf:RDF><cc:Work
         rdf:about=""><dc:format>image/svg+xml</dc:format><dc:type
           rdf:resource="http://purl.org/dc/dcmitype/StillImage" /></cc:Work></rdf:RDF></metadata><defs
     id="defs6" /><g
     transform="matrix(1.3333333,0,0,-1.3333333,0,739.01333)"
     id="g10"><g
       transform="scale(0.1)"
       id="g12"><path
         id="path14"
         style="fill:#d91e25;fill-opacity:1;fill-rule:nonzero;stroke:none"
         d="m 11060.2,5013.91 c -345.7,330.34 -811.8,510.18 -1286.79,527.19 -473.94,17.55 -952.98,-121.74 -1340.21,-396.05 -339.04,-240.14 -602,-577.39 -782.65,-948.85 -222.18,196.16 -451.99,386.09 -729.61,498.31 -257.86,104.83 -570.3,153.13 -832.91,34.84 -118.82,-53.39 -221.15,-140.4 -286.7,-253.42 -66.28,-115.09 -93.26,-252.32 -78.8,-384.42 14.21,-127.7 70.17,-242.23 161.94,-332.17 96.74,-94.2 219.74,-155.88 343.83,-206.38 142.46,-58.24 290.5,-99.86 437.4,-144.42 140.14,-42.76 279.6,-86.74 416.53,-138.74 264.79,-100.73 525.16,-232.56 730.72,-431.06 411.76,-399.52 544.73,-1005.14 475.69,-1560.84 -19.18,-156.56 -56.58,-310.99 -112.75,-458.584 -13.55,-34.738 -27.25,-69.308 -42.57,-103.05 -4.31,-8.973 -10.69,-26.289 -10.69,-26.289 0,0 33.32,-36.539 48.12,-50.75 46.44,-46.403 95.46,-90.633 146.25,-132.793 187.34,-155.114 401.21,-277.282 629.12,-363.153 452.68,-169.9138 963.39,-195.9294 1423.48,-39.16 257.9,88.117 500.1,233.641 690.6,430.223 V 77.418 H 12630 V 5468.07 H 11060.2 Z M 10013.7,1425.94 c -245.26,0 -477.93,97.77 -660.27,258.37 -196.17,172.09 -330.3,406.56 -402.72,656.16 -146.87,508.63 -27.5,1106.93 356.49,1484.16 180.26,176.94 417.21,287.48 671.07,294.96 254.03,8 504.53,-86.61 697.93,-250.54 335.8,-285.23 489.4,-749.37 468.1,-1181.39 -21.9,-433.95 -227.1,-876.32 -605.3,-1110.95 -157.2,-97.4 -340.7,-150.77 -525.3,-150.77 M 5221.82,2298.8 c -73.52,28.9 -146.21,60.61 -216.62,95.34 -133.25,66.54 -261.59,145.22 -377.24,240.26 -211.45,175.42 -366.32,405.31 -458.51,663.87 -94.32,264.51 -127.75,552.79 -110.95,832.93 17.32,299.5 97.81,594.57 246.27,856.16 116.37,205.28 270.69,387.59 451.02,539.49 -333.03,0 -1581.45,-0.54 -1581.45,-0.54 0,0 -2.56,-1667.9 -2.56,-2332.47 v -497.71 c 0,-154.25 -3.25,-309.06 -21.92,-462.23 -33.88,-272.1 -122.03,-588.99 -378.71,-732.58 -124.22,-69.44 -269.11,-90.18 -409.81,-85.07 -141.23,4.69 -284.01,40.77 -397.43,128.23 -224.86,172.75 -295.7,483.04 -320.71,751.01 -14.48,148.42 -14.48,297.54 -14.48,446.25 v 498.99 2285.58 L 1.13672,5527.15 c 0,0 1.11328,-2219.6 -1.04297,-2884.16 C -0.851563,2319.82 3.76563,1994.37 71.082,1677 129.586,1396.75 233.965,1123.27 395.738,886.285 552.137,656.234 761.934,468.93 1003.59,332.551 1263.1,185.477 1553.95,100.672 1848.28,57.6523 2143.96,14.2148 2448.1,8.69531 2745.71,34.1211 c 284.55,24.6328 567.86,82.1799 831.58,191.7539 250.75,104.434 478.73,256.199 662.58,456.199 175.09,190.926 307.36,418.456 395.24,661.376 7.03,19.66 14.04,39.88 20.53,59.51 193.58,-190.75 406.2,-367.84 649.47,-491.769 239.12,-122.613 519.71,-195.339 788.61,-147.902 133,23.531 260.58,80.387 358.32,174.297 93.46,88.844 155.15,207.244 177.54,333.934 21.05,119.54 9.73,246.23 -43.4,356.49 -49.13,101.29 -130.27,183.44 -223.25,246.13 -133.93,91.46 -292.88,147.31 -447.13,197.55 -171.67,56.02 -428.98,131.25 -490.53,152.71 -62.41,21.16 -169.6,60.72 -203.45,74.4" /></g></g></svg>