<svg enable-background="new 0 0 9991.5 3905.8" viewBox="0 0 9991.5 3905.8" xmlns="http://www.w3.org/2000/svg"><g transform="matrix(.17675119 0 0 .17675119 26.477926 1437.9258)"><path d="m39700.2 6637.3v6924.1c0 204.1-191.2 400.9-400.9 400.9h-5778c-203.9 0-410.4-113.3-410.4-432.5v-6889.1c0-318.6-164.7-453.1-499.2-453.1h-7592.9l226.3-6589.2h7357.6c342.5 0 508.2-153.1 508.2-465v-6654c0-375.5 161.9-614.8 613.4-614.8h5474.7c307.5 0 501.1 188.7 501.1 501.1v6767.9c0 285.2 78.8 464.8 503.6 464.8h5886.6v6178.7c0 203.9-113.5 410.4-432.7 410.4h-5452.5c-377.79999999999.1-504.89999999999 180.8-504.89999999999 449.8z" fill="#6d15a0"/><g fill="#941bc8"><path d="m12635.1 13962.3h-4603.6c-383.7 0-527.8-324.2-654.5-716.1l-7460.7-20803.5c-104.6-275.1-135.1-577.1 295.3-577.1h5928c424.8-2.2 561.8 228.3 706.9 657.7l3301.8 10703.8c96.6 325.4 275.5 335.6 378.4-12.6l3339.1-10855.3c66.5-252.6 256-494.4 614.7-494.4h12470.1c307.5 0 501.1 188.7 501.1 501.1v21195.7c0 204.1-191.2 400.9-400.9 400.9h-5818.1c-203.9 0-410.4-113.3-410.4-432.5v-20398.3c0-232.7-202.7-330.7-330.4 0l-7194.1 20159.5c-122.09999999999 334-279.39999999999 671.1-662.69999999999 671.1z"/><path d="m55877.9-8135.3c307.4 0 501.1 188.7 501.1 501.1v21195.7c0 204.1-191.2 400.9-400.9 400.9h-5778c-203.9 0-410.4-113.3-410.4-432.5v-13444.7c0-294.1-150-486.6-451.5-486.6h-3247.9v-4150.6c0-332.1 132.5-484.9 442.9-733.9l3011.8-2284.2c445.6-328.2 652.4-565.3 1081.9-565.3h5251z"/></g></g></svg>