<svg height="398.108" viewBox="0 0 1480.54 398.108" width="1480.54" xmlns="http://www.w3.org/2000/svg" xmlns:xlink="http://www.w3.org/1999/xlink"><mask id="a" fill="#fff"><path d="m1261.4963 399h-1261.4963v-398.108h1261.4963z" fill="#fff" fill-rule="evenodd" height="100%" width="100%"/></mask><g fill-rule="evenodd" transform="translate(0 -.892)"><path d="m830.452 100.156c10.494 11.952 33.456 11.436 47.116 20.204-18.435 4.734-41.647 4.716-58.351 11.199 3.937-10.287 7.468-20.963 11.235-31.403"/><g><path d="m700.295 141.658c-5.517 25.174-17.075 53.989-23.552 81.904 35.662.504 73.276-6.763 109.941-8.968 4.964-6.636 7.4-15.787 10.111-24.683 7.352 10.409 12.529 29.884 5.614 44.868-55.69-.771-95.721 44.826-150.348 44.88105-24.464.029-45.258-14.05005-33.67-41.51505 16.358-38.754 56.924-65.819 81.904-96.487" mask="url(#a)"/><path d="m870.854 55.27c-14.243 1.722-24.354 17.29-33.657 22.44.674-.067 1.313-.176 1.093-1.13 1.714-7.66 4.965-13.758 5.621-22.428-74.667-26.3-147.334 12.153-200.825 41.502-42.773 23.467-80.938 51.035-107.717 78.537 9.679-16.497 19.955-32.819 31.421-48.235 11.618-15.658 24.567-29.811 34.793-43.755-22.367-5.855-44.789-12.038-67.345-16.839-32.065-6.821-76.659-18.131-103.22-3.366-7.686 4.266-13.97 14.771-21.315 15.714-6.077.79-16.085-3.652-23.571-4.485-27.417-3.044-52.64-.504-77.414 4.485-23.205 4.648-72.273 12.9-78.555 34.769-4.03 14.042 4.945 27.654 3.372 41.538-1.537 13.666-14.657 31.731-21.319 42.632-8.158 13.357-16.449 25.194-30.303 31.404-8.401-41.8.741-78.976 7.865-114.432 4.397-21.845 13.253-44.206 5.618-66.208-21.389-2.969-39.412 13.963-60.597 22.431-39.797 15.929-84.128 30.44-89.755 76.304-3.172 25.825 6.535 42.256 13.466 60.594 14.844 39.406 33.201 72.766 54.985 103.227-5.936 10.914-19.925 13.756-21.337 29.148 6.334 8.969 19.52 10.142 32.548 10.111 37.652-.085 68.521-19.025 96.485-34.787 60.888-34.247 101.801-86.996 144.749-136.877 7.546-8.775 13.757-19.341 23.576-24.677 9.656 44.322-9.12 68.013-22.464 104.333-5.141 13.993-21.371 57.78-13.459 78.519 8.665 22.822 82.524 23.82 102.108 9.018 9.868-7.456 13.793-24.313 19.092-34.788 6.757-13.472 12.609-25.115 17.944-37.024.297 49.153 36.81 63.584 76.289 74.047 83.91 22.186 168.523-17.445 214.297-44.861-5.724 36.415 8.422 40.067 37.036 46.004 73.993 15.269 148.508-2.358 208.691-16.856 55.18-13.29 99.55-22.672 107.73-77.426-8.84-7.637-30.91-6.69-46.01-4.472-44.49 6.508-87.58 29.014-146.981 24.677-10.834-.791-34.246-4.577-35.93-11.206-2.606-10.36 15.933-17.609 31.458-20.198 44.522-7.541 108.873.067 144.713-13.49 17.22-6.495 37.98-25.241 35.89-45.998-1.36-14.012-19.66-21.346-37.02-22.416-49.1-3.068-84.192 25.588-135.726 15.702 6.441-8.149 7.601-21.553 15.689-28.055 37.677-.79 74.297 6.702 109.957 4.49 49.59-3.105 77.54-23.984 100.99-51.613 2.51-2.977 8.8-6.18 6.73-11.211-86.12-13.101-203.513-47.803-309.686-34.793m390.446 4.49c1.36 5.417-4.68 10.615-7.83 14.593-26.4 33.18-55.69 72.421-90.87 97.608 2.54 13.204 1.19 30.717-3.4 40.378 9.22 11.776 18.99 22.927 24.69 38.166-7.49 39.801-24.91 70.699-52.72 90.886-27.16 19.68-63.87 27.434-105.49 37.022-80.493 18.552-212.941 36.854-272.654-11.234-64.659 37.928-195.338 42.942-255.811-2.243-42.997 54.403-212.584 49.638-187.36-58.334-31.44 23.801-77.943 56.639-122.315 75.172-51.447 21.468-148.889 19.062-139.142-53.855 1.17-8.684 4.837-13.594 8.975-21.317-15.045-26.274-24.558-44.492-33.657-67.333-8.723-21.899-22.027-46.812-23.568-77.407-3.253-65.055 47.445-106.306 97.637-125.666 25.627-9.908 46.441-24.206 71.807-31.415 37.914-10.799 70.427 10.059 72.917 44.886 44.085-13.086 97.765-27.527 155.976-19.083 46.351-36.036 136.866-13.766 196.36 3.357 13.447 3.877 31.554 13.903 41.508 13.472 8.44-.343 23.68-11.789 32.521-15.708 41.745-18.503 96.311-38.202 155.976-28.043 11.29 1.911 21.632 7.891 33.644 8.976 8.173.731 18.145-1.827 26.944-2.237 139.412-6.805 255.492 30.613 375.862 49.359" mask="url(#a)"/></g><path d="m1259.36 207.301h-38.17v-34.923h118.32v34.923h-38.16v101.335h-41.99z"/><path d="m1437.98 308.636h-46.95l-40.65-136.258h42.37l22.33 82.633h.38l21.95-82.633h43.13z"/></g></svg>