<?xml version="1.0" encoding="UTF-8" standalone="no"?>
<svg
   xmlns:dc="http://purl.org/dc/elements/1.1/"
   xmlns:cc="http://creativecommons.org/ns#"
   xmlns:rdf="http://www.w3.org/1999/02/22-rdf-syntax-ns#"
   xmlns:svg="http://www.w3.org/2000/svg"
   xmlns="http://www.w3.org/2000/svg"
   xmlns:xlink="http://www.w3.org/1999/xlink"
   xmlns:sodipodi="http://sodipodi.sourceforge.net/DTD/sodipodi-0.dtd"
   xmlns:inkscape="http://www.inkscape.org/namespaces/inkscape"
   inkscape:version="1.0beta1 (32d4812, 2019-09-19)"
   sodipodi:docname="vice-tv-logo-white.svg"
   id="svg851"
   version="1.1"
   viewBox="0 0 1480.54 398.108"
   height="398.108"
   width="1480.54">
  <metadata
     id="metadata855">
    <rdf:RDF>
      <cc:Work
         rdf:about="">
        <dc:format>image/svg+xml</dc:format>
        <dc:type
           rdf:resource="http://purl.org/dc/dcmitype/StillImage" />
        <dc:title>VICE_TV_LOGO_PRIMARY_DIGITAL_WHITE</dc:title>
      </cc:Work>
    </rdf:RDF>
  </metadata>
  <sodipodi:namedview
     inkscape:current-layer="VICE_TV_LOGO_PRIMARY_DIGITAL_WHITE"
     inkscape:window-maximized="0"
     inkscape:window-y="23"
     inkscape:window-x="0"
     inkscape:cy="531.42857"
     inkscape:cx="514.28571"
     inkscape:zoom="0.35"
     showgrid="false"
     id="namedview853"
     inkscape:window-height="907"
     inkscape:window-width="1600"
     inkscape:pageshadow="2"
     inkscape:pageopacity="0"
     guidetolerance="10"
     gridtolerance="10"
     objecttolerance="10"
     borderopacity="1"
     inkscape:document-rotation="0"
     bordercolor="#666666"
     pagecolor="#ffffff" />
  <!-- Generator: Sketch 55.2 (78181) - https://sketchapp.com -->
  <title
     id="title833">VICE_TV_LOGO_PRIMARY_DIGITAL_WHITE</title>
  <desc
     id="desc835">Created with Sketch.</desc>
  <defs
     id="defs838">
    <polygon
       points="1261.4963,399 0,399 0,0.892 1261.4963,0.892 "
       id="path-1" />
  </defs>
  <g
     style="fill:#000000"
     transform="translate(0,-0.892)"
     fill-rule="evenodd"
     fill="none"
     stroke-width="1"
     stroke="none"
     id="VICE_TV_LOGO_PRIMARY_DIGITAL_WHITE">
    <path
       style="fill:#000000"
       inkscape:connector-curvature="0"
       fill="#FEFDFC"
       id="Fill-1"
       d="m 830.452,100.156 c 10.494,11.952 33.456,11.436 47.116,20.204 -18.435,4.734 -41.647,4.716 -58.351,11.199 3.937,-10.287 7.468,-20.963 11.235,-31.403" />
    <g
       style="fill:#000000"
       id="Group-5">
      <mask
         fill="white"
         id="mask-2">
        <use
           height="100%"
           width="100%"
           y="0"
           x="0"
           id="use841"
           xlink:href="#path-1" />
      </mask>
      <g
         style="fill:#000000"
         id="Clip-3" />
      <path
         style="fill:#000000"
         inkscape:connector-curvature="0"
         mask="url(#mask-2)"
         fill="#FEFDFC"
         id="Fill-2"
         d="m 700.295,141.658 c -5.517,25.174 -17.075,53.989 -23.552,81.904 35.662,0.504 73.276,-6.763 109.941,-8.968 4.964,-6.636 7.4,-15.787 10.111,-24.683 7.352,10.409 12.529,29.884 5.614,44.868 -55.69,-0.771 -95.721,44.826 -150.348,44.88105 -24.464,0.029 -45.258,-14.05005 -33.67,-41.51505 16.358,-38.754 56.924,-65.819 81.904,-96.487" />
      <path
         style="fill:#000000"
         inkscape:connector-curvature="0"
         mask="url(#mask-2)"
         fill="#FEFDFC"
         id="Fill-4"
         d="m 870.854,55.27 c -14.243,1.722 -24.354,17.29 -33.657,22.44 0.674,-0.067 1.313,-0.176 1.093,-1.13 1.714,-7.66 4.965,-13.758 5.621,-22.428 -74.667,-26.3 -147.334,12.153 -200.825,41.502 -42.773,23.467 -80.938,51.035 -107.717,78.537 9.679,-16.497 19.955,-32.819 31.421,-48.235 11.618,-15.658 24.567,-29.811 34.793,-43.755 -22.367,-5.855 -44.789,-12.038 -67.345,-16.839 -32.065,-6.821 -76.659,-18.131 -103.22,-3.366 -7.686,4.266 -13.97,14.771 -21.315,15.714 -6.077,0.79 -16.085,-3.652 -23.571,-4.485 -27.417,-3.044 -52.64,-0.504 -77.414,4.485 -23.205,4.648 -72.273,12.9 -78.555,34.769 -4.03,14.042 4.945,27.654 3.372,41.538 -1.537,13.666 -14.657,31.731 -21.319,42.632 -8.158,13.357 -16.449,25.194 -30.303,31.404 -8.401,-41.8 0.741,-78.976 7.865,-114.432 4.397,-21.845 13.253,-44.206 5.618,-66.208 -21.389,-2.969 -39.412,13.963 -60.597,22.431 -39.797,15.929 -84.128,30.44 -89.755,76.304 -3.172,25.825 6.535,42.256 13.466,60.594 14.844,39.406 33.201,72.766 54.985,103.227 -5.936,10.914 -19.925,13.756 -21.337,29.148 6.334,8.969 19.52,10.142 32.548,10.111 37.652,-0.085 68.521,-19.025 96.485,-34.787 60.888,-34.247 101.801,-86.996 144.749,-136.877 7.546,-8.775 13.757,-19.341 23.576,-24.677 9.656,44.322 -9.12,68.013 -22.464,104.333 -5.141,13.993 -21.371,57.78 -13.459,78.519 8.665,22.822 82.524,23.82 102.108,9.018 9.868,-7.456 13.793,-24.313 19.092,-34.788 6.757,-13.472 12.609,-25.115 17.944,-37.024 0.297,49.153 36.81,63.584 76.289,74.047 83.91,22.186 168.523,-17.445 214.297,-44.861 -5.724,36.415 8.422,40.067 37.036,46.004 73.993,15.269 148.508,-2.358 208.691,-16.856 55.18,-13.29 99.55,-22.672 107.73,-77.426 -8.84,-7.637 -30.91,-6.69 -46.01,-4.472 -44.49,6.508 -87.58,29.014 -146.981,24.677 -10.834,-0.791 -34.246,-4.577 -35.93,-11.206 -2.606,-10.36 15.933,-17.609 31.458,-20.198 44.522,-7.541 108.873,0.067 144.713,-13.49 17.22,-6.495 37.98,-25.241 35.89,-45.998 -1.36,-14.012 -19.66,-21.346 -37.02,-22.416 -49.1,-3.068 -84.192,25.588 -135.726,15.702 6.441,-8.149 7.601,-21.553 15.689,-28.055 37.677,-0.79 74.297,6.702 109.957,4.49 49.59,-3.105 77.54,-23.984 100.99,-51.613 2.51,-2.977 8.8,-6.18 6.73,-11.211 C 1094.42,76.962 977.027,42.26 870.854,55.27 m 390.446,4.49 c 1.36,5.417 -4.68,10.615 -7.83,14.593 -26.4,33.18 -55.69,72.421 -90.87,97.608 2.54,13.204 1.19,30.717 -3.4,40.378 9.22,11.776 18.99,22.927 24.69,38.166 -7.49,39.801 -24.91,70.699 -52.72,90.886 -27.16,19.68 -63.87,27.434 -105.49,37.022 -80.493,18.552 -212.941,36.854 -272.654,-11.234 -64.659,37.928 -195.338,42.942 -255.811,-2.243 -42.997,54.403 -212.584,49.638 -187.36,-58.334 -31.44,23.801 -77.943,56.639 -122.315,75.172 -51.447,21.468 -148.889,19.062 -139.142,-53.855 1.17,-8.684 4.837,-13.594 8.975,-21.317 C 42.328,280.328 32.815,262.11 23.716,239.269 14.993,217.37 1.689,192.457 0.148,161.862 -3.105,96.807 47.593,55.556 97.785,36.196 123.412,26.288 144.226,11.99 169.592,4.781 207.506,-6.018 240.019,14.84 242.509,49.667 286.594,36.581 340.274,22.14 398.485,30.584 c 46.351,-36.036 136.866,-13.766 196.36,3.357 13.447,3.877 31.554,13.903 41.508,13.472 8.44,-0.343 23.68,-11.789 32.521,-15.708 41.745,-18.503 96.311,-38.202 155.976,-28.043 11.29,1.911 21.632,7.891 33.644,8.976 8.173,0.731 18.145,-1.827 26.944,-2.237 C 1024.85,3.596 1140.93,41.014 1261.3,59.76" />
    </g>
    <polyline
       style="fill:#000000"
       points="1259.36 207.301 1221.19 207.301 1221.19 172.378 1339.51 172.378 1339.51 207.301 1301.35 207.301 1301.35 308.636 1259.36 308.636 1259.36 207.301"
       fill="#FEFDFC"
       id="Fill-6" />
    <polyline
       style="fill:#000000"
       points="1437.98 308.636 1391.03 308.636 1350.38 172.378 1392.75 172.378 1415.08 255.011 1415.46 255.011 1437.41 172.378 1480.54 172.378 1437.98 308.636"
       fill="#FEFDFC"
       id="Fill-7" />
  </g>
</svg>
