<svg viewBox="0 0 1000 519.23" xmlns="http://www.w3.org/2000/svg"><path d="m437.20268 432.7129c0-1.37095-.70417-2.29322-1.77393-3.09086 0 0-.8018-.62316-1.23904-.92228l3.44814-4.16789c.0976.13398 1.20789 1.46962 1.20789 1.46962h8.53934v3.72129h-8.53934v2.65258l9.10122.006.001 4.00068-12.87029-.001c1.34498-.69482 2.12497-2.03358 2.12497-3.66833m3.1511-9.43669c-.58785-.67717-.60966-.75922-.82257-1.00225l2.68893-3.25392 5.71332.001.001 4.25305zm-17.5606 3.13345 1.71784 5.14001 1.67629-5.14001zm7.54125 9.97261-8.79276.001-6.90667-17.36222 5.84315-.002 1.12895 3.22173 5.46822-.005c-.1963.59511-.29912 1.26293-.29912 2.00345 0 2.26726 1.60567 3.73791 3.1106 4.75989-.70313.82257-1.72511 2.06888-1.72511 3.76387 0 1.62645.78206 2.93508 2.17274 3.61952m2.78967-5.18987c.55877.39882.99498.87242.99498 1.49558 0 .82256-.53384 1.44572-1.43326 1.44572-.94824 0-1.43327-.62316-1.43327-1.44572 0-.64809.5328-1.27125 1.14038-1.99411.24407.14956.73117.49853.73117.49853m-3.11475-7.02611c0-1.4717 1.35953-2.80214 2.81668-2.80214 1.02094 0 1.77496.32301 2.57676 1.04587l-3.6434 4.47324c-1.04691-.74779-1.75004-1.44573-1.75004-2.71697" transform="matrix(30.01831 0 0 -29.90252 -12446.64118 13048.952905)"/></svg>