<svg height="626.59833" viewBox="0 0 1000 587.43591" width="1066.6666" xmlns="http://www.w3.org/2000/svg"><path d="m981.21638 468.5582v17.27869h16.58756v18.66111h-16.58756v29.0282c0 5.93359 2.41725 8.83219 9.47765 8.83219 3.16463 0 7.24856-1.06339 7.24856-1.06339l2.05741 17.2739s-5.31709 2.1584-15.08472 2.1584c-18.22294 0-27.88922-8.9819-27.88922-25.81881v-30.41049h-10.7819v-18.66111h10.7819v-17.27869zm-78.6615 14.5749c-22.62939 0-38.92036 14.632-38.92036 38.9205 0 23.75509 16.46101 38.8771 43.32643 38.8771 13.25552 0 26.35008-5.918 26.35008-5.918l-5.31321-17.1922s-8.93379 4.57869-19.09301 4.57869c-12.76355 0-18.7068-7.1772-20.30251-13.69329h52.52733c.74296-24.7954-9.51174-45.5728-38.57475-45.5728zm1.03672 17.4516c8.38721 0 14.43825 5.8794 15.52253 13.60699h-30.90061c.86354-8.30449 8.51274-13.60699 15.37808-13.60699zm-125.57322 57.8229v-72.57071h23.91377v9.51831s7.9485-12.28491 25.51409-12.28491c19.84912 0 26.59858 12.58251 26.59858 28.3392v46.99811h-23.91377v-38.7044c0-12.2343-4.72238-17.2705-12.59122-17.2705-9.01034 0-15.60768 7.7895-15.60768 20.03509v35.93981zm-182.72266-75.2745c22.61802 0 36.67412 18.25729 36.67412 38.35879 0 23.154-16.75985 39.52521-37.06289 39.52521-14.96173 0-24.23343-10.8856-24.23343-10.8856v37.3044h-23.75828v-101.58131h23.75828v8.985s8.07669-11.70649 24.6222-11.70649zm-6.99789 20.0434c-10.74565 0-18.31546 10.6581-18.31546 18.7043 0 11.0193 8.58734 18.53149 18.31546 18.53149 9.25854 0 18.83382-6.26109 18.83382-18.402 0-9.61279-7.92725-18.83379-18.83382-18.83379zm53.25755 55.2311v-101.60021h24.19023v101.60021zm71.02696-75.2745c-22.61802 0-36.67412 18.25729-36.67412 38.35879 0 23.154 16.75985 39.52521 37.06289 39.52521 14.96173 0 24.23343-10.8856 24.23343-10.8856v8.2938h23.75827v-72.57071h-23.75827v8.985s-8.07668-11.70649-24.6222-11.70649zm6.99789 20.0434c10.74564 0 18.31546 10.6581 18.31546 18.7043 0 11.0193-8.58734 18.53149-18.31546 18.53149-9.25855 0-18.83383-6.26109-18.83383-18.402 0-9.61279 7.92725-18.83379 18.83383-18.83379zm-244.81533 55.2311v-101.60021h24.19023v101.60021zm-65.35595-75.2745c-22.61802 0-36.67412 18.25729-36.67412 38.35879 0 23.154 16.75985 39.52521 37.06289 39.52521 14.96173 0 24.23343-10.8856 24.23343-10.8856v8.2938h23.75828v-72.57071h-23.75828v8.985s-8.07668-11.70649-24.6222-11.70649zm6.99789 20.0434c10.74566 0 18.31546 10.6581 18.31546 18.7043 0 11.0193-8.58734 18.53149-18.31546 18.53149-9.25854 0-18.83382-6.26109-18.83382-18.402 0-9.61279 7.92725-18.83379 18.83382-18.83379zm-105.60554 20.6736v34.5575h-23.91377v-38.7044c0-12.2343-4.72238-17.2705-12.59121-17.2705-9.01033 0-15.60769 7.7895-15.60769 20.03509v35.93981h-23.91379v-72.57071h23.91379v9.51831s7.94849-12.28491 25.51408-12.28491c12.17521 0 19.42173 4.73411 23.20511 12.0309 0 0 7.81124-12.10599 27.88789-12.10599 18.83075 0 28.03295 11.4566 28.03295 27.032v48.3804h-23.91377v-38.7044c0-9.4383-3.71564-17.4957-12.59966-17.4957-9.07989 0-16.01393 8.18649-16.01393 21.6426zm-90.72704-64.929a14.06283 14.06283 0 0 1 -14.06283 14.0628 14.06283 14.06283 0 0 1 -14.06282-14.0628 14.06283 14.06283 0 0 1 14.06282-14.06281 14.06283 14.06283 0 0 1 14.06283 14.06281zm-26.35369 99.4865v-72.57071h24.19023v72.57071zm-91.64642 0v-72.57071h23.91377v9.51831s7.9485-12.28491 25.51409-12.28491c19.84914 0 26.59858 12.58251 26.59858 28.3392v46.99811h-23.91377v-38.7044c0-12.2343-4.72238-17.2705-12.59122-17.2705-9.01032 0-15.60768 7.7895-15.60768 20.03509v35.93981zm-65.400028-75.2745c-22.618021 0-36.674122 18.25729-36.674122 38.35879 0 23.154 16.759851 39.52521 37.062893 39.52521 14.961719 0 24.23343-10.8856 24.23343-10.8856v8.2938h23.758265v-72.57071h-23.758265v8.985s-8.0767-11.70649-24.622201-11.70649zm6.997889 20.0434c10.745648 0 18.315461 10.6581 18.315461 18.7043 0 11.0193-8.587346 18.53149-18.315461 18.53149-9.258543 0-18.833831-6.26109-18.833831-18.402 0-9.61279 7.927256-18.83379 18.833831-18.83379z"/><path d="m559.86995-.000023v115.160013s17.88398 14.6373 26.39083 26.39089c-43.81077-28.5832-90.3559-40.5889-146.95315-40.5889-93.16725 0-177.99619 43.1656-219.87618 114.61291l5.40565 10.1601s18.22324-21.90951 60.32839-43.3983c-45.98998 45.3681-65.25252 81.5594-93.52929 165.0073l44.85533 44.67101c58.68935-65.66551 145.03706-109.05271 242.51353-109.05271 92.23502 0 177.16582 41.28 230.26348 96.15811l48.31847-48.46371c-27.08687-46.3562-62.2598-89.1099-90.21734-118.7932 28.92599 16.5189 75.10789 25.96699 119.22137 25.96699 77.17423 0 133.88198-41.55309 133.88198-98.1301 0-69.695101-59.75523-112.109802-157.21984-128.237703l-15.76106 26.442202c49.04925 8.746999 125.3556 37.295 125.3556 88.294001 0 27.9757-21.64166 51.44091-52.82244 51.44091-38.53672 0-70.54036-42.975-89.98756-80.92421l-29.76365-.7164c-34.16006-42.271401-89.38476-83.522002-140.40412-95.999203z" fill="#0074ff"/></svg>