<svg height="25.422331mm" viewBox="0 0 300.00013 90.079125" width="84.666702mm" xmlns="http://www.w3.org/2000/svg"><g transform="matrix(2.703086 0 0 2.703086 -2403.4873 -510.51212)"><path d="m961.93106 190.4895v5.305c0 .4175-.30875.6125-.685.43375 0 0-4.51375-2.14375-7.375-2.1625-1.13625-.008-2.3725.0687-3.4075.57625-.87.43-1.51625 1.3125-1.355 2.32375.10625.64125.64375 1.11 1.1675 1.4425.90375.57375 1.95875.90625 2.98375 1.1875 1.3825.375 2.80125.63375 4.17125 1.045 2.08875.6275 4.155 1.715 5.2775 3.66125.575 1.0025.86875 2.13875.97625 3.2825.11125 1.20375.0538 2.45-.25625 3.62125-.53375 2.0125-1.90125 3.56875-3.765 4.45875-2.145 1.02-4.6225 1.23625-6.96625 1.2125-2.9425-.0263-5.87125-.51875-8.6925-1.33625l-.35125-.1025c-.385-.12-.69625-.27625-.69625-.29375v-.50875-1.94625-2.77375c0-.41875.31125-.61875.69125-.445 0 0 4.62375 2.11125 7.51375 2.32375 1.25125.0913 2.575.0725 3.7875-.27125.965-.27125 1.93625-.84375 2.18125-1.8875.23375-.99875-.10875-2.145-.98375-2.72625-.7475-.49625-1.67875-.75375-2.535-.99875-1.5825-.45625-3.2175-.70625-4.79625-1.18-2.05375-.6175-4.1425-1.64625-5.28375-3.55125-.595-.9925-.88875-2.1325-.97375-3.2825-.0863-1.17125.0112-2.37875.39125-3.49875.69375-2.04375 2.33875-3.5375 4.2925-4.36625 2.33625-.9875 4.97125-1.1125 7.47375-.96375 2.455.14375 4.89125.6125 7.215 1.42125 0 0-1.40375-.49 0 0"/><path d="m904.70544 203.84987c-.6275 0-1.6525.0375-2.27875.085 0 0-3.27625.2475-4.30375.9125-1.03125.665-1.545 1.80625-1.545 3.4225 0 1.20375.3575 2.1625 1.0675 2.875.71375.71125 1.68125 1.06875 2.9 1.06875 1.83875 0 3.265-.69375 4.28-2.07875 1.01125-1.38625 1.51875-3.3225 1.51875-5.81125 0-.26125-.5125-.47375-1.13875-.47375zm8.55375-2.6875v14.045c0 .62625-.5125 1.1425-1.14125 1.1425h-4.6325c-.6275 0-1.14125-.51625-1.14125-1.1425v-.68875c0-.625-.3475-.76375-.77375-.3025 0 0-1.14125 1.2375-2.4575 1.87125s-2.765.95125-4.34875.95125c-3.025 0-5.3825-.8-7.07-2.39875-1.6875-1.6025-2.53-3.83625-2.53-6.7025 0-3.10625 1.00625-5.39875 3.01625-6.88 2.01375-1.48125 5.1275-2.2225 9.34-2.2225h3.685c.62625 0 1.13875-.26125 1.13875-.5825s-.10375-1.085-.23-1.7c0 0-.17625-.8575-.9925-1.43625-.8175-.57875-2.0175-.86625-3.60125-.86625-1.665 0-3.275.20875-4.83625.6275-1.56125.42-3.18625 1.09125-4.88125 2.00875v-4.80125c0-.625.48125-1.31125 1.07375-1.5225 0 0 2.0225-.71875 3.60625-1.02125 1.58375-.29875 3.265-.45 5.0375-.45 4.32375 0 7.3625.88125 9.11375 2.63875 1.75 1.75875 2.625 4.9025 2.625 9.4325"/><path d="m942.47906 189.431h-11.41625c-.5525 0-1.205.4-1.455.89125 0 0-.3575.81125-.6475 1.6025-.0288.99625 3.59 10.39125 3.59 10.39125l10.28125-12.1225c.35625-.42125.19875-.7625-.3525-.7625"/><path d="m941.13081 221.2935-15.82-30.97125c-.25125-.49-.905-.89125-1.45375-.89125h-11.4175c-.55125 0-.71.3425-.3525.7625l10.95625 13.13375-6.225 12.3225c-.24875.49125 0 .89375.55.89375h2.1075c.55 0 1.29-.345 1.6475-.76625l6.205-7.31375 10.8075 12.96c.35625.42125 1.09875.76375 1.64875.76375h.79375c.5525 0 .79875-.4025.5525-.89375"/><path d="m996.07456 197.4635c.0175.11125-.0888.585-.2375 1.05125l-3.96875 12.4825c-.14875.4675-.3425.94125-.43 1.0525-.0888.11125-.795.2025-1.285.2025h-2.19875c-.49 0-1-.04-1.1325-.09s-.435-.6975-.5825-1.165l-3.02375-9.505c-.14875-.4675-.3275-1.02875-.3975-1.2475v.01.01c-.23375.004-.825.008-1.315.008h-2.495c-.49 0-.98625.0425-1.10375.0962-.11625.0525-.2125.73125-.2125 1.22125v4.46c0 .49125.006 1.03.0138 1.2.006.17.0912.86625.15 1.26625l.325.28875.32625.2925c.4825.0525 1.015.1075 1.18375.12.17.0125.94125.0238 1.43125.0238h.38125c.49 0 .98625.0437 1.10375.0962.11625.0525.21125.73.21125 1.22v.3775c0 .49-.0425.9875-.095 1.105-.0525.11625-.73.2125-1.22.2125h-2.19625c-.49 0-1.02875-.006-1.1975-.015s-.935-.11375-1.41875-.1925c0 0-.935-.15125-1.73-.87-.79375-.72-1.08375-3.11125-1.08375-3.11125-.0588-.48625-.1075-1.285-.1075-1.775v-4.69875c0-.49-.0425-.9875-.095-1.10375-.0538-.1175-.72875-.21375-1.22-.21375h-1.19625c-.49 0-.98625-.0425-1.10375-.0963-.11625-.0525-.2125-.73-.2125-1.22v-.37875c0-.48875.0425-.98625.095-1.10375.0538-.1175.73125-.2125 1.22125-.2125h1.19625c.49125 0 .98625-.0437 1.10375-.0962.11625-.0525.21125-.73.21125-1.22v-1.62375c0-.49.0438-.9875.0963-1.105.0512-.1175.73125-.21375 1.22125-.21375h1.2875c.49 0 .98625.0437 1.10375.0975.1175.0525.21375.73125.21375 1.22125v1.62375c0 .49.0438.98625.0963 1.10375.0525.11625.73.2125 1.22.2125h5.5225c.49 0 .9975.0412 1.12875.0925.13125.05.40625.70375.53625 1.17625l2.50375 9.16c.13.4725.27125.91.31625.97125.0438.0613.25-.49875.37875-.97125l2.51625-9.16c.13-.4725.30375-.95125.3875-1.06375.0838-.11375.78875-.205 1.27875-.205h1.3425c.49 0 1.1375.0913 1.155.2025m-29.31-8.60125c-.49 0-.89.40125-.89.89125v26.1725c0 .49.4.89.89.89h32.4925c.49 0 .89129-.4.89129-.89v-26.1725c0-.49-.40129-.89125-.89129-.89125z"/></g></svg>