<svg enable-background="new 0 0 200 70" height="61.638" viewBox="0 0 195.306 61.638" width="195.306" xmlns="http://www.w3.org/2000/svg"><path d="m195.306 23.928h-24.7l-7.586-23.89500028-7.585 23.89500028h-24.7l20.017 14.316-7.688 23.285 19.957-14.446 19.951 14.446-7.688-23.285zm-41.459-23.92800028h-74.028c-6.742 0-10.811.918-14.141 2.94999998-2.771 1.756-5.354 4.165-7.391 7.1150003-1.399 1.978-2.523 4.009-3.396 6.165v-.06c0-8.0500003-5.173-14.5110003-12.474-15.61900028-1.937-.281-5.173-.551-7.575-.551h-34.842v61.63700028h34.101c8.868 0 12.752-1.026 16.078-4.074 3.047-2.771 4.619-7.12 4.619-12.198 0-.141-.005-.271-.011-.411 2.545 7.224 7.059 12.453 12.928 14.55 4.155 1.475 9.522 2.134 17.183 2.134h14.174v-15.846h-10.23c-12.301-.027-16.334 1.091-18.482-7.883h28.712v-13.916l-28.739-.021s1.432-8.142 9.957-8.142h8.636 19.67v45.808h17.866v-45.808h22.458zm-138.72 15.87800028h19.312c4.781 0 4.543 4.008 4.543 4.008 0 4.192-4.56 4.014-4.56 4.014h-19.295zm23.887 25.943c0 4.192-4.552 4.024-4.552 4.024h-19.297v-8.033h19.314c4.773 0 4.535 4.009 4.535 4.009m6.915-10.962c2.861-1.172 5.294-3.598 6.905-6.597-.243 1.891-.365 3.89-.365 6.04 0 2.398.159 4.695.464 6.894-1.466-2.744-3.794-4.884-7.004-6.337"/></svg>