<svg enable-background="new -193.951 262.858 1000 266.278" height="190.0791" viewBox="-193.951 262.858 911.27197 190.07909" width="911.27197" xmlns="http://www.w3.org/2000/svg"><g fill="#c8ab37"><path d="m-97.193 302.60504h-96.758v123.464h96.758c23.674 0 34.188-9.03 34.188-29.221v-12.902c.318-7.779-3.512-15.144-10.063-19.351 6.582-4.493 10.328-12.106 9.869-20.062v-10.321c.001-21.028-11.352-31.607-33.994-31.607zm-65.731 73.602h58.829c5.96-1.075 11.663 2.886 12.737 8.847.087.486.143.979.163 1.475v5.804c-.209 6.032-5.255 10.762-11.288 10.579h-1.29-59.151v-26.77zm58.829-23.416h-58.829v-26.77h58.829c6.248-.68 11.87 3.818 12.578 10.063v6.451c-.209 6.032-5.255 10.76-11.288 10.579z"/><path d="m262.169 392.20404c0 4.901-6.451 10.449-14.643 10.449h-39.8c-7.483 0-14.642-5.096-14.642-10.449v-87.921h-30.512v87.921c0 18.707 20.514 33.865 45.735 33.865h39.542c25.221 0 45.736-15.158 45.736-33.865v-87.921h-31.415v87.921z"/><path d="m390.664 302.60504h-39.543c-25.221 0-45.734 15.159-45.734 33.866v89.146h31.351v-89.146c0-5.483 7.096-10.45 14.643-10.45h39.543c8.386 0 14.643 5.483 14.643 10.45v89.146h31.092v-89.146c-.26-18.642-20.772-33.866-45.995-33.866z"/><path d="m536.124 302.60504h-39.799c-25.094 0-45.154 15.159-45.154 33.866v55.733c0 19.029 19.995 33.865 45.154 33.865h39.799c25.804 0 45.154-14.901 45.154-33.865v-2.322h-30.833v2.322c0 5.482-6.838 10.449-14.644 10.449h-39.799c-7.807 0-14.644-4.901-14.644-10.449v-55.733c0-5.483 7.095-10.45 14.644-10.45h39.799c7.483 0 14.644 5.096 14.644 10.45v2.322h31.414v-2.322c0-18.642-20.641-33.866-45.735-33.866z"/><path d="m717.321 327.69804v-23.415h-104.435c-10.377-.218-19 7.946-19.352 18.319v83.665c-.398 10.002 7.386 18.436 17.389 18.834.01 0 .02 0 .027.002h106.371v-23.158h-92.888v-25.803h73.535v-23.416h-73.535v-25.028z"/><path d="m109.87 452.19504-144.492-21.933c-15.674-2.321-17.739-17.545-17.739-36.897v-59.796c0-18.643 2.193-34.446 17.739-37.93l141.461-31.285c33.736-7.612 42.832 14.836 42.832 44.379v95.469c0 30.189-5.612 53.217-39.801 47.993zm1.097-138.753c0-10.385-.968-20.125-12.902-18.125l-126.108 20.641c-6.45.968-7.031 8.192-7.031 15.546v63.087c0 7.869.775 14.514 7.031 15.029l126.108 11.676c12.128 1.098 13.224-8.063 13.224-19.352z"/></g></svg>