<svg enable-background="new 0 0 1000 500" viewBox="0 0 1000 500" xmlns="http://www.w3.org/2000/svg"><path d="m0 499.9h500v-499.9h-500zm263.6-473.3c74.3.4 150.1 35.4 194.4 112.9l-124.2 71c-18.2-29.2-44.1-40.4-68.2-40.6-44-.4-81.9 34.9-81.8 79.9 0 46.3 38 79.9 79.6 80.6 24.9.4 55.1-13.4 70.5-40.9l124.1 71.3c-45.1 77.8-122.5 112.9-194.8 112.8-114.7-.2-222.5-91.9-222.5-223.6-.1-130.9 108.2-224.2 222.9-223.4z"/><path d="m964.3 35.8h-142.7v178.7l-142.9-178.7h-142.8v428.4h142.8v-178.4l142.9 178.4h142.7z"/></svg>