<?xml version="1.0" encoding="utf-8"?>
<!-- Generator: Adobe Illustrator 24.2.3, SVG Export Plug-In . SVG Version: 6.00 Build 0)  -->
<svg version="1.1"
	 id="Layer_1" xmlns:inkscape="http://www.inkscape.org/namespaces/inkscape" xmlns:sodipodi="http://sodipodi.sourceforge.net/DTD/sodipodi-0.dtd"
	 xmlns="http://www.w3.org/2000/svg" xmlns:xlink="http://www.w3.org/1999/xlink" x="0px" y="0px" viewBox="0 0 1000 500"
	 style="enable-background:new 0 0 1000 500;" xml:space="preserve">
<sodipodi:namedview  bordercolor="#666666" borderopacity="1" gridtolerance="10" guidetolerance="10" inkscape:current-layer="g865" inkscape:cx="441.02845" inkscape:cy="337.77764" inkscape:deskcolor="#d1d1d1" inkscape:document-rotation="0" inkscape:pagecheckerboard="1" inkscape:pageopacity="0" inkscape:pageshadow="2" inkscape:showpageshadow="0" inkscape:window-height="1009" inkscape:window-maximized="1" inkscape:window-width="1920" inkscape:window-x="-8" inkscape:window-y="-8" inkscape:zoom="0.6779608" objecttolerance="10" pagecolor="#ffffff" showgrid="false">
	</sodipodi:namedview>
<g>
	<path d="M0,499.9h500V0H0V499.9z M263.6,26.6C337.9,27,413.7,62,458,139.5l0,0l-124.2,71c-18.2-29.2-44.1-40.4-68.2-40.6
		c-44-0.4-81.9,34.9-81.8,79.9c0,46.3,38,79.9,79.6,80.6c24.9,0.4,55.1-13.4,70.5-40.9L458,360.8
		c-45.1,77.8-122.5,112.9-194.8,112.8c-114.7-0.2-222.5-91.9-222.5-223.6C40.6,119.1,148.9,25.8,263.6,26.6z"/>
	<polygon points="964.3,35.8 821.6,35.8 821.6,214.5 678.7,35.8 535.9,35.8 535.9,464.2 678.7,464.2 678.7,285.8 821.6,464.2 
		964.3,464.2 	"/>
</g>
</svg>
