<svg enable-background="new 0 0 1000 390.904" height="390.904" viewBox="0 0 1000 390.904" width="1000" xmlns="http://www.w3.org/2000/svg"><path d="m698.932 3.957v38.805l-2.615.778-10.496 2.934c-10.743 1.909-17.175 17.529-17.175 41.877v214.837c0 26.753 5.478 39.582 18.13 41.984l12.795 3.5v38.91h-143.663v-39.052l2.827-.6 13.818-2.793c12.688-2.792 18.06-15.268 18.06-41.95v-196.529c-10.391 30.358-95.809 280.498-95.809 280.498h-20.957s-84.252-249.539-94.644-280.286v196.317c0 26.683 5.408 39.158 17.953 41.95l16.788 3.393v39.052h-113.161v-38.91l2.616-.708 10.85-2.933c11.839-2.262 17.174-15.091 17.174-41.844v-214.837c0-24.348-6.431-39.968-17.528-41.947l-13.112-3.606v-38.84h139.455s58.559 175.328 64.956 194.447c6.115-19.119 61.954-194.447 61.954-194.447"/><path d="m134.401 0c19.012 0 35.8 3.498 52.727 11.132 11.027 5.547 22.479 9.294 28.662 9.294 2.934 0 6.468 0 6.468-14.525v-3.675h50.396v124.895h-72.484v-3.642c0-55.908-7.422-79.269-53.365-79.269-37 0-54.247 18.874-54.247 59.444v169.423c0 22.3 4.911 74.215 50.607 74.215 39.51 0 57.004-25.196 57.004-81.674v-3.603h72.484v3.603c0 57.854-34.492 125.285-131.328 125.285-104.325.001-141.325-78.492-141.325-145.675v-112.523c0-64.18 53.964-132.705 134.401-132.705"/><path d="m1000 3.957v122.952h-44.494v-8.41c0-32.338-8.694-66.972-33.01-66.972-15.267 0-22.863 16.93-22.863 51.563v200.098c0 27.106 5.479 39.582 18.482 41.844l.248.106 12.263 3.604v38.84h-140.373v-38.91l2.651-.708 10.885-2.933c12.333-2.262 17.74-15.091 17.74-41.844v-200.098c0-34.634-7.387-51.563-22.76-51.563-24.277 0-33.043 34.634-33.043 66.972v8.41h-44.6v-122.951"/></svg>