<svg enable-background="new 0 0 1000 344.9241333" height="344.924133" viewBox="0 0 1000 344.9241333" width="1000" xmlns="http://www.w3.org/2000/svg"><g clip-rule="evenodd" fill-rule="evenodd"><path d="m864.968811 186.7201233-38.3232422 132.796814h27.6269531l4.0117188-16.9287109h35.6523438l3.5683594 16.9287109h28.0693359l-38.7675781-132.796814zm11.1416016 36.0956879c0 1.7841797.3740234 4.4570313 1.1132813 8.0253906.7490234 3.5605316 1.4111328 6.8329926 2.0117188 9.800766l8.9121094 38.7666016h-24.5097656l9.3564453-38.7666016c.5917969-2.9677734 1.2607422-6.2402344 2.0009766-9.800766.7480467-3.5683594 1.1152342-6.241211 1.1152342-8.0253906z"/><path d="m737.0753174 186.2767639v133.2401733h26.7392578v-42.335907h11.5839844l17.8251953 42.335907h26.2958374l-18.7235718-47.6806335c5.6484375-3.8642578 10.2539063-9.1386719 13.8222046-15.8232422 3.5595703-6.6845703 5.3447266-14.3369141 5.3447266-22.9452972v-3.1240234c0-12.4726563-3.7861328-22.8740234-11.3671265-31.1943207-7.5722656-8.3212891-17.3027344-12.4726563-29.1835938-12.4726563zm26.7392578 24.9540863h12.9248047c4.7519531 0 8.7646484 1.5595703 12.0283203 4.6757813 3.2646484 3.1240234 4.8994141 7.9453125 4.8994141 14.4814453v.8984375c0 7.4238129-1.6347656 12.7763519-4.8994141 16.0400238-3.2636719 3.2646484-7.2763672 4.9003906-12.0283203 4.9003906h-12.9248047z"/><path d="m808.3770752 25.8510609v133.2396831h42.7792358c6.8330078 0 13.1435547-1.331543 18.9394531-4.0039063 5.796875-2.6806641 10.6201172-6.3876953 14.484375-11.1396484 3.8642578-4.7612152 6.9111328-10.7758636 9.1396484-18.0522308 2.2275391-7.2763672 3.3417969-15.075676 3.3417969-23.396965v-24.066391c0-7.4243164-1.1142578-14.403801-3.3417969-20.9404182-2.2285156-6.5366211-5.2753906-12.1865196-9.1396484-16.9384689-3.8642578-4.7529297-8.6875-8.3901329-14.484375-10.9140587-5.796875-2.5244122-12.1064453-3.7875957-18.9394531-3.7875957h-42.7792358zm26.7391968 24.9540882h12.9248047c3.8554688 0 7.1279297.5922852 9.7998047 1.7851563 2.6728516 1.1835938 4.9003906 2.9682617 6.6845703 5.3447266 2.0800781 2.6718712 3.5693359 5.7968712 4.4580078 9.3564415.8876953 3.56884 1.3388672 7.5810471 1.3388672 12.03759v21.3842697c0 5.6494064-.4511719 10.619133-1.3388672 14.9277267-.8886719 4.3080978-2.3779297 7.947258-4.4580078 10.9238205-1.7841797 2.3764648-4.0126953 4.309082-6.6845703 5.7885742-2.671875 1.4887695-5.9443359 2.2270508-9.7998047 2.2270508h-12.9248047z"/><path d="m506.6760254 24.0790901c-6.2314453 0-11.6538086.8168945-16.2583008 2.4448223-4.6044922 1.6362305-8.8432617 3.7963848-12.7075195 6.4682598-5.6401367 5.048336-10.0961609 11.7324142-13.3686218 20.0527229-3.2641602 8.320797-4.9008789 18.7138557-4.9008789 31.1948128v16.041008c0 12.7773361 1.6367188 23.4755707 4.9008789 32.0834808 3.2724609 8.6171722 7.7284851 15.1528168 13.3686218 19.609848 3.8642578 2.9765625 8.1025391 5.2739258 12.7075195 6.9101563 4.6044922 1.6362305 10.0268555 2.4462891 16.2583008 2.4462891 5.6494141 0 10.7753906-.8100586 15.3798828-2.4462891s8.8359375-3.9335938 12.7011719-6.9101563c5.9443359-4.456543 10.4003906-10.9926758 13.3681641-19.609848 2.9677734-8.6079102 4.4560547-19.1581955 4.4560547-31.6396332v-16.4848556c0-12.4814453-1.4873047-22.8740158-4.4560547-31.1948128-2.9677734-8.3203087-7.4238281-15.0043869-13.3681641-20.0527229-3.8652344-2.671875-8.0966797-4.8320293-12.7011719-6.4682598-4.6044922-1.6279278-9.7314453-2.4448223-15.3798828-2.4448223zm0 24.9545784c2.6806641 0 5.0585938.4428711 7.1386719 1.3393555 2.0800781.8876915 3.8564453 2.2280235 5.3447266 4.0034142 2.0800781 2.3764648 3.7158203 6.023922 4.8984375 10.9243126 1.1933594 4.9003906 1.7851563 11.5058517 1.7851563 19.8271408v15.1533127c0 8.3212814-.5917969 14.8588791-1.7851563 19.6108246-1.1835938 4.7524414-2.8183594 8.3203125-4.8984375 10.6962891-1.4882813 2.0800781-3.3427734 3.6391602-5.5712891 4.6748047-2.2285156 1.0444336-4.5361328 1.5571289-6.9121094 1.5571289-2.9677734 0-5.6396484-.5126953-8.015625-1.5571289-2.3759766-1.0356445-4.3085938-2.5947266-5.796875-4.6748047-2.0805664-2.3764648-3.7089844-5.9438477-4.9008789-10.6962891-1.1928711-4.7519455-1.7836914-11.2900314-1.7836914-19.6108246v-15.1533128c0-8.3208008.5908203-14.9267502 1.7836914-19.8271408 1.1923828-4.9003906 2.8208008-8.5478477 4.9008789-10.9243126 1.4882813-1.7753906 3.4204102-3.1157227 5.796875-4.0034142 2.3759766-.8964843 5.0478516-1.3393554 8.015625-1.3393554z"/><path d="m934.4873657 186.2767639v133.2401734h65.5126343v-24.5107422h-38.7763672v-108.7284546z"/><path d="m671.5578003 211.2132721v108.286087h26.2948608v-108.286087h24.9541016v-24.9540863h-76.2040405v24.9540863z"/><path d="m549.4621582 186.2767639v133.2401734h24.0585327v-77.0907898l36.1035156 77.0907898h23.6132813v-133.2401734h-24.5107422v77.9853211l-36.0947266-77.9853211z"/><path d="m462.1184387 186.2767639v133.2401734h67.7402039v-24.5107422h-41.0043946v-30.742157h34.7641602v-24.9628906h-34.7641602v-28.0693207h41.0043946v-24.9550629z"/><path d="m392.579895 215.2445221c1.4882813-2.0810547 3.3422852-3.4902344 5.5703125-4.2392578 2.2280273-.7392578 4.6826172-1.1142578 7.3549805-1.1142578 3.5683289 0 7.0585632.8964844 10.4706726 2.6728516 3.4204102 1.7841797 6.1621094 5.3525391 8.2426758 10.6962891l23.6220703-9.8007813c-3.8642578-10.1044922-9.5830078-17.5292816-17.1552734-22.2812347-7.5810547-4.7529297-15.9716797-7.1289063-25.1801453-7.1289063-5.6494141 0-10.9150391.8876953-15.8242188 2.671875-4.9003906 1.7841797-9.1303711 4.1611328-12.6987305 7.1289063-5.6401367 4.7519531-10.0268555 11.2890472-13.1430664 19.6093597-3.1245117 8.3212891-4.6826172 18.7138672-4.6826172 31.1952972v16.4853516c0 12.7773438 1.5581055 23.3261414 4.6826172 31.6386414 3.1162109 8.3212891 7.5029297 14.8574219 13.1430664 19.609375 3.5683594 2.9775391 7.7983398 5.2050781 12.6987305 6.6845703 4.9091797 1.4882813 10.1748047 2.2285156 15.8242188 2.2285156 9.8002625 0 18.3476257-2.2978516 25.6239929-6.9023438s12.847168-11.5146484 16.7114258-20.7236328l-23.6220703-10.6972656c-2.0805664 5.3447266-4.7524414 8.9130859-8.0166016 10.6972656-3.2724609 1.7841797-6.8325195 2.6728516-10.6967468 2.6728516-2.6723633 0-5.1269531-.375-7.3549805-1.1142578-2.2280273-.7402344-4.0820313-2.1503906-5.5703125-4.2304688-2.0805664-2.0800781-3.7080078-5.5703125-4.9008789-10.4794617-1.1923828-4.9003906-1.7841797-11.5068359-1.7841797-19.8271484v-14.7099609c0-8.9130859.5917969-15.7451019 1.7841797-20.4970551 1.1928711-4.7529297 2.8203125-8.1650391 4.9008789-10.2441406z"/><path d="m619.8644409 159.0814667h21.8388672l19.609375-72.6342469 8.4697266 72.6342469h24.5097046l-15.1532593-133.2391949h-24.9541016l-23.1787109 83.7738857-23.1699219-83.7738857h-25.40625l-15.5976562 133.2391949h24.9628906l8.015625-72.6342469z"/><path d="m715.2344971 25.8510609v133.2396831h70.4160156v-24.5107269h-44.1201172v-30.7421799h38.7666016v-25.406723h-38.7666016v-27.6264534h44.1201172v-24.9540882z"/><path d="m934.4873657 94.902298v64.1659851h26.7382202v-64.1659851l37.4355469-69.0736981h-28.9667969l-22.2822265 41.8832836-21.3856812-41.8832836h-28.9667969z"/><path d="m392.579895 54.3749733c1.4882813-1.7753906 3.3422852-3.1157227 5.5703125-4.0039024 2.2280273-.8964844 4.6826172-1.340332 7.3549805-1.340332 3.5683289 0 7.0585632.9663086 10.4706726 2.8984337 3.4204102 1.9321289 6.1621094 5.71875 8.2426758 11.3588829l23.6220703-10.6884727c-3.8642578-10.1054611-9.5830078-17.3818283-17.1552734-21.8383675-7.5810547-4.4560528-15.9716797-6.6845665-25.1801453-6.6845665-5.6494141 0-10.9150391.8183594-15.8242188 2.4457989-4.9003906 1.6362305-9.1303711 3.79492-12.6987305 6.4672832-5.6401367 5.048336-10.0268555 11.7329025-13.1430664 20.0536995-3.1245117 8.320797-4.6826172 18.7133675-4.6826172 31.1948128v16.0414963c0 12.7773361 1.5581055 23.4741058 4.6826172 32.0825043 3.1162109 8.616684 7.5029297 15.1533051 13.1430664 19.609848 3.5683594 2.9765625 7.7983398 5.2749023 12.6987305 6.9106445 4.9091797 1.6367188 10.1748047 2.4458008 15.8242188 2.4458008 9.8002625 0 18.3476257-2.2978516 25.6239929-6.9018555 7.2763672-4.6044922 12.847168-11.6630859 16.7114258-21.1679535l-23.6220703-10.253418c-2.0805664 5.0483398-4.7524414 8.6171875-8.0166016 10.6967773-3.2724609 2.0805664-6.8325195 3.1162109-10.6967468 3.1162109-2.6723633 0-5.1269531-.5136719-7.3549805-1.5581055-2.2280273-1.0356445-4.0820313-2.59375-5.5703125-4.6738281-2.0805664-2.3764648-3.7080078-5.9448242-4.9008789-10.6972656-1.1923828-4.7519455-1.7841797-11.2890549-1.7841797-19.609848v-15.153801c0-8.3203125.5917969-14.9272385 1.7841797-19.8271408 1.1928711-4.8999023 2.8203125-8.5473594 4.9008789-10.923336z"/><g fill="#fdc600"><path d="m190.7401428 195.622467c-3.8642578 7.1289063-9.4350586 12.847641-16.7114258 17.1552582-7.285141 4.3085938-15.2319183 6.4580078-23.8486176 6.4580078-12.7685394 0-23.6918793-4.5253906-32.7524261-13.5859375-9.0610275-9.0615082-13.5869064-19.9843597-13.5869064-32.7529144 0-12.7773285 4.5263672-23.7704926 13.5869064-32.9789734 9.0605469-9.2089844 19.9838867-13.8129883 32.7524261-13.8129883 8.6166992 0 16.5634766 2.2978516 23.8486176 6.9018555 7.2763672 4.6044922 12.847168 10.3227386 16.7114258 17.1552582l36.0951996-20.4975433c-7.4331055-13.369133-17.9736328-24.1357346-31.6386566-32.3090668-13.6738281-8.1640625-28.6708832-12.2548752-45.0185394-12.2548752-11.8808441 0-23.1699066 2.306633-33.8671646 6.9106369-10.6972656 4.6044922-19.9755783 10.8452072-27.8530197 18.7138596-7.8681564 7.8764572-14.1083908 17.1547775-18.7133636 27.8525314-4.6044922 10.6967621-6.9106445 22.1342621-6.9106445 34.3193054 0 12.1767578 2.3061523 23.6132813 6.9106445 34.3105316 4.6049728 10.6972656 10.8452072 19.9755859 18.7133636 27.8535004 7.8769531 7.8769531 17.1552658 14.1083984 27.8530197 18.7128906 10.6967697 4.6044922 21.9863205 6.9111328 33.8671646 6.9111328 16.0498047 0 30.9770355-4.1601563 44.7880707-12.4814453 13.812973-8.3125 24.4321136-19.0097504 31.8652191-32.0829926z"/><path d="m322.6424255 172.0150452c0 23.7705078-4.534668 46.2011566-13.5957031 67.297821-9.0605469 21.0898438-21.315918 39.4365234-36.7651062 55.032196-15.4492188 15.5976563-33.71875 27.9228516-54.8071136 36.9833984-21.0981293 9.0605469-43.5278168 13.5956726-67.2973328 13.5956726-32.0825043 0-61.4242859-8.172821-88.0131378-24.5107117-26.5903206-16.3369139-47.3036881-37.7314452-62.164032-64.174774l36.0951958-19.609375c10.992672 19.609375 26.7382698 35.5029297 47.2372856 47.6894226 20.5068207 12.1767578 42.7885513 18.2695313 66.845665 18.2695313 17.8256836 0 34.7631683-3.4208984 50.8032074-10.2539063 16.0414886-6.8320313 29.9326019-16.110321 41.6654968-27.8525085 11.7416992-11.7324219 21.0981445-25.5458984 28.0791016-41.4394379 6.980957-15.8925781 10.4707031-32.9003754 10.4707031-51.0287933v.8964844c0-18.1298676-3.4902344-35.1376648-10.4707031-51.0287781-6.9804688-15.8935471-16.3369141-29.7060394-28.0791016-41.4394302-11.7328949-11.7412033-25.6240082-21.0200119-41.6654968-27.8525276-16.0410156-6.8325157-32.9789886-10.2529221-50.8032074-10.2529221-24.0576019 0-46.338356 6.0927696-66.845665 18.2695198-20.497551 12.1855392-36.2426605 28.0790863-47.2372856 47.6894302l-36.0951958-19.610344c14.8574142-26.4423676 35.5727348-47.8354225 62.164032-64.1747742 26.5903168-16.3369026 55.9320984-24.5102386 88.0131378-24.5102386 23.7700043 0 46.2011566 4.5346656 67.2973328 13.5956964 21.0898285 9.0605421 39.3588715 21.3852463 54.8071136 36.9828949 15.4496765 15.5976486 27.7050476 33.944809 36.7651062 55.0331726 9.0610352 21.0981369 13.5957031 43.5278091 13.5957031 67.2973251z"/></g></g></svg>