<svg enable-background="new 500 1.5 500 500" viewBox="500 1.5 500 500" xmlns="http://www.w3.org/2000/svg"><g transform="translate(-12.078371 -15.910431)"><path d="m637.3 235.6c0 3.3 2.7 6 5.9 6 3.4 0 6.1-2.7 6.1-6s-2.7-6-6.1-6c-3.2 0-5.9 2.7-5.9 6m12.4 11.6h-12.8v41.9h12.8zm269.1 58 25.8-58h-13.6l-9.3 22.4-10.2-22.4h-14.3l17.6 36.2-9.5 21.7h13.5zm-23.4-58c-.8-.3-2.1-.4-3.4-.4-3.4 0-8.7 1.3-10.9 6.1v-5.6h-12.4v41.9h12.8v-18.3c0-8.3 4.6-11.4 9.8-11.4 1.3 0 2.6.1 4 .4zm-60.5 15.9c.2-3.1 2.9-7.1 8.3-7.1 6.1 0 8.3 3.9 8.4 7.1zm17.7 10.9c-1.2 3.3-3.8 5.5-8.4 5.5-5 0-9.3-3.4-9.5-8.1h29.2c.1-.3.3-2.2.3-4 0-13.5-8-21.5-21-21.5-10.9 0-20.9 8.6-20.9 22.1 0 14.1 10.3 22.3 21.8 22.3 10.6 0 17.3-6.1 19.3-13.3zm-28.9-26.8h-13.5l-8.9 26-9.7-26h-13.9l17.2 41.9h12.9zm-66.1 31.4c-4.8 0-9.4-3.5-9.4-10.5 0-7.1 4.6-10.4 9.4-10.4 4.9 0 9.4 3.3 9.4 10.4s-4.6 10.5-9.4 10.5m0-32.7c-12.5 0-22.3 9.2-22.3 22.2s9.8 22.2 22.3 22.2c12.6 0 22.2-9.3 22.2-22.2 0-13-9.7-22.2-22.2-22.2m-44.5 11.8c5 0 7.5 3 8.4 6.2l11.5-3.5c-1.9-7.5-8.6-14.6-20.1-14.6-12.3 0-22.1 9.2-22.1 22.2s10 22.2 22.5 22.2c11.2 0 18.1-7.2 20-14.6l-11.3-3.5c-.9 3.1-3.7 6.2-8.7 6.2-5.3 0-9.8-3.7-9.8-10.4 0-6.5 4.3-10.2 9.6-10.2m-59.7 19.5c.3 4.6 4.6 13.1 17.7 13.1 11.2 0 16.7-7 16.7-14.2 0-6.2-4.2-11.4-12.9-13.1l-5.6-1.1c-1.9-.3-3.3-1.3-3.3-3.1 0-2.2 2.1-3.6 4.6-3.6 3.9 0 5.6 2.4 6 5.1l10.6-1.9c-.4-4.9-4.6-12.5-16.8-12.5-9.4 0-16.1 6.2-16.1 13.9 0 5.9 3.5 11 12.5 12.9l4.8 1.1c3.1.7 4.1 1.9 4.1 3.5 0 1.8-1.6 3.6-4.9 3.6-4.4 0-6.4-2.8-6.6-5.6z"/><path d="m596.5 261.7c0 .1 0 .3.1.3 0 0 .1.1.1.2s0 .1.1.1 0-.1 0-.2c-.2-.1-.2-.2-.3-.4.1-.2 0-.2 0 0m-.5-7.9c-.1 0-.1 0-.1 0-.1.1 0 .1.1 0 0 .1.1.1.1.1s0-.1-.1-.1m0-3.1c.1 0 .1-.1 0-.2s-.1-.1-.1 0c0 0 .1.2.1.2m.5-.2s0-.1-.1-.2c0-.1-.1-.1-.1-.1s0 .1 0 0c-.1 0 0 0 0 .1.1.2.1.3.2.2m2.9 2.9c0-.1 0-.1 0-.1 0-.1 0-.1 0-.1 0-.1 0-.1-.1-.1s-.2.2-.2.3.1.1.2.2h.1c0-.1 0-.2 0-.2m-2.5 7.3c0-.1 0-.1 0 0 0-.1-.1-.1 0 0-.1 0-.1 0 0 0m1.9-6.5c0-.1 0-.1 0 0-.1 0-.1-.1-.1-.1s0-.1.1-.1h.1s0 0 0-.1c-.1-.1-.1-.1-.1-.1 0 .1 0 .1 0 0s0-.1 0-.1-.1-.1-.2-.2-.1-.2-.1-.2.1 0 .1-.1c0 0 0-.1.1 0 .1 0 .1-.1.1-.2s-.2-.1-.4 0c-.2.2-.2.2-.1.4 0 .1.1.1.1.1s.1.1.2.2.1.1.1.2v.2.2c.1.2.4.3.5.2-.2.1-.3-.2-.4-.3zm-2.2 0c0 .1 0 .1 0 0 .1.1.1.1 0 0zm.2-3.2s-.1-.1 0 0c-.1-.1-.1-.1-.1-.1 0 .1.1.2.1.1m1.1.6c0-.1 0-.1 0 0-.1.1 0 .2 0 .2s0 0 0-.1c-.1 0-.1 0 0-.1m.1 2.8c0 .1.1.1.1.1s0 0-.1-.1zm.4-3.3c0-.1 0-.1 0 0 0-.1-.1-.1 0 0-.1-.1 0-.1 0 0m-.7 3.2s.1 0 0 0c.1 0 .1 0 0 0m-.7-1c-.1-.1-.2-.1-.2-.1s.1-.1.1-.2c0 0 0 0 .1-.1 0 0 0 0 .1-.1 0 0 0 0-.1 0h-.1s-.1.1-.2.1c-.1.1-.1.1-.1.1s.1.1.1 0h.1s0 .1-.1 0h-.1-.1c-.1-.1-.1-.1 0-.1 0 0 0 0-.1-.1-.1 0-.1 0-.1-.1s-.2 0-.2.2v.1s-.1.4-.1.5c.1.1.4.2.5.1s.2-.1.4 0 .5.1.6.1c.1-.1-.3-.3-.5-.4m5.2-.7c0-.1 0 0 0 0 0 .1.1.1 0 0zm-.5 0c0 .1 0 .1 0 0 .1.1.1.1 0 0zm5.4 8.8c-.1.1-.1.1 0 0-.1.1 0 .1 0 0m-.1.2c0 .1 0 .1 0 0zm-.1-.9s0 .1 0 0c0 .1 0 .1 0 0zm0 .1c-.1 0-.1 0 0 0zm-.1-.3c0-.1 0-.1 0 0 0 0 0 .1 0 0zm-.1-.2c0-.1 0 0 0 0zm0 .1s0 .1-.1.1.1-.1.1-.1c0-.1 0-.1 0 0m-.2 1.8c0-.1 0-.1 0 0v.1s0 0 0-.1m-.1-1.1c.1 0 .1 0 0 0 0-.1 0-.1 0-.1v-.1c0-.1 0-.1 0-.2 0 0 0 0 0-.1v-.1c0-.1 0-.1-.1-.2 0 0-.1-.1-.1-.1s0 0-.1.1-.1.1-.1.1v-.1c0-.1 0-.1 0-.1h-.1v.1.1.1.1h.1s.1.1.1.1v.3.1c0 .1 0 .1 0 0h.1c0 .1.1.1.1 0v-.1c0-.1.1 0 .1.1 0-.1 0 0 0 0m-.4-.3c0-.1.1-.1 0-.1v.1c0-.1 0 0 0 0-.1.1-.1.1 0 0m-.2.9s0 .1 0 0zm.4-.3c0-.2 0-.2 0-.2s-.1.2-.1.5c0 .1-.1.2-.1.3s-.1.1-.1.1v-.1c-.1-.1-.1-.1 0-.3 0-.1.1-.1.1-.1s0 0 0-.1h-.1s0 .1-.1.1c0 0-.1.1-.1.1v.1.1s0 .1-.1.1v-.1s-.1 0-.1.1-.1.2-.1.2v.1.1.1c0-.1-.1 0-.1.1s-.1.2-.1.3c0 0-.1.1-.2.1-.1.1-.2.1-.2.2 0 0-.1.1-.1.1s-.1.3-.2.4v.1s0 .1-.1.2c0 .1 0 .2-.1.3v.1s-.1.3-.1.3c-.1 0-.1.1 0 .1 0 .1.1 0 .2-.1s.1-.1.2-.1.1 0 .1-.1.1-.2.4-.3c.1 0 .1-.1.1 0v.3c0 .1 0 0 .1-.1.1-.2.1-.1 0 0s-.1.2 0 .1c0-.1 0 0 0 .1s0 .1 0 0v.1.1s0 0 .1-.1.1-.1.1 0 0 .1.1-.1c0-.1.1-.1.1-.1s0 0 .1-.1c0-.1.3-.5.3-.6 0 0 .1-.1.1-.2s.1-.2.1-.2c0-.1.1-.2.1-.2s0-.1.1-.2c0-.1 0-.1 0-.2s0-.1 0-.2v-.1-.1c0-.1 0-.1 0-.2 0 0 0-.1 0-.2s0-.1 0-.2c0 0 0-.1 0-.2s0-.1 0-.1c-.4.1-.4.1-.3-.1m0 2.7c-.1 0-.1 0 0 0-.1 0-.1-.1-.1-.1 0-.1 0-.1 0-.1v.1s0 .2-.1.3v.1.1.1.1s.1-.2.2-.3v-.1c-.1 0-.1-.1 0-.2m-.4.5s0 0-.1.1-.1.2-.2.3-.2.3-.2.3c.1 0 .1-.1.2-.2 0-.1.1-.2.1-.2s0-.1.1-.2c.1 0 .2-.1.1-.1m-.7.4c-.1.1-.1.1-.1.2 0 .2 0 .2 0 .1s0 0 0-.1c.2-.3.2-.3.1-.2m-.1-.5c-.1 0-.1 0 0 0-.1 0 0 0 0 0zm-.8-12c0-.1 0-.1 0 0-.1-.1-.1-.1 0 0zm.7-.3s0 .1 0 0c0 .1 0 .1 0 0m-9.8-1.3c.1 0 .1 0 0 0 0 .1 0 .1 0 0m-.4.2c0-.1 0-.1 0 0-.1 0 0 0 0 0m-.8.3s.1 0 .1-.1c0 0 0 0-.1 0zm-.1 0s0 .1 0 0c.1 0 .1 0 0 0m2.8 3.5h.1c0-.1 0-.1-.1 0 0-.1 0-.1 0 0zm-1-.1h.1c.1 0 0 0-.1 0zm-1.5-.4c.1 0 .2.1.2.1s0 0 0-.1 0-.1-.2-.1c-.1 0-.2 0-.2 0s.1.1.2.1m-.6-.7c.1 0 .1 0 0 0 0-.2 0-.2 0-.2zm-.1.3v.2c.1 0 .1-.1.2-.2 0-.1 0-.2-.1-.2 0 0-.1.1-.1.2m-.7.1c.1-.1.1-.1 0 0 0-.1 0-.1 0 0m11 3.9c0 .1.1.2.1.3.1.1.1.2.1.5 0 .2.1.3.1.3s.2.3.2.4c.1.2.1.6.2.5 0 0 0 0 0-.1s0-.2 0-.2c0-.1-.2-.4-.3-.4 0 0-.1-.1-.1-.1 0-.1-.1-.1-.1-.2-.1-.1-.1-.1-.1-.4 0-.2 0-.3 0-.2v.1s.1.1.1.2c.1.1.1.2.2.2 0 0 0 .1.1.1v.1s.1-.2.1-.2 0 0 .1-.1c0-.1 0-.1 0-.3-.1-.2-.1-.3-.3-.6-.2-.2-.2-.3-.2-.5s.1-.2.2-.1c0 0 0 .1.1.1v.1c-.1 0-.1.2 0 .2 0 0 .1 0 .1-.1s0-.1 0-.1c-.1-.1-.1-.2 0-.3s.1-.1.1-.1c0 .1.1 0 .2-.1 0-.1 0-.3 0-.3s0 0 0-.1c0 0 0-.1 0-.2 0-.3 0-.4-.1-.4 0-.1 0-.2-.1-.4s-.1-.2-.2-.3v-.3s0-.1-.1-.1h-.1c0 .1-.1 0-.1 0s0-.1-.1-.1-.1-.1-.1-.1 0-.1.1-.1c0-.1 0-.1.1-.1v.1c0 .1 0 .2.1.1h.1c.1 0 .1 0 .1.1s0 .2.1.2c0 0 .1.1.1.1s.1.2.1.3h.1c.1 0 .1-.1 0-.2 0-.1-.1-.2-.2-.3s-.1-.2-.1-.2v-.2s0-.1 0-.2 0-.1.1 0 .1 0 .1-.4c0-.3 0-.4-.1-.5 0-.1-.1-.2-.1-.2 0-.2-.3-.5-.3-.4s0 .1 0 0 0-.1 0-.1 0-.1-.1-.1c0 0 0 0-.1 0 0 0 0 0 0-.1 0 0 0-.1 0-.2 0-.3-.1-.4.1-.3h.1s.1 0 .1.1h.1.1s0-.1 0-.2 0-.1.1-.1c0 0 .1 0 .1.1s.1.1.1 0 0 0 0-.1v-.1s.1.2.1.3v.1.1s0 .2.1.3c0 .1.1.2.2.3s.1.2.1.2v-.1-.1s0 0 0-.1v-.1s0 0 0-.1 0-.1 0-.1 0 0 0-.1 0-.1-.1-.1c0 0 0 0-.1-.2 0-.1 0-.1 0-.1h.1c-.3-.4-.6-.9-.9-1.3s0 0 0-.1-.1-.1-.1-.1-.1-.1-.2-.1c-.2-.1-.1-.1-.2-.1-.1-.1-.2-.2-.2-.1s0-.1-.1-.1-.1-.1-.1-.1 0 0-.1 0v.1c0 .1 0 .1 0 0s-.1-.1-.2-.1-.1 0-.1 0c0 .1-.1 0-.2-.1s-.1-.1 0-.1c0 0 0-.1-.1-.1s0 0 0-.1c0 0-.1-.1-.2-.1-.1-.1-.1-.1-.1 0 0 0 0 .1-.1 0-.1 0-.1-.1-.2-.1 0 0-.1-.1-.2-.1s-.2-.1-.3-.1-.1 0-.1 0 0 0-.1 0-.2 0-.1-.1h.1.1s0 0 0-.1-.1 0-.1-.1c0 0-.1-.1-.2-.1s-.2-.1-.2-.1c0-.1-.2-.1-.2-.1v.1s0 0-.1 0c-.2-.1-.6 0-.6 0h.1s0 0-.2 0c-.1 0-.2 0-.2 0s.1.2.2.2.1 0 0 .1h-.1c-.1 0-.1-.1-.2-.1s-.1 0 0 0c.1.1.1.1 0 0-.1 0-.1 0 0 .1-.1 0-.1 0-.1-.1 0 0 0-.1-.1-.1v.1s0 0-.1 0v.1c.1.1.1.1.1.1 0 .1 0 .2.2.2.1 0 .2.1.2.2s0 .1 0 0-.1-.1-.2-.1v.1.2c-.1.1-.2.1-.3 0h.1c.1 0 .1 0 .1-.1s0-.1 0-.2c0 0-.1-.1-.1-.2s-.1-.2-.1-.2 0 0 0-.1 0-.1-.1-.2c-.1 0-.1 0-.1 0v.1.1.1.1.1s0 0 .1.1c.2.2.1.2-.1.1-.1-.1-.3-.1-.4-.2-.1 0-.2-.1-.2-.1.1.1.1.2.1.2s0 0-.1 0c0 0-.1 0-.2 0s-.2 0-.2 0 0 0-.1 0h-.1c-.1 0-.3.1-.3.2s-.1.1-.2 0c-.1 0-.1-.1 0-.1s0-.1 0-.1c-.1 0-.2 0-.2 0v.1.1c.1.1 0 .1-.1.1 0 0-.1 0-.2 0-.1.1-.1.1-.1.2s0 .1-.1 0c-.1 0-.1 0-.2-.1h-.1s0 .1.1.1.1.1 0 .1-.2-.1-.3-.2v-.1s0-.1-.1-.1c-.1-.1 0-.1.2 0s.3.1.3 0c.1 0 .1-.1.1-.1s-.1-.1-.3-.2-.3-.1-.7-.2c-.1 0-.1 0-.1-.1.1 0 .1 0 0-.1h-.1-.1s-.1 0-.1.1v-.1s0-.1-.1 0c-.1 0-.1.1-.1.1h-.1-.1-.1c-.1-.1-.1-.1-.1 0h-.1c-.1 0-.1 0 0 0 .1.1 0 .1-.1 0h.1c.1-.1 0 .1-.1.2s-.2.2-.2.3-.1.1-.1.1v.1s-.1 0-.1.1-.1.1-.1.1 0 .1-.1.1c0 0-.1 0-.2.1s-.2.2-.1.3v.1c0 .1 0 .1 0 0 .1 0 .1 0 0 0-.1.1-.1.1.1.1.1 0 .1 0 .2-.1s.1-.1.1-.1v.1.1.1s0 .1.1.1c0 0 .1.1 0 .1v.1c0 .1.2.1.2 0h.1c.1 0 .2-.1.2-.2s0-.1.1-.2c0 0 .1-.1.1-.1 0-.1 0-.1 0-.1s-.1-.1-.1-.1 0 0 0-.1.1-.3.2-.4c.2-.1.2-.1.2-.2s.1-.2.2-.2.2.1.1.2c-.3.3-.3.3-.3.4v.2c0 .2.1.2.4.2h.3c.1 0 .2.1.2.1s-.1 0-.2 0c-.3 0-.3 0-.3.1 0 0 0 .1.1.1 0 0 .1.1 0 .1 0 .1-.1.1-.1.1-.1-.1-.2 0-.2.2 0 .1 0 .2-.1.2h-.1c0 .1-.1.1-.2 0 0 0-.1 0-.3 0-.1.1-.2.1-.3.1 0 0-.1 0-.2 0-.2 0-.3-.1-.2-.2 0 0 0-.1.1-.1s.1 0 0-.1v-.1c0-.1-.1-.1-.1 0 0 0-.1.1-.1 0v.1c0 .3 0 .4-.1.4-.2 0-.3 0-.3.1s0 .1 0 0c0 0 0 0-.1.1s-.1.2-.2.2-.1.1-.1.1-.1.1-.1.1c-.1.1-.1.1-.2 0-.1 0-.1 0-.1 0 0 .1 0 .1-.1.1-.2 0-.2 0-.2.1 0 0 0 .1.1.1s.3.2.3.4c0 .1 0 .2-.1.2 0 .1-.1.1-.3.1s-.3 0-.3 0h-.1c-.1.1-.1.1-.1.3 0 .1 0 .3-.1.4s-.1.2 0 .2v.2c0 .1 0 .1.1.1s.1 0 .2.1.1.1.2 0c.1 0 .2-.1.2-.1.1 0 .1 0 .2-.1 0 0 0-.1.1-.1s.2-.2.2-.3.2-.3.3-.4c.1 0 .1-.1.1-.2 0-.2.2-.2.3-.1.1 0 .1 0 .3-.1.1-.1.2-.1.2-.1s.1.1.2.2.3.3.4.4c.2.1.3.2.3.4 0 .1 0 .1.1 0s.1-.1.1-.2v-.1h.1s.1.1.1 0c0 0-.2-.2-.3-.2s0 0-.1 0c0 0-.1-.1-.2-.2s-.2-.2-.2-.2v-.1c0-.1.1-.2.2-.1 0 0 0 .1.1 0 0 0 .1 0 .1.1s.1.1.2.2c.1 0 .2.1.2.2.1.1.1.2.1.2 0 .1.1.2.2.3s.1.2.1.2.1.2.2.2c0 0 0 0 0-.1s0-.1.1-.1c.1-.1.1-.2-.1-.2 0 0 0 0 0-.1v-.1c-.1-.1 0-.1 0-.1h.1c.1-.1.3 0 .3.1v.1.1.1.1s.1.1.1.1c.1 0 .1.1.2.1h.1c0-.1.1-.1.2 0s.3.1.3 0c0 0 .1-.1.1-.1h.1v.2c0 .1 0 .3-.1.5-.1.3-.2.4-.3.3s-.1-.1-.2 0-.2.1-.4 0c-.1 0-.2-.1-.4-.1-.1 0-.2-.1-.2-.1s0-.1-.1-.1-.3.1-.3.2v.2c0 .1-.1.1-.2 0-.1 0-.2-.1-.3-.1s-.1 0-.1-.1-.3-.2-.4-.2c0 0-.4-.2-.4-.2s0-.1.1-.1c.1-.1.1-.1 0-.2 0-.1 0-.1 0-.2s0-.1 0 0h-.1-.1c-.1 0-.3 0-.5.1-.3 0-.7.1-.8.3 0 0-.4 0-.5 0 0-.1-.1-.1-.1.1 0 .1-.1.2-.2.2-.2.1-.3.4-.3.5s-.1.3-.3.4c-.1.1-.4.4-.4.5 0 0 0 .1-.1.2 0 .1-.1.2-.2.3-.1.2-.1.2-.1.3v.5c0 .2-.2.5-.2.5v.1.2c0 .1 0 .1.1.2 0 0 .1 0 .1.1 0 0 0 .1.1.2s.1.3.1.3c0 .2.3.5.5.6.1.1.1.1.5 0h.4c.1 0 .2 0 .4-.1s.5-.2.8-.1c.1 0 .1.1.1.1 0 .1.1.2.3.1.2 0 .2 0 .3.1s.1.2.1.2v.3c0 .1 0 .3-.1.3-.1.1 0 .2.3.5.2.2.4.6.5.9 0 .1 0 .2.1.3 0 .1 0 .2-.1.3s-.2.5-.2.6c0 .2.2.5.4.7 0 .1.1.2.1.4 0 .3.1.5.2.5.1.1.3.5.3.6s.1.2.2.3h.2s.2-.1.3-.1c.4 0 .7-.2.9-.5.1-.1.2-.2.2-.3.1-.1.1-.2.1-.3 0-.2 0-.2.2-.3s.2-.1.2-.2 0-.2 0-.3 0-.2.1-.2.1-.1.2-.2.2-.1.2-.2c.1 0 .2-.1.2-.2.1-.1.1-.1.1-.5 0-.3 0-.4 0-.4s0-.1 0-.3c0-.1 0-.3 0-.3 0-.1 0-.1.1-.3.1-.1.2-.3.2-.4.1-.1.2-.2.3-.4.1-.1.3-.3.3-.3.3-.2.4-.5.5-.8 0-.2.1-.3.1-.3s0-.2 0-.3c0-.2 0-.2-.1-.2 0 0-.2.1-.4.1-.1 0-.2.1-.4.1 0 0-.1-.1-.1-.1-.1-.1-.1-.1-.1-.1.1 0-.2-.3-.4-.5-.1-.1-.2-.2-.2-.3s-.1-.2-.2-.3-.1-.2-.2-.3c0-.2-.1-.3-.2-.4s-.1-.2-.1-.2-.1-.2-.1-.3c-.1-.1-.1-.3-.2-.3 0-.1-.1-.2-.2-.3s-.1-.2-.1-.2.1.1.1.2c.1.2.2.2.2.1s0-.1 0 0c0 0 .1.2.2.3s.2.3.2.3.1.1.1.1c.1.1.2.3.2.4s.1.2.2.3.2.2.2.2.1.1.1.3c.1.1.1.2.2.3 0 .2.2.5.2.6 0 0 .1 0 .1-.1 0 0 .1-.1.1-.1h.1.1s.1 0 .1-.1c0 0 .1-.1.2-.1s.2-.1.2-.2.1-.1.2-.1.1-.1.1-.1 0-.1.1-.1h.1s0-.1.1-.1c0 0 .1-.1 0-.1 0-.1 0-.2 0-.2s.1-.1.1-.2 0-.1 0-.2c0 0-.1-.1-.1-.1 0-.1-.1-.1-.2-.1s-.2-.1-.2-.3c0-.1 0-.1 0-.1 0 .1 0 .1-.1.2-.1.3-.4.3-.4 0 0-.1-.1-.2-.1-.1s0 .1-.1-.1c0-.1-.1-.2-.1-.2s-.1-.1-.1-.2c-.1-.2-.1-.2 0-.2.1-.1.2-.1.3.1s.4.5.6.4h.1c0-.1 0-.1.1.1 0 .1.1.1.1.1.2.1.6.1.9.1 0 0 .1 0 .1.1.2.2.3.3.3.3v.1c-.1 0-.1 0 .1.1.1.2.2.2.2 0 0-.1 0-.1.1 0 0 .1.1.2.1.2.1.3.2.6.3.9.1.1.1.2.1.3 0 0 .1.1.1.2.1.1.1.3.2.4.1.2.1.2.2 0 .1-.3 0-.5 0-.8 0-.2 0-.2 0-.2s0 0 0-.1.1-.2.2-.4c0-.1.1-.1.1-.1s.1-.1 0-.2v-.1h.1.1s0 0 0-.1.1 0 .1.1.1.2.2.2c0 0 .1.1.1.1v.1s.1.2.1.3v.1c-.5.6-.5.6-.4.5-.1-.1-.1-.1-.1-.2.1.1.1.2.1.2m-1 1.3c-.1-.2-.1-.2-.1-.1s.1.4.1.5 0 .1.1 0c0-.1 0-.2-.1-.4m-3-.6c0 .1.1.1 0 0 .1 0 .1 0 0 0zm-.1 5.3c0-.1 0-.1 0 0-.1-.1-.1-.1 0 0-.1-.1-.1 0 0 0m-.1 4.2c0 .1 0 .1.1 0 0 0 0 0-.1 0zm-1.2-4.2c-.1.1-.1.2-.1.3 0 .3.1.3.2.3s.1-.1.1-.1c.2-.3.3-.7.4-1 0 0 0-.1.1-.1v-.1c0-.1 0-.1 0-.1s0 0 .1-.1c0-.1 0-.4-.1-.4v.1s0 .1-.1.1c0 0-.1.1-.1.2s-.1.1-.2.2c-.2.1-.3.2-.3.4zm-5.1 7.9c0-.1 0-.1 0 0 0-.1 0 0 0 0m8.6-1.6c-.1 0-.1 0-.1 0s0 0-.1 0 0 0-.1 0-.1 0-.1 0-.1 0-.2.1c-.1 0-.1 0-.1 0s0 0-.1.1c0 0 0 .1-.1.1s-.1 0-.1.1c-.1.1-.1.1-.1 0s-.3.1-.4.2c-.1 0-.2 0-.2 0s-.1 0-.2.1c0 0-.1 0-.2.1-.2 0-.2 0-.3.1 0 0 0 0-.1 0s-.1.1-.1.1c-.2 0-.3.1-.3.1s-.1 0-.1.1c0 0-.1 0-.2.1-.1 0-.2.1-.2.1-.1 0-.2.1-.2.1s0 0-.1 0c0 0 0 0-.1.1s-.2.2-.3.2c0 0 0-.1.1-.1 0 0 0 0 .1-.1-.1 0-.1 0-.1 0h.1s.2-.1.2-.2c0 0-.1 0-.2 0-.3 0-.5 0-.5 0s0 0 0-.1c-.1-.1-.4 0-.4.1 0 0 0 0-.1 0h-.1s0 0-.1 0h-.1s-.1 0-.1.1c-.2 0-.3.1-.3.1 0 .1-.1.1-.1 0h-.1c0-.1-.1-.1-.1 0-.1.1-.2.1-.4.2-.2 0-.3 0-.5 0s-.4 0-.6 0h-.1c-.1 0-.5 0-.6 0s-.2.1-.4 0c-.1 0-.2 0-.2-.1s-.1 0-.1 0c-.1.1-.1.1-.1 0s-.1-.1-.1 0h-.1v.1h-.1s0 0-.1 0c0 0 0 0-.1 0h-.1.1c.1 0 .1 0 0 .1-.1 0-.1.1-.1.1h-.1c-.2 0-1 0-1.1.1 0 0 .3.1.3.1h.1.1.1.1s0 0-.1 0c.8.1 1.6.2 2.4.2 2.7.2 5.5-.8 7.7-2.4m-11.2-1.3c0-.1 0-.1 0 0-.2-.1-.2-.1-.1 0 .1 0 .2 0 .1 0m-.1 3.3c-.1 0-.1 0 0 0-.1-.2-.3-.2-.4-.2 0 0-.1 0-.1.1 0 0 0 .1-.1.1 0 0 0 0-.1 0 .2.1.4.1.5.2l.2-.2c0 .1 0 .1 0 0m-.7-21.8s0 .1 0 0c.1 0 .1.1.1.1h.1c.1 0 .1 0 .2-.2.1-.1.1-.2.1-.2s0-.1.1-.1c.1-.1.2-.1.1-.2s0 0 0-.1 0-.1.1-.1.1-.1.2-.1c.1-.1.1-.1 0 0 0 .1 0 .1 0 0 0 0 .1-.1.2-.1s.2-.1.2-.1c.1-.1-.4-.1-.4-.1s.5 0 .5-.1 0-.1 0 0 .4 0 .7-.1c.2-.1.2-.1.1-.1 0 0-.1 0-.2 0s-.1 0 0 0c0 0 .1 0 .1-.1s0-.1.1 0c0 0 .1.1.1.1 0 .1.2.1.2 0s-.1-.2-.1-.2c-.1 0-.1-.2-.1-.2s.1.1.2.1c0 0 0-.1-.1-.1s-.1-.1-.1-.1h.1c.1 0 .2 0 .2-.1 0 0 0-.1.1-.1h.1s0 0-.1 0-.1-.1 0-.1h.1c0-.1 0-.1-.1-.1s-.1-.1 0-.1h.1c.1-.1 0-.1 0-.1s-.1 0-.1-.1c0 0 0 0-.1 0 0 0 0 0-.1 0 0 0 0-.1.1-.1 0-.1.1-.1.1-.1s0 0 .1-.1c0 0 .1-.1.1-.1h.1c.1-.1.2-.1.3-.2.1 0 .1 0 .1-.1-.1 0-.1 0-.1 0-.1 0-.2 0-.2 0-.1 0-.1 0-.2 0 0 0-.1 0-.2 0s-.1 0-.1 0 0 0 .1-.1 0-.1-.1 0c-.1 0-.1 0-.1 0h.1.1s0 0-.1 0-.1 0-.2 0c-.3-.1-.5 0-.8 0-.1 0-.1 0-.2.1 0 0-.1 0-.3 0s-.3 0-.2 0 .1.1 0 .1c0 .1 0 0-.2 0-.2-.1-.2-.1-.2 0s0 .1-.1 0h-.1c0-.1-.5.1-.5.1s0 .1-.1.1-.3.1-.4.2h.1s-.1.1-.2.1c-.3.1-.4.1-.4.2 0 0 .2.1.2.1s-.1.1-.1.1c-.1 0-.1 0-.1 0s.1 0 .1.1h.3c.3-.1.4 0 .4.1v.2.2c-.1.1-.1.1 0 .1h.2c.1.1.1.2 0 .1h-.1v.1s0 0-.1.1c0 .1 0 .1.1.1h.1s0 0 0-.1 0-.1 0 0c0 0 .1 0 .1.1v.1c0 .1-.1.1-.1.1s-.1 0-.2.1-.1.1-.1.2v.1.1.2c0 .1 0 .1.1 0 .1 0 .1 0 0 0-.1.1-.1.1 0 .3.1.1.2.1.3.1m-.5 21.6c0-.1-.1-.1-.1-.1.1.1.1.1.1.1m-.4-1.7c0 .1 0 .1 0 0zm.2 1c-.1-.1-.1-.1-.1-.1s0 0 0-.1 0-.1-.1-.1c0 0-.1 0-.1-.1 0 0-.2-.2-.2-.2s-.1 0-.1-.1v-.1c.1-.1.1-.1.1-.1 0-.1.1-.1.2-.1h.1.1s0 0-.1 0h-.1s0 0-.1 0-.2.1-.3.1c0 0-.1 0-.1.1 0 0-.1.1-.1.1v.1.1c-.1 0-.1 0 .1.2 0 .1.1.1.1.1s-.1.1-.2 0c-.2 0-.2 0-.2-.1s-.1-.1-.1 0 0 0-.1 0c0 0-.1-.1-.1-.1s-.1 0-.1-.1h-.1s0 0-.2 0c-.1 0-.2-.1-.2-.1s-.1 0-.1-.1c-.1 0-.1 0-.1-.1 0 0 0 0-.1 0-.3-.1-.6-.2-.8-.3h-.1s.1 0 .1.1c.1 0 .1.1.1.1s0 0-.1 0-.1 0-.1 0 .1 0 .1.1h.1c.5.4 1.1.7 1.6.9s-.1-.1-.1-.1-.1 0-.1-.1h.1c.2.1.4.2.5.2 0 0 0 0-.1-.1s-.3-.2-.3-.2.1 0 .2.1c.2.1.3.2.4.2h.2.2c.3 0 .3 0 .4-.1-.1 0-.1 0 0 0-.1 0-.1 0-.1 0 0-.1 0-.1.1 0zm-.5.3s-.1.1 0 0c-.1.1 0 .1 0 0 0 .1.1.1 0 0 .2.1.1.1 0 0m-2.3-1.3c-.1 0-.1-.1-.1 0h.1c0 .1.1.1.1.1.2 0 .1-.1-.1-.1m.1-3.2c-.1 0-.1 0 0 0-.1 0 0 0 0 0zm.5 3.5c0-.1 0-.1 0 0zm.2-2.3c0 .1 0 .1 0 0zm.1 0c0 .1 0 .1 0 0 .1.1.1 0 0 0m.5 2.5s0 .1 0 0c.1.1.1.1 0 0 .1 0 .1 0 0 0m.5-.3c.1 0 .1 0 0 0 0-.1 0-.1 0 0zm-.4.1c.1 0 .1.1 0 0 .1 0 .1 0 0 0zm0 .1s.1 0 0 0c.2.1.2 0 0 0zm.4.2c-.1.1-.1.1 0 0 .3.1.3 0 .1-.2-.1-.1-.1-.2-.2-.1v.1.1c.1 0 .1 0 0 0h-.1-.1.1c.1.1.1.1.2.1zm.3-.6c-.1 0-.1 0 0 0zm-3.8-12.7s.2.1.3.1h.1.1s0-.1-.1-.1c-.1-.1-.3-.2-.3-.1.2 0 .1.1-.1.1.1-.1 0-.1 0 0m-.2 0c0-.1-.1-.1-.1 0zm.1-.4c0 .1 0 .1 0 0 .2.1.3 0 .2 0 0 0-.1-.1-.1-.1-.2-.3-.3-.4-.5-.3-.1 0-.1.1-.1.1-.1.1-.1.1 0 0 0 0 .1 0 .1-.1s.1 0 .1 0v.1s.1 0 .1.1c0 0 0 .1.1.1 0 0 .1 0 0 .1 0-.1 0-.1.1 0zm.9.4c-.1 0-.1 0 0 0-.1.1-.1.1 0 0 0 .1 0 .1 0 0zm.1 1.3s0 .1 0 0c0 .1 0 .1 0 0zm2-5.9c-.1 0-.1-.1 0 0-.1-.1-.1-.1 0 0-.1 0-.1 0 0 0zm.2-.5c0-.1-.1-.1-.1 0h.1c0 .1 0 .1 0 0m.7 0c-.1 0-.1 0-.1 0s0-.1-.1 0c-.1 0 0-.1.1-.2s0-.1-.1 0-.1.2-.2.2c0 .1-.1.1-.1.1s0 0-.1.1c0 0 0 .1-.1.1h.2c.2 0 .2 0 .1.1s0 .1.1-.1c.1-.1.1-.1.1-.1.2 0 .2 0 .2-.2.1 0 .1 0 0 0m.1.3c0-.1 0-.1 0 0-.1.1-.1.1-.1.2h.1c0-.1 0-.2 0-.2-.1 0-.1 0 0 0m-2.1-.9s0 .1 0 0c0 .1 0 .1 0 0 .1.1.1 0 0 0m.7-1.4c-.1.1-.1.1 0 0-.1.1 0 .1 0 0zm.2.1c-.1 0-.1 0 0 0-.1 0 0 0 0 0zm0-.2c0-.1 0-.1 0 0 0-.1-.1-.2-.2-.2 0 0 0 0 0-.1s0 0-.1 0c0 0-.1.1-.1.1 0 .1-.1.1-.1.2-.1.1-.1.1 0 0h.1.1c.1-.1.1-.1.2 0zm.6-.9c-.1.1-.1.1 0 0-.1.1 0 .1 0 0 .1-.1.1-.1 0 0m.2.1c-.2.1-.3.2-.2.2s.1 0 .2-.2zm-4.9 2.8c.1-.2.1-.2.1-.2s0 0-.1 0zm-.3-.5c0-.1.1-.1 0 0 0-.1 0 0 0 0-.2.1-.2.2-.1.1 0 0 .1-.1.1-.1zm3.1 16.4c.1 0 .1 0 0 0 .1.1.1.1 0 0 .1 0 .1 0 .1.1v.1h.1c.1 0 .1 0 .1.1h.1s.1 0 0 0 .1.1.2.1.2 0 .1-.1c-.1 0-.3-.2-.3-.2s0-.1-.1-.1-.1 0 0 0c0 0 0 0 0-.1-.1-.1-.1-.2 0-.1 0 0 0 0 0-.1 0 0 0-.1.1-.1s.1-.2 0-.2-.2-.2-.1-.3c0 0 .1 0 .1-.1s0-.2 0-.2-.1-.1-.1-.1c0-.1 0-.1.1 0h.1c0-.1 0-.1 0-.1h.1c.2 0 .3 0 .4-.1s0-.2 0-.2 0 0 0-.1c0 0-.1-.1-.1-.1s-.1-.1-.1-.1.1.1.2.1c.2 0 .2 0 .2-.1s.1-.2.1-.2c0-.2.1-.3.1-.2v.1s.1-.1.1-.2.1-.2 0-.3c0-.1 0-.2 0-.3.1-.1.4-.3.5-.3s.2-.1.2-.2c0 0 0-.1.1-.2 0-.1.1-.2 0-.2 0 0 0-.1 0-.2s0-.3 0-.4c0-.2 0-.3 0-.4.1-.2.3-.4.4-.7 0-.1 0-.2 0-.3 0-.2-.1-.2-.1-.2s-.2-.1-.3-.2c-.2-.2-.2-.2-.4-.2-.1 0-.2 0-.2-.1 0 0-.1 0-.2 0s-.1 0-.1-.1-.1-.1-.2-.2-.1-.1-.2-.1c0 .1 0 .1-.1.1 0 .1-.1.1-.1.1v-.1c.1-.1 0-.2-.1-.2s-.1 0-.1.1 0 .1-.1 0c0-.1 0-.2.1-.2.1-.1.1-.1 0-.2 0 0-.1-.1-.1-.2s-.1-.2-.1-.3c-.1-.1-.1-.2-.3-.2s-.2-.1-.3-.3c-.1-.1-.1-.2-.2-.2s-.1 0 0-.1c0-.1 0-.1 0-.1s-.1-.1-.1-.1c0-.1 0-.1-.1 0-.1 0-.2 0-.2 0h-.1c-.1 0-.1 0-.1-.1s0-.1-.1-.1 0 .1-.1.1h-.1c-.1.1-.1 0 0-.1s.1-.2-.1-.1c-.1.1-.1.1-.1.1h-.1s0 0-.1 0c0 0 0 0-.1 0v.1s-.1.1-.1.2c-.1.1-.1.1-.1 0s-.1-.2-.2-.1-.1.1-.1 0c0 0 0-.1 0-.2s0-.2.1-.4c.1-.3.1-.3.1-.4s-.1-.1-.2-.1c-.2 0-.2 0-.2-.1 0 0 .1-.1.1-.2s.1-.2.1-.1c0 0 0 0 .1-.1 0-.1.1-.2.1-.2.1-.2.1-.2 0-.2s-.2.1-.3.2c0 .1-.2.3-.2.2h-.1c-.1.1-.2 0-.2-.3 0-.2 0-.3.1-.5s.1-.3.1-.3.1-.1.1-.2c.1-.2.2-.4.2-.4s.1 0 .1-.1c.1-.1.2-.1.4 0 .1 0 .1 0 .1-.1s0-.1.2-.1c.1 0 .1 0 .2.1h.1c.1-.1.1.1 0 .3v.2.1.2s.1 0 .1-.1c.1-.1.1-.2.1-.6 0-.1 0-.2 0-.2 0-.1.2-.3.2-.3s.1 0 .1-.1c.1-.1.1-.1.1-.1s.1 0 .1-.1c0 0 .1-.1.1-.1s.1 0 .1-.1h.1s0 0 0-.1c0 0 .1-.1.1-.1 0-.1.1-.3.1-.3v.1.1s.1-.1.1-.2c0 0 0-.1.1-.1 0 0 .1 0 .1-.1.1-.1.1-.1.1-.1h.1s0-.1.1-.1.1 0 .1-.1.1-.3.3-.4c.1 0 .2-.1.2-.1s.1-.1.1-.1h.1c.1 0 .1 0 0 0 0 0-.1.1-.1.1s-.1.1-.1.2c0 0 .1 0 .1-.1.1 0 .1-.1.2-.1s.3-.1.3-.2h.1s0 0 0-.1 0-.1-.1 0-.1.1-.2.1-.2-.1-.1-.2c0-.1 0-.1 0-.1s.1-.1.1-.1c0-.1 0-.1-.1-.1s-.3.1-.5.3c-.1.1-.1.1 0-.1.1-.1.2-.2.2-.2.1 0 .1-.1.2-.1.1-.1.1-.1.3 0 .2 0 .3 0 .4-.1s.2-.1.3-.1.1-.1.2-.2c0-.1 0-.1 0-.2-.1 0-.1-.1 0-.1h-.1s0 0-.1 0c0 0-.1 0-.1-.1v-.1-.1s0-.2 0-.3 0-.2 0-.2c0 .1-.1.1-.1.1-.1.2-.3.2-.3.2s0 0-.1 0c0 0 0 0 0-.1.1-.2.1-.2 0-.2 0 0-.1 0-.1-.1s-.1-.1-.1-.1-.1 0-.2 0h-.1s-.1.1-.1.2c-.1.2-.1.2-.2.3s-.1.1 0 .1c0 .1 0 .2-.1.3 0 0-.1.1-.2.2-.1 0-.1.1-.1.1v.2c-.1.2-.1.3-.2.3s-.1 0-.1-.1 0-.2 0-.2c.2-.3.2-.3 0-.3-.1 0-.1 0-.1 0s-.1 0-.1-.1-.1-.1-.1-.1c-.1 0-.1 0-.1-.1s0-.1 0-.1c-.1 0 0-.1.2-.3.1-.2.3-.3.4-.3h.1c0-.1.1-.1.2-.1s.4-.3.4-.4h.1s.1 0 .1.1 0-.1.1-.1c0 0 .1 0 .1-.1 0 0 0 0 .1-.1 0 0 0 0 0-.1s0-.1 0-.1h.1v-.1h-.1.2c.1 0 .2 0 .2-.1s0-.1.1 0v.1s.1 0 0 0c0 0 0 .1.1.1.1.1.1.2-.1.3 0 0-.1 0-.1.1 0 0 0 .1-.1.1s-.1 0-.1 0-.1.1-.2.1h.2.2v.1c0 .1 0 .1.1.1s0 .1.1.1h.1c.1 0 .1-.1 0-.2s0-.1.1 0 .1.1.1 0c.1-.1.1-.1.1-.2s0-.1 0-.1 0 0-.1-.1c0-.1 0-.1.1-.1.1-.1.1 0 .1.1s.1.1.1 0 .1 0 .1-.1c0 0 .1-.1.1-.1h-.1s-.1 0-.1-.1c0 0 0-.1-.1-.1-.2 0-.2-.2-.1-.2s.1 0 .1-.1c0 0 0 0-.1 0s0 0-.1 0c0-.1-.1-.1-.1-.1s-.1 0-.1-.1 0-.1-.1-.1c.1-.1 0-.1-.1-.1s-.1 0-.1.1 0 0-.1 0c-.2.1-.2.1-.3.2v.1c0 .1 0 .1-.1 0v-.1-.1s0-.1.1-.1c.1-.1.1-.1 0 0-.1 0-.2.1-.3.2s-.1.1-.1.2 0 .1.1.1h.1c-.1 0-.1.1-.1.1s0 0-.1.1c0 0-.1.1-.1.1 0 .1-.1.1-.1 0v-.1-.1s0 0-.1 0c-.1.1-.1.1-.1 0s0-.1 0-.1 0 0 0-.1v-.2s0 0 .1-.1.1-.1.1-.1.2-.1.3-.2c0 0-.3.1-.3.1s-.1.1-.1.1c0 .1-.1.1-.1.2 0 0-.1.1-.1.1 0 .1 0 .1.1.1s0 .1-.1.1-.1.1-.1.1c0 .1 0 .1-.1.1 0 0 0 0 0-.1v-.1h.1s0 0 0-.1-.1-.1-.2 0-.1.1-.1.1c.1 0 0 0 0 .1-.1.1-.4.1-.4 0s-.2 0-.2.1h.1.1s0 0-.1.1c-.1 0-.1.1-.1.1s-.1.1-.1.1c.1-.1 0-.1-.2 0-.1 0-.1 0-.1 0s.1 0 .1-.1c.1 0 0-.1-.1 0h-.1-.1-.1c-.1.1-.1.1-.1 0s-.1.1-.1.1c-.1.1-.3.1-.3.2-.1 0-.1.1-.1 0-.1 0 0-.1-.2 0h-.1-.1s0 0-.1 0c0 0 0 0-.1 0 0 0-.1 0-.1.1-.1 0-.1.1-.2.1-.1.1-.2.3-.3.4v.1s0 0-.1 0l-.1.2h.1s0 .1-.1.1c0 0-.1.1-.1.1-.1.1-.2.3-.3.4v.1c0 .1 0 .1 0 0h.1.1v.1c0 .1-.1.1-.2.2s-.1.1-.1.1v.1s.1 0 .1-.1c0 0 .1-.1.2-.1 0 0 .1-.1.1-.1s.1-.1.1-.1.1-.1.1-.1c.1-.1.1-.1 0-.1 0 0 0-.1.1-.1 0 0 .1 0 .1-.1 0 0 .2-.2.2-.2s-.2.2-.2.2c-.1.1 0 0 .1 0 0 0 .1-.1.1-.1s0 0 .1-.1c0-.1.1-.1.1 0v.1c0 .1 0 0 .1 0-.1.1-.1.3-.1.3s.1-.2.1-.2 0 0 0-.1v.1.1s0 0 0-.1-.1.1-.1.1 0 0-.1 0v.1.1-.1c0-.1 0-.1.1-.1s-.1.2 0 .2c0 0 0 0-.1.1s-.1.2 0 .1c-.1.1-.1.1 0 .1v.1.1c0 .1-.1.1 0 .1s0 0-.1 0c0 .1 0 .3.1.3 0 0 0 0 0-.1s0-.2.1-.2v.1.2c0 .1 0 .1-.1 0 0 0 0 0-.1.1 0 .1-.1.2-.2.4s-.3.5-.4.8v.1c0 .1-.1.2 0 .2s-.1.1-.1.2 0 .2-.1.2v.1c.1 0 .1.1 0 .4 0 .1-.1.3-.1.4s0 .1-.1.2-.1 0 0 .3v.1c0 .1 0 .4 0 .3 0 0 0-.1 0-.2 0 0 0-.1 0-.2s0-.2 0-.2 0-.1 0-.2 0-.2 0-.2 0-.1 0-.2c.1-.1.1-.1.1-.1v.2.4.2.3c0 .3 0 .5-.1.6 0 0 0 .1-.1.1 0 .1 0 .3.1.3 0 0 0 .1.1.1 0 0 .1.1.1.2.1.1.1.1.2.1.1-.1.1 0 .2.2 0 .1.2.3.3.3v.2.2.1c.1 0 .1.1.1.2s0 .1.1.1c0 0 .1.1.1.1 0 .1.1.1.1 0s.1-.2.2-.2v.2c0 .2-.1.8-.1.8v.1.1s-.1.4-.1.5 0 .1.1.1.1.1 0 .2 0 .4.1.5c0 .1.1.3.2.4.1.2.2.4.2.5.1.1.1.2.1.3s.2.3.4.5.3.4.4.7.1.7.1 1v.2.1.2c.1.2.1.3 0 .6v.3.2.2.2.1-.1c0-.1 0-.1 0-.1s.1.1.1.3v.2.1h-.1c.1 0 .1.1.2.3 0 0 0 0-.1-.1 0 0-.1-.1-.1 0v.1s.1.1.1.1c0 .1 0 .1 0 0v-.1.2s.1 0 .1.2c.1.1.1.2.1.2h.1c.1-.2.2-.2.2-.3 0 .1 0 .1 0 0m-3.4-7.9s0 .1 0 0c0 .1 0 .1 0 0m-1.8-3.5c-.1.1-.1.1 0 .1-.1 0-.1 0 0-.1zm4.2-7.2c.1.1.2 0 .3-.1 0 0 .1-.1.2-.2h.1s-.1.1-.1.1-.1.1-.1.1c.1 0 .1 0 0 0 0 0-.1 0-.1.1h.1c.1 0 .2 0 .1 0 0 0 0 0-.1 0 0 0-.1 0-.2.1 0 0-.1 0-.1.1h.1s.1 0 0 0c0 .1.3-.1.4-.1h.1c.1 0 .3 0 .2-.1h.1.1s0 0-.1 0c0 0 0 0 0-.1s0-.1.1-.2c0 0 .1-.1.1-.1s-.1 0-.1.1c0 0-.1 0-.1.1 0 0 0 0-.1.1 0 .1-.1.1-.1 0s0-.1-.1 0 0 0-.1 0-.1 0-.1 0 0-.1-.1-.1h-.1s-.1 0-.1.1c0 0-.1.1-.1.1s0 .1-.1.1c0-.2 0-.2 0-.1m.5-.6c.1 0 .1 0 .2-.1h.1s.1-.1.1 0c0 0 .1 0 .2-.1s-.1 0-.3.1c-.2 0-.3.1-.3.1m.2 0c0-.1 0-.1 0 0 0-.1 0 0 0 0-.1 0-.1 0 0 0m.2-.2c-.1 0-.1 0-.2.1l-.1.1h.1.1s0 0 .2-.1c.1-.1.2-.1.2-.1.1 0 .2-.1.2-.1s0 0-.1 0-.1 0-.1 0c0-.1 0-.1-.1 0v.1s0 0-.1.1h-.1c.1-.1.1-.1 0-.1m.1-.2c.1 0 .1 0 0 0zm.2 0s.1 0 .1-.1c0 0 0 0-.1.1-.1 0-.1.1 0 0m.1-.1c.1 0 .1 0 0 0 .1-.1.1-.1 0 0 .1-.1 0 0 0 0-.1 0-.1 0 0 0m.1.3c.1 0 .1-.1 0 0zm.1.2c0 .1-.1.1 0 0-.1 0-.1 0-.1.1s0 0 .1.1h.1s.1 0 .1-.1c.1 0 .1-.1.1-.1s0 0 0-.1c.1 0 .1-.1 0-.1s-.2.1-.3.2c0-.1-.1 0 0 0m0-.4c0 .1 0 .1 0 0 .1.1.1.1 0 0 0 .1.1.1.1 0 .1 0 .1 0 0 0 0 .1 0 .1 0 0 .1 0 .2-.1.2-.2s0-.1-.1 0c-.1 0-.1 0-.1.1 0 0 0 .1-.1 0 .1.2.1.2 0 .1zm.1-.1c-.1 0-.1.1 0 0m.1-.2c.1 0 .1 0 0 0 0 .1 0 .1 0 0h.2.1c0-.1 0-.1-.1-.1 0 .1-.1.1-.2.1zm.4.3s0 0-.1 0c0 0 0 0-.1.1.1 0 .2 0 .2-.1m.1-.1s0 .1 0 0c.1.1 0 .1 0 .1h.4c.2 0 .4-.1.4-.1h.1s-.1 0-.3 0c-.3.1-.3.1-.3 0 0 0-.1-.1-.1-.1-.2 0-.3 0-.2.1-.1-.1-.1-.1 0 0-.2 0-.1 0 0 0m-.1-.2s.1 0 0 0c.2 0 .2 0 .1 0 0 0 0 0 0-.1s0 0-.1.1c0-.1 0-.1 0 0zm.4 0c-.1 0-.1.1 0 0-.1.1-.1.1 0 0zm0 0c0-.1 0-.1 0 0-.1 0-.1 0 0 0m-.1-.2c.1-.1.1-.1 0 0s-.1.1 0 .1c0 0 .1 0 .3-.1 0 0 .1 0 0 0-.1.1 0 .1 0 0 0 0 .1 0 0 0s0 0-.1 0-.1 0-.1 0 0 0-.1.1c-.2.1-.1.1.2 0 .4-.1.5-.1.4-.1 0 0 0 0 0-.1 0 0 .1-.1.1-.1h.1s.1 0 .1-.1c.1-.1.1-.1 0-.1s0 0 0-.1c.1 0 .3-.1.5-.2.1 0 .2-.1.2-.1.1 0 .1-.1.1-.1s.1-.1.2-.1.2-.1.2-.1c-.3-.1-.9.1-1.2.2-.1 0-.2.1-.3.1h-.1-.1s-.1.1-.2.1-.2.1-.1.1h.2s.1 0 .1-.1c.2 0 .3-.1.2 0 0 0-.1 0-.2.1-.1 0-.2 0-.2.1s0 0-.1 0-.1-.1-.2 0c-.1 0-.1.1-.2.1 0 0 0 0-.1 0 0 0-.1 0-.1.1.4.3.4.3.5.3m3.2-1.2h.2s0 0-.2 0zm2.8 2.7s-.2-.2-.2-.2-.1.1-.2.1-.2 0-.2.1h-.1s-.1-.1-.1 0c-.1 0-.1.1 0 .1s.1 0 0 .1v.1c.1 0 0 .1 0 .1h.1c.2-.1.6-.2.7-.4m-1.4 1.2c0-.1 0 0 0 0zm-.1.7c.1-.1.1-.2.1-.2 0-.1-.2-.1-.3 0 0 0-.1.1-.1.1s-.1 0-.1.1v.1.1c-.1.1-.1.1 0 .1h.1s.1 0 .2-.1c0 .1.1-.1.1-.2m.8.3c.1-.1.1-.2 0-.2 0 0-.1-.1-.1-.1 0-.1 0-.1-.1-.1 0 0-.1-.1-.1-.1s0-.1-.1-.1-.1 0 0-.1.1-.2 0-.2-.1 0 0-.1 0-.1 0-.1h-.1s-.1.1-.1.2c-.1.1-.1.2 0 .1v.1c0 .1 0 .1 0 0 .1-.1.1-.1 0 .1 0 .1 0 .1.1.1h.1v.1.1s-.1.1-.1.1c-.1 0-.1 0-.1.1v.1s-.1 0-.1.1h.1c.1 0 .1 0 0 0 0 0-.1.1-.2.1-.1.1-.1.1 0 .1 0 0 .1 0 .2-.1h.3.1s0 0 0-.1c.1 0 .1-.1.2-.1m.8-4.6s0 .1 0 0c0 .1.2.2.3.1h.1s0 0-.1.1c-.1 0-.1 0-.1.1 0 0 .1 0 0 0 0 0 0 0 .1.1s.1.1.1 0c0 0 0-.1.1-.1 0 0 .1 0 .1-.1 0 0 .1-.1.1-.1.1 0 .1.1.1.1 0 .1.2.1.2 0s-.1 0-.1-.1c-.1 0-.2-.1-.2-.1s-.1 0-.1-.1-.1-.1-.1 0v.1c-.2 0-.6-.1-.5 0m.7 0c.1 0 .2 0 .2.1.1 0 .3-.1.3-.1s-.3-.1-.3-.1-.1 0-.2 0c-.2 0-.2.1 0 .1m2.6.3c0 .1 0 .1.1 0h.1-.1c-.1-.1-.1-.1-.1 0m.4 1.6c0 .1 0 .1 0 0 .1.1.1.1.1 0zm.3-.3s.1 0 .1.1c0 0 .1.1.2.1h.1s-.1-.1-.1-.1c-.1-.1-.1-.1-.1-.1 0-.1.2-.3.2-.3s.1-.1.4-.1c.1 0 .1 0 .1-.1 0 0-.2-.1-.2 0 0 0-.1 0-.2 0-.2 0-.4.1-.5.2 0 .1-.1.1-.1.1v.1.1.1s0 .1-.1.1c0-.3.1-.2.2-.2m0-1.2c0-.1 0-.1 0 0m.1 0s.2.1.2 0c0 0-.1-.1-.2 0 0-.1 0-.1 0 0m.3 0c.1 0 .1-.1 0 0 0-.1 0-.1 0 0-.1 0-.1 0 0 0m2 .5c.1 0 .1 0 0 0 .1.1.2.1.3.2.2.1.2.1.1 0 0-.1 0-.1-.1-.1 0 0-.1 0-.1-.1s-.3-.2-.3-.1c0 0 0 0 .1.1-.1 0-.1 0 0 0m.5.4h.2.2s0-.1-.1-.1c0 0-.1 0-.1-.1 0 0-.1 0-.2.2.1-.1 0-.1 0 0m1.1.7c-.1 0-.1 0 0 0zm1.3.4c.1.1.3.1.3.1s0-.1-.2-.1c-.1 0-.1-.1-.2-.1s0 0 .1.1m.2.2c.1.1.2.1.1.1 0-.1-.1-.1-.1-.1m.2-.1s.1.1.1.1 0 0-.1-.1zm1.8 3.4c0-.1 0-.1 0 0m0 .8s-.1-.1 0 0c-.2-.2-.2-.2-.2-.1.1.1.1.2.1.2v.2c0 .1 0 .1 0 0 0 0 0 0 0-.1h.1v-.1c.1 0 .1-.1 0-.1m.1.7c0-.1 0-.1-.1-.3 0-.1-.1-.1-.1-.1v.2c0 .1.1.3 0 .4 0 .1 0 .1 0 0s0-.1 0 0v.2c-.1 0-.1.1-.1.2s0 .2 0 .1v.1c0 .2.1.2.1 0 0-.1 0-.1-.1-.2 0-.1-.1-.1 0-.1s.1 0 0 .1v.1c0 .1 0 .1 0 0v-.1c0-.1 0-.1 0-.1s0 0 .1.1c0 .1.1.1.1 0s0-.1 0-.1h.1c0 .1 0 0 0-.1.1-.3.1-.3 0-.4m.1 3.5c-.1 0-.1-.2-.1-.3 0 0 0-.1 0-.2s0-.1-.1-.1v.1.2.1.1c0 .1.1.1.1.1h.1s.1 0 0 0c.1.2.1.2.1.1s0-.1-.1-.1m.1.2c.1 0 .1 0 0 0zm.1 0c0 .1 0 .1 0 0 0 .1 0 .1.1.2 0 .1 0 .1 0 0-.1-.2-.1-.2-.1-.2zm-.3 2.8c.1 0 .1-.1 0 0 0-.1 0 0 0 0m.3-2.5c0 .1.1.1 0 0 .1 0 .1 0 0 0 0-.1 0-.1 0 0m0 0c0-.1-.1-.2-.1-.2v.1c0 .1 0 .1 0 0 .1 0 .1 0 .1.1 0 0 0 .1 0 0 0 .1 0 .1 0 0m-.2-.3c0-.1 0-.1 0-.1-.1 0 0 0 0 .1m0 .4c0-.1 0-.2 0-.2s-.1.1 0 .2c-.1.2-.1.2 0 0m-.5-2.2v.2c0 .1 0 .1.1.2v.1-.2c0-.1-.1-.4-.1-.3m-.3-4s.1.2.1.2.1.2.2.4c.1.3.1.4.1.3s0 0 0-.1-.1-.1-.1-.1c0-.1 0-.2 0-.2s0 0 0-.1-.2-.3-.2-.4c0 .1-.1.1-.1 0-.1-.1-.1-.1 0 0zm.3 8.5c.1 0 0-.1 0 0zm-.3-.5c0-.2 0-.2 0-.2zm0 .6h.1.3s0 0-.1 0c0 0-.1 0-.1-.1 0 0 0-.1-.1 0-.1 0-.1 0-.1 0 0-.1-.1 0-.2 0 0 .1.1.1.2.1m-.5-1.1c0 .1 0 .1 0 0m0 .4c.1 0 .1-.1 0 0 0-.1 0-.1 0 0zm.1-.4v.2.2c0 .2.1.5.2.5 0 0 .1-.1.1-.2 0-.2 0-.2 0-.3s0-.2 0-.2v-.1s0-.1-.1-.1c0 0 0-.1-.1-.1 0 0-.1-.1-.1-.2s-.2-.2-.2-.2h-.1s.1.2.2.3.1.2.1.2m.9 1.1c-.1.1-.1.1 0 0 0 .1 0 .1 0 0zm.2-.8v-.1s.1-.1.1-.2 0-.1.1-.1c0 0 .1-.1 0-.1v-.1c0-.1 0-.1 0-.1s0 0 0-.1v-.1s-.1-.1-.1-.1c-.1-.1-.1-.1-.1.1v.1.1c0 .1-.1.1-.1.2 0 0-.1.1-.1.1 0 .1 0 .1-.1.1 0 0-.1 0-.1.1s-.1.3 0 .3v.1.1h.1.1c.1-.1.2-.3.2-.3m-.1.8c-.1 0-.1.1-.1.1s0-.1.1-.1zm0 .1c0 .1.1.1 0 0zm.4-.2c-.1.1-.2.2-.2.2 0 .1 0 .1.1-.1 0 0 .1-.1.1-.1.1-.1 0-.1 0 0m.2-1.2c0 .1-.1.1-.2 0 0 0-.1.1-.1.2v.1s-.1.3-.1.3v.2.1s0-.1.1-.2c0-.1.1-.2.1-.2v.1c0 .1 0 .1 0 0s.1-.1 0 0v.1s0-.1 0-.2c0 0 0-.1 0-.2v-.1s0-.1.1-.1c.1-.1.1-.1 0-.1 0 0-.1 0-.1.1s-.1.1-.1 0v-.1c0-.1 0-.1.1-.1.1.2.1.2.2.1 0-.1 0-.1 0 0m0 1.5c-.1 0-.1 0 0 0-.1 0 0 0 0 0zm0-1c-.1.1-.1.1 0 0zm-.1-1.5c-.1.1-.1.1-.1.2v-.1s0 0 .1.1c0 .1.1.1.1.1s0 0 0-.1 0-.1 0-.1-.1-.3-.1-.3v.2c0 .1 0 .1 0 0m.2 2c0-.1 0 0 0 0m-.1-.5s.1 0 0 0c.1 0 .1 0 0 0h.1c.1-.1 0-.1-.1 0 .1-.1 0 0 0 0m.1-.3s.1-.3.1-.3c0-.1 0-.1 0 0-.1 0-.1.3-.1.3m.1-.1s.1 0 0 0c.1 0 .1-.1 0 0zm.9.6c.1 0 .1 0 0 0 .1 0 .1-.1 0 0 0-.1 0-.1 0 0m1.4-1.3c0 7.9-6.4 14.3-14.3 14.3s-14.3-6.4-14.3-14.3 6.4-14.3 14.3-14.3 14.3 6.4 14.3 14.3m-5.2-4.6c-.1 0-.1 0 0 0 0 0 0 .1 0 0zm-.4-2.8v.1c0 .2 0 .4-.1.4s.1 0 .1-.1c0 0 0-.1.1-.1 0 0 0-.2 0-.3-.1.1-.1 0-.1 0m-1.8 1.2c.1 0 .1-.1 0 0 0-.1 0-.1 0 0m.1-4c0 .1 0 .1 0 0 0 0-.1-.1 0 0-.1 0 0 0 0 0m-.3 3.9c-.2.1-.2.1-.1.2 0 .1.1.1.1 0-.1-.1 0-.1 0-.2zm.3.7s0 .1 0 0c.1.1.1 0 0 0 .1 0 .1 0 0 0m-1.1-4.4c0 .1.1.1.1.1s0 .1 0 0c0 0 0 0-.1-.1.1-.1 0-.1 0 0m1.2-.3s0 .1 0 0c0 .1.1.1 0 0 .1.1.1.1 0 0 .1.1 0 0 0 0m.1 3.8c.1.1.1.1 0 0 .1 0 .1 0 0 0m-12.5-5.1c-.1 0-.1 0-.1.1 0 0 0 0 .1-.1 0 .1 0 .1 0 0m-2.6 5.8c.1 0 .2 0 .2-.1.1-.1.1-.1 0-.1h-.1c-.2.1-.2.2-.1.2m-1-3.1s-.1.1-.1.1-.1.1-.1.1.1 0 .1-.1h.1s.1-.1.1-.1c.1 0 .1-.1 0-.1s-.1 0 0 0 0 .1-.1.1-.2.1-.2.1h.1s.1 0 .1-.1m.2 2.2c0 .1 0 .1 0 0 0 .1.1 0 0 0 .1 0 .1-.1 0 0 .1-.1.1 0 0 0m-.1-.3c0 .1-.1.2 0 .2 0 0 0-.1 0-.2zm.3-.4c-.1 0-.1.1-.1.1v.2.2c0 .1 0 .1 0 0 0 0 .1-.2.1-.3s0-.2 0-.2m-.2.1c-.1.1-.1.1-.1.1v.1.1s0 0 .1-.1c0-.1 0-.2 0-.2.1-.1.1-.1 0 0m.2-.5c-.1.1-.1.1-.1.1s.2-.2.2-.2c0-.1 0 0-.1.1zm-.3-.6c-.1 0-.1 0 0 0 0 .1-.1.1-.1.2 0 0-.1 0-.1.1h.1c.1 0 .1 0 .1-.1 0 0 .1-.1.1-.1.1 0 .1-.1.1-.1h.1c.1-.1 0 0-.1 0-.2 0-.2 0-.2 0m.1.3s-.1 0-.1.1c-.2.1-.2.1.1-.1zm.8-.6c-.1 0-.1.1 0 0-.1.1 0 .1 0 0m-.5 2.6c-.1.1-.3.5-.3.6s.1-.1.2-.2.1-.2.2-.3.1-.1.2 0v.1s-.1.1-.1.1.1 0 0 0v.1c0-.1.1-.1.1-.2.1-.1.1-.2.1-.2 0 .1.1 0 .1-.1s-.1-.1-.1 0c0-.1-.3 0-.4.1m0-.3c.1 0 .1 0 0 0 0 0 .1.1.2.1h.1c0-.1 0-.1 0-.1 0-.1 0-.1 0-.1 0-.1-.1-.1-.3.1-.1.1-.2.2-.2.2-.1-.1.1-.1.2-.2m.3-.4c-.1 0-.1.1 0 0-.1.1 0 0 0 0m-.2 1.2c-.1 0-.1.1-.1.1.1 0 .3-.1.4-.2s0-.1-.3.1m2.7-1.9c.1.1.1 0 0 0 .1 0 .1 0 0 0zm-.9.5c.1-.1.1-.2 0-.1zm.6-.5c0-.1 0-.1 0 0zm.3-3.9c.1 0 .1 0 0 0zm-1.7 2c-.1.1-.1.1 0 0 0 .1 0 .1 0 0m.5 16.1c.1 0 .1-.1 0 0 0-.1 0 0 0 0zm.9-17.9c.1 0 .1-.1 0 0 .1-.1.1-.1 0 0 .1-.1 0 0 0 0zm-1 4.1s0 .1 0 0c-.1.2-.1.2 0 0 .1 0 .1 0 0 0m0-2c0-.1 0-.1 0 0-.1 0-.1 0 0 0m1.1-1.1c.1 0 .1 0 0 0 .1 0 .1-.1.2-.1h-.1c-.1 0-.1.1-.1.1s0 .1 0 0m.5.2s.1-.1 0 0c.1-.1 0-.1 0 0zm-.3.6c.1 0 .1 0 0 0 .1-.1.1-.1 0 0 0 0 0 .1 0 0m7.2.2c0 .1 0 .1 0 0zm0-1c0 .1 0 .1 0 0 .1.1 0 0 0 0m1.5 12.1h.2s.1 0 0 0c0 0 0-.1.1-.2s.1-.2 0-.2-.3 0-.3 0 0 .1-.1.2c0 .2 0 .3.1.2m-1.2-11s0 .1 0 0c-.1.1-.1.1-.1.1s0 .1 0 0c0 .1.1 0 .1-.1zm-12.7 1.5c-.1 0-.1 0 0 0-.1.1-.1.1 0 0zm11-1s0 .1 0 0c0 .1.1.1 0 0 .1 0 .1-.1 0 0m10.4 3.1c0-.1 0-.1 0 0 0-.1 0 0 0 0m-9.1-3.5c0 .1 0 .1 0 0s0-.1 0 0m1.8 12.2c0-.1 0-.1 0-.1 0-.1 0 0 0 .1-.1.2-.1.3-.1.4v.1c0 .1 0 0 .1-.1 0-.1 0-.2 0-.2 0-.1 0-.2 0-.2m.4-2.3c0 .1 0 .2.1.2.1.1.1.1 0 0 0-.1-.1-.2-.1-.2 0-.1 0-.1 0-.1zm.1-1.4c0-.1 0-.1 0 0-.1-.1-.1-.1 0 0-.1 0-.1 0 0 0m-5.9.7c.1.1.1.1 0 0 .1 0 .1 0 0 0m0 .2c.1 0 .1 0 0 0 .1 0 .1-.1 0 0 .1-.1 0 0 0 0m2.3-1.2c-.1-.1-.1-.1 0 0 0 .2.1.2.1.1 0 0 0-.1-.1-.1m5.4-9.3c0 .1 0 .1 0 0zm-13.6 18.9s0 .1 0 0c0 .1 0 .1 0 0zm-.3-.5s.1.1 0 0c.1.1.1 0 0 0zm-.7-4.4c0 .1.1.1 0 0 .2.2.2.1 0 0zm-.4-4.3s-.1.2 0 .2c0 0 0 0 .1-.1 0 0 0-.2-.1-.1m-1.1-5s.1 0 0 0 0 .1 0 0c0 .1 0 .1 0 0m0 4.6c0 .1.1.1 0 0zm2.6 9.8s0 .1 0 0c0 0 .1 0 0 0zm3.8-19c-.1 0-.1 0 0 0-.1 0 0 0 0 0m.6 22.8c-.1 0-.1.1 0 0 0 .1 0 .1 0 0m-1.2-24.1c0 .1 0 .1 0 0zm3.6-.5c.1-.1.1-.1 0 0 .1-.1 0-.1 0 0zm11.5 10.9c0-.1 0-.1 0 0zm-12.4-9.5c0-.1 0-.1 0 0-.1 0-.1 0 0 0m40 10.4c0 17.2-13.6 29.8-30.9 29.8h-17.9v-11.9h17.9c9.9 0 17.8-8 17.8-17.9s-7.9-17.9-17.8-17.9h-17.9v-11.9h17.9c17.3 0 30.9 12.7 30.9 29.8"/></g></svg>