<svg enable-background="new 0 0 534 302" viewBox="0 0 534 302" xmlns="http://www.w3.org/2000/svg" xmlns:xlink="http://www.w3.org/1999/xlink"><radialGradient id="a" cx="1775.1387" cy="146.1262" gradientTransform="matrix(.4759 -.00004318 .00004318 .4759 -374.4723 83.8524)" gradientUnits="userSpaceOnUse" r="756.5562"><stop offset="0" stop-color="#01147b"/><stop offset=".0254902" stop-color="#011098"/><stop offset=".06430855" stop-color="#010abd"/><stop offset=".1032" stop-color="#0006da"/><stop offset=".1416" stop-color="#0003ee"/><stop offset=".1794" stop-color="#0001fb"/><stop offset=".2159" stop-color="#00f"/><stop offset="1" stop-color="#0ff" stop-opacity="0"/></radialGradient><path d="m241.7 203.4c.3 0 .3 0 .6.1 4.6.6 9.1 1.4 12.5 3 3.2 1.4 5.1 3.2 6.8 6.4 2.6 4.8 2.8 11.5.4 16.6-1.8 3.8-5.6 7-9.1 8.7-3.6 1.8-7.2 2.6-11.3 3.1-7.2.8-15-.7-21.4-3.8-3.8-1.9-8.5-5.1-10.9-9.2-1.7-3-1.7-7 .4-9.9 3.4-4.6 10.6-5.6 16-5.4 4.1.2 11.6 1.4 15.5 2.8 1.1.4 5.1 2 5.8 2.7.5.5.8 1.2.6 1.9-.9 2.7-7.6 4.2-9.5 4.5-5.2.8-7.8-1.2-13.7-3.5-1.5-.6-3.4-1.2-4.9-1.3-2.7-.3-5.9.5-6.4 3.4-.3 1.5 1.5 2.9 2.8 3.5 3.1 1.4 5.7 1.8 8.8 1.9 9.1.1 19.4-1.4 26.9-6.7 1-.7 2-1.8 2-3.1 0-2.7-4.7-4.4-4.7-4.4-5-2.1-14.4-3.1-19.1-3.5-5-.4-13-1.1-14.9-1.4-2-.3-4.1-.7-5.8-1.4-1.7-.8-3.4-2.5-3.9-4.4-.9-3.4.2-7.6 2.1-10.4 5-7.2 16.7-9.9 25.5-11 8.5-1.1 22.2-1 30.5 3.4 1.3.7 1.9 1.3 1.7 2.7-.5 2.6-2.5 4.2-4.8 5-2.5.8-7.6 1.1-9.8 1.2-10 .6-22.1.3-31.7 2.9-.7.2-2 .6-2.5 1-1.5 1.6 2.8 2.1 3.7 2.3.3.1.3.1.6.1zm-59.7-44.7s1.6-2.4 3-4.3c2.5-3.4 7-8.1 10.4-11 1-.9 2.3-1.9 2.3-1.9s-1.9.2-3 .4c-2.6.5-6.3 3-8.2 4.6-3.1 2.7-6.5 7-5 10.8.2.7.5 1.4.5 1.4m17.3 4.6c4.9-.3 9.5-1.8 13.8-4.1 4.2-2.3 10.4-6.9 9.7-12.3-.2-1.7-1.3-3.1-2.8-3.7-1.9-.8-2.8-.7-5.2 0-1.7.5-2.5.8-4.2 1.8-4.8 2.8-11.7 8.8-15.4 13.6-.9 1.1-1.7 2.4-2.4 3.3-.4.5-.8 1-.7 1.2.2.4 5.3.4 7.2.2m-12.5 9.2c-.5.5-1 1.8-1.6 2.8-.3.5-.8 1.1-1.2 1.4-1.3.9-2.4 1-3.6-.1-1.7-1.5-2.7-3.9-2.8-6.2 0-1 .1-2.1-.1-3-.3-1.4-1.7-2.9-2.5-4.3-.9-1.6-1.6-4.4-1.7-6.2-.3-5.7 2.7-10.9 6.5-15 3.9-4.2 9-7.6 14.6-10 5.2-2.2 12.9-3.7 18.7-1.7 1.9.6 4.5 2.2 5.8 3.9.3.3.5.7.8.9s.9.2 1.5.3c1.8.3 4.5 1.7 5.6 2.6 2.2 1.9 3.4 3.7 3.9 6.3 1.1 5.2-1.9 11-5.3 14.5-5.9 6-11.7 10.2-19.2 13.2-3.3 1.3-8.4 2.5-12.2 2.2-1.2-.1-2.4-.4-3.5-.5-.6-.1-2.7-.6-2.9-.7-.4-.3-.7-.4-.8-.4m6.7 11.6c.2 0 .6.1.9.3 2.6 1 3.7 3.4 4.4 6.1 1.5 6.2 2.1 20 2.4 25.4.2 4 .3 8 .5 12 .1 3.4.4 7.9-.3 11-.3 1.1-1 2.5-2.1 3.1-1.3.8-4.1.9-5.7.5-3.9-.8-5.1-3.3-5.7-7.1-1.3-9.1-.7-27 .1-34.5.3-2.5 1.2-10.5 2.5-13.8.4-1 1.4-3.3 3-3m-117.3 15.2s-5.7.4-9.7.8c-5 .5-14.5 2.2-19.9 4.1-1.6.6-5 2-5.2 3.7-.3 1.7.8 3.1 2 4.5.7.8 4.6 4.6 5.7 5.5 4.6 3.9 14 9.8 20.9 12.7 2.4 1 6.3 2.4 6.3 2.4s-.3-11.2-.2-22.2c0-5.8.1-11.5.1-11.5m105.2 4.4c.3 3-.4 8.7-.6 9.4-.2 1.7-1.5 5.7-1.8 6.2-1.1 2.4-2.1 4.4-3.2 6.4-1.9 3.4-6.4 8.8-9 11.1-9.9 8.5-25.2 13.4-38.3 15-8.9 1.1-19.1.9-28.6-.8-3.2-.6-8.1-1.7-8.1-1.7s0 1.9-.1 3.3c-.1.6-.5 2.3-.8 2.8-.7 1.4-1.8 2.1-3.4 2.5-2 .4-4.1.5-5.9-.3-3-1.3-4.1-4.1-4.6-7.3-.4-2.6-.9-7.1-.9-7.1s-2.2-1.1-4.1-2c-5.7-2.8-11.2-6.3-16-9.8-1.3-1-7-5.7-8.3-6.9-3.5-3.3-6.7-6.7-9.1-10.9-1.9-3.3-2.4-6.3-1-9.8 2-4.9 9-8.6 13.8-10.7 3.5-1.6 14.6-5.2 19.1-5.8 2.2-.3 5.5-.9 5.7-1l.2-.2c.1-.1.3-5 .2-6.8 0-1.8 1.3-13.2 1.7-15.7.2-1.3 1.2-6.4 2.2-7.7.7-.9 1.8-.8 2.8-.2 5.2 3.3 6.8 14.6 7.2 20.3.2 3.5.4 8.8.4 8.8s6-.2 9.7-.1c3.6.1 7.6.7 11.3 1.2 4.8.8 14.1 2.8 19.4 5.5 4.4 2.2 8.5 6 9.9 10 1.2 3.6 1.1 6.2-.8 9.5-2.1 3.7-6.1 6.5-10.2 6.7-1.2.1-5.8-.5-7.2-1.6-.5-.4-.5-1.2-.1-1.7.1-.2 2.3-1.3 3.5-2 .6-.3 1.2-.7 1.6-1.2 1-.9 2-1.9 1.9-3.1-.1-1.5-1.8-2.5-3.3-3.1-7.3-2.9-21.9-5.3-28.9-5.7-2.8-.2-6.7-.3-6.7-.3l.8 38.9s3.2.6 5.8 1c1.5.2 7.7.8 9.3.8 12.6.3 26.6-.8 38.1-6.2 5.1-2.4 9.7-5.3 13.2-9.4 4.6-5.3 7.1-12.6 6.4-20.2-.7-8.3-6.5-18.1-11.2-24.1-12.3-15.8-33.4-28.9-52-36.5-19-7.8-37.7-12.3-57.8-13-5.2-.2-16.5.1-22.2 1.7-.8.2-1.6.5-2.4.7-.6.1-1.5.5-1.8.8-.1.1-.3.3-.3.3s.4.2.7.3c.6.3 3.2.4 4.5.7 1.2.2 2.4.8 2.9 1.7.5.8.5 1.5 0 2.2-1.3 1.6-6.2 1.3-8.3 1-2.2-.4-5-1-5.5-3-.6-2.3.5-4.5 1.7-6.6 2.4-4.2 5.7-6.3 10.7-7.7 7-1.9 15.9-3.3 22.5-3.5 15-.6 29.2 2.1 43.8 6.5 8.3 2.5 19.2 6.7 27.2 10.6 5.7 2.8 14.8 7.8 19.8 11.2 1.6 1.1 11 7.9 12.4 9.1 3 2.5 7 6 9.9 8.9 5.6 5.5 12.5 13.9 15.8 20.7.8 1.6 1.4 3.2 2.5 5 .4.6 1.9 4.4 2.1 5.5.3 1.1.6 2.7.7 2.8.5.1 1.2 3.3 1.1 4.6zm188.9-8.6c-7 1.6-25.5 2.5-25.5 2.5l-2.3 7.3s9.2-.8 16-.1c0 0 2.2-.3 2.4 2.5.1 2.5-.2 5.3-.2 5.3s-.1 1.7-2.5 2.1c-2.5.4-19.9 1.1-19.9 1.1l-2.8 9.5s-1 2.2 1.3 1.6c2.2-.6 20.4-4 22.8-3.5 2.5.6 5.4 4 4.5 7.1-1 3.8-19.2 15.4-30.2 14.6 0 0-5.8.4-10.7-7.5-4.6-7.5 1.7-21.7 1.7-21.7s-2.9-6.6-.8-8.9c0 0 1.2-1.1 4.9-1.4l4.5-9.2s-5.1.3-8.1-3.4c-2.8-3.5-3-5.2-.9-6.1 2.3-1.1 23.5-5 38-4.5 0 0 5.1-.5 9.4 8.3-.1 0 2 3.6-1.6 4.4zm-54.7 35.5c-1.9 4.4-6.8 9.1-12.9 6.2-6-2.9-15.7-22.6-15.7-22.6s-3.7-7.3-4.4-7.2c0 0-.8-1.4-1.3 6.6s.1 23.6-3.1 26c-3 2.5-6.7 1.5-8.6-1.4-1.7-2.8-2.4-9.6-1.5-21.4 1.1-11.8 3.9-24.4 7.4-28.3s6.3-1.1 7.4 0c0 0 4.7 4.3 12.4 16.7l1.4 2.3s7 11.8 7.8 11.8c0 0 .6.5 1.1.1.7-.2.4-4 .4-4s-1.5-12.9-7.9-34.6c0 0-1-2.7-.3-5.3s3.2-1.4 3.2-1.4 9.9 5 14.8 21.2 1.6 30.9-.2 35.3zm106.9-9.7c-4.5 7.9-17.3 24.4-34.3 20.5-5.6 13.6-10.3 27.4-13 47.9 0 0-.6 4-3.9 2.6-3.3-1.2-8.7-6.6-9.8-14.2-1.2-10 3.3-26.8 12.3-46.1-2.6-4.3-4.4-10.4-2.9-19.2 0 0 2.3-16.2 18.6-30.8 0 0 2-1.7 3.1-1.2 1.2.5.7 5.8-.3 8.4s-8.3 15.1-8.3 15.1-4.5 8.5-3.3 15.2c8.5-13.1 28-39.6 40-31.3 4 2.9 5.9 9.2 5.9 16 0 6-1.4 12.3-4.1 17.1zm-3.5-20.8s-.7-5.2-5.8.5c-4.4 4.9-12.3 14-18.7 26.3 6.7-.8 13.1-4.4 15.1-6.2 3.2-2.8 10.6-10.5 9.4-20.6zm97.1-1.2h-31.1c-.6-10.6-1.9-20.9-3.9-31.5-.2-1.1-1.2-1.9-2.3-1.9h-7.2c-.6 0-1.2.3-1.6.8s-.6 1.1-.4 1.8c2 10.3 3.3 20.4 4 30.9h-29.9c-1.4 0-2.5 1.1-2.5 2.5v6.5c0 1.4 1.1 2.5 2.5 2.5h30.4v4.4c0 9.3-.4 17-1.3 25.7-.1.7.1 1.3.6 1.8.4.5 1.1.8 1.7.8h6.7c1.3 0 2.4-1 2.5-2.3.9-8.7 1.3-16.5 1.3-26 0-1.3 0-2.8 0-4.4h30.7c1.4 0 2.5-1.1 2.5-2.5v-6.5c-.2-1.5-1.3-2.6-2.7-2.6z" fill="#01147b"/><path d="m476.8 150.3c-15.8-39-42.7-72.3-77.5-96.1-35.7-24.5-77.5-37.4-121-37.4-71.9 0-138.5 35.7-178.3 95.5-.4.6-.5 1.5-.3 2.2.3.8.8 1.3 1.6 1.6l5.6 1.9c.3.1.7.2 1 .2 1 0 2-.5 2.6-1.4 18.3-26.8 43-49.2 71.5-64.6 29.4-15.9 62.8-24.4 96.4-24.4 40.7 0 79.9 12 113.4 34.7 32.7 22.1 58.2 53 73.5 89.3.5 1.1 1.5 1.8 2.7 1.8h6.7c.8 0 1.5-.4 1.9-1 .5-.8.5-1.6.2-2.3z" fill="url(#a)"/></svg>