<svg enable-background="new 0 0 314 178" viewBox="0 0 314 178" xmlns="http://www.w3.org/2000/svg"><g fill="#243e65"><path d="m-1744.1 4628.7h10.2l-10.2-10.2z"/><path d="m-1764.4 4659.3v-10.2h-10.2z"/><path d="m72 14.5c0-.4-.3-1.6-1.7-1.6-2.2 0-6.7 4-8.5 6 .7.2 1.5.4 2.5.4 2.2-.1 7.7-2.2 7.7-4.8z"/><path d="m59 16.1.1.7c1.4-1.6 3.4-3.3 5.4-4.4-3.7.5-5.5 2.4-5.5 3.7z"/><path d="m134.4 31.7c0-1.2-.3-2-1.1-2-1.2-.1-4.4 4.9-6.6 8.8 3.2 0 7.7-3.1 7.7-6.8z"/><path d="m14.3 32.2c0 1.1 4.5 4.9 11.1 7.3 0-2.9 0-7.2.1-10.3-5.4.3-11.2 1.1-11.2 3z"/><path d="m313.3 72.1c-.5-1.1-1.1-2.1-1.9-2.9l-23.9-23.8c-.8-.8-1.8-1.5-3-2-1.1-.4-2.2-.7-3.3-.7h-124.1c-11-11-18.8-18.8-18.8-18.8-.3-.3-2.6-2.6-5.2-2.6-1.6 0-3.3.8-3.3.8l-1.6-1.5c-.8-.5-3.6-1.8-6.6.5l-1 .9-1.6-1c-1.2-.6-2.6-1-4.3-1-.3 0-9.4.6-11.7 1.5-.5-.7-1.6-2-3.5-3.1-.7-.4-3.6-1.6-6.3.3l-1.8 1.9-.5 1c-.3-.1-1.8-.3-3.1.2-2-1.1-3.5-1.8-9.8-1.8 1.1-1.7 2.5-4.7 1.3-8.6-.2-.8-1.4-3.7-5.6-4.9l-1.7-1.4c-1.3-.7-5.1-2.3-11.5.1-2.9 1.1-5.2 3.2-6.7 4.9l-1.6 2.4c-3.8-3-8.3-5.7-13.1-7.8-6.5-2.8-13.6-4.7-20.8-4.7h-1.1c-2.7.1-5.4.3-7.4.6-1.9.4-5.6.8-8.6 5.2l-.8 1.7c-.7 2.3-.3 3.7-.1 4.4l.9 1.7 2.1 1.8c1 .6 1.8.7 2.5.8 4.3.5 6.2-1 7-1.9l.5-.7c2.8-.1 6.4.3 9.2.9-.2.2-1 1.9-1.3 3.5-.2 1.1-.4 2.1-.5 3.2-.4.1-5.2 1.3-8.3 3.4-1 .7-2 1.5-2.9 2.6-2.7 3.2-1.4 6.9-1.1 7.6 1.3 3 3.6 5.2 4.4 6l69.5 69.5-19.3 19.3c-.8.8-1.5 1.8-2 3-.4 1.1-.7 2.2-.7 3.3v34.7c0 1.9.7 3.8 2.2 5.2 1.4 1.4 3.3 2.2 5.2 2.2h34.7c1.1 0 2.3-.2 3.3-.7 1.1-.5 2.2-1.2 3-2l19.3-19.3 19.3 19.3c.8.8 1.8 1.5 3 2 1.1.5 2.2.7 3.3.7h127.6c1.1 0 2.2-.2 3.3-.7s2.2-1.2 3-2l23.9-23.9c.8-.8 1.4-1.8 1.9-2.9l.7-2.7v-.1-70.2c0-1.1-.2-2.3-.7-3.4zm-188.4-47.4c.7-.6 1.4 1 .8 2.2-.5 1.2-3.5 5.9-3.5 7.5l.3 1.1c2.9-3.7 7.9-9.2 10.6-9.4.9 0 3.9 1.2 3.9 6.2s-6 10.8-11.5 10.8h-.8c-.5 2.2-2.1 7.5-3 10.4-.7 2.1-.8 5-1.3 5.2-1.4.3-3.7-1.9-3.7-4.2-.1-4.3 2.4-11.6 3.4-14.8-.6-1.2-.9-2.5-.9-3.7-.2-5 4.3-10.2 5.7-11.3zm-20.8 8.5c.1-1.3 2.1-1.5 2.2-2l.5-2.2c-.1-.4-2.8-1-2.8-2.3 0-1.5 5.8-1.4 10.2-1.9 2.6-.3 4.7 2.1 4.5 2.7l-1.4 1.2-6.8.6-.5 2.2 4.5.4c1.2.1 1.5 2.7-.4 2.7l-5.3.2-.9 3.5c.3.3 5.5-.9 6.4-.9s2.2 1.1 2.1 1.9c-.1.6-4.4 3.9-9.1 4.1-3 .1-4.1-3.2-4.1-4.7 0-.9.9-3.2 1.2-4.3zm-14.3-7.1c2.2.3 7.6 10 8.2 9.8l.4-1.5c0-2.5-2.6-8.9-2.6-10.8l.7-1.2c2.2 0 6 6.9 6 12.6 0 2.5-1.5 6.3-4.1 6.3-2.4.1-6.7-8.8-7.5-8.8-1.1 0 .3 9.7-2.3 9.7-1.8 0-2.2-1.6-2.2-4-.1-2.5 1.1-12.2 3.4-12.1zm-11.4-1.5c2.6 0 7.1 0 7.1 1.7 0 2.9-14.5 1.4-14.5 3.5 0 .6 3.1.8 6.1 1.1 3.9.3 8.4.8 8.4 5.5 0 2-1.7 5.7-8.3 5.7-6.7.1-9.1-3.4-9.1-4.9 0-2.8 2.7-3.6 4.6-3.6 1.8 0 7.6.6 7.6 2 0 .9-1.4 1.6-3.2 1.6s-4.3-1.6-5.5-1.6-1.8.9-1.8 1.4c0 .4.1 1.4 3.4 1.4 1.6 0 9.4-.9 9.4-3 0-1-3.6-2-6.5-2.3-3.6-.4-9 .5-9-3.1-.3-5.2 9.4-5.4 11.3-5.4zm-39.7 20.6c-2.9 0-5.6-.4-8.1-.9-.2 1.2-.7 2.4-2.3 2.4-2.2 0-2.7-1.8-2.8-4.2-7.7-3.3-12.5-8.9-12.5-11 0-2.7 5.9-5.4 12.6-6.4.1-3.2.6-8.8 2.1-8.9 1.9 0 2.4 5.1 2.5 8.5h.5c11.9 0 15.5 3.4 15.5 6.3 0 2.2-2.5 3.6-2.7 3.6-1.2 0-2.6 0-2.7-.6l1.5-2.3c0-1-5.8-2.6-10.2-2.6l-1.9.1c.1 3.4.2 9.1.3 11.6 2 .4 4 .6 6.1.6 6 0 16.8-1.9 16.8-10.2 0-10.7-21-23.3-39.2-23.3-2.1 0-6.4.3-6.4 1l1.2 1.3-1.6.6c-.8 0-2.2 0-2.2-1.2s1.1-1.9 1.9-2.8c1-1.1 5.1-1.8 10.2-1.9 19.3-.6 41.5 15.2 41.5 26.1 0 8.2-8.9 14.2-20.1 14.2zm20.1-22.1c-.7 0-1.3-.6-1.3-3-.9-1.1-1.3-2.3-1.3-3.3 0-2.8 4.2-8.1 10.7-8.1 2.1 0 3.5 1 4.5 1.9 2.3.3 3.2 1.2 3.2 3 0 3.9-6.6 8.7-10.8 8.7-1.3 0-2.5-.2-3.4-.4zm4.5 19.3c-1.7.1-2.6-.7-2.5-7 .1-2.8.1-10.4 2-10.4 1.5 0 2.1 1.9 2.4 12 .1 5.3-.4 5.4-1.9 5.4zm126.9 42.2-.3 1.4-.8 1.2-21.8 21.8v2.8l21.8 21.7.8 1.2.3 1.3v34.6l-.6 1.4-1.4.6h-34.6l-1.3-.2-1.2-.9-21.8-21.8h-2.7l-21.8 21.8-1.2.9-1.3.2h-34.6l-1.4-.6-.6-1.4v-34.6l.3-1.3.8-1.2 21.8-21.7v-2.8l-21.7-21.8-.8-1.2-.3-1.4v-34.5l.6-1.4 1.4-.6h33.2l1.3.3 1.2.8 23.2 23.2h2.7l23.2-23.2 1.2-.8 1.3-.3h33.2l1.4.6.6 1.4v34.5zm118.3 60.5-.3 1.4-.8 1.1-23.8 23.8-1.2.9-1.3.2h-83.6l-1.4-.6-.6-1.4v-120.5l.6-1.4 1.4-.6h83.6l1.3.3 1.2.8 23.9 23.9.8 1.1.3 1.5v69.5z"/><path d="m302 169.3.7-.8 1.1.3h.1l.2-.5h-.1l-1.2-.4c-.6 0-1.4.5-1.4 1.6v.3l2 .8.3.5-.9.7-1.1-.7h-.1l-.4.3v.1l1.6 1 1.5-1.4-.7-1z"/><path d="m308 167.9h-.1l-1.2 2.5-1.2-2.5h-.2l-.4.1-.1.2v4.1h.1.5.1v-3l1.1 2.2h.1l1.2-2.2v3h.1.4.1v-4.3l-.1-.1z"/></g></svg>