<svg height="344.78992" viewBox="0 0 154.44865 91.225669" width="583.74298" xmlns="http://www.w3.org/2000/svg"><g transform="translate(11.334031 -269.530021)"><g fill="none"><path d="m78.255325 353.23116c-1.825268.0445-2.378852 1.34616-2.378852 2.36551 0 1.8564 1.435093 2.40998 2.642305 2.40998.830374 0 2.491124-.40907 2.491124-2.40998.0011-1.50401-1.037135-2.4222-2.754577-2.36551z" stroke-width="1.111613"/><path d="m41.048527 353.66469c-.553584-.45243-1.248342-.52246-1.682983-.52246-1.724111 0-2.15764 1.06937-2.331052 1.49067h4.669886c-.140063-.35127-.225657-.61027-.655851-.96821z" stroke-width="1.111613"/><path d="m67.802 13.712-.787.911 4.706 1.376-.193 1.454 3.305-1.567 1.109 3.05.64-.232.662-.238-1.109-3.056 3.543-.929-1.11-.978 2.75-4.086-1.211-.182v-2.959l-1.816 1.222-1.138-.764-1.674 3.526-.409-5.467-1.312 1.534-2.456-2.139-.51 3.214-1.964-.339 3.17 4.464-3.518-1.64-.376 1.324-2.207.243z" transform="matrix(1.111613 0 0 1.111613 -11.069449 269.7946)"/><path d="m34.530028 322.56287c0-4.83218-3.509362-9.42981-11.568557-9.42981-7.110988 0-11.754195 3.48601-11.754195 9.42981 0 6.7386 5.687012 9.83333 11.568556 9.83333 7.1121-.001 11.754196-4.28527 11.754196-9.83333z" stroke-width="1.111613"/></g><path d="m84.182446 288.73649-6.895336-18.94189-18.939662 6.89422 6.892001 18.94189z"/><path d="m34.530028 339.6806v4.11964h22.282282v-56.03308h-22.282282v18.23156c-3.509362-2.29659-8.533853-5.54917-18.680657-5.54917-17.5323598 0-26.91882 10.77598-26.91882 22.50905 0 12.84025 10.8082132 21.79762 26.64314 21.79762 4.069616 0 7.963596-.6414 11.561887-1.74856 3.792824-1.10717 5.501373-2.13875 7.39445-3.32706zm-23.322752-17.11773c0-5.94491 4.643207-9.42981 11.754195-9.42981 8.059195 0 11.568557 4.59874 11.568557 9.42981 0 5.54806-4.643208 9.83333-11.754196 9.83333-5.881544-.001-11.568556-3.09584-11.568556-9.83333z"/><path d="m60.119358 302.06696h18.48279v41.689938h-18.48279z"/><path d="m30.287001 351.5315c-.76479-.44575-1.59183-.63473-2.821274-.63473-1.886407 0-2.975788.59805-3.978463 1.32727v-1.15719h-4.117414v9.17192h4.117414v-4.08296c0-.81147.0189-1.61072.75812-2.221.387953-.30792.871505-.42797 1.368396-.42797.76479 0 1.679647.30792 1.974225 1.36617.0667.24567.104491.57248.104491 1.17609v4.19078h4.098517v-4.83218c0-1.81193-.08559-3.03915-1.504012-3.8762z"/><path d="m44.630144 352.51973c-1.423977-1.45288-3.509363-1.71077-5.365756-1.71077-1.366173 0-4.117415.0567-5.677008 2.04425-.481328.60472-.914857 1.55404-.914857 2.76125 0 2.14652 1.265015 3.56716 3.029145 4.27193 1.122729.45354 2.331052.60471 3.550492.60471.793692 0 2.97023-.10115 4.56206-.96265 1.26835-.6981 1.710772-1.55293 1.937541-1.97534l-4.253031-.2012c-.245667.24567-.417967.40907-.849273.58471-.295689.11894-.729218.24566-1.211658.24566-.77924 0-2.210998-.34682-2.544482-1.95643h9.097441c-.03224-1.01935-.08559-2.40331-1.360614-3.70612zm-7.595652 2.11317c.1723-.4213.606941-1.49067 2.331052-1.49067.434641 0 1.129399.07 1.682983.52246.431305.35794.515788.61694.656963.96821z"/><path d="m51.393197 356.82945v-3.01358h1.468441v-2.36551h-1.487338v-3.1014h-3.945115l-.03112 3.1014h-1.320596v2.36551h1.282801l-.05336 3.71834-.0189.62918c.0189.46465 0 .93042.399069 1.43398.533575.51579 1.248342.6036 2.575608.6414h2.616737v-2.59895c-1.054921 0-1.45399 0-1.486227-.81037z"/><path d="m67.964012 351.06685-.761455 3.944c-.1723.83038-.210095 1.03825-.346823 1.88752-.122278-1.05714-.194532-1.31504-.533574-2.32216l-1.283913-3.50936h-4.116303l-1.469553 3.49713c-.417966 1.04937-.481328 1.31504-.653628 2.28326-.09115-.77924-.122278-.98823-.257894-1.83639l-.625838-3.944h-4.464238l3.056935 9.16525h4.105187l1.676313-4.06406c.307917-.79258.377948-.98711.603606-1.81749.188974.76146.257894.99379.553583 1.80526l1.468441 4.07629h4.032932l3.305937-9.16525z"/><path d="m78.143052 350.82674c-3.252579.0511-6.486262 1.3973-6.486262 4.83885 0 3.60385 3.560497 4.81218 6.775282 4.81218 3.793935 0 6.781951-1.60962 6.781951-4.8433-.0011-2.31549-1.692987-4.87554-7.070971-4.80773zm.376837 7.1788c-1.207212 0-2.642304-.55359-2.642304-2.40998 0-1.01935.553583-2.32105 2.378852-2.36551 1.717442-.0567 2.755688.8615 2.755688 2.36551-.0011 2.0009-1.661861 2.40998-2.492236 2.40998z"/><path d="m90.13958 352.51973v-1.45288h-4.082955v9.17192h4.064057v-4.10185c.0189-.41464.03668-.84928.440199-1.20722.252336-.24566.685865-.49022 1.774134-.49022.352382 0 .66141.0378.975997.0745v-3.61719c-.522458.0133-1.138292.05-1.906417.46577-.515788.27679-.944871.67252-1.265015 1.15719z"/><path d="m94.505 70.373.028 10.99h3.611v-1.783l1.476-1.272 2.026 3.055h4.058l-3.61-5.217 3.491-3.017h-4.629l-2.829 2.632v-5.388z" transform="matrix(1.111613 0 0 1.111613 -11.069449 269.7946)"/><path d="m74.896032 292.17194 20.977224 35.45412c2.12783 3.07358 2.430535 5.34148-2.148273 5.45447h-11.752298v10.90897h17.059791c9.427154.55057 17.320294-4.76776 23.378234-17.10724l20.43934-34.72868h-23.97767l-10.10951 24.56351-9.604026-24.54515z" fill-rule="evenodd"/></g></svg>