<svg enable-background="new 0 0 194.5 194.5" viewBox="0 0 194.5 194.5" xmlns="http://www.w3.org/2000/svg"><g fill="#fff"><path d="m79.7 131c-1.3 0-2.2.9-2.3 2.6h4.5c0-1.7-.9-2.6-2.2-2.6z"/><path d="m75.6 92.5c0-3.9-.3-13.3-6.1-13.3-8.5 0-9.7 16.4-9.7 22.4 0 3.8.3 13.2 6.1 13.2 8.5 0 9.7-16.4 9.7-22.3z"/><path d="m121.7 131.2c-1.6 0-2.3 1.2-2.3 3.8s.7 3.9 2.3 3.9 2.3-1.2 2.3-3.9c0-2.6-.7-3.8-2.3-3.8z"/><path d="m115.4 79.2c-8.5 0-9.7 16.4-9.7 22.4 0 3.8.3 13.2 6.1 13.2 8.5 0 9.7-16.4 9.7-22.3 0-4-.3-13.3-6.1-13.3z"/><path d="m151.5 102.7c0 2 .5 6.9 3.4 6.9 4 0 7.6-6.9 8.8-10 2.2-5.7 2.9-10.9 4.1-19.5-.5-.2-1-.3-1.5-.3-10 0-14.8 14.7-14.8 22.9z"/><path d="m97.2 0c-53.7 0-97.2 43.5-97.2 97.3 0 17.3 4.5 33.5 12.4 47.6 4.7-2.6 5.4-4.8 7.5-14.2.9-4.3 4.3-35.6 6.1-51h-6l.5-3.4h5.9l.9-5.1c3.7-19.8 18.4-21.8 23.5-21.7 2.8 0 8.2 1.5 8.1 5 0 2.5-2.1 3.5-4.4 3.5-3.5-.1-5.1-2.3-6.8-5.2-6.2 2.6-7.4 16.8-8.1 23.4h7.7l-.5 3.3h-7.6c-2.2 21.3-4 39-5.6 47-2.4 11.5-11.4 18.8-19.5 21.3-.5-.8-1-1.7-1.5-2.5 16.7 29.4 48.3 49.2 84.6 49.2 53.7 0 97.2-43.5 97.2-97.2.1-53.8-43.5-97.3-97.2-97.3zm-50.7 103.9c0-15.2 9.9-28.3 26.3-28.3 10.1 0 16.1 4.5 16.1 14.3 0 15.2-9.9 28.3-26.3 28.3-10.2.1-16.1-4.4-16.1-14.3zm23.4 37h-2.8v-7.6c0-1.6-.5-2.1-1.4-2.1-1.2 0-2.1.7-2.6 1.2v8.5h-2.8v-11.8h2.6v1.3c1-.7 2.2-1.5 3.6-1.5 2.3 0 3.5 1.5 3.5 3.9v8.1zm9.7.2c-3.1 0-5-2.4-5-6.1s1.9-6.1 5.1-6.1c3.1 0 4.8 2.6 4.8 5.4v1.2h-7.1c.1 2.4 1.1 3.4 2.5 3.4 1.3 0 1.9-.6 2.6-1.4l2 1.3c-1.1 1.6-2.7 2.3-4.9 2.3zm15.5-9.7h-2.3v6.7c0 .6.3.8 1 .8.4 0 .9-.1 1.3-.2v2.3c-.8.1-1.5.2-2.2.2-2.1 0-2.9-1-2.9-2.7v-7h-1.6v-2.3h1.6v-3.9h2.8v3.9h2.3zm15 9.5h-2.5l-1.7-7.3h-.1l-1.7 7.3h-2.5l-3-11.8h2.7l1.6 7.3 1.7-7.3h2.6l1.6 7.3 1.7-7.3h2.7zm11.6.2c-3.2 0-5.1-2.4-5.1-6.1s1.9-6.1 5.1-6.1 5.1 2.4 5.1 6.1c.1 3.7-1.9 6.1-5.1 6.1zm-13.2-22.8c-10.1 0-16.1-4.5-16.1-14.3 0-15.2 9.9-28.3 26.3-28.3 10.1 0 16.1 4.5 16.1 14.3 0 15.1-9.9 28.3-26.3 28.3zm28.8 13.6c-.1 0-.3 0-.5 0-1.4 0-2.6 1.6-2.6 1.9v7.1h-2.8v-11.8h2.6v2c.7-1.4 1.6-2.2 3.3-2.2zm11.3 9-2.6-5.3-1.4 1.6v3.6h-2.8v-16.3h2.8v9.1h.1l3.5-4.5h3.2l-3.5 4.4 3.7 7.4zm16-28.2c0-1.9.2-4.6.6-9.7l-.2-.2c-3.3 6.6-9.7 15.5-18 15.5-6.6 0-9.4-6.9-9.4-12.6 0-14.4 11.4-29.4 27.3-29.4h3.3c1.3-10 1.4-14.2 1.4-17.2 0-1 0-1.9-1.1-1.9-.8 0-2.1.3-5.3 1.3l-.8-2.7c6.5-2.3 13.6-3.8 19.9-3.9.8 0 1.1 0 1.1 1.4 0 8.4-6.3 52-6.3 56.5 0 1.2 0 2.8 1.2 2.8.6 0 2.8-.7 5.6-1.7l.8 2.6c-5.8 2.8-12.8 5.1-17.7 5.1-2.5-.3-2.4-4.3-2.4-5.9z"/><path d="m12.4 144.8c.1.2.2.3.3.5-.1-.2-.2-.3-.3-.5z"/></g></svg>