<svg enable-background="new 0 0 566.929 243.378" height="430.569" viewBox="0 0 999.99997 430.56899" width="1000" xmlns="http://www.w3.org/2000/svg"><g fill="#003998" transform="matrix(1.7638893 0 0 1.7638893 0 .000094)"><path d="m68.868 66.704v31.729h67.064v66.345h-67.064v78.6h-68.868v-243.378h146.388l4.688 66.704z"/><path d="m347.686 37.411c22.847 23.321 34.277 51.473 34.277 84.45 0 33.216-11.431 61.483-34.277 84.807-22.851 23.32-50.411 34.98-82.682 34.98-32.508 0-60.191-11.66-83.037-34.98-22.852-23.323-34.275-51.591-34.275-84.807 0-32.978 11.423-61.129 34.275-84.45 22.846-23.321 50.529-34.982 83.037-34.982 32.27 0 59.831 11.661 82.682 34.982zm-102.47 133.212c0 5.423 1.999 10.132 6.007 14.135 4.002 4.008 8.834 6.008 14.487 6.008 5.654 0 10.424-2 14.311-6.008 3.888-4.003 5.831-8.712 5.831-14.135v-98.584c0-5.653-1.943-10.479-5.831-14.487-3.886-4.002-8.656-6.007-14.311-6.007-5.653 0-10.484 2.005-14.487 6.007-4.009 4.008-6.007 8.834-6.007 14.487z"/><path d="m489.407 244.102-34.612-61.658-33.532 61.658h-75.718l72.113-126.198-68.147-117.904h77.882l28.485 52.642 28.844-52.642h75.356l-66.704 117.182 73.555 126.919h-77.522z"/></g></svg>