<svg enable-background="new 0 0 194.5 196.4" viewBox="0 0 194.5 196.4" xmlns="http://www.w3.org/2000/svg"><g fill="#fff"><path d="m47.3 0h-34.5c-7.1 0-12.8 5.7-12.8 12.8v35.8c0 7.1 5.7 12.8 12.8 12.8h34.5c7.1 0 12.8-5.7 12.8-12.8v-35.8c0-7.1-5.7-12.8-12.8-12.8z"/><path d="m79.3 61.4h34.5c7.1 0 12.8-5.7 12.8-12.8v-35.8c0-7.1-5.7-12.8-12.8-12.8h-34.5c-7.1 0-12.8 5.7-12.8 12.8v35.8c0 7.1 5.8 12.8 12.8 12.8z"/><path d="m181.7 0h-34.5c-7.1 0-12.8 5.7-12.8 12.8v35.8c0 7.1 5.7 12.8 12.8 12.8h34.5c7.1 0 12.8-5.7 12.8-12.8v-35.8c0-7.1-5.8-12.8-12.8-12.8z"/><path d="m181.7 67.2h-34.5c-7.1 0-12.8 5.7-12.8 12.8v35.8c0 7.1 5.7 12.8 12.8 12.8h34.5c7.1 0 12.8-5.7 12.8-12.8v-35.8c0-7.1-5.8-12.8-12.8-12.8zm1.8 52.9h-10l-17.5-23.7v23.7h-11.3v-43.2h10.6l16.9 22.8v-22.8h11.3z"/><path d="m80 128.6h34.5c7.1 0 12.8-5.7 12.8-12.8v-35.8c0-7.1-5.7-12.8-12.8-12.8h-34.5c-7.1 0-12.8 5.7-12.8 12.8v35.8c0 7 5.7 12.8 12.8 12.8zm5-22.9c4.1 3.5 8.6 5.2 13.3 5.2 1.5 0 2.7-.3 3.5-.8s1.2-1.2 1.2-2.2v-.1c0-.5-.1-.9-.3-1.2s-.6-.7-1.1-1-1.2-.6-2.1-1c-.9-.3-2-.6-3.4-1-2.2-.5-4.2-1.1-6.1-1.8s-3.5-1.5-4.9-2.5-2.5-2.3-3.3-3.8-1.2-3.4-1.2-5.6v.1c0-2 .4-3.9 1.1-5.6s1.8-3.1 3.2-4.4c1.4-1.2 3.1-2.2 5-2.9 2-.7 4.2-1 6.6-1 3.5 0 6.7.5 9.4 1.5 2.8 1 5.3 2.4 7.5 4.3l-5.7 8.5c-1.9-1.4-3.8-2.5-5.8-3.2s-3.9-1.1-5.7-1.1c-1.4 0-2.4.3-3.1.8s-1 1.2-1 2v.1c0 .5.1.9.3 1.3s.6.7 1.1 1 1.3.6 2.2.9 2.1.6 3.5 1c2.4.5 4.5 1.2 6.4 1.9s3.5 1.6 4.8 2.6 2.4 2.3 3.1 3.7c.7 1.5 1.1 3.2 1.1 5.2v.1c0 2.2-.4 4.2-1.2 5.9s-1.9 3.2-3.4 4.4c-1.4 1.2-3.2 2.1-5.2 2.8-2 .6-4.3 1-6.8 1-3.7 0-7.2-.6-10.5-1.8s-6.2-3-8.8-5.4z"/><path d="m12.8 128.6h34.5c7.1 0 12.8-5.7 12.8-12.8v-35.8c0-7.1-5.7-12.8-12.8-12.8h-34.5c-7.1 0-12.8 5.7-12.8 12.8v35.8c0 7 5.7 12.8 12.8 12.8zm-5.1-30.1c0-3.1.6-6.1 1.8-8.8s2.8-5.1 4.8-7.2c2.1-2 4.5-3.6 7.4-4.8s6-1.7 9.3-1.7c3.8 0 7.1.6 9.9 1.7s5.3 2.7 7.6 4.6l-7 8.5c-1.6-1.3-3.2-2.3-4.8-3s-3.5-1-5.6-1c-1.6 0-3 .3-4.4.9-1.3.6-2.5 1.5-3.5 2.5-1 1.1-1.8 2.3-2.3 3.8-.6 1.4-.9 3-.9 4.6v.1c0 1.7.3 3.3.9 4.8s1.4 2.7 2.4 3.8c1 1 2.3 1.9 3.7 2.5s3 .9 4.7.9c2.8 0 5.1-.6 6.9-1.8v-5.2h-8.5v-8.8h19.9v19.4c-2.3 1.9-5 3.5-8.1 4.8s-6.7 1.9-10.6 1.9c-3.4 0-6.5-.5-9.4-1.6s-5.3-2.6-7.4-4.6-3.7-4.3-4.9-7.1-1.8-5.8-1.8-9v-.2z"/><path d="m181.7 135h-34.5c-7.1 0-12.8 5.7-12.8 12.8v35.8c0 7.1 5.7 12.8 12.8 12.8h34.5c7.1 0 12.8-5.7 12.8-12.8v-35.8c0-7.1-5.8-12.8-12.8-12.8z"/><path d="m115.2 135h-34.6c-7.1 0-12.8 5.7-12.8 12.8v35.8c0 7.1 5.7 12.8 12.8 12.8h34.5c7.1 0 12.8-5.7 12.8-12.8v-35.8c0-7.1-5.7-12.8-12.7-12.8z"/><path d="m47.3 135h-34.5c-7.1 0-12.8 5.7-12.8 12.8v35.8c0 7.1 5.7 12.8 12.8 12.8h34.5c7.1 0 12.8-5.7 12.8-12.8v-35.8c0-7.1-5.7-12.8-12.8-12.8z"/></g></svg>