<svg height="211" viewBox="0 0 512 211" width="512" xmlns="http://www.w3.org/2000/svg"><g fill-rule="evenodd" transform="translate(0 .00003)"><path d="m148 206h-55.2251657v-78.763168h-35.8485997v78.763168h-56.9262346v-203h56.9262346v75.5141926h35.8485997v-75.5141926h55.2251657z" transform="scale(1.0150417 1.0183117)"/><path d="m407.03751 146.25835c22.74616 0 41.18655-18.48231 41.18655-41.28778 0-22.799359-18.44039-41.284724-41.18655-41.284724-22.74918 0-41.18755 18.485365-41.18755 41.284724 0 22.80547 18.43837 41.28778 41.18755 41.28778zm-52.39287-41.28778c0-29.003142 23.45567-52.51778 52.39287-52.51778 28.93621 0 52.39593 23.514638 52.39593 52.51778 0 29.00823-23.45972 52.52185-52.39593 52.52185-28.9372 0-52.39287-23.51362-52.39287-52.52185zm-72.95472 0c6.48297-.82297 17.28995-8.253081 21.09702-12.995836-1.33794 5.880691-1.44032 22.900966.12367 28.781656-4.34529-6.7057-14.63332-14.9598-21.22069-15.78582zm-37.66632-55.600367c8.23346 0 14.71745 8.147419 14.71745 17.432774 0 9.285356-6.48399 17.437855-14.71745 17.437855h-28.29965v-34.870629zm-.10338 77.471097c8.23244 0 14.71744 8.15148 14.71744 17.43379 0 9.28637-6.485 17.43481-14.71744 17.43481h-28.29966v-34.8686zm163.08283 83.94921c57.66461-.02236 104.59115-48.04936 104.57798-105.86057-.01116-59.030443-46.91337-104.88622024-104.57798-104.92993945-57.5977-.04162599-87.02751 42.45825545-94.29907 59.61264345.06792-25.751901-25.25277-56.1480037-54.87111-56.1805162h-95.4262v206.3311822l88.96958.0173c35.87021 0 61.39463-31.15609 61.43822-57.87219 8.18784 16.81403 36.59088 58.90243 94.18858 58.88211z" stroke-width="1.01668"/></g></svg>