<?xml version="1.0" encoding="utf-8"?>
<!-- Generator: Adobe Illustrator 24.2.3, SVG Export Plug-In . SVG Version: 6.00 Build 0)  -->
<svg version="1.1"
	 id="Layer_1" shape-rendering="geometricPrecision" text-rendering="geometricPrecision" image-rendering="optimizeQuality"
	 xmlns="http://www.w3.org/2000/svg" xmlns:xlink="http://www.w3.org/1999/xlink" x="0px" y="0px" viewBox="0 0 250 141"
	 style="enable-background:new 0 0 250 141;" xml:space="preserve">
<style type="text/css">
	.st0{opacity:0.998;fill-rule:evenodd;clip-rule:evenodd;fill:#F9B527;enable-background:new    ;}
	.st1{opacity:0.795;fill-rule:evenodd;clip-rule:evenodd;fill:#2D2829;enable-background:new    ;}
	.st2{opacity:0.854;fill-rule:evenodd;clip-rule:evenodd;fill:#2C2829;enable-background:new    ;}
	.st3{opacity:0.878;fill-rule:evenodd;clip-rule:evenodd;fill:#2D292A;enable-background:new    ;}
	.st4{opacity:0.893;fill-rule:evenodd;clip-rule:evenodd;fill:#2D292A;enable-background:new    ;}
</style>
<path class="st0" d="M105.5-0.5h38c58.3,12.3,93.7,47.7,106,106v21c-2,0-4,0-6,0c-3.6-46.5-26.6-79.3-69-98.5
	C120,10.3,75.5,24.1,41,69.5c-11.2,17.4-17,36.4-17.5,57c-8,0-16,0-24,0c0-7,0-14,0-21C11.8,47.2,47.2,11.8,105.5-0.5z"/>
<path class="st1" d="M72.5,68.5c6.2,1.6,7.5,5.1,4,10.5c-7.7,1.7-10.2-1.1-7.5-8.5C70.3,69.9,71.5,69.2,72.5,68.5z"/>
<path class="st2" d="M98.5,83.5c3.7-0.2,7.3,0,11,0.5c4.7,1.1,7.9,3.9,9.5,8.5c0.5,9,0.7,18,0.5,27h3c0-2.3,0-4.7,0-7h8
	c-0.3,3,1.1,4.8,4,5.5c4.9,1.4,8.9,0.2,12-3.5c-0.5-1.2-1.2-2.4-2-3.5c-3.5-1.8-7.2-3.1-11-4c-9.2-2.8-12-8.7-8.5-17.5
	c6.4-6.2,13.7-7.6,22-4c2.4-0.9,4.9-1.3,7.5-1v13c-2.3,0-4.7,0-7,0c-0.4-3.4-2.4-5.2-6-5.5c-2.3-0.7-4.7-0.7-7,0
	c-2.1,1.5-2.4,3.3-1,5.5c4.3,1.7,8.6,3.2,13,4.5c6.9,2.9,9.7,8.1,8.5,15.5c-2.7,7-7.9,10.3-15.5,10c-2.9-0.4-5.7-1.1-8.5-2
	c-8.5,1-17,1.3-25.5,1c0-2.3,0-4.7,0-7h5c0.2-8,0-16-0.5-24c-5.5-5.3-10.8-5-16,1c-0.5,7.7-0.7,15.3-0.5,23c4.8-0.1,6.2,2.1,4,6.5
	c-6,0.5-12,0.7-18,0.5c0-2.3,0-4.7,0-7h4c0-9.7,0-19.3,0-29c-1.3,0-2.7,0-4,0c0-2,0-4,0-6c5.1-0.6,10,0.1,14.5,2
	C95.4,85.2,96.9,84.2,98.5,83.5z"/>
<g>
	<path class="st3" d="M174.5,140.5c-6.3,0-12.7,0-19,0c-0.2-2,0-4,0.5-6c1.3-1.3,2.7-1.3,4,0c0.5-14.3,0.7-28.7,0.5-43
		c-1.7,0-3.3,0-5,0c0-2.3,0-4.7,0-7h14c-0.1,1.1,0,2.1,0.5,3c13.1-6.9,23.7-4.2,32,8c4.3,11.3,1.8,20.8-7.5,28.5
		c-8.3,4.8-16.5,4.6-24.5-0.5c-0.7,3.7-0.7,7.3,0,11c1.3-1.3,2.7-1.3,4,0C174.5,136.5,174.7,138.5,174.5,140.5z M178.5,92.5
		c-3.6,1.8-6.4,4.4-8.5,8c-1.9,12.1,3.3,18,15.5,17.5c6.9-2.5,10-7.3,9.5-14.5C192.6,95.3,187.1,91.6,178.5,92.5z"/>
	<path class="st4" d="M63.5,84.5h14v42c-4.3,0.2-8.7,0-13-0.5c-2.2-4.4-0.8-6.6,4-6.5c0-9.7,0-19.3,0-29c-1.7,0-3.3,0-5,0
		C63.5,88.5,63.5,86.5,63.5,84.5z"/>
</g>
</svg>
