<svg clip-rule="evenodd" fill-rule="evenodd" height="141" image-rendering="optimizeQuality" shape-rendering="geometricPrecision" text-rendering="geometricPrecision" width="250" xmlns="http://www.w3.org/2000/svg"><path d="m105.5-.5h38c58.333 12.3333 93.667 47.6667 106 106v21c-2 0-4 0-6 0-3.636-46.4588-26.636-79.2922-69-98.5-54.54-17.7051-99.0401-3.8718-133.5 41.5-11.1759 17.3609-17.0092 36.361-17.5 57-8 0-16 0-24 0 0-7 0-14 0-21 12.3333-58.3333 47.6667-93.6667 106-106zm73 93c8.596-.8942 14.096 2.7725 16.5 11 .525 7.159-2.641 11.992-9.5 14.5-12.202.462-17.369-5.371-15.5-17.5 2.074-3.5769 4.907-6.2435 8.5-8z" fill="#f9b527" opacity=".998"/><path d="m72.5 68.5c6.1905 1.6338 7.5238 5.1338 4 10.5-7.7283 1.6969-10.2283-1.1364-7.5-8.5 1.3024-.5848 2.469-1.2515 3.5-2z" fill="#2d2829" opacity=".795"/><path d="m98.5 83.5c3.682-.1653 7.348.0014 11 .5 4.735 1.0681 7.902 3.9014 9.5 8.5.5 8.994.666 17.994.5 27h3c0-2.333 0-4.667 0-7h8c-.259 2.98 1.074 4.813 4 5.5 4.867 1.407 8.867.24 12-3.5-.54-1.248-1.207-2.415-2-3.5-3.493-1.791-7.159-3.124-11-4-9.165-2.829-11.999-8.6627-8.5-17.5 6.401-6.2427 13.734-7.576 22-4 2.381-.935 4.881-1.2683 7.5-1v13c-2.333 0-4.667 0-7 0-.374-3.3884-2.374-5.2218-6-5.5-2.333-.6667-4.667-.6667-7 0-2.06 1.4926-2.393 3.3259-1 5.5 4.267 1.6513 8.6 3.151 13 4.5 6.878 2.921 9.711 8.088 8.5 15.5-2.73 6.956-7.896 10.29-15.5 10-2.889-.431-5.722-1.097-8.5-2-8.458.957-16.958 1.29-25.5 1 0-2.333 0-4.667 0-7h5c.166-8.007 0-16.007-.5-24-5.474-5.3251-10.8069-4.9917-16 1-.4997 7.659-.6664 15.326-.5 23 4.8276-.115 6.1609 2.052 4 6.5-5.9908.499-11.9908.666-18 .5 0-2.333 0-4.667 0-7h4c0-9.667 0-19.333 0-29-1.3333 0-2.6667 0-4 0 0-2 0-4 0-6 5.1483-.5736 9.9816.093 14.5 2 1.4087-1.2811 2.9087-2.2811 4.5-3z" fill="#2c2829" opacity=".854"/><g fill="#2d292a"><path d="m174.5 140.5c-6.333 0-12.667 0-19 0-.162-2.027.005-4.027.5-6 1.333-1.333 2.667-1.333 4 0 .5-14.329.667-28.663.5-43-1.667 0-3.333 0-5 0 0-2.3333 0-4.6667 0-7h14c-.149 1.052.017 2.052.5 3 13.056-6.9028 23.722-4.2361 32 8 4.311 11.253 1.811 20.753-7.5 28.5-8.287 4.787-16.453 4.62-24.5-.5-.667 3.667-.667 7.333 0 11 1.333-1.333 2.667-1.333 4 0 .495 1.973.662 3.973.5 6zm4-48c-3.593 1.7565-6.426 4.4231-8.5 8-1.869 12.129 3.298 17.962 15.5 17.5 6.859-2.508 10.025-7.341 9.5-14.5-2.404-8.2275-7.904-11.8942-16.5-11z" opacity=".878"/><path d="m63.5 84.5h14v42c-4.3461.166-8.6794-.001-13-.5-2.1609-4.448-.8276-6.615 4-6.5 0-9.667 0-19.333 0-29-1.6667 0-3.3333 0-5 0 0-2 0-4 0-6z" opacity=".893"/></g></svg>