<svg height="12.499604mm" viewBox="0 0 80.850494 12.499604" width="80.850494mm" xmlns="http://www.w3.org/2000/svg"><g fill="#00dc5a"><path d="m0 0h-.001-3.758c-.196.015-.233.142-.237.216v.031c.001.012.003.02.003.02l-.003-.002v2.257.001c0 .147-.12.267-.269.267 0 0 0 0-.001 0h-4.703c-.148 0-.268-.12-.268-.268v-2.255s0-.001 0-.002v-.069c-.009-.074-.054-.182-.231-.196h-12.229c-.196.015-.233.142-.236.216v.031c0 .012.002.02.002.02l-.002-.002v2.257c0 .148-.12.268-.269.268-.001 0-.001 0-.002 0h-4.702c-.149 0-.269-.12-.269-.268v-2.255s0-.001 0-.002v-.069c-.009-.074-.054-.182-.231-.196h-3.749c-.242 0-.241-.22-.241-.22v-3.528c0-.001 0-.001 0-.001 0-.148.12-.268.268-.268h3.688c.206-.002.256-.12.265-.199v-.068c0-.001 0-.002 0-.002v-2.733c0-.148.12-.268.269-.268h4.702.002c.149 0 .269.12.269.268v2.735l.002-.002s-.002.007-.002.02v.031c.003.078.042.216.267.218h12.163c.207-.002.256-.12.266-.199v-.068c0-.001 0-.002 0-.002v-2.733c0-.148.12-.268.268-.268h4.703.002c.148 0 .268.12.268.268v2.735l.002-.002s-.001.007-.002.02v.031c.004.078.043.216.268.218h3.728c.148 0 .268.12.268.268v3.481c0 .148-.12.268-.268.268" transform="matrix(.35277777 0 0 -.35277777 80.755947 1.038327)"/><path d="m0 0s.003-.385.443-.385c2.627 0 16.529.212 19.471.212 2.269 0 6.453.217 8.684.595.137.023.347.161.296.523s-.49 2.774-.574 3.031c-.084.258-.246.333-.492.302-2.748-.412-5.995-.567-8.775-.567 0 0-18.136-.212-18.602-.212-.465 0-.451-.422-.451-.422z" transform="matrix(.35277777 0 0 -.35277777 44.948262 1.644364)"/><path d="m0 0h-2.695s-.103.001-.103.11v-.001c-.005 1.193-.008 1.944-.008 1.944s.018.265-.273.265h-4.413c-.276 0-.286-.283-.286-.283s0-.747 0-1.925c0-.109-.102-.11-.102-.11h-3.837s-.102.001-.102.11c-.005 1.193 0 1.943 0 1.943s.01.265-.281.265h-4.606c-.276 0-.285-.283-.285-.283s0-.747 0-1.925c0-.109-.103-.11-.103-.11h-3.964s-.102.001-.102.11h-.001c-.004 1.193-.008 1.943-.008 1.943s.019.265-.272.265h-4.414c-.294 0-.285-.283-.285-.283s0-.747 0-1.925c0-.109-.102-.11-.102-.11h-3.995c-.279 0-.432-.164-.432-.402 0-1.146.001-3.975 0-4.625 0 0-.006-.305.32-.305h4.647c.335 0 .316.282.316.282 0 .351.001.744.001 1.08 0 0 .002.247.264.247h13.118v.005h8.352c.28 0 .338-.135.338-.352v-1.171s0-.296.273-.296h4.733c.258 0 .273.272.273.272-.002.75 0 2.049 0 2.696 0 1.455-.362 2.569-1.966 2.569" transform="matrix(.35277777 0 0 -.35277777 54.970855 3.006651)"/><path d="m0 0h-.001-18.628c-.114 0-.096.093-.096.093.051.375.085.654.12 1.046.017.192-.135.3-.267.3h-4.912c-.097 0-.16-.042-.209-.099-.056-.064-.059-.153-.059-.153-.028-.419-.061-.725-.113-1.145 0-.001-.001-.002-.001-.004 0 .005.001.009.002.013-.004-.033-.04-.053-.069-.051h-5.583c-.001 0-.001 0-.002 0-.148 0-.269-.12-.269-.268v-3.288c0-.148.121-.268.269-.268h4.769s.081 0 .064-.066c-1.253-4.315-3.647-8.668-6.909-12.95-.178-.282.035-.406.035-.406.078-.06 3.576-2.456 3.729-2.552.175-.109.341-.023.405.059 2.829 3.644 4.855 7.235 6.393 10.762s.044.12.236.12h13.544c.501 0 .259-.413.212-.532-.465-1.166-1.552-2.767-4.001-4.126l-.2-.114c-.049-.026-.096-.049-.145-.074-1.908.792-3.434 2.327-4.095 3.205-.042.051-.157.125-.384.125h-4.934c-.617 0-.203-.661-.203-.661v.001c.998-1.525 2.183-2.918 3.95-4.25-2.061-.538-4.489-.778-6.932-.801-.206-.002-.318-.142-.318-.285v-3.732c0-.275.256-.314.384-.316 3.778-.048 8.412.704 12.456 2.046 3.354-1.242 7.655-2.038 11.702-2.038.154 0 .282.071.282.263v3.791c0 .175-.08.274-.279.281-2.609.094-4.266.339-5.888.815 1.146 1.007 2.397 2.323 3.035 3.341.959 1.529 1.428 2.895 1.622 3.947.101.55.106 2.499-1.932 2.499h-16.645c-.137 0-.101.099-.101.099l-.001-.001c.155.484.299.968.43 1.45s.028.1.112.1h19.431v.001c.145.003.262.121.262.267v3.288c0 .148-.12.268-.268.268" transform="matrix(.35277777 0 0 -.35277777 55.0388 5.296037)"/><path d="m0 0h9.633c.038-.001.115-.012.061-.082-2.183-2.237-5.76-3.074-8.752-3.534-.306-.047-.497-.096-.497-.485v-3.066c0-.377.292-.319.437-.303 3.515.398 7.544 1.539 9.894 3.134 1.62 1.099 2.865 2.08 3.883 3.44 2.792-3.934 7.229-5.951 14.123-6.571.131-.012.397.037.397.288v3.176c0 .36-.201.352-.354.369-3.735.404-7.443 1.617-9.341 3.551-.055.071.022.082.061.083h9.656s.263.006.263.25v3.543c0 .265-.316.252-.316.252h-11.525c-.158.013-.188.11-.191.167v.035.007-.001 2.112c0 .243-.221.241-.221.241l-5.21.001s-.243.013-.243-.273v-2.081.001s0-.002 0-.003v-.044c-.005-.057-.037-.149-.191-.162h-.107-11.492c-.243 0-.242-.22-.242-.22v-3.583s-.013-.242.274-.242" transform="matrix(.35277777 0 0 -.35277777 57.52613 2.330834)"/><path d="m0 0v-4.707-.13c0-.239-.195-.434-.435-.434h-1.337-7.906c-.24 0-.435.195-.435.434v.13 4.707.13c0 .24.195.434.435.434h7.906.902.435c.24 0 .435-.194.435-.434zm2.016 4.014h-2.886-.902-10.357c-1.581 0-2.862-1.278-2.862-2.854v-1.16-4.707-1.159c0-1.577 1.281-2.855 2.862-2.855h10.357 1.496 2.292c1.58 0 2.862 1.278 2.862 2.855v1.159 4.707 1.16c0 1.576-1.282 2.854-2.862 2.854" transform="matrix(.35277777 0 0 -.35277777 62.990199 8.743664)"/><path d="m0 0h-.001-32.063s0 0-.001 0c-.148 0-.268-.12-.268-.268v-3.514c0-.148.12-.268.268-.268h24.627.03c.076 0 .267-.052.267-.277-.011-2.479 0-7.356 0-8.407 0-2.484-.213-3.351-1.89-4.175-.18-.088-.332-.269-.202-.459.131-.19 2.401-3.169 2.401-3.169s.23-.349.744-.072c3.222 1.637 3.924 3.587 4.096 7.265.047 1.018.015 6.427.003 9.021 0 .091.061.273.278.273h.016 1.695c.148 0 .268.12.268.268v3.514c0 .148-.12.268-.268.268" transform="matrix(.35277777 0 0 -.35277777 68.330831 5.190698)"/><path d="m0 0h-3.805-17.731c-.336 0-.639.235-.688.565-.045.3.108.569.349.696l16.951 8.466 2.426 1.229c.309.166.838.483 1.283.911.355.34.675.774.892 1.303.191.488.295 1.023.295 1.578 0 2.153-1.678 3.905-3.816 3.981-.046.001-.09.003-.132.003-.004 0-.007 0-.011 0-.001 0-.002 0-.004 0-.001 0-.003 0-.005 0h-23.723c-.148 0-.267-.119-.268-.266l-.002-.002v-3.737c0-.146.117-.264.263-.267v-.001h20.926c.197 0 .381-.161.382-.358 0-.141-.083-.251-.202-.321l-.157-.085s-.03-.017-.084-.045l-.348-.186c-2.621-1.396-17.682-8.712-19.098-9.708-.165-.101-.32-.206-.47-.313-.298-.202-.569-.441-.807-.709-.001-.001-.002-.002-.003-.004-.048-.054-.094-.109-.139-.166-.005-.006-.01-.012-.014-.018-.042-.053-.082-.106-.121-.161-.006-.008-.012-.016-.017-.024-.039-.054-.075-.11-.111-.165-.005-.008-.01-.016-.015-.024-.038-.06-.074-.121-.109-.183-.002-.004-.004-.007-.006-.011-.074-.134-.141-.272-.201-.415-.001-.002-.002-.004-.003-.006-.027-.066-.053-.132-.077-.199-.006-.019-.012-.037-.019-.056-.017-.051-.034-.103-.05-.155-.007-.025-.014-.049-.021-.074-.013-.047-.026-.094-.037-.142-.007-.028-.013-.056-.02-.083-.01-.046-.019-.093-.028-.139-.005-.029-.011-.058-.015-.087-.008-.047-.015-.094-.021-.142-.004-.029-.008-.058-.011-.087-.005-.051-.009-.102-.013-.153-.002-.026-.005-.052-.006-.077-.004-.075-.006-.151-.007-.227 0-.002 0-.004 0-.006 0-.072.002-.144.006-.216.001-.02.003-.039.004-.06.003-.05.007-.101.012-.152.002-.026.006-.051.009-.077.006-.044.011-.088.017-.131.004-.029.01-.057.015-.085.007-.041.013-.081.021-.121.006-.029.013-.058.02-.087.009-.039.017-.077.027-.115.007-.03.016-.059.024-.089.01-.036.02-.073.031-.109.009-.03.019-.059.029-.089.012-.035.024-.071.036-.106.011-.029.022-.058.033-.087.014-.035.027-.069.041-.103.012-.029.025-.058.038-.086.015-.033.029-.066.045-.099.013-.029.028-.057.042-.085.016-.032.032-.064.049-.096.015-.028.031-.055.046-.083.018-.031.035-.062.053-.092.017-.028.034-.055.051-.082.018-.029.037-.059.057-.089.017-.026.036-.052.054-.079.02-.028.04-.057.061-.085.019-.026.038-.052.058-.077.021-.027.043-.055.064-.082.021-.025.041-.05.062-.074.023-.027.045-.053.068-.078.022-.025.044-.049.066-.073.023-.025.047-.049.071-.074.023-.023.046-.046.069-.069.025-.024.049-.047.074-.071.024-.022.049-.044.073-.066.026-.023.051-.045.077-.067.025-.021.051-.042.076-.063.027-.021.054-.042.081-.063.026-.02.052-.04.078-.059.028-.02.056-.04.084-.059.027-.019.054-.038.082-.056.028-.019.056-.037.085-.055.028-.018.057-.036.086-.053.028-.017.058-.033.087-.05.03-.017.059-.033.089-.049.029-.016.06-.031.09-.046s.06-.031.091-.045c.03-.015.061-.028.092-.042s.062-.028.093-.041c.032-.013.063-.025.095-.037s.064-.025.096-.037c.032-.011.064-.021.096-.032.033-.011.066-.022.099-.032.032-.01.065-.019.098-.028.034-.01.067-.02.101-.028.033-.008.067-.016.1-.023.034-.008.068-.016.102-.023s.069-.012.103-.018c.034-.007.069-.013.103-.019.035-.005.07-.008.105-.013.035-.004.069-.009.105-.013.069-.007.139-.012.209-.016.073-.004.147-.006.222-.006h24.05.347c.148 0 .269.12.269.268v3.428.346c0 .148-.121.268-.269.268" transform="matrix(.35277777 0 0 -.35277777 80.238986 10.978441)"/><path d="m0 0c0-.162.143-.294.32-.294h7.617c.176 0 .319.132.319.294v34.034c0 .162-.143.294-.319.294h-7.617c-.177 0-.32-.132-.32-.294z" transform="matrix(.35277777 0 0 -.35277777 20.004369 12.387506)"/><path d="m0 0c0-.162.143-.294.32-.294h7.617c.176 0 .319.132.319.294v21.426c0 .162-.143.293-.319.293h-7.617c-.177 0-.32-.131-.32-.293z" transform="matrix(.35277777 0 0 -.35277777 .250049 12.387506)"/><path d="m0 0c-5.518-.995-10.835 2.762-11.853 8.375-1.018 5.614 2.643 10.991 8.161 11.986 5.517.995 10.834-2.762 11.852-8.375 1.018-5.614-2.642-10.991-8.16-11.986m17.716-1.611-3.768 3.017c-.078.062-.128.147-.148.239-.019.092-.008.19.039.278 1.802 3.377 2.522 7.357 1.787 11.409-1.741 9.598-10.974 15.966-20.623 14.226-9.65-1.741-16.061-10.932-14.321-20.529 1.74-9.598 10.974-15.967 20.623-14.226 2.683.484 5.114 1.545 7.191 3.029.153.11.36.107.507-.011l4.042-3.236c.137-.11.34-.085.453.056l4.261 5.295c.114.141.094.344-.043.453" transform="matrix(.35277777 0 0 -.35277777 11.98125 9.859535)"/><path d="m0 0h-7.617c-.176 0-.32-.132-.32-.294v-34.034c0-.162.144-.294.32-.294h7.617c.177 0 .32.132.32.294v34.034c0 .162-.143.294-.32.294" transform="matrix(.35277777 0 0 -.35277777 40.160292 .27735)"/><path d="m0 0c-2.671 0-4.837-2.16-4.837-4.824s2.166-4.824 4.837-4.824 4.837 2.16 4.837 4.824-2.166 4.824-4.837 4.824" transform="matrix(.35277777 0 0 -.35277777 1.706386 .037955)"/><path d="m0 0h-8.116c-.14 0-.269-.071-.335-.184l-7.541-13.375s-.054-.098-.129-.1c-.075.002-.129.1-.129.1l-7.542 13.375c-.066.113-.194.184-.334.184h-8.116c-.217 0-.467-.223-.288-.556l12.063-20.244c.115-.195.176-.418.176-.645v-12.824c0-.195.158-.353.353-.353h3.817 3.816c.196 0 .354.158.354.353v12.824c0 .227.061.45.176.645l12.063 20.244c.178.333-.071.556-.288.556" transform="matrix(.35277777 0 0 -.35277777 35.937965 .27735)"/></g></svg>