<svg enable-background="new 0 0 342.9 108.5" viewBox="0 0 342.9 108.5" xmlns="http://www.w3.org/2000/svg"><path d="m330.2.2h-317.6c-6.9 0-12.5 5.5-12.5 12.4v83.4c0 6.9 5.6 12.5 12.5 12.5h317.6c6.9 0 12.5-5.6 12.5-12.5v-83.4c0-6.9-5.6-12.4-12.5-12.4zm-249.8 94.1v-4.4c1.3-.1 2.9-.3 4.8-.6s3.2-.6 3.8-.8c1.4-.6 2.4-1.3 3-2.3s.9-2.2.9-3.7v-60.3l-27.7 70.9h-7.2c-.3-1.2-1.2-3.7-2.5-7.4s-2.4-6.7-3.3-8.9l-20.3-55.5v49c0 4.7.3 8.3.9 10.7s1.6 4.2 3 5.4c.9.8 2.6 1.6 5.1 2.3 2.4.7 4.1 1.1 5.1 1.2v4.4h-34.8v-4.4c1-.1 2.5-.4 4.6-.8s3.9-1.1 5.3-2.1c1.5-1.1 2.5-2.8 3.1-5.4.5-2.5.8-6.1.8-10.8v-39.8c0-2.4-.3-4.4-.9-6-.5-1.5-1.5-2.8-2.7-3.8-1.4-1.1-3-1.9-4.7-2.3-1.6-.3-3.2-.6-4.8-.7v-4.4h37.3l19.8 53 16.9-43.1c.7-1.9 1.2-3.7 1.6-5.7.5-2.2.8-3.6.9-4.3h35.7v4.4c-1.3.1-2.5.2-3.8.5-1.3.2-2.6.5-3.8.9-1.5.5-2.5 1.3-2.9 2.3-.5 1.1-.7 2.3-.7 3.5v57.1c0 1.2.2 2.4.7 3.4.5.9 1.4 1.7 2.9 2.4.8.3 2 .7 3.7 1s3.1.5 4 .6v4.4h-43.8zm91.4-7.5c-1.9 1.9-4 3.6-6.4 4.9-2.4 1.4-5 2.5-7.7 3.3-2.6.7-5.6 1.1-9 1.1-5.6 0-10.4-.8-14.5-2.4s-7.4-3.7-10.1-6.4-4.7-5.9-5.9-9.5c-1.3-3.8-2-7.9-2-11.9 0-3.8.7-7.6 2.1-11.1s3.5-6.7 6.1-9.5c2.6-2.7 5.8-4.9 9.7-6.5 3.9-1.7 8.3-2.5 13.2-2.5 5.3 0 9.7.6 13.1 1.9s6.2 3.1 8.5 5.3c2.2 2.1 3.8 4.8 4.7 7.6 1 3 1.5 6.1 1.5 9.2v3.7h-38.5c0 7.8 1.5 13.7 4.5 17.7s7.8 6.1 14.3 6.1c3.4 0 6.8-1 9.6-2.9 2.9-2 5.3-4.5 7.3-7.4l4.3 3.1c-1.4 2.4-3 4.4-4.8 6.2z" fill="#020305"/><path d="m154.6 52.1c-.2-2.4-.6-4.3-1.2-5.8-.7-1.8-1.5-3.1-2.7-4-1.1-.9-2.6-1.4-4.3-1.4-2.9 0-5.3 1.5-7 4.4-1.7 3-2.7 7.6-2.9 14l18.3-.2c.2-2.3 0-4.6-.2-7z" fill="#020305"/><path d="m323.4 9.9h-132.5c-4.6 0-8.3 3.7-8.3 8.3v71.9c0 4.6 3.7 8.3 8.3 8.3h132.5c4.6 0 8.3-3.7 8.3-8.3v-71.9c0-4.6-3.7-8.3-8.3-8.3zm-71.4 27.2h-19v46.9h-21v-46.9h-19.5v-15.4h59.6v15.4zm48.5 46.9h-22.2l-24.3-62.3h22.9l12.8 40.5 11.9-40.5h22.9z" fill="#fff"/></svg>