<svg enable-background="new 0 0 2500 982" viewBox="0 0 2500 982" xmlns="http://www.w3.org/2000/svg"><g fill="#fff"><path d="m1472.7 75.4c-20.6 14.7-59.7 34.8-110.4 22.4-88-21.6-112.9-97.4-112.9-97.4s-25.1 75.7-112.9 97.4c-50.7 12.5-90-7.7-110.5-22.4h-15.8v407.9c0 10.3 2.5 30.6 19.2 51.1 20.7 25 55.6 41.3 103.9 48.3 38.6 5.6 67.1 17.7 87.1 37.1 14.8 14.2 28.8 38.9 28.8 38.9s14.6-25.2 28.8-38.9c20.1-19.3 48.7-31.5 87.1-37 48.3-7 83.5-23.3 103.9-48.3 16.7-20.3 19.2-40.6 19.3-51.1v-408zm4.1 408.3c0 13.5-5.3 69.8-110.9 85.1-41.7 6.1-72.9 19.4-95.3 40.9-7.1 6.8-13.5 14.5-18.8 22.8-5.4-8.3-11.7-16-18.8-22.8-22.5-21.5-53.6-34.9-95.3-40.9-105.3-15.1-110.9-71.8-110.9-85.1v-392s48.3 37.3 115.8 20.5c78.6-19.6 109.2-78.5 109.2-78.5s30.7 58.9 109.6 78.5c67.5 16.9 115.4-20.5 115.4-20.5z"/><path d="m1472.5 75.4h.2z"/><path d="m1450.2 276.7-397.2.1v205.4c0 2.2-2.7 45 88.4 58.9 79.4 12.3 110 49.9 110 49.9l.4-.1s30.6-37.8 110-49.9c91.2-14 88.4-56.9 88.4-58.9zm-249.1 45.9-11.7 6.9v199.2l-29.8-8.9-43-127.2v83.9l13.7 10.5v25.9l-59.7-15.3v-22l13.7-5.4v-140.4l-14-7v-25.3h45.4l42 129.2v-97.2l-12.2-6.9v-25.3h55.6zm114.7 27h-22.6l-6.9-21.2h-26.2v59.7h19.7l7.7-11.3h15.8v52.8h-15.8l-7.4-10.7h-19.9v98.1l-.1.2 11.9 14.3v25.3l-59.3-22.1v-21.5l13.1-5.4v-177.5l-13-6.6v-25.7h103.1v51.6zm114.3 147.8-104.7 28v-25.4l14.7-12v-158.3l-12.5-6.6v-25.6h59.3v25.7l-11.6 6.6v148.5l25.5-6.9 4.9-38.9h24.5v64.9z"/><path d="m1355.8 220.7-7.3-20.8-7.3 20.8h-21.9l18 13.5-6.6 21.2 17.8-12.5 17.9 12.5-6.6-21.2 17.9-13.5z"/><path d="m1330.7 185.8 17.8-12.6 17.9 12.6-6.6-21.1 17.9-13.5h-21.9l-7.3-20.8-7.3 20.8h-21.9l18 13.5z"/><path d="m1141.3 165.4-6.6 21.1 17.9-12.6 17.9 12.6-6.7-21.1 18-13.5h-21.9l-7.3-20.8-7.2 20.8h-22l18 13.5z"/><path d="m1200.3 251.1c1.3-12.3 5.9-39.4 19.6-68.3-2.9-1-5.8-1.8-8.8-2.4 1.4-3 3.4-6.7 3.4-6.7 9.8 1.9 19 6.1 26.8 12.3-1.9 3-3.1 4.9-4 6.5-2.7-2.1-5.5-4-8.5-5.7-15.4 26.8-22.5 52.4-25.4 65.5.2.8 1.8 1.2 3.2 1 63-8.2 92.9-40.4 101.9-75.3 5.9-22.9 4-46.6-3.9-66.3-.6-1.3-1.7-3.7-3.5-3.5l-.2-.2s-9.3 4.8-22.3 17.6c2.9 1.7 6.2 4 8.1 5.6-1.9 1.7-3.9 3.6-5.9 5.4-7-5.8-15.2-10-24-12.2 2.3-1.6 4.7-3.2 7-4.7 3.6.9 7.2 2.4 7.2 2.4 14.6-11.2 27.3-16 27.3-16s-1.5-.7-5.4-.7c-57.7.8-110.9 43.8-100.6 117.4 1.1 7.9 4.2 22.1 8 28.3zm48.5-120.3c9.4 2.2 18.1 6.5 25.4 12.8-1.9 2-3.8 3.9-5.6 5.9-8-6.5-17-10.8-26.5-12.8 2.3-2.4 4.7-4.2 6.7-5.9zm-13.8 12.9c8 1.3 18.2 5.5 27.2 13-1.8 2.2-3.6 4.4-5.2 6.6-7.8-6.7-17.3-11.3-27.4-13.3 1.7-2.1 3.5-4.3 5.4-6.3zm-11 14.1c10.1 2 19.5 6.6 27.4 13.2-1.7 2.4-3.3 4.7-4.7 6.8-7.8-6.5-17.2-11-27.2-12.9 0 0 2.8-4.7 4.5-7.1z"/><path d="m1426.3 199.9-7.2 20.8h-22l17.9 13.5-6.6 21.2 17.9-12.5 17.8 12.5h.1l-6.7-21.2 18-13.5h-22z"/><path d="m1415 164.7-6.6 21.1 17.9-12.6 17.8 12.6h.1l-6.7-21.1 18-13.5h-22l-7.2-20.8-7.2 20.8h-22z"/><path d="m1057.1 256.1 17.8-12.5 17.9 12.5-6.7-21.2 18-13.5h-21.9l-7.3-20.8-7.3 20.8h-21.9l17.9 13.5z"/><path d="m1141.3 234.9-6.6 21.2 17.9-12.5 17.9 12.5-6.7-21.2 18-13.5h-21.9l-7.3-20.8-7.2 20.8h-22l18 13.5z"/><path d="m1057.1 186.5 17.8-12.6 17.9 12.6-6.7-21.1 18-13.5h-21.9l-7.3-20.8-7.3 20.8h-21.9l17.9 13.5z"/></g><path d="m177.5 979.5-47-214.8h-80.2l21.1-58.5h173.9l31.6 144.4 52.4-144.4h93.7l-99 273.3zm-177.5 0 70.8-195.1h44.6l18.4 85.5-39.9 109.6h-93.7m715.7-233.2-28.5 78.1h-93.7l7-19.5h-191.4l21.5-58.5h285.1zm-168.9 78.1-4.3 11.7h85.5l-19.9 54.8h-85.5l-11.3 31.3h47l7-19.5h93.7l-28.1 78.1h-261.9l56.5-156.3h121.1m459.6-78.2-21.5 58.5h-68.3l-63.8 175.9h-121.1l63.8-175.9h-76.1l21.5-58.5zm302.7 0-.4 90 65.9-90h95.7l-172.2 234.4h-109.6l-.4-86.7-63.8 86.7h-92.5l-.4-175.9h-23l21.5-58.5h122.7v87.1l64.2-87.1h92.5m425.2 0c38.7 0 53.2 22.7 39 61.4l-40.5 111.6c-14 38.7-45 61.4-83.5 61.4h-185.7c-38.7 0-53.2-22.7-39-61.4l34.4-94.9h121.1l-29.7 81.4c-3.5 10.1 0 16 9.8 16h35.5c9.8 0 17.6-5.5 21.5-16l30.8-85.1c3.5-10.1 0-16-9.7-16h-172.2c12.9-35.1 44.2-58.5 82.6-58.5zm208.7 106.4h18c9.8 0 17.6-5.9 21.5-16l5.4-14.9c3.9-10.1 0-16-9.8-16h-183.7l21.5-58.5h259c38.7 0 53.2 22.7 39 61.4l-9 24.6c-9.4 25.4-22.6 38.7-41.7 43.8 14 3.5 20.7 15.2 14.8 30.4l-2.3 6.3c-2 5.5 0 9.4 5.9 9.4h6.3l-21.1 58.5h-93.7c-23.4 0-35.9-19.5-27.3-43l5.5-15.6c3.5-9.8 0-15.6-9.8-15.6h-18.4zm-188.6 128.8 56.5-156.3h121.1l-56.5 156.3zm744.9-235.2-21.5 58.5h-19.9l-50.3 53.2 14.4 64.2h19.9l-21.1 58.5h-119l-23-94.9 17.2-47 88.8-92h115zm-190.6 0-85.1 234.4h-121.1l63.8-175.9h-23.4l21.5-58.5z" fill="#013369"/></svg>