<svg xmlns="http://www.w3.org/2000/svg" viewBox="0 0 134.3 56.7"><path d="M19.2 18.5a19.1 19.1 0 0 0-13.6 5.6A19.1 19.1 0 0 0 0 37.7v17.5h14.5V38c0-2.1.5-4 1.4-5.3.8-1.4 2-2.2 3.3-2.2 1.2 0 2.4.8 3.2 2.2.9 1.4 1.4 3.2 1.4 5.3v17.2h14.5V37.7A19.1 19.1 0 0 0 32.7 24a19.1 19.1 0 0 0-13.5-5.6M54 13.8a8 8 0 0 0 0-11.4A8 8 0 0 0 48.2 0a8 8 0 0 0-5.7 13.8l1.8 1.8c3 3 3.2 3.7.4 6.6L43 23.8A7.3 7.3 0 0 0 41 29v26.1h14.7V29a7.3 7.3 0 0 0-2.2-5.2l-1.6-1.6c-2.8-2.9-2.6-3.6.4-6.6zm26 30c-.9 1.5-2 2.5-3.3 2.5s-2.4-1-3.2-2.5c-.9-1.6-1.4-3.7-1.4-6.1 0-2.4.5-4.5 1.4-6.1.8-1.6 2-2.5 3.2-2.5 1.3 0 2.4.9 3.3 2.5a12 12 0 0 1 1.2 4.3h14.6A19.2 19.2 0 0 0 90.3 24a19.2 19.2 0 0 0-27.1 0 19.1 19.1 0 0 0-5.6 13.6 19.1 19.1 0 0 0 5.6 13.5c2.6 2.7 7.3 5.6 13.5 5.6a19.1 19.1 0 0 0 12.5-4.5c2.4-2.1 6-6.2 6.6-12.8H81.2a12 12 0 0 1-1.2 4.3m54.3 8.8a2.5 2.5 0 0 0-.4-1.3l-8-12 5.5-10a7.3 7.3 0 0 0-2.5-10 7.3 7.3 0 0 0-10 2.6l-6.6 11.7v-7.8a7.3 7.3 0 0 0-7.2-7.3c-4 0-7.3 3.3-7.3 7.3v29.4h14.5V43.7L120 55h11.7a2.5 2.5 0 0 0 2.6-2.5" fill="#f60"/></svg>
