<svg enable-background="new 0 0 2500 2500" viewBox="0 0 2500 2500" xmlns="http://www.w3.org/2000/svg"><path d="m2203.1 834.7-361.6-798h-256.3l359.7 793.8h-147.4v235.3c0 94.5-76.9 171.5-171.5 171.5h-56.7v416.1h254.9v-401.9h42.5c49.3.1 96.6-19.5 131.3-54.4 34.9-34.8 54.5-82.1 54.4-131.3v-221h155.3z"/><path d="m760.8 1653.5h584.7v-401.9h42.5c49.6 0 96.3-19.3 131.3-54.4 34.9-34.8 54.5-82 54.4-131.3v-221.1h155.2l-366.1-808-463.5.4c-334.7 0-607 272.3-607 607 0 138.2 48.2 273.5 135.8 381.1 84.9 104.3 202.9 178.4 332.7 209.3zm495.8-1211.7c80.2 0 145.3 65 145.3 145.3 0 80.2-65.1 145.3-145.3 145.3s-145.3-65-145.3-145.3 65.1-145.3 145.3-145.3z"/><path d="m846.9 2195.7c113.5 0 205.5-92 205.5-205.5s-92-205.5-205.5-205.5l-284.4.1v115.2h82.7v443.5h-82.7v115.3h290.7v-115.3h-82.7v-147.8zm-76.4-295.9h76.4c49.9.6 89.9 41.5 89.3 91.4-.6 49.1-40.2 88.7-89.3 89.3h-76.4z"/><path d="m1456.3 2094.5c37.9-24.6 61.4-62.4 61.4-118.1 0-106.2-86.1-192.2-192.2-192.2h-276.9v115.8h82.7v443.5h-82.7v115.3h208l88.9-.1c112 0 202.9-90.8 202.9-202.9 0-71.2-36.6-128.8-92.1-161.3zm-199.7-194.5 68.9.2c42.1 0 76.2 34.1 76.2 76.2s-34.1 76.2-76.2 76.2h-68.9zm88.9 443.5h-88.9v-175.4h88.9c48.4.6 87.2 40.3 86.6 88.8-.5 47.5-39 86-86.6 86.6z"/><path d="m1810.3 2039.5c-49.2-11.4-100.2-30.6-99.8-82.1.3-46.7 37.9-72 79.6-72 48 0 97.1 31.6 99.7 84.6h116.5v-188.1h-108.6v32.9c-23.3-28.8-78.4-39.8-106.4-39.3-108.5 1.7-208.2 65.6-207.3 190.8 1 137.9 122.9 178 241.2 204.7 42.9 9.7 88.3 30.3 87.3 97.2-.6 41.5-44.2 83.4-90.9 83.4-63.1 0-106.4-26.8-127.4-106h-105.2v213.3h109.9v-44.3c45.2 45.5 90.3 48.2 132.3 48.8 117.1 1.7 203.6-97.2 206.7-201.5 4.2-144-106.4-194.6-227.6-222.4z"/></svg>