<svg clip-rule="evenodd" fill-rule="evenodd" height="203" image-rendering="optimizeQuality" shape-rendering="geometricPrecision" text-rendering="geometricPrecision" width="150" xmlns="http://www.w3.org/2000/svg"><path d="m34.5-.5h18c19.1242 9.87316 23.9576 24.5398 14.5 44-12.8301 14.0922-26.9968 15.5922-42.5 4.5-12.2478-14.6141-11.9144-28.9475 1-43 3.0638-1.8588 6.0638-3.69213 9-5.5z" fill="#cce224" opacity=".962"/><path d="m98.5-.5h17c19.097 9.79056 23.93 24.4572 14.5 44-12.83 14.0922-26.997 15.5922-42.5 4.5-12.2459-14.6275-11.9126-28.9608 1-43 3.2919-2.17603 6.6253-4.00936 10-5.5z" fill="#cce324" opacity=".962"/><path d="m39.5 61.5c19.154-.0164 30.154 9.4836 33 28.5-3.6471 21.816-16.3138 30.816-38 27-15.6193-7.407-21.4526-19.5736-17.5-36.5 4.1492-10.4669 11.6492-16.8002 22.5-19z" fill="#cce224" opacity=".961"/><path d="m102.5 61.5c19.154-.0164 30.154 9.4836 33 28.5-3.606 21.8-16.273 30.8-38 27-16.5996-8.036-22.0996-20.8694-16.5-38.5 4.485-9.1478 11.6517-14.8145 21.5-17z" fill="#1d1508" opacity=".965"/><path d="m-.5 173.5c0-11.333 0-22.667 0-34 7.97059-1.308 15.9706-1.141 24 .5 8.9117 6.908 9.245 14.241 1 22 2.2093 3.586 4.5426 7.086 7 10.5-3.9589 1.16-7.9589 1.327-12 .5-2.1944-2.695-4.1944-5.528-6-8.5-.825-.886-1.825-1.219-3-1v10c-3.66667 0-7.33333 0-11 0zm11-25c2.3568-.163 4.6902.003 7 .5 2.0268 1.396 2.3602 3.062 1 5-2.646.497-5.3127.664-8 .5 0-2 0-4 0-6z" fill="#1d1508" opacity=".868"/><path d="m33.5 138.5c9.0062-.166 18.0062 0 27 .5.9505 3.057 1.2839 6.223 1 9.5-6 0-12 0-18 0v3h16v9c-5.3333 0-10.6667 0-16 0v4h18v9c-9.3333 0-18.6667 0-28 0 0-11.667 0-23.333 0-35z" fill="#1c1408" opacity=".893"/><path d="m65.5 138.5c8.6731-.166 17.3397 0 26 .5.9505 3.057 1.2839 6.223 1 9.5-5.6667 0-11.3333 0-17 0v3h15v9c-5 0-10 0-15 0v4h17v9c-9.3333 0-18.6667 0-28 0-.3113-11.747.022-23.414 1-35z" fill="#1d1408" opacity=".88"/><path d="m96.5 138.5c3.2766-.284 6.443.049 9.5 1 .5 7.993.666 15.993.5 24 3.682-.165 7.348.001 11 .5.951 3.057 1.284 6.223 1 9.5-7.667 0-15.333 0-23 0-.3113-11.747.022-23.414 1-35z" fill="#1d1507" opacity=".829"/><path d="m149.5 138.5v10c-5.496 4.663-10.496 9.83-15 15.5 4.989.499 9.989.666 15 .5v9c-10 0-20 0-30 0-.165-3.018.002-6.018.5-9 4.315-5.149 8.815-10.149 13.5-15-4.62-.993-9.286-1.327-14-1-.284-3.277.049-6.443 1-9.5 9.661-.5 19.328-.666 29-.5z" fill="#1c1408" opacity=".874"/><path d="m13.5 202.5c-3.3333 0-6.66667 0-10 0-1.66667-1-3-2.333-4-4 0-6 0-12 0-18 5.23075-4.842 10.7307-5.175 16.5-1 1.4114 2.15 2.2447 4.484 2.5 7-4.6739-.248-9.0072-1.248-13-3 .18155 2.091-.15178 4.091-1 6 .60617 2.209 1.27284 4.376 2 6.5 3.6469-1.43 7.6469-2.264 12-2.5-.4002 3.809-2.0669 6.809-5 9z" fill="#cde323" opacity=".828"/><path d="m39.5 202.5c-2.3333 0-4.6667 0-7 0 0-3.333 0-6.667 0-10-2 0-4 0-6 0v10c-2.3333 0-4.6667 0-7 0-.1664-8.34.0003-16.673.5-25 2-1.333 4-1.333 6 0 .498 2.982.6646 5.982.5 9h6c0-3.333 0-6.667 0-10h7z" fill="#cbe224" opacity=".877"/><path d="m63.5 202.5c-2 0-4 0-6 0-1.0972-4.597-4.0972-6.263-9-5-.1287 1.716-.462 3.383-1 5-2.3333 0-4.6667 0-7 0 2.7274-8.014 5.5608-16.014 8.5-24 1.67-2.198 3.67-2.532 6-1 3.141 8.257 5.9743 16.59 8.5 25zm-12-14c1.832.64 2.1653 1.64 1 3-.8857-.825-1.219-1.825-1-3z" fill="#cbe224" opacity=".82"/><path d="m86.5 202.5c-2.3333 0-4.6667 0-7 0-2.4883-4.306-4.9883-8.639-7.5-13-.499 4.321-.6657 8.654-.5 13-2 0-4 0-6 0 0-8.667 0-17.333 0-26 2.104-.299 4.104.034 6 1 2.7503 3.832 5.2503 7.832 7.5 12 .499-4.321.6657-8.654.5-13 2.2925-.256 4.4592.077 6.5 1 .4997 8.327.6664 16.66.5 25z" fill="#cee423" opacity=".801"/><path d="m110.5 202.5c-2 0-4 0-6 0-2.739-3.804-5.2394-7.804-7.5-12-.4988 3.986-.6655 7.986-.5 12-2.3333 0-4.6667 0-7 0-.1664-8.34.0003-16.673.5-25 1.7261-1.076 3.5594-1.243 5.5-.5 2.5 3.833 5 7.667 7.5 11.5.333-3.667.667-7.333 1-11 2.041-.923 4.208-1.256 6.5-1z" fill="#cfe422" opacity=".803"/><path d="m132.5 202.5c-6 0-12 0-18 0 0-8.667 0-17.333 0-26h18v6c-3.667 0-7.333 0-11 0v4h9v6c-3 0-6 0-9 0v4c3.35-.165 6.683.002 10 .5.906 1.699 1.239 3.533 1 5.5z" fill="#cce323" opacity=".801"/><path d="m149.5 197.5v5c-5 0-10 0-15 0-.166-8.34 0-16.673.5-25 2.041-.923 4.208-1.256 6.5-1-.166 7.008 0 14.008.5 21 2.498-1.279 4.998-1.279 7.5 0z" fill="#cee223" opacity=".804"/></svg>