<svg height="247.5042" width="1000" xmlns="http://www.w3.org/2000/svg"><g transform="translate(-283.77309 -710.45061)"><path d="m440.27472 782.69688 20.68597-41.4374s-31.7463-30.30887-87.45713-30.30887c-50.44433 0-83.0278 29.74881-83.0278 71.93314 0 90.8399 130.2913 57.97362 130.2913 104.94499 0 18.93246-19.13109 26.64301-37.83699 26.64301-46.0781 0-78.29248-36.26591-78.29248-36.26591l-20.3645 43.21961s35.12148 36.02936 96.88198 36.02936c50.3685 0 87.30026-24.61497 87.30026-74.07857 0-89.03821-130.16348-57.07949-130.16348-104.79733 0-14.24764 13.83437-24.44037 34.39242-24.44037 35.78574 0 67.59045 28.55834 67.59045 28.55834z"/><path d="m547.11718 953.48255v-194.2194h-70.62524v-44.72932h190.0996v44.72932h-70.62524v194.2194z"/><path d="m744.2793 713.23461-120.65145 240.23616h50.2837l18.57591-37.1886h102.99514l18.8334 37.1886h50.79867zm-.14713 101.22951 29.24326 57.78763h-58.67044z"/><path d="m876.11308 714.52205v238.94872h48.84913v-87.10446h34.13553l49.87906 87.10446h56.0588l-56.6105-98.69141c24.3711-11.75158 40.867-33.34963 40.867-66.98363 0-36.78067-25.5769-73.27368-85.48601-73.27368zm48.84913 44.72931h40.02096c21.98327 0 35.20223 12.44092 35.20223 29.79503 0 19.02755-15.42924 30.23643-35.20223 30.23643h-40.02096z"/><path d="m1085.6346 759.26315v-44.72932h197.6385l-122.8934 195.39649h120.0629v43.55223h-204.8132l122.2319-194.2194z"/></g></svg>