<svg enable-background="new 0 0 300 300" viewBox="0 0 300 300" xmlns="http://www.w3.org/2000/svg"><g fill="#fff"><path d="m236.8 239.9c-3.8 0-6 3-6 8.4v.1h11.7v-.4c0-2.9-.3-4.4-1.2-5.8-1-1.5-2.4-2.3-4.5-2.3z"/><path d="m103.6 177.5c0-2.9-.3-4.4-1.2-5.8-1-1.5-2.4-2.3-4.5-2.3-3.8 0-6 3-6 8.4v.1h11.7z"/><path d="m138.8 184.6c-7 0-9.4 1.3-9.4 5.9 0 3 1.9 5 4.5 5 1.9 0 3.8-1 5.3-2.6l.2-8.3z"/><path d="m237.1 169.4c-3.8 0-6 3-6 8.4v.1h11.7v-.4c0-2.9-.3-4.4-1.2-5.8-1.1-1.5-2.5-2.3-4.5-2.3z"/><path d="m114 260.9c0 3 1.9 5 4.4 5 1.9 0 3.8-1 5.3-2.6l.2-8.3h-.5c-7 0-9.4 1.3-9.4 5.9z"/><path d="m123.5 108.2c0-2.9-.3-4.4-1.2-5.8-1-1.5-2.4-2.3-4.4-2.3-3.8 0-6 3-6 8.4v.1h11.7v-.4z"/><path d="m0 0v300h300v-300zm105.6 97.9c3.2-3.6 7-5.2 12.1-5.2 4.4 0 8.7 1.5 11.2 4.1 3.5 3.6 5.1 8.8 5.1 16.9v2.3h-22.3v.3c0 6 2.9 9.3 8.1 9.3 3.5 0 6.7-1.3 9.8-3.8l3.9 6c-4.5 3.6-9.1 5.3-14.5 5.3-11.1 0-18.2-7.8-18.2-19.9 0-6.9 1.4-11.5 4.8-15.3zm-34-21.6c.4 2.1.7 5.7.7 9.4v7.7c0 1.2-.2 2.8-.2 3.2 2.6-2.5 7-4.2 10.9-4.2 4.9 0 8.8 2.1 10 5.5.8 2.2 1 3.5 1 7.2v27h-9.9v-25.9c0-3.8-1-5.3-3.9-5.3-2.5 0-5.7 1.5-8 3.5v27.6h-10.1v-44.5c0-3.6-.3-7.2-.8-8.8zm-52.5 3.5h37.7l-1.7 8.7h-12.5v43.6h-10.7v-43.6h-12.8zm-.4 69.3h11.2l4.5 20.6c2.1 9.8 2.8 17.2 2.8 17.2.2-2 1.1-9.5 2.7-16.7l4.7-21.2h11.5l4.8 23.4c1 4.9 2.3 13.9 2.3 13.9.1-1.7 1.8-12.3 2.8-17.4l4.3-19.9h11.1l-12.7 52.8h-11.5l-4.7-21.3c-1.6-7-2.3-13.8-2.5-15.2 0 0-.9 7.4-2.5 15.1l-4.4 21.5h-12zm25.4 123.7c-7.2 0-12.8-2.3-17.1-7.2-4.2-4.7-6.3-11.1-6.3-18.8 0-6.6 1.1-11.8 3.5-16.3 4.1-7.6 11.6-12.1 20.1-12.1 5.2 0 10.4 1.7 13.3 4.1l-4.7 7.1c-2.6-2-5.4-2.9-8.4-2.9-3.6 0-7 1.7-8.9 4.5-2 3-2.9 7.4-2.9 13.5 0 7.1.6 11.1 2.2 14 2.1 3.8 5.6 5.9 10.1 5.9 3.1 0 5.9-.9 9-3.4l4.8 6.6c-4.3 3.5-8.7 5-14.7 5zm52.3-.9h-9.9v-25.9c0-3.8-1-5.3-3.9-5.3-2.5 0-5.7 1.5-8 3.5v27.6h-10.3v-44.6c0-3.6-.3-7.2-.8-8.8l10.3-2.4c.4 2.1.7 5.7.7 9.4v7.7c0 1.2-.1 2.8-.1 3.3 2.6-2.5 7-4.2 10.9-4.2 4.9 0 8.8 2.1 10 5.5.8 2.2 1 3.5 1 7.2v27zm-15.6-89.4c0-6.9 1.4-11.5 4.8-15.3 3.2-3.6 7-5.2 12.1-5.2 4.4 0 8.7 1.5 11.1 4.1 3.6 3.6 5.1 8.8 5.1 16.9v2.3h-22.1v.3c0 5.9 2.9 9.3 8.1 9.3 3.5 0 6.7-1.3 9.8-3.8l3.9 6c-4.4 3.6-9.1 5.3-14.5 5.3-11.1.1-18.3-7.7-18.3-19.9zm51.2 91.4c-2.3-1-4.4-2.7-5.4-4.7-.8.8-1.6 1.5-2.3 2-1.9 1.4-4.6 2.1-7.8 2.1-8.6 0-13.3-4.4-13.3-12 0-9 6.3-13.3 18.5-13.3.7 0 1.4 0 2.3.1v-1.6c0-4.3-.8-5.7-4.5-5.7-3.2 0-7 1.6-11.1 4.4l-4.3-7.2c2-1.3 3.6-2 6.3-3.2 3.8-1.6 7-2.3 10.5-2.3 6.5 0 10.9 2.4 12.4 6.7.5 1.6.8 2.8.7 6.9l-.2 13v.7c0 4.1.7 5.7 3.6 7.9zm-.1-71c-8.6 0-13.3-4.4-13.3-12.1 0-9 6.3-13.2 18.5-13.2.8 0 1.4 0 2.3.1v-1.7c0-4.3-.8-5.7-4.5-5.7-3.2 0-7 1.6-11.1 4.4l-4.3-7.3c2-1.3 3.5-2 6.3-3.1 3.8-1.6 7-2.3 10.5-2.3 6.5 0 10.9 2.4 12.4 6.7.5 1.6.7 2.8.7 6.9l-.2 13v.7c0 4.1.7 5.7 3.6 7.9l-5.3 6.2c-2.3-1-4.4-2.7-5.4-4.7-.8.7-1.6 1.5-2.3 2-2 1.4-4.7 2.2-7.9 2.2zm41.5 69h-10v-25.1c0-4.4-.8-5.6-3.4-5.6-2 0-4.7 1.4-7 3.5v27.3h-10v-28c0-3.3-.4-6.5-1.3-9l9-2.6c.9 1.6 1.4 3.2 1.4 4.8 1.5-1 2.8-2 4.4-2.9 2-1 4.7-1.6 6.9-1.6 4.3 0 8.1 2.3 9.3 5.6.5 1.4.8 3.1.8 5.5v28.1zm-3.7-69.6c-5.1 0-9.2-2.3-10.4-5.7-.6-1.7-.7-2.4-.7-6v-20.9h-3.8v-6.9h3.8c0-3.8 0-6.3.4-9.1l10.2-2.6c-.4 3.5-.6 7.7-.6 11.7h9l-2.6 6.9h-6.5v19.4c0 4.9.9 6.2 4.4 6.2.9 0 1.8-.2 3.6-.7l1.3 6c-2.8 1.2-5.5 1.7-8.1 1.7zm43 69.6h-9.9v-25.1c0-4.4-.8-5.6-3.4-5.6-2 0-4.7 1.4-7 3.5v27.3h-10.1v-28c0-3.3-.4-6.5-1.3-9l9-2.6c.9 1.6 1.4 3.2 1.4 4.8 1.5-1 2.8-2 4.4-2.9 2-1 4.7-1.6 6.9-1.6 4.3 0 8.1 2.3 9.3 5.6.6 1.4.8 3.1.8 5.5v28.1zm2.1-70.5h-9.9v-25.9c0-3.8-1-5.3-3.9-5.3-2.5 0-5.7 1.5-8 3.6v27.6h-10.2v-44.6c0-3.6-.3-7.2-.7-8.8l10.3-2.4c.4 2.1.7 5.7.7 9.4v7.7c0 1.2-.2 2.8-.2 3.2 2.6-2.5 7-4.1 10.9-4.1 4.9 0 8.8 2.1 10 5.5.7 2.2 1 3.5 1 7.2zm38.2 54.4h-22.3v.3c0 5.9 2.9 9.3 8.1 9.3 3.5 0 6.7-1.3 9.8-3.8l3.9 6c-4.4 3.6-9.1 5.3-14.5 5.3-11.1 0-18.2-7.8-18.2-19.9 0-6.9 1.4-11.5 4.8-15.3 3.2-3.6 7-5.2 12.1-5.2 4.4 0 8.7 1.5 11.1 4.1 3.5 3.6 5.1 8.8 5.1 16.9v2.3zm.2-70.5h-22.3v.3c0 5.9 2.9 9.3 8.1 9.3 3.5 0 6.7-1.3 9.8-3.8l3.9 6c-4.4 3.6-9.1 5.3-14.5 5.3-11.1 0-18.2-7.8-18.2-20 0-6.9 1.4-11.5 4.8-15.3 3.2-3.6 7-5.2 12.1-5.2 4.4 0 8.7 1.5 11.2 4.1 3.5 3.6 5.1 8.8 5.1 16.9zm16.8 87.5c-4.3 0-7.8-2-9-5.3-.8-1.9-.9-3.1-.9-8.6v-28.8c0-5-.1-8.1-.5-11.6l10.3-2.3c.4 2.1.5 4.6.5 10v30.1c0 6.6.1 7.5.7 8.6.4.7 1.2 1 2 1 .4 0 .6 0 1.1-.1l1.7 6c-1.6.6-3.7 1-5.9 1zm9.4-101.1c-1-.5-1.8-.7-2.9-.7-2.3 0-4.3 1-6.2 3.2v27.3h-10.1v-25.8c0-5.2-.6-9.1-1.4-11.3l9-2.4c.9 1.6 1.4 3.3 1.6 5.5 1.4-2 3.8-4.1 5.7-4.9.8-.4 2.2-.6 3.3-.6 1.5 0 2.2.1 3.8.8z"/></g></svg>