<svg enable-background="new 0 0 620 620" height="620" viewBox="0 0 620 620" width="620" xmlns="http://www.w3.org/2000/svg"><path d="m610 309.959c0 165.684-134.336 300.041-300.009 300.041-165.688 0-299.991-134.357-299.991-300.041 0-15.65 1.19-31.014 3.515-46.002h64.064v177.284h60.773v-177.283h68.082v177.284h58.058v-132.169h1.247l77.308 115.757c7.692 12.208 14.778 16.41 29.556 16.41h39.909v-177.282h68.306v177.284h59.775v-177.284h65.869c2.324 14.987 3.538 30.351 3.538 46.001zm-405.671-89.541h58.81c14.806 0 22.195 4.165 29.584 16.386l60.732 94.607h2.102v-110.993h240.715c-38.079-121.928-151.877-210.418-286.363-210.418-134.472 0-248.297 88.49-286.378 210.418z"/></svg>