<svg enable-background="new 0 0 1000 392" viewBox="0 0 1000 392" xmlns="http://www.w3.org/2000/svg"><g fill="#fff"><path d="m609 158.3c-9.4 0-17.2 8.5-17.8 27.1h33.9c.1-19.8-7-27.1-16.1-27.1z"/><path d="m566.7 302.7-6.1 20.8h12.1z"/><path d="m335.3 229.1c0 7.7 4.3 10.4 10.1 10.4 5.5 0 12.3-2.5 17.5-6.4v-19.3h-5.2c-17.8 0-22.4 8.2-22.4 15.3z"/><path d="m837.7.5h-837.2v230c0 119.8 92 161 161 161h676.2l89.7-195zm-638.3 160.5c0 2.5-1.5 4-4 4h-33.4v50.6c0 12.3 6.4 17.2 17.8 17.2h15.6c2.5 0 4 1.5 4 4v30c0 2.5-1.5 4-4 4h-23.6c-33.4 0-56.1-18.7-56.1-55.8v-125c0-2.1 1.2-4 3.4-4.6l37.4-10.7c4-1.2 5.5.6 5.5 3.1v49.2h33.4c2.5 0 4 1.5 4 4zm58.9 105.8c0 2.5-1.5 4-4 4h-38.3c-2.5 0-4-1.5-4-4v-135.8c0-2.5 1.5-4 4-4h27.6c1.8 0 3.4.9 4 2.8l7.7 18.4c12.3-17.5 32.2-21.1 43.2-21.1 2.4 0 4 1.5 4 4v30c0 2.5-1.5 4-4 4-26.2 0-40.1 12.3-40.1 12.3v89.4zm150.9 0c0 2.5-1.2 4-3.4 4h-28.2c-1.8 0-3.1-.3-3.7-1.8l-4.9-11.6c-12.3 10.4-21.2 15.6-39.2 15.6-23.6 0-41.5-17.6-41.5-45.8 0-31.9 18.6-42.3 64.2-42.3h10.4v-2.6c0-14.1-6.7-17.2-21.2-17.2h-26c-2.5 0-4-1.5-4-4v-30c0-2.5 1.5-4 4-4h33.9c43.2 0 59.5 16.2 59.5 63.7v76zm41.6 1.5-39.8-137.6c-.6-2.4.9-3.7 3.1-3.7h43.2c1.8 0 3.1.9 3.4 3.1l20.5 104.2 19.8-104.2c.3-1.8 1.5-3.1 3.7-3.1h40.8c1.8 0 2.8 1.2 2.1 3.4l-40.2 138.2c-.3 1.2-.9 2.1-2.8 2.1h-50.6c-1.4.1-2.9-.6-3.2-2.4zm44.3 70.7c-4.2 2.2-8.3 3.2-12.7 3.2-12.6 0-20.7-8.8-20.7-25.1s8-25.1 20.7-25.1c4.3 0 8.5 1 12.7 3.2.5.4.4.8.2 1.3l-2.7 5.9c-.3.5-.7.5-1.1.3-2.7-1.5-5.2-2.4-8.6-2.4-6.9 0-12.1 4.5-12.1 16.8s5.1 16.8 12.1 16.8c3.3 0 5.9-.9 8.6-2.4.5-.2.8-.2 1.1.3l2.7 5.9c.3.5.3.9-.2 1.3zm44.5 1.9c0 .5-.3.8-.8.8h-7.2c-.5 0-.8-.3-.8-.8v-19.4c0-.4-.1-.5-.5-.5h-16.9c-.4 0-.5.1-.5.5v19.4c0 .5-.3.8-.7.8h-7.2c-.5 0-.8-.3-.8-.8v-47.6c0-.5.3-.8.8-.8h7.2c.5 0 .7.3.7.8v19.4c0 .4.1.5.5.5h16.9c.4 0 .5-.1.5-.5v-19.4c0-.5.3-.8.8-.8h7.2c.5 0 .8.3.8.8zm70.6-216c38.6 0 61.1 26.5 62 72v11.8c0 3.4-.5 4.2-4.4 4.2h-76.3c.9 15.8 11.1 20.3 23.6 20.3 11.8 0 25.2-3.3 32.2-6 2.5-1 4.2-.4 5 2l10.1 28.1c.6 2.1-.6 3.7-2.4 4.6-10 4.5-29.1 9.6-46.5 9.6-38.9 0-68.3-25.5-68.3-69.5.1-43.1 21.9-77.1 65-77.1zm-23.8 216.8h-7.8c-.4 0-.7-.3-.8-.7l-2.9-9.8h-16.6l-2.9 9.8c-.1.4-.3.7-.8.7h-7.2c-.5 0-.8-.4-.6-1l14.7-47.8c.1-.3.3-.5.8-.5h9.1c.5 0 .7.2.8.5l14.7 47.7c.3.7 0 1.1-.5 1.1zm44.5-.8c0 .5-.3.8-.7.8h-7.2c-.5 0-.9-.2-1.2-.7l-17.7-32v31.9c0 .5-.3.8-.8.8h-7.2c-.5 0-.8-.3-.8-.8v-47.6c0-.5.3-.8.8-.8h7.2c.6 0 .9.2 1.1.7l17.7 32v-31.9c0-.5.3-.8.8-.8h7.2c.5 0 .7.3.7.8v47.6zm48.2 0c0 .5-.3.8-.7.8h-7.2c-.5 0-.9-.2-1.2-.7l-17.7-32v31.9c0 .5-.3.8-.8.8h-7.2c-.5 0-.8-.3-.8-.8v-47.6c0-.5.3-.8.8-.8h7.2c.6 0 .9.2 1.1.7l17.7 32v-31.9c0-.5.3-.8.8-.8h7.2c.5 0 .7.3.7.8v47.6zm2.7-253.9c0-2.1 1.2-4 3.4-4.6l37.4-10.7c4-1.2 5.5.6 5.5 3.1v140.8c0 11 5.5 17.2 17.8 17.2h9.5c2.5 0 4 1.5 4 4v30c0 2.5-1.5 4-4 4h-17.5c-35.2 0-56.1-20.5-56.1-55.8zm39.2 212.4c0 .5-.3.8-.8.8h-19.5c-.3 0-.5.1-.5.5v12.6h15.6c.5 0 .8.3.8.8v6c0 .5-.3.8-.8.8h-15.6v12.6c0 .4.1.5.5.5h19.5c.5 0 .8.3.8.7v6.1c0 .5-.3.8-.8.8h-28c-.5 0-.8-.3-.8-.8v-47.6c0-.5.3-.8.8-.8h28c.5 0 .8.3.8.8zm38.3 41.5c0 .5-.3.8-.8.8h-26.9c-.5 0-.8-.3-.8-.8v-47.6c0-.5.3-.8.8-.8h7.2c.5 0 .7.3.7.8v40.2c0 .4.1.5.5.5h18.4c.5 0 .8.3.8.7v6.2z"/><path d="m913.5.5h-53.9l90.7 195.5-89.7 195.5h50.7l88.2-195.5z"/></g></svg>