<svg height="251.47701" viewBox="0 0 331.82999 251.477" width="331.82999" xmlns="http://www.w3.org/2000/svg"><path d="m20.427734 205.0981c-3.209218 0-5.792968 2.58375-5.792968 5.79296v34.79297c0 3.20922 2.58375 5.79297 5.792968 5.79297h305.609376c3.20922 0 5.79297-2.58375 5.79297-5.79297v-34.79297c0-3.20921-2.58375-5.79296-5.79297-5.79296z"/><path d="m290.92749 210.62935c-1.08881 0-1.9668.87603-1.9668 1.96484v5.8125h-5.95117c-.45089 0-.81445.36162-.81445.8125v4.88477c0 .45089.36356.8125.81445.8125h5.95117v19.8418c0 1.08881.87799 1.96484 1.9668 1.96484h3.95508c1.08881 0 1.96484-.87603 1.96484-1.96484v-19.8418h5.38867l6.27149 19.78516c.2953.93172.83442 1.7539 1.87109 1.7539h2.39258c.11713 0 .23432-.0137.34961-.0332.11466.0193.23116.0332.34765.0332h2.39063c1.03667 0 1.57773-.82218 1.87304-1.7539l7.78711-24.57422c.29531-.93173-.83442-1.75391-1.87109-1.75391h-5.05859c-1.03667 0-1.6743.80014-1.87305 1.75391l-3.59766 17.26367-3.59765-17.26367c-.0236-.11304-.0736-.21267-.10938-.32032v-.58789c0-.45088-.36356-.8125-.81445-.8125h-.61524c-.10586-.0191-.21608-.0332-.33203-.0332h-5.05859c-.11598 0-.23342.0136-.34961.0332h-5.39453v-5.8125c0-1.08881-.87603-1.96484-1.96484-1.96484z" fill="#fff"/><path d="m237.01538.00044c-2.07217 0-3.74024 1.6680639-3.74024 3.7402349v38.1914061 37.705078 33.839851 75.51171 1.60157c0 2.07217 1.66807 3.74023 3.74024 3.74023h90.66015c2.07217 0 3.74024-1.66806 3.74024-3.74023v-38.19141c0-2.07217-1.66807-3.74023-3.74024-3.74023h-37.25586v-29.88672h31.14649c2.93344 0 5.29492-2.36149 5.29492-5.29492v-33.839851c0-2.933439-2.36148-5.294922-5.29492-5.294922h-31.14649v-28.669922h37.25586c2.07217 0 3.74024-1.668064 3.74024-3.740234v-38.1914061c0-2.072171-1.66807-3.7402349-3.74024-3.7402349h-90.66015z"/><path d="m5.4196711.00044c-2.9602523 0-5.93600997 2.4413966-5.34374997 5.3417969l37.49999987 183.6464831c.592262 2.90041 2.383498 5.3418 5.34375 5.3418h30.056641 14.560547c2.960252 0 4.840203-2.42468 5.34375-5.3418l18.806641-108.945311 20.28906 108.945311c.54196 2.91023 2.3835 5.3418 5.34376 5.3418h14.96093 15.09571 18.96093c2.96025 0 4.84021-2.42468 5.34375-5.3418l31.69922-183.6464831c.50354-2.9171109-2.38351-5.3417969-5.34375-5.3417969h-42.25586c-2.96025 0-4.96802 2.405488-5.34375 5.3417969l-15.32852 116.6454831-17.88917-116.6454831c-.44874-2.9260413-2.3835-5.3417969-5.34375-5.3417969h-12.63778-25.057468c-2.960252 0-4.555957 2.4882944-5.34375 5.3417969l-19.467613 115.7424931-15.549137-115.7424931c-.394147-2.9338954-2.383498-5.3417969-5.34375-5.3417969z"/></svg>